<?xml version="1.0" encoding="utf-8"?>
<!-- Generator: Adobe Illustrator 22.0.1, SVG Export Plug-In . SVG Version: 6.00 Build 0)  -->
<svg version="1.0"
	 id="svg2" inkscape:version="0.91 r13725" sodipodi:docname="passive mult.svg" xmlns:cc="http://creativecommons.org/ns#" xmlns:dc="http://purl.org/dc/elements/1.1/" xmlns:inkscape="http://www.inkscape.org/namespaces/inkscape" xmlns:rdf="http://www.w3.org/1999/02/22-rdf-syntax-ns#" xmlns:sodipodi="http://sodipodi.sourceforge.net/DTD/sodipodi-0.dtd" xmlns:svg="http://www.w3.org/2000/svg"
	 xmlns="http://www.w3.org/2000/svg" xmlns:xlink="http://www.w3.org/1999/xlink" x="0px" y="0px" viewBox="0 0 990 765"
	 style="enable-background:new 0 0 990 765;" xml:space="preserve">
<style type="text/css">
	.st0{fill:none;}
	.st1{fill:#FF0000;}
	.st2{fill:none;stroke:#0000FF;stroke-width:8.066480e-02;}
	.st3{fill:none;stroke:#0000FF;stroke-width:9.000000e-02;}
	.st4{opacity:0.98;fill:none;stroke:#0000FF;stroke-width:7.200000e-02;stroke-miterlimit:4.2449;enable-background:new    ;}
	.st5{display:none;fill:url(#New_Pattern);}
</style>
<pattern  y="765" width="113.4" height="116.3" patternUnits="userSpaceOnUse" id="New_Pattern" viewBox="4.5 -122.3 113.4 116.3" style="overflow:visible;">
	<g>
		<rect x="4.5" y="-122.3" class="st0" width="113.4" height="116.3"/>
		<g>
			<path class="st1" d="M28.6-5.9c-0.6-1.6-1.8-3.5-3.7-3.4c-0.9,0-1.7,0.4-2.3,1.1c-0.5,0.5-0.7,1.6-1.3,1.9
				c-1.7,1-0.1,2.7,1.4,1.9c1-0.6,1.4-1.3,1.9-2.3c0,0,0.1-0.1,0.1-0.1c0,0,0,0,0.1,0c0.4,0.6,0.8,1,1,1.7
				C26.3-3.7,29.1-4.5,28.6-5.9z"/>
			<path class="st1" d="M37.5-6.1c-0.7-1.2-3.4,0-2.6,1.4c0.1,0.2-0.5,1.3-0.6,1.4C34-2.6,33.7-2,33.5-1.4c-0.3,0.7,0.3,1.2,0.9,1.3
				c0.7,0.1,1.5-0.3,1.8-0.9c0.4-0.9,0.8-1.8,1.2-2.8C37.8-4.6,38-5.3,37.5-6.1z"/>
			<path class="st1" d="M35.3-12.3c0,1.4-2.9,1.8-2.9,0.2c0-0.4,0-0.7-0.2-1.1c0-0.1-0.1-0.1-0.1-0.2c-0.5,0-1.3,0.7-1.7,0.9
				c-0.5,0.3-1.6,0.3-2-0.3c-0.4-0.6,0.1-1.3,0.6-1.6c1.2-0.8,2.9-1.7,4.4-1.3C35-15,35.3-13.6,35.3-12.3z"/>
			<path class="st1" d="M18.1-17.4c0.5-0.5,0.2-1.3-0.4-1.5c-0.7-0.3-1.5,0-2,0.6c-0.7,0.9-1.8,1.9-2.1,3c-0.4,1.1,0.6,1.7,1.1,2.5
				c0.7,1.2,3.4,0,2.6-1.4c-0.1-0.3-0.3-0.5-0.5-0.7c-0.3-0.3-0.3-0.2-0.1-0.5C16.9-16.1,17.6-16.8,18.1-17.4z"/>
			<path class="st1" d="M30.3-21c-0.2-1.4-1.7-2.2-3.1-2.1c-0.8,0-1.5,0.4-2,0.9c-0.5,0.5-0.8,1.1-1.3,1.5c-0.5,0.4-0.6,1.2-0.1,1.6
				c0.6,0.5,1.5,0.3,2.1-0.2c0.4-0.3,1-0.9,1.3-1.4c0.1,0,0.1,0.1,0.1,0.1c0.1,0.1,0.1,0.3,0.1,0.4c0.1,0.7,1.2,0.8,1.7,0.7
				C29.9-19.7,30.5-20.3,30.3-21z"/>
			<path class="st1" d="M40-18.6c-0.4-0.7-1.1-1.3-1.4-2c-0.3-1,0.5-2,1-2.7c1.1-1.5-1.6-2.1-2.5-1c-0.8,1.1-1.7,2.4-1.6,3.8
				c0.1,1.4,1.2,2.1,1.8,3.3C38.1-16,40.8-17.2,40-18.6z"/>
			<path class="st1" d="M44.4-8.6c-0.1-0.3-0.3-0.6-0.6-0.9c-0.1-0.1-0.3-0.3-0.4-0.4c-0.2-0.1-0.3-0.3-0.2,0
				c-0.5-1.4-3.3-0.6-2.9,0.8c0.1,0.3,0.3,0.6,0.6,0.8c0.2,0.1,0.4,0.2,0.6,0.4c0.4,0.5,0.2,1.3,0.1,1.9c-0.1,0.7,0.8,1.1,1.4,1
				c0.7-0.1,1.4-0.5,1.5-1.3C44.7-7,44.8-7.9,44.4-8.6z"/>
			<path class="st1" d="M10-9c-0.5-1.4-3.4-0.6-2.9,0.8c0.5,1.3,0.5,2.7-0.3,3.9c-1,1.6,1.7,2.2,2.5,1C10.4-5.1,10.7-7.1,10-9z"/>
			<path class="st1" d="M26.2-28.5c-0.3-1.1-1.5-1.4-2.4-1.1c-0.9,0.3-1.5,1.1-2.1,1.9c-0.1,0-0.1,0.1-0.2,0.1
				c-1.2,0.6-1.5,2.1-1.3,3.4c0.3,1.5,3.2,0.7,2.9-0.8c0-0.1,0-0.3,0-0.4c0.2,0,0.3,0,0.5,0c0.6,0,1.1-0.2,1.6-0.5
				C25.9-26.5,26.5-27.5,26.2-28.5z"/>
			<path class="st1" d="M55.3-6.9c-1.1-0.9-3.5,0.7-2.1,1.8c0.7,0.6,1,1.5,0.9,2.4c-0.1,1.6,2.8,1.2,2.9-0.2
				C57.1-4.5,56.4-5.9,55.3-6.9z"/>
			<path class="st1" d="M49.1-22.8c-0.5,1-1.3,1.7-2.4,2c-0.6,0.2-1.5,0-1.7-0.7c-0.1-0.3,0-0.7,0.2-0.9c0.2-0.3,0.5-0.5,0.9-0.6
				c0,0,0,0,0.1,0c0,0,0,0,0.1,0c0,0,0,0,0.1-0.1c0,0,0,0,0,0c0,0,0.1-0.1,0.1-0.1c0,0,0,0,0,0c0.4-0.6,1.1-1,1.8-0.9
				c0.3,0,0.7,0.2,0.8,0.5C49.1-23.4,49.2-23.1,49.1-22.8z"/>
			<path class="st1" d="M60.1-12.4c-0.2-0.9-0.4-1.7-0.6-2.6c-0.1-0.3-0.6-1.8-0.4-2.1c0.5-0.5,0.2-1.3-0.4-1.5
				c-0.7-0.3-1.6,0-2,0.6c-0.6,0.8-0.5,1.6-0.3,2.5c0.3,1.3,0.6,2.6,0.9,3.9C57.6-10.2,60.4-11,60.1-12.4z"/>
			<path class="st1" d="M48.8-29.9c-0.8-1.8-2.9-2.7-4.8-2c-0.6,0.2-1.3,0.8-1.1,1.5c0.2,0.7,1.1,0.9,1.7,0.7c0.3-0.1,0.4-0.1,0.7,0
				c0.3,0.1,0.5,0.3,0.6,0.6c0.3,0.7,1.1,0.9,1.7,0.7C48.2-28.6,49.1-29.2,48.8-29.9z"/>
			<g>
				<path class="st1" d="M57.7-25C57.7-25,57.7-25,57.7-25C57.7-25,57.7-25,57.7-25C57.7-25,57.7-25,57.7-25z"/>
				<path class="st1" d="M57.4-25.8C57.4-25.8,57.4-25.8,57.4-25.8C57.4-25.8,57.4-25.8,57.4-25.8C57.4-25.8,57.4-25.8,57.4-25.8z"
					/>
				<path class="st1" d="M57.7-25C57.7-25,57.7-25,57.7-25C57.6-25,57.6-25,57.7-25C57.6-25,57.6-25,57.7-25c0,0-0.1,0-0.1-0.1
					c-0.1-0.1-0.2-0.2-0.2-0.4c0-0.1,0-0.2,0-0.3c0-0.1,0-0.1,0-0.1c0,0,0,0-0.1,0c0,0,0,0,0.1,0c0,0,0,0,0,0c0.6-0.2,1.2-0.8,1-1.5
					c-0.2-0.7-1.1-0.9-1.7-0.7c-1.4,0.4-2.5,1.7-2.3,3.2c0.2,1.4,1.7,2.1,3,2.1c0.7,0,1.5-0.5,1.5-1.3C59-24.7,58.3-25,57.7-25z"/>
			</g>
			<path class="st1" d="M36.3-32.9c-0.6-0.5-1.5-0.2-2.1,0.2c-0.9,0.7-1.9,1.5-2.3,2.6c-0.4,1.3,0.1,2.4,0.8,3.4
				c0.8,1.2,3.5,0,2.6-1.4c-0.4-0.6-0.8-1.2-0.5-1.9c0.2-0.6,0.9-1,1.4-1.3C36.8-31.7,36.9-32.5,36.3-32.9z"/>
			<path class="st1" d="M21.1-31.2c-0.6,2-3,2.2-4.7,2c-0.7-0.1-1.2-0.7-0.9-1.3c0.3-0.7,1.1-1,1.8-0.9c0.2,0,0.4,0.1,0.7,0.1
				c0.1,0,0.2,0,0.3,0c0-0.1,0.1-0.1,0.1-0.2C18.7-32.9,21.6-32.8,21.1-31.2z"/>
			<path class="st1" d="M27.1-37.6c-1.3-0.1-2.5,0.1-3.5,0.8c-0.5,0.4-0.6,1.2-0.1,1.6c0.6,0.5,1.5,0.3,2.1-0.2c0,0,0.4,0,0.5,0
				c0,0,0.1,0,0.2,0c0,1.3,2.4,1.2,2.8,0C29.5-36.6,28.4-37.5,27.1-37.6z"/>
			<path class="st1" d="M10.4-27.1c-0.4-0.6-1.4-0.6-2-0.3c-2.1,1.1-4,4.6-2.3,6.7c0.9,1.1,3.6-0.2,2.6-1.4
				c-0.5-0.6-0.4-1.2-0.1-1.8c0.2-0.5,0.7-1.4,1.2-1.6C10.3-25.8,10.8-26.5,10.4-27.1z"/>
			<g>
				<path class="st1" d="M50.2-13C50.3-13,50.3-13,50.2-13C50.2-13,50.2-13,50.2-13c-0.1-0.1-0.2-0.2-0.2-0.3
					c0.1,0.1-0.1-0.3-0.1-0.3c0,0,0-0.3,0-0.3c0,0.1,0.1-0.1,0-0.1c0,0,0.1-0.2,0.1-0.2c0.5-0.5,0.2-1.3-0.4-1.5
					c-0.7-0.3-1.5,0-2,0.6c-1,1.2-0.8,2.9,0.4,3.9C49.2-10.3,51.6-11.9,50.2-13z"/>
				<path class="st1" d="M15.5-6.5C15.6-6.5,15.6-6.5,15.5-6.5L15.5-6.5z"/>
			</g>
		</g>
		<g>
			<path class="st1" d="M85.3-5.9c-0.6-1.6-1.8-3.5-3.7-3.4c-0.9,0-1.7,0.4-2.3,1.1c-0.5,0.5-0.7,1.6-1.3,1.9
				c-1.7,1-0.1,2.7,1.4,1.9c1-0.6,1.4-1.3,1.9-2.3c0,0,0.1-0.1,0.1-0.1c0,0,0,0,0.1,0c0.4,0.6,0.8,1,1,1.7C83-3.7,85.8-4.5,85.3-5.9
				z"/>
			<path class="st1" d="M94.2-6.1c-0.7-1.2-3.4,0-2.6,1.4c0.1,0.2-0.5,1.3-0.6,1.4c-0.3,0.6-0.6,1.3-0.8,1.9
				c-0.3,0.7,0.3,1.2,0.9,1.3c0.7,0.1,1.5-0.3,1.8-0.9c0.4-0.9,0.8-1.8,1.2-2.8C94.5-4.6,94.7-5.3,94.2-6.1z"/>
			<path class="st1" d="M92-12.3c0,1.4-2.9,1.8-2.9,0.2c0-0.4,0-0.7-0.2-1.1c0-0.1-0.1-0.1-0.1-0.2c-0.5,0-1.3,0.7-1.7,0.9
				c-0.5,0.3-1.6,0.3-2-0.3c-0.4-0.6,0.1-1.3,0.6-1.6c1.2-0.8,2.9-1.7,4.4-1.3C91.7-15,92-13.6,92-12.3z"/>
			<path class="st1" d="M74.8-17.4c0.5-0.5,0.2-1.3-0.4-1.5c-0.7-0.3-1.5,0-2,0.6c-0.7,0.9-1.8,1.9-2.1,3c-0.4,1.1,0.6,1.7,1.1,2.5
				c0.7,1.2,3.4,0,2.6-1.4c-0.1-0.3-0.3-0.5-0.5-0.7c-0.3-0.3-0.3-0.2-0.1-0.5C73.6-16.1,74.3-16.8,74.8-17.4z"/>
			<path class="st1" d="M87-21c-0.2-1.4-1.7-2.2-3.1-2.1c-0.8,0-1.5,0.4-2,0.9c-0.5,0.5-0.8,1.1-1.3,1.5c-0.5,0.4-0.6,1.2-0.1,1.6
				c0.6,0.5,1.5,0.3,2.1-0.2c0.4-0.3,1-0.9,1.3-1.4c0.1,0,0.1,0.1,0.1,0.1c0.1,0.1,0.1,0.3,0.1,0.4c0.1,0.7,1.2,0.8,1.7,0.7
				C86.6-19.7,87.2-20.3,87-21z"/>
			<path class="st1" d="M96.7-18.6c-0.4-0.7-1.1-1.3-1.4-2c-0.3-1,0.5-2,1-2.7c1.1-1.5-1.6-2.1-2.5-1c-0.8,1.1-1.7,2.4-1.6,3.8
				c0.1,1.4,1.2,2.1,1.8,3.3C94.8-16,97.5-17.2,96.7-18.6z"/>
			<path class="st1" d="M101.1-8.6c-0.1-0.3-0.3-0.6-0.6-0.9c-0.1-0.1-0.3-0.3-0.4-0.4c-0.2-0.1-0.3-0.3-0.2,0
				c-0.5-1.4-3.3-0.6-2.9,0.8c0.1,0.3,0.3,0.6,0.6,0.8c0.2,0.1,0.4,0.2,0.6,0.4c0.4,0.5,0.2,1.3,0.1,1.9c-0.1,0.7,0.8,1.1,1.4,1
				c0.7-0.1,1.4-0.5,1.5-1.3C101.3-7,101.5-7.9,101.1-8.6z"/>
			<path class="st1" d="M66.7-9c-0.5-1.4-3.4-0.6-2.9,0.8c0.5,1.3,0.5,2.7-0.3,3.9c-1,1.6,1.7,2.2,2.5,1C67.1-5.1,67.4-7.1,66.7-9z"
				/>
			<path class="st1" d="M82.9-28.5c-0.3-1.1-1.5-1.4-2.4-1.1c-0.9,0.3-1.5,1.1-2.1,1.9c-0.1,0-0.1,0.1-0.2,0.1
				c-1.2,0.6-1.5,2.1-1.3,3.4c0.3,1.5,3.2,0.7,2.9-0.8c0-0.1,0-0.3,0-0.4c0.2,0,0.3,0,0.5,0c0.6,0,1.1-0.2,1.6-0.5
				C82.6-26.5,83.2-27.5,82.9-28.5z"/>
			<path class="st1" d="M112-6.9c-1.1-0.9-3.5,0.7-2.1,1.8c0.7,0.6,1,1.5,0.9,2.4c-0.1,1.6,2.8,1.2,2.9-0.2
				C113.8-4.5,113.1-5.9,112-6.9z"/>
			<path class="st1" d="M105.8-22.8c-0.5,1-1.3,1.7-2.4,2c-0.6,0.2-1.5,0-1.7-0.7c-0.1-0.3,0-0.7,0.2-0.9c0.2-0.3,0.5-0.5,0.9-0.6
				c0,0,0,0,0.1,0c0,0,0,0,0.1,0c0,0,0,0,0.1-0.1c0,0,0,0,0,0c0,0,0.1-0.1,0.1-0.1c0,0,0,0,0,0c0.4-0.6,1.1-1,1.8-0.9
				c0.3,0,0.7,0.2,0.8,0.5C105.8-23.4,105.9-23.1,105.8-22.8z"/>
			<path class="st1" d="M116.8-12.4c-0.2-0.9-0.4-1.7-0.6-2.6c-0.1-0.3-0.6-1.8-0.4-2.1c0.5-0.5,0.2-1.3-0.4-1.5
				c-0.7-0.3-1.6,0-2,0.6c-0.6,0.8-0.5,1.6-0.3,2.5c0.3,1.3,0.6,2.6,0.9,3.9C114.3-10.2,117.1-11,116.8-12.4z"/>
			<path class="st1" d="M105.5-29.9c-0.8-1.8-2.9-2.7-4.8-2c-0.6,0.2-1.3,0.8-1.1,1.5c0.2,0.7,1.1,0.9,1.7,0.7
				c0.3-0.1,0.4-0.1,0.7,0c0.3,0.1,0.5,0.3,0.6,0.6c0.3,0.7,1.1,0.9,1.7,0.7C104.9-28.6,105.8-29.2,105.5-29.9z"/>
			<g>
				<path class="st1" d="M114.4-25C114.4-25,114.4-25,114.4-25C114.3-25,114.3-25,114.4-25C114.4-25,114.4-25,114.4-25z"/>
				<path class="st1" d="M114.1-25.8C114.1-25.8,114.1-25.8,114.1-25.8C114.1-25.8,114.1-25.8,114.1-25.8
					C114.1-25.8,114.1-25.8,114.1-25.8z"/>
				<path class="st1" d="M114.4-25C114.4-25,114.4-25,114.4-25C114.3-25,114.3-25,114.4-25C114.3-25,114.3-25,114.4-25
					c0,0-0.1,0-0.1-0.1c-0.1-0.1-0.2-0.2-0.2-0.4c0-0.1,0-0.2,0-0.3c0-0.1,0-0.1,0-0.1c0,0,0,0-0.1,0c0,0,0,0,0.1,0c0,0,0,0,0,0
					c0.6-0.2,1.2-0.8,1-1.5c-0.2-0.7-1.1-0.9-1.7-0.7c-1.4,0.4-2.5,1.7-2.3,3.2c0.2,1.4,1.7,2.1,3,2.1c0.7,0,1.5-0.5,1.5-1.3
					C115.7-24.7,115-25,114.4-25z"/>
			</g>
			<path class="st1" d="M93-32.9c-0.6-0.5-1.5-0.2-2.1,0.2c-0.9,0.7-1.9,1.5-2.3,2.6c-0.4,1.3,0.1,2.4,0.8,3.4
				c0.8,1.2,3.5,0,2.6-1.4c-0.4-0.6-0.8-1.2-0.5-1.9c0.2-0.6,0.9-1,1.4-1.3C93.5-31.7,93.6-32.5,93-32.9z"/>
			<path class="st1" d="M77.8-31.2c-0.6,2-3,2.2-4.7,2c-0.7-0.1-1.2-0.7-0.9-1.3c0.3-0.7,1.1-1,1.8-0.9c0.2,0,0.4,0.1,0.7,0.1
				c0.1,0,0.2,0,0.3,0c0-0.1,0.1-0.1,0.1-0.2C75.4-32.9,78.2-32.8,77.8-31.2z"/>
			<path class="st1" d="M83.8-37.6c-1.3-0.1-2.5,0.1-3.5,0.8c-0.5,0.4-0.6,1.2-0.1,1.6c0.6,0.5,1.5,0.3,2.1-0.2c0,0,0.4,0,0.5,0
				c0,0,0.1,0,0.2,0c0,1.3,2.4,1.2,2.8,0C86.2-36.6,85.1-37.5,83.8-37.6z"/>
			<path class="st1" d="M67.1-27.1c-0.4-0.6-1.4-0.6-2-0.3c-2.1,1.1-4,4.6-2.3,6.7c0.9,1.1,3.6-0.2,2.6-1.4
				c-0.5-0.6-0.4-1.2-0.1-1.8c0.2-0.5,0.7-1.4,1.2-1.6C67-25.8,67.5-26.5,67.1-27.1z"/>
			<g>
				<path class="st1" d="M106.9-13C106.9-13,106.9-13,106.9-13C106.9-13,106.9-13,106.9-13c-0.1-0.1-0.2-0.2-0.2-0.3
					c0.1,0.1-0.1-0.3-0.1-0.3c0,0,0-0.3,0-0.3c0,0.1,0.1-0.1,0-0.1c0,0,0.1-0.2,0.1-0.2c0.5-0.5,0.2-1.3-0.4-1.5
					c-0.7-0.3-1.5,0-2,0.6c-1,1.2-0.8,2.9,0.4,3.9C105.9-10.3,108.3-11.9,106.9-13z"/>
				<path class="st1" d="M72.2-6.5C72.2-6.5,72.3-6.5,72.2-6.5L72.2-6.5z"/>
			</g>
		</g>
		<g>
			<path class="st1" d="M9.2-64.2c-0.7-1.2-3.4,0-2.6,1.4C6.7-62.6,6-61.6,6-61.4c-0.3,0.6-0.6,1.3-0.8,1.9
				c-0.3,0.7,0.3,1.2,0.9,1.3c0.7,0.1,1.5-0.3,1.8-0.9C8.3-60,8.7-61,9.1-61.9C9.5-62.7,9.6-63.4,9.2-64.2z"/>
			<path class="st1" d="M7-70.4c0,1.4-2.9,1.8-2.9,0.2c0-0.4,0-0.7-0.2-1.1c0-0.1-0.1-0.1-0.1-0.2c-0.5,0-1.3,0.7-1.7,0.9
				c-0.5,0.3-1.6,0.3-2-0.3c-0.4-0.6,0.1-1.3,0.6-1.6c1.2-0.8,2.9-1.7,4.4-1.3C6.6-73.2,6.9-71.8,7-70.4z"/>
			<path class="st1" d="M9.9-52.4c-0.5,0.6-1.3,0.8-2,0.6c-0.1,0-0.4-0.1-0.7-0.1c0,0.3,0,0.8,0,0.8c0,0.4,0,0.7-0.2,1
				c-0.4,0.7-1.1,1.1-1.8,0.9c-0.6-0.1-1.3-0.7-0.9-1.3c0.2-0.4,0-1,0-1.5c0.1-0.6,0.5-1.2,1-1.6c1.3-1,2.8-0.8,4.2-0.4
				C10.2-53.7,10.3-52.9,9.9-52.4z"/>
			<path class="st1" d="M11.7-76.7c-0.4-0.7-1.1-1.3-1.4-2c-0.3-1,0.5-2,1-2.7c1.1-1.5-1.6-2.1-2.5-1c-0.8,1.1-1.7,2.4-1.6,3.8
				c0.1,1.4,1.2,2.1,1.8,3.3C9.7-74.1,12.4-75.3,11.7-76.7z"/>
			<g>
				<path class="st1" d="M18.9-61.3c-0.6-0.4-1.6-0.3-2.1,0.2c0.1-0.1-0.2,0.1-0.3,0.1c-0.1,0-0.5,0.1-0.7,0.1
					c-0.5,0.1-1,0.3-1.4,0.7c-1.1,1-0.7,2.6-0.6,3.9c0.1,0.7,0.7,1.1,1.4,1c0.6,0,1.6-0.5,1.5-1.3c0-0.6-0.1-1.1-0.1-1.7
					c0-0.1,0-0.3,0-0.4c-0.1,0.1-0.7-0.3-0.1-0.1c0,0,0.1,0,0.1,0c0-0.1,0-0.1-0.1-0.2c0,0.1,0.1,0.1,0.1,0.2c0.3,0,0.7-0.2,0.9-0.2
					c0.5-0.1,0.9-0.4,1.3-0.7C19.3-60.1,19.5-60.8,18.9-61.3z"/>
				<path class="st1" d="M16.6-58.7C16.7-58.7,16.7-58.7,16.6-58.7C16.6-58.7,16.6-58.7,16.6-58.7C16.6-58.7,16.6-58.7,16.6-58.7z"
					/>
			</g>
			<path class="st1" d="M16.1-66.8c-0.1-0.3-0.3-0.6-0.6-0.9c-0.1-0.1-0.3-0.3-0.4-0.4c-0.2-0.1-0.3-0.3-0.2,0
				c-0.5-1.4-3.3-0.6-2.9,0.8c0.1,0.3,0.3,0.6,0.6,0.8c0.2,0.1,0.4,0.2,0.6,0.4c0.4,0.5,0.2,1.3,0.1,1.9c-0.1,0.7,0.8,1.1,1.4,1
				c0.7-0.1,1.4-0.5,1.5-1.3C16.3-65.1,16.4-66,16.1-66.8z"/>
			<path class="st1" d="M10.6-46.4c-0.1,0.4-0.1,0.8-0.2,1.3c0,0.1-0.1,0.4-0.1,0.7c-0.4,0-0.7,0-1.1,0.1c-0.6,0.1-1.3,0.8-1.1,1.5
				c0.2,0.7,1.1,0.8,1.7,0.7c-0.2,0.1,0.3,0.1,0.3,0.1c0.3,0,0.6,0,0.9,0c0.7-0.1,1.4-0.4,1.8-1c0.3-0.5,0.4-1,0.5-1.5
				c0.1-0.7,0.2-1.3,0.2-2C13.7-48.2,10.8-47.9,10.6-46.4z"/>
			<path class="st1" d="M17.4-51.6c-1.3-0.6-3.2,1.3-1.6,2.1c-0.1-0.1,0.1,0.1,0.1,0.1c0.1,0.1,0.1,0.1,0.1,0.2c0,0,0,0,0,0
				c0,0,0,0,0,0.1c0.1,0.3,0.1,0.4,0,0.7c-0.3,0.7,0.3,1.2,0.9,1.3c0.7,0.1,1.5-0.3,1.8-0.9C19.6-49.4,18.8-50.9,17.4-51.6z"/>
			<path class="st1" d="M9.8-34.5c-0.3-0.5-0.9-0.8-1.5-1.1c0,0-0.1-0.1-0.2-0.1c-0.1-0.1-0.2-0.2-0.1-0.1c0,0,0,0-0.1-0.1
				c0.3-0.5,0-1.1-0.5-1.4c-0.7-0.3-1.5,0-2,0.6c-0.6,0.8-0.4,1.8,0.2,2.4c0.3,0.3,0.7,0.5,1,0.7c0.1,0,0.1,0.1,0.2,0.1
				c0,0,0,0,0.1,0.1c0.1,0.1,0.1,0.1,0.1,0c0.1,0.1,0.1,0.1,0.1,0.2C8-31.9,10.7-33.1,9.8-34.5z"/>
			<path class="st1" d="M26.9-65c-1.1-0.9-3.5,0.7-2.1,1.8c0.7,0.6,1,1.5,0.9,2.4c-0.1,1.6,2.8,1.2,2.9-0.2
				C28.7-62.6,28.1-64,26.9-65z"/>
			<path class="st1" d="M20.7-80.9c-0.5,1-1.3,1.7-2.4,2c-0.6,0.2-1.5,0-1.7-0.7c-0.1-0.3,0-0.7,0.2-0.9c0.2-0.3,0.5-0.5,0.9-0.6
				c0,0,0,0,0.1,0c0,0,0,0,0.1,0c0,0,0,0,0.1-0.1c0,0,0,0,0,0c0,0,0.1-0.1,0.1-0.1c0,0,0,0,0,0c0.4-0.6,1.1-1,1.8-0.9
				c0.3,0,0.7,0.2,0.8,0.5C20.8-81.6,20.8-81.2,20.7-80.9z"/>
			<path class="st1" d="M27.2-54.1c-0.3-1.5-3.2-0.7-2.9,0.8c0.1,0.4,0,0.8-0.1,1.1c-0.2,0.3-0.3,0.4-0.6,0.5c-0.6,0.3-1,1-0.6,1.6
				c0.5,0.6,1.4,0.5,2,0.3C26.6-50.5,27.6-52.4,27.2-54.1z"/>
			<path class="st1" d="M19.5-39.5c-0.4,1.3-1,2.6-2.2,3.3c-1.1,0.7-2.7,0.8-3.8,0c-1.4-1,1-2.7,2.1-1.8c0,0,0.1,0.1,0.1,0.1
				c0,0,0.1,0,0.1,0c0,0,0.1-0.2,0.2-0.2c0.4-0.5,0.5-1.1,0.7-1.7C17.1-41.2,20-41.1,19.5-39.5z"/>
			<path class="st1" d="M29.3-45.1c-0.3,0.7-1.1,1-1.8,0.9c-0.4-0.1-0.8,0.2-1.2,0.4c-0.1,0.1-0.3,0.2-0.5,0.3
				c0.3,0.4,0.1,1.1-0.3,1.4c-0.6,0.5-1.4,0.6-2.1,0.2C22.2-42.7,23-44.3,24-45c1.3-0.9,2.7-1.6,4.4-1.4
				C29-46.3,29.6-45.8,29.3-45.1z"/>
			<path class="st1" d="M31.8-70.6c-0.2-0.9-0.4-1.7-0.6-2.6c-0.1-0.3-0.6-1.8-0.4-2.1c0.5-0.5,0.2-1.3-0.4-1.5
				c-0.7-0.3-1.6,0-2,0.6c-0.6,0.8-0.5,1.6-0.3,2.5c0.3,1.3,0.6,2.6,0.9,3.9C29.2-68.3,32.1-69.1,31.8-70.6z"/>
			<path class="st1" d="M20.5-88.1c-0.8-1.8-2.9-2.7-4.8-2c-0.6,0.2-1.3,0.8-1.1,1.5c0.2,0.7,1.1,0.9,1.7,0.7c0.3-0.1,0.4-0.1,0.7,0
				c0.3,0.1,0.5,0.3,0.6,0.6c0.3,0.7,1.1,0.9,1.7,0.7C19.9-86.7,20.8-87.4,20.5-88.1z"/>
			<g>
				<path class="st1" d="M29.3-83.2C29.3-83.2,29.3-83.2,29.3-83.2C29.3-83.2,29.3-83.2,29.3-83.2C29.3-83.2,29.3-83.2,29.3-83.2z"
					/>
				<path class="st1" d="M29-84C29-84,29-84,29-84C29-84,29-84,29-84C29-84,29-84,29-84z"/>
				<path class="st1" d="M29.3-83.2C29.3-83.2,29.3-83.2,29.3-83.2C29.3-83.2,29.3-83.2,29.3-83.2C29.3-83.2,29.3-83.2,29.3-83.2
					c0,0-0.1,0-0.1-0.1c-0.1-0.1-0.2-0.2-0.2-0.4c0-0.1,0-0.2,0-0.3c0-0.1,0-0.1,0-0.1c0,0,0,0-0.1,0c0,0,0,0,0.1,0c0,0,0,0,0,0
					c0.6-0.2,1.2-0.8,1-1.5c-0.2-0.7-1.1-0.9-1.7-0.7c-1.4,0.4-2.5,1.7-2.3,3.2c0.2,1.4,1.7,2.1,3,2.1c0.7,0,1.5-0.5,1.5-1.3
					C30.7-82.8,29.9-83.2,29.3-83.2z"/>
			</g>
			<path class="st1" d="M8-91.1c-0.6-0.5-1.5-0.2-2.1,0.2C5-90.2,4-89.4,3.6-88.3c-0.4,1.3,0.1,2.4,0.8,3.4c0.8,1.2,3.5,0,2.6-1.4
				c-0.4-0.6-0.8-1.2-0.5-1.9c0.2-0.6,0.9-1,1.4-1.3C8.4-89.8,8.5-90.6,8-91.1z"/>
			<g>
				<path class="st1" d="M21.9-71.1C21.9-71.1,21.9-71.1,21.9-71.1C21.9-71.1,21.9-71.2,21.9-71.1c-0.1-0.1-0.2-0.2-0.2-0.3
					c0.1,0.1-0.1-0.3-0.1-0.3c0,0,0-0.3,0-0.3c0,0.1,0.1-0.1,0-0.1c0,0,0.1-0.2,0.1-0.2c0.5-0.5,0.2-1.3-0.4-1.5
					c-0.7-0.3-1.5,0-2,0.6c-1,1.2-0.8,2.9,0.4,3.9C20.8-68.4,23.2-70,21.9-71.1z"/>
			</g>
		</g>
		<g>
			<path class="st1" d="M57-64c-0.6-1.6-1.8-3.5-3.7-3.4c-0.9,0-1.7,0.4-2.3,1.1c-0.5,0.5-0.7,1.6-1.3,1.9c-1.7,1-0.1,2.7,1.4,1.9
				c1-0.6,1.4-1.3,1.9-2.3c0,0,0.1-0.1,0.1-0.1c0,0,0,0,0.1,0c0.4,0.6,0.8,1,1,1.7C54.6-61.8,57.5-62.7,57-64z"/>
			<path class="st1" d="M65.9-64.2c-0.7-1.2-3.4,0-2.6,1.4c0.1,0.2-0.5,1.3-0.6,1.4c-0.3,0.6-0.6,1.3-0.8,1.9
				c-0.3,0.7,0.3,1.2,0.9,1.3c0.7,0.1,1.5-0.3,1.8-0.9c0.4-0.9,0.8-1.8,1.2-2.8C66.2-62.7,66.3-63.4,65.9-64.2z"/>
			<path class="st1" d="M63.7-70.4c0,1.4-2.9,1.8-2.9,0.2c0-0.4,0-0.7-0.2-1.1c0-0.1-0.1-0.1-0.1-0.2c-0.5,0-1.3,0.7-1.7,0.9
				c-0.5,0.3-1.6,0.3-2-0.3c-0.4-0.6,0.1-1.3,0.6-1.6c1.2-0.8,2.9-1.7,4.4-1.3C63.3-73.2,63.6-71.8,63.7-70.4z"/>
			<path class="st1" d="M46.5-75.5c0.5-0.5,0.2-1.3-0.4-1.5c-0.7-0.3-1.5,0-2,0.6c-0.7,0.9-1.8,1.9-2.1,3c-0.4,1.1,0.6,1.7,1.1,2.5
				c0.7,1.2,3.4,0,2.6-1.4c-0.1-0.3-0.3-0.5-0.5-0.7c-0.3-0.3-0.3-0.2-0.1-0.5C45.2-74.2,45.9-74.9,46.5-75.5z"/>
			<path class="st1" d="M47.9-58.9c-0.3-1.5-3.1-0.7-2.9,0.8c0.1,0.6,0.1,1.3,0,1.9c-0.7-0.8-2.9,0-2.6,1.3c0.4,1.9,2.9,1.9,4.2,0.9
				C48.1-55.2,48.2-57.2,47.9-58.9z"/>
			<path class="st1" d="M52.4-51.4c-0.8-1.2-3.5,0.1-2.6,1.4c0.6,0.8,0.5,2.9-0.9,2.5c-0.7-0.2-1.6,0-2,0.6
				c-0.4,0.5-0.2,1.3,0.4,1.5c1.7,0.5,3.7,0.1,4.9-1.3C53.3-48,53.4-50,52.4-51.4z"/>
			<path class="st1" d="M66.6-52.4c-0.5,0.6-1.3,0.8-2,0.6c-0.1,0-0.4-0.1-0.7-0.1c0,0.3,0,0.8,0,0.8c0,0.4,0,0.7-0.2,1
				c-0.4,0.7-1.1,1.1-1.8,0.9c-0.6-0.1-1.3-0.7-0.9-1.3c0.2-0.4,0-1,0-1.5c0.1-0.6,0.5-1.2,1-1.6c1.3-1,2.8-0.8,4.2-0.4
				C66.8-53.7,67-52.9,66.6-52.4z"/>
			<path class="st1" d="M58.7-79.1c-0.2-1.4-1.7-2.2-3.1-2.1c-0.8,0-1.5,0.4-2,0.9c-0.5,0.5-0.8,1.1-1.3,1.5
				c-0.5,0.4-0.6,1.2-0.1,1.6c0.6,0.5,1.5,0.3,2.1-0.2c0.4-0.3,1-0.9,1.3-1.4c0.1,0,0.1,0.1,0.1,0.1c0.1,0.1,0.1,0.3,0.1,0.4
				c0.1,0.7,1.2,0.8,1.7,0.7C58.3-77.9,58.8-78.4,58.7-79.1z"/>
			<path class="st1" d="M68.4-76.7c-0.4-0.7-1.1-1.3-1.4-2c-0.3-1,0.5-2,1-2.7c1.1-1.5-1.6-2.1-2.5-1c-0.8,1.1-1.7,2.4-1.6,3.8
				c0.1,1.4,1.2,2.1,1.8,3.3C66.4-74.1,69.1-75.3,68.4-76.7z"/>
			<g>
				<path class="st1" d="M75.6-61.3c-0.6-0.4-1.6-0.3-2.1,0.2c0.1-0.1-0.2,0.1-0.3,0.1c-0.1,0-0.5,0.1-0.7,0.1
					c-0.5,0.1-1,0.3-1.4,0.7c-1.1,1-0.7,2.6-0.6,3.9c0.1,0.7,0.7,1.1,1.4,1c0.6,0,1.6-0.5,1.5-1.3c0-0.6-0.1-1.1-0.1-1.7
					c0-0.1,0-0.3,0-0.4c-0.1,0.1-0.7-0.3-0.1-0.1c0,0,0.1,0,0.1,0c0-0.1,0-0.1-0.1-0.2c0,0.1,0.1,0.1,0.1,0.2c0.3,0,0.7-0.2,0.9-0.2
					c0.5-0.1,0.9-0.4,1.3-0.7C76-60.1,76.2-60.8,75.6-61.3z"/>
				<path class="st1" d="M73.3-58.7C73.3-58.7,73.3-58.7,73.3-58.7C73.3-58.7,73.3-58.7,73.3-58.7C73.3-58.7,73.3-58.7,73.3-58.7z"
					/>
			</g>
			<path class="st1" d="M72.8-66.8c-0.1-0.3-0.3-0.6-0.6-0.9c-0.1-0.1-0.3-0.3-0.4-0.4c-0.2-0.1-0.3-0.3-0.2,0
				c-0.5-1.4-3.3-0.6-2.9,0.8c0.1,0.3,0.3,0.6,0.6,0.8c0.2,0.1,0.4,0.2,0.6,0.4c0.4,0.5,0.2,1.3,0.1,1.9c-0.1,0.7,0.8,1.1,1.4,1
				c0.7-0.1,1.4-0.5,1.5-1.3C73-65.1,73.1-66,72.8-66.8z"/>
			<path class="st1" d="M67.3-46.4c-0.1,0.4-0.1,0.8-0.2,1.3c0,0.1-0.1,0.4-0.1,0.7c-0.4,0-0.7,0-1.1,0.1c-0.6,0.1-1.3,0.8-1.1,1.5
				c0.2,0.7,1.1,0.8,1.7,0.7c-0.2,0.1,0.3,0.1,0.3,0.1c0.3,0,0.6,0,0.9,0c0.7-0.1,1.4-0.4,1.8-1c0.3-0.5,0.4-1,0.5-1.5
				c0.1-0.7,0.2-1.3,0.2-2C70.4-48.2,67.5-47.9,67.3-46.4z"/>
			<g>
				<path class="st1" d="M59.6-40.6c-0.2-0.7-0.6-1.3-0.9-1.9c-0.2-0.2-0.3-0.4-0.4-0.7c0,0,0-0.3-0.1-0.3c0,0,0-0.1,0-0.1
					c0,0-0.1,0.1-0.2,0.1c0.1,0,0.1-0.1,0.2-0.1c0,0,0.1-0.1,0.1-0.1c0.4-0.4,0.7-0.9,0.3-1.4c-0.4-0.6-1.4-0.6-2-0.3
					c-1,0.6-1.5,1.6-1.3,2.8c0.2,1.1,1.2,1.7,1.4,2.8C57.1-38.3,60-39.1,59.6-40.6z"/>
				<path class="st1" d="M58.2-43.6C58.3-43.6,58.3-43.6,58.2-43.6C58.3-43.6,58.3-43.6,58.2-43.6C58.2-43.6,58.2-43.6,58.2-43.6z"
					/>
			</g>
			<path class="st1" d="M50.8-42c-0.3-0.7-1-0.9-1.7-0.7c-0.5,0.1-1.4,0.8-1.1,1.5c0.1,0.3,0.6,1.1,0.4,1.5
				c-0.1,0.1-0.3,0.2-0.5,0.3c-0.3,0.2-0.5,0.5-0.7,0.8c-0.9,1.6,1.7,2.2,2.5,1c0.2-0.3,0.4-0.4,0.7-0.6c0.4-0.3,0.7-0.7,0.8-1.2
				C51.5-40.2,51.2-41.2,50.8-42z"/>
			<path class="st1" d="M38.3-67.2c-0.5-1.4-3.4-0.6-2.9,0.8c0.5,1.3,0.5,2.7-0.3,3.9c-1,1.6,1.7,2.2,2.5,1
				C38.7-63.2,39.1-65.2,38.3-67.2z"/>
			<path class="st1" d="M54.5-86.6c-0.3-1.1-1.5-1.4-2.4-1.1c-0.9,0.3-1.5,1.1-2.1,1.9c-0.1,0-0.1,0.1-0.2,0.1
				c-1.2,0.6-1.5,2.1-1.3,3.4c0.3,1.5,3.2,0.7,2.9-0.8c0-0.1,0-0.3,0-0.4c0.2,0,0.3,0,0.5,0c0.6,0,1.1-0.2,1.6-0.5
				C54.2-84.6,54.8-85.7,54.5-86.6z"/>
			<path class="st1" d="M74.1-51.6c-1.3-0.6-3.2,1.3-1.6,2.1c-0.1-0.1,0.1,0.1,0.1,0.1c0.1,0.1,0.1,0.1,0.1,0.2c0,0,0,0,0,0
				c0,0,0,0,0,0.1c0.1,0.3,0.1,0.4,0,0.7c-0.3,0.7,0.3,1.2,0.9,1.3c0.7,0.1,1.5-0.3,1.8-0.9C76.3-49.4,75.5-50.9,74.1-51.6z"/>
			<path class="st1" d="M66.5-34.5c-0.3-0.5-0.9-0.8-1.5-1.1c0,0-0.1-0.1-0.2-0.1c-0.1-0.1-0.2-0.2-0.1-0.1c0,0,0,0-0.1-0.1
				c0.3-0.5,0-1.1-0.5-1.4c-0.7-0.3-1.5,0-2,0.6c-0.6,0.8-0.4,1.8,0.2,2.4c0.3,0.3,0.7,0.5,1,0.7c0.1,0,0.1,0.1,0.2,0.1
				c0,0,0,0,0.1,0.1c0.1,0.1,0.1,0.1,0.1,0c0.1,0.1,0.1,0.1,0.1,0.2C64.7-31.9,67.4-33.1,66.5-34.5z"/>
			<path class="st1" d="M83.6-65c-1.1-0.9-3.5,0.7-2.1,1.8c0.7,0.6,1,1.5,0.9,2.4c-0.1,1.6,2.8,1.2,2.9-0.2
				C85.4-62.6,84.8-64,83.6-65z"/>
			<path class="st1" d="M77.4-80.9c-0.5,1-1.3,1.7-2.4,2c-0.6,0.2-1.5,0-1.7-0.7c-0.1-0.3,0-0.7,0.2-0.9c0.2-0.3,0.5-0.5,0.9-0.6
				c0,0,0,0,0.1,0c0,0,0,0,0.1,0c0,0,0,0,0.1-0.1c0,0,0,0,0,0c0,0,0.1-0.1,0.1-0.1c0,0,0,0,0,0c0.4-0.6,1.1-1,1.8-0.9
				c0.3,0,0.7,0.2,0.8,0.5C77.5-81.6,77.5-81.2,77.4-80.9z"/>
			<path class="st1" d="M38.5-40.4c-1.1-0.9-2.2-2-2-3.4c0.2-1.6,1.8-2.3,3.2-2.6c0.6-0.1,1.4,0.3,1.4,1c0,0.8-0.9,1.2-1.5,1.3
				c-0.1,0-0.1,0-0.2,0c-0.1,0.2,0,0.4,0,0.6c0.2,0.6,0.7,0.9,1.2,1.3C42-41.1,39.6-39.5,38.5-40.4z"/>
			<path class="st1" d="M37.8-53.1c-0.4-0.3-0.7-1.1-0.3-1.3c0.5-0.3,1.1-1,0.6-1.6c-0.4-0.6-1.4-0.6-2-0.3
				c-0.9,0.5-1.6,1.4-1.7,2.4c-0.1,1,0.4,2,1.2,2.6c0.6,0.4,1.5,0.3,2.1-0.2C38.2-51.9,38.4-52.7,37.8-53.1z"/>
			<path class="st1" d="M83.9-54.1c-0.3-1.5-3.2-0.7-2.9,0.8c0.1,0.4,0,0.8-0.1,1.1c-0.2,0.3-0.3,0.4-0.6,0.5c-0.6,0.3-1,1-0.6,1.6
				c0.5,0.6,1.4,0.5,2,0.3C83.3-50.5,84.3-52.4,83.9-54.1z"/>
			<path class="st1" d="M76.2-39.5c-0.4,1.3-1,2.6-2.2,3.3c-1.1,0.7-2.7,0.8-3.8,0c-1.4-1,1-2.7,2.1-1.8c0,0,0.1,0.1,0.1,0.1
				c0,0,0.1,0,0.1,0c0,0,0.1-0.2,0.2-0.2c0.4-0.5,0.5-1.1,0.7-1.7C73.8-41.2,76.7-41.1,76.2-39.5z"/>
			<path class="st1" d="M86-45.1c-0.3,0.7-1.1,1-1.8,0.9c-0.4-0.1-0.8,0.2-1.2,0.4c-0.1,0.1-0.3,0.2-0.5,0.3
				c0.3,0.4,0.1,1.1-0.3,1.4c-0.6,0.5-1.4,0.6-2.1,0.2c-1.3-0.9-0.5-2.4,0.5-3.1c1.3-0.9,2.7-1.6,4.4-1.4
				C85.7-46.3,86.3-45.8,86-45.1z"/>
			<path class="st1" d="M88.5-70.6c-0.2-0.9-0.4-1.7-0.6-2.6c-0.1-0.3-0.6-1.8-0.4-2.1c0.5-0.5,0.2-1.3-0.4-1.5
				c-0.7-0.3-1.6,0-2,0.6c-0.6,0.8-0.5,1.6-0.3,2.5c0.3,1.3,0.6,2.6,0.9,3.9C85.9-68.3,88.8-69.1,88.5-70.6z"/>
			<path class="st1" d="M77.2-88.1c-0.8-1.8-2.9-2.7-4.8-2c-0.6,0.2-1.3,0.8-1.1,1.5c0.2,0.7,1.1,0.9,1.7,0.7c0.3-0.1,0.4-0.1,0.7,0
				c0.3,0.1,0.5,0.3,0.6,0.6c0.3,0.7,1.1,0.9,1.7,0.7C76.6-86.7,77.5-87.4,77.2-88.1z"/>
			<g>
				<path class="st1" d="M86-83.2C86-83.2,86-83.2,86-83.2C86-83.2,86-83.2,86-83.2C86-83.2,86-83.2,86-83.2z"/>
				<path class="st1" d="M85.7-84C85.7-84,85.7-84,85.7-84C85.7-84,85.7-84,85.7-84C85.7-84,85.7-84,85.7-84z"/>
				<path class="st1" d="M86-83.2C86-83.2,86-83.2,86-83.2C86-83.2,86-83.2,86-83.2C86-83.2,86-83.2,86-83.2c0,0-0.1,0-0.1-0.1
					c-0.1-0.1-0.2-0.2-0.2-0.4c0-0.1,0-0.2,0-0.3c0-0.1,0-0.1,0-0.1c0,0,0,0-0.1,0c0,0,0,0,0.1,0c0,0,0,0,0,0c0.6-0.2,1.2-0.8,1-1.5
					c-0.2-0.7-1.1-0.9-1.7-0.7c-1.4,0.4-2.5,1.7-2.3,3.2c0.2,1.4,1.7,2.1,3,2.1c0.7,0,1.5-0.5,1.5-1.3C87.4-82.8,86.6-83.2,86-83.2z
					"/>
			</g>
			<path class="st1" d="M64.7-91.1c-0.6-0.5-1.5-0.2-2.1,0.2c-0.9,0.7-1.9,1.5-2.3,2.6c-0.4,1.3,0.1,2.4,0.8,3.4
				c0.8,1.2,3.5,0,2.6-1.4c-0.4-0.6-0.8-1.2-0.5-1.9c0.2-0.6,0.9-1,1.4-1.3C65.1-89.8,65.2-90.6,64.7-91.1z"/>
			<path class="st1" d="M49.4-89.3c-0.6,2-3,2.2-4.7,2c-0.7-0.1-1.2-0.7-0.9-1.3c0.3-0.7,1.1-1,1.8-0.9c0.2,0,0.4,0.1,0.7,0.1
				c0.1,0,0.2,0,0.3,0c0-0.1,0.1-0.1,0.1-0.2C47-91,49.9-91,49.4-89.3z"/>
			<path class="st1" d="M55.5-95.7c-1.3-0.1-2.5,0.1-3.5,0.8c-0.5,0.4-0.6,1.2-0.1,1.6c0.6,0.5,1.5,0.3,2.1-0.2c0,0,0.4,0,0.5,0
				c0,0,0.1,0,0.2,0c0,1.3,2.4,1.2,2.8,0C57.8-94.7,56.7-95.6,55.5-95.7z"/>
			<path class="st1" d="M38.7-85.2c-0.4-0.6-1.4-0.6-2-0.3c-2.1,1.1-4,4.6-2.3,6.7c0.9,1.1,3.6-0.2,2.6-1.4
				c-0.5-0.6-0.4-1.2-0.1-1.8c0.2-0.5,0.7-1.4,1.2-1.6C38.7-83.9,39.1-84.6,38.7-85.2z"/>
			<g>
				<path class="st1" d="M78.6-71.1C78.6-71.1,78.6-71.1,78.6-71.1C78.6-71.1,78.6-71.2,78.6-71.1c-0.1-0.1-0.2-0.2-0.2-0.3
					c0.1,0.1-0.1-0.3-0.1-0.3c0,0,0-0.3,0-0.3c0,0.1,0.1-0.1,0-0.1c0,0,0.1-0.2,0.1-0.2c0.5-0.5,0.2-1.3-0.4-1.5
					c-0.7-0.3-1.5,0-2,0.6c-1,1.2-0.8,2.9,0.4,3.9C77.5-68.4,79.9-70,78.6-71.1z"/>
				<path class="st1" d="M43.9-64.7C43.9-64.6,43.9-64.6,43.9-64.7L43.9-64.7z"/>
			</g>
		</g>
		<g>
			<path class="st1" d="M113.6-64c-0.6-1.6-1.8-3.5-3.7-3.4c-0.9,0-1.7,0.4-2.3,1.1c-0.5,0.5-0.7,1.6-1.3,1.9
				c-1.7,1-0.1,2.7,1.4,1.9c1-0.6,1.4-1.3,1.9-2.3c0,0,0.1-0.1,0.1-0.1c0,0,0,0,0.1,0c0.4,0.6,0.8,1,1,1.7
				C111.3-61.8,114.2-62.7,113.6-64z"/>
			<path class="st1" d="M120.4-70.4c0,1.4-2.9,1.8-2.9,0.2c0-0.4,0-0.7-0.2-1.1c0-0.1-0.1-0.1-0.1-0.2c-0.5,0-1.3,0.7-1.7,0.9
				c-0.5,0.3-1.6,0.3-2-0.3c-0.4-0.6,0.1-1.3,0.6-1.6c1.2-0.8,2.9-1.7,4.4-1.3C120-73.2,120.3-71.8,120.4-70.4z"/>
			<path class="st1" d="M103.2-75.5c0.5-0.5,0.2-1.3-0.4-1.5c-0.7-0.3-1.5,0-2,0.6c-0.7,0.9-1.8,1.9-2.1,3c-0.4,1.1,0.6,1.7,1.1,2.5
				c0.7,1.2,3.4,0,2.6-1.4c-0.1-0.3-0.3-0.5-0.5-0.7c-0.3-0.3-0.3-0.2-0.1-0.5C101.9-74.2,102.6-74.9,103.2-75.5z"/>
			<path class="st1" d="M104.6-58.9c-0.3-1.5-3.1-0.7-2.9,0.8c0.1,0.6,0.1,1.3,0,1.9c-0.7-0.8-2.9,0-2.6,1.3
				c0.4,1.9,2.9,1.9,4.2,0.9C104.7-55.2,104.9-57.2,104.6-58.9z"/>
			<path class="st1" d="M109.1-51.4c-0.8-1.2-3.5,0.1-2.6,1.4c0.6,0.8,0.5,2.9-0.9,2.5c-0.7-0.2-1.6,0-2,0.6
				c-0.4,0.5-0.2,1.3,0.4,1.5c1.7,0.5,3.7,0.1,4.9-1.3C110-48,110.1-50,109.1-51.4z"/>
			<path class="st1" d="M123.3-52.4c-0.5,0.6-1.3,0.8-2,0.6c-0.1,0-0.4-0.1-0.7-0.1c0,0.3,0,0.8,0,0.8c0,0.4,0,0.7-0.2,1
				c-0.4,0.7-1.1,1.1-1.8,0.9c-0.6-0.1-1.3-0.7-0.9-1.3c0.2-0.4,0-1,0-1.5c0.1-0.6,0.5-1.2,1-1.6c1.3-1,2.8-0.8,4.2-0.4
				C123.5-53.7,123.7-52.9,123.3-52.4z"/>
			<path class="st1" d="M115.4-79.1c-0.2-1.4-1.7-2.2-3.1-2.1c-0.8,0-1.5,0.4-2,0.9c-0.5,0.5-0.8,1.1-1.3,1.5
				c-0.5,0.4-0.6,1.2-0.1,1.6c0.6,0.5,1.5,0.3,2.1-0.2c0.4-0.3,1-0.9,1.3-1.4c0.1,0,0.1,0.1,0.1,0.1c0.1,0.1,0.1,0.3,0.1,0.4
				c0.1,0.7,1.2,0.8,1.7,0.7C115-77.9,115.5-78.4,115.4-79.1z"/>
			<g>
				<path class="st1" d="M116.3-40.6c-0.2-0.7-0.6-1.3-0.9-1.9c-0.2-0.2-0.3-0.4-0.4-0.7c0,0,0-0.3-0.1-0.3c0,0,0-0.1,0-0.1
					c0,0-0.1,0.1-0.2,0.1c0.1,0,0.1-0.1,0.2-0.1c0,0,0.1-0.1,0.1-0.1c0.4-0.4,0.7-0.9,0.3-1.4c-0.4-0.6-1.4-0.6-2-0.3
					c-1,0.6-1.5,1.6-1.3,2.8c0.2,1.1,1.2,1.7,1.4,2.8C113.8-38.3,116.6-39.1,116.3-40.6z"/>
				<path class="st1" d="M114.9-43.6C115-43.6,115-43.6,114.9-43.6C115-43.6,115-43.6,114.9-43.6C114.9-43.6,114.9-43.6,114.9-43.6z
					"/>
			</g>
			<path class="st1" d="M107.5-42c-0.3-0.7-1-0.9-1.7-0.7c-0.5,0.1-1.4,0.8-1.1,1.5c0.1,0.3,0.6,1.1,0.4,1.5
				c-0.1,0.1-0.3,0.2-0.5,0.3c-0.3,0.2-0.5,0.5-0.7,0.8c-0.9,1.6,1.7,2.2,2.5,1c0.2-0.3,0.4-0.4,0.7-0.6c0.4-0.3,0.7-0.7,0.8-1.2
				C108.2-40.2,107.9-41.2,107.5-42z"/>
			<path class="st1" d="M95-67.2c-0.5-1.4-3.4-0.6-2.9,0.8c0.5,1.3,0.5,2.7-0.3,3.9c-1,1.6,1.7,2.2,2.5,1
				C95.4-63.2,95.8-65.2,95-67.2z"/>
			<path class="st1" d="M111.2-86.6c-0.3-1.1-1.5-1.4-2.4-1.1c-0.9,0.3-1.5,1.1-2.1,1.9c-0.1,0-0.1,0.1-0.2,0.1
				c-1.2,0.6-1.5,2.1-1.3,3.4c0.3,1.5,3.2,0.7,2.9-0.8c0-0.1,0-0.3,0-0.4c0.2,0,0.3,0,0.5,0c0.6,0,1.1-0.2,1.6-0.5
				C110.9-84.6,111.5-85.7,111.2-86.6z"/>
			<path class="st1" d="M95.2-40.4c-1.1-0.9-2.2-2-2-3.4c0.2-1.6,1.8-2.3,3.2-2.6c0.6-0.1,1.4,0.3,1.4,1c0,0.8-0.9,1.2-1.5,1.3
				c-0.1,0-0.1,0-0.2,0c-0.1,0.2,0,0.4,0,0.6c0.2,0.6,0.7,0.9,1.2,1.3C98.7-41.1,96.3-39.5,95.2-40.4z"/>
			<path class="st1" d="M94.5-53.1c-0.4-0.3-0.7-1.1-0.3-1.3c0.5-0.3,1.1-1,0.6-1.6c-0.4-0.6-1.4-0.6-2-0.3
				c-0.9,0.5-1.6,1.4-1.7,2.4c-0.1,1,0.4,2,1.2,2.6c0.6,0.4,1.5,0.3,2.1-0.2C94.9-51.9,95.1-52.7,94.5-53.1z"/>
			<path class="st1" d="M121.4-91.1c-0.6-0.5-1.5-0.2-2.1,0.2c-0.9,0.7-1.9,1.5-2.3,2.6c-0.4,1.3,0.1,2.4,0.8,3.4
				c0.8,1.2,3.5,0,2.6-1.4c-0.4-0.6-0.8-1.2-0.5-1.9c0.2-0.6,0.9-1,1.4-1.3C121.8-89.8,121.9-90.6,121.4-91.1z"/>
			<path class="st1" d="M106.1-89.3c-0.6,2-3,2.2-4.7,2c-0.7-0.1-1.2-0.7-0.9-1.3c0.3-0.7,1.1-1,1.8-0.9c0.2,0,0.4,0.1,0.7,0.1
				c0.1,0,0.2,0,0.3,0c0-0.1,0.1-0.1,0.1-0.2C103.7-91,106.6-91,106.1-89.3z"/>
			<path class="st1" d="M112.2-95.7c-1.3-0.1-2.5,0.1-3.5,0.8c-0.5,0.4-0.6,1.2-0.1,1.6c0.6,0.5,1.5,0.3,2.1-0.2c0,0,0.4,0,0.5,0
				c0,0,0.1,0,0.2,0c0,1.3,2.4,1.2,2.8,0C114.5-94.7,113.4-95.6,112.2-95.7z"/>
			<path class="st1" d="M95.4-85.2c-0.4-0.6-1.4-0.6-2-0.3c-2.1,1.1-4,4.6-2.3,6.7c0.9,1.1,3.6-0.2,2.6-1.4
				c-0.5-0.6-0.4-1.2-0.1-1.8c0.2-0.5,0.7-1.4,1.2-1.6C95.4-83.9,95.8-84.6,95.4-85.2z"/>
			<g>
				<path class="st1" d="M100.6-64.7C100.6-64.6,100.6-64.6,100.6-64.7L100.6-64.7z"/>
			</g>
		</g>
		<g>
			<path class="st1" d="M28.6-122.2c-0.6-1.6-1.8-3.5-3.7-3.4c-0.9,0-1.7,0.4-2.3,1.1c-0.5,0.5-0.7,1.6-1.3,1.9
				c-1.7,1-0.1,2.7,1.4,1.9c1-0.6,1.4-1.3,1.9-2.3c0,0,0.1-0.1,0.1-0.1c0,0,0,0,0.1,0c0.4,0.6,0.8,1,1,1.7
				C26.3-120,29.1-120.8,28.6-122.2z"/>
			<path class="st1" d="M37.5-122.3c-0.7-1.2-3.4,0-2.6,1.4c0.1,0.2-0.5,1.3-0.6,1.4c-0.3,0.6-0.6,1.3-0.8,1.9
				c-0.3,0.7,0.3,1.2,0.9,1.3c0.7,0.1,1.5-0.3,1.8-0.9c0.4-0.9,0.8-1.8,1.2-2.8C37.8-120.8,38-121.5,37.5-122.3z"/>
			<path class="st1" d="M19.6-117.1c-0.3-1.5-3.1-0.7-2.9,0.8c0.1,0.6,0.1,1.3,0,1.9c-0.7-0.8-2.9,0-2.6,1.3
				c0.4,1.9,2.9,1.9,4.2,0.9C19.7-113.3,19.9-115.4,19.6-117.1z"/>
			<path class="st1" d="M24-109.5c-0.8-1.2-3.5,0.1-2.6,1.4c0.6,0.8,0.5,2.9-0.9,2.5c-0.7-0.2-1.6,0-2,0.6c-0.4,0.5-0.2,1.3,0.4,1.5
				c1.7,0.5,3.7,0.1,4.9-1.3C25-106.2,25-108.1,24-109.5z"/>
			<path class="st1" d="M38.3-110.5c-0.5,0.6-1.3,0.8-2,0.6c-0.1,0-0.4-0.1-0.7-0.1c0,0.3,0,0.8,0,0.8c0,0.4,0,0.7-0.2,1
				c-0.4,0.7-1.1,1.1-1.8,0.9c-0.6-0.1-1.3-0.7-0.9-1.3c0.2-0.4,0-1,0-1.5c0.1-0.6,0.5-1.2,1-1.6c1.3-1,2.8-0.8,4.2-0.4
				C38.5-111.8,38.6-111,38.3-110.5z"/>
			<g>
				<path class="st1" d="M47.3-119.4c-0.6-0.4-1.6-0.3-2.1,0.2c0.1-0.1-0.2,0.1-0.3,0.1c-0.1,0-0.5,0.1-0.7,0.1
					c-0.5,0.1-1,0.3-1.4,0.7c-1.1,1-0.7,2.6-0.6,3.9c0.1,0.7,0.7,1.1,1.4,1c0.6,0,1.6-0.5,1.5-1.3c0-0.6-0.1-1.1-0.1-1.7
					c0-0.1,0-0.3,0-0.4c-0.1,0.1-0.7-0.3-0.1-0.1c0,0,0.1,0,0.1,0c0-0.1,0-0.1-0.1-0.2c0,0.1,0.1,0.1,0.1,0.2c0.3,0,0.7-0.2,0.9-0.2
					c0.5-0.1,0.9-0.4,1.3-0.7C47.7-118.2,47.9-119,47.3-119.4z"/>
				<path class="st1" d="M45-116.8C45-116.8,45-116.8,45-116.8C45-116.9,45-116.9,45-116.8C45-116.9,45-116.8,45-116.8z"/>
			</g>
			<path class="st1" d="M44.4-124.9c-0.1-0.3-0.3-0.6-0.6-0.9c-0.1-0.1-0.3-0.3-0.4-0.4c-0.2-0.1-0.3-0.3-0.2,0
				c-0.5-1.4-3.3-0.6-2.9,0.8c0.1,0.3,0.3,0.6,0.6,0.8c0.2,0.1,0.4,0.2,0.6,0.4c0.4,0.5,0.2,1.3,0.1,1.9c-0.1,0.7,0.8,1.1,1.4,1
				c0.7-0.1,1.4-0.5,1.5-1.3C44.7-123.3,44.8-124.1,44.4-124.9z"/>
			<path class="st1" d="M38.9-104.6c-0.1,0.4-0.1,0.8-0.2,1.3c0,0.1-0.1,0.4-0.1,0.7c-0.4,0-0.7,0-1.1,0.1c-0.6,0.1-1.3,0.8-1.1,1.5
				c0.2,0.7,1.1,0.8,1.7,0.7c-0.2,0.1,0.3,0.1,0.3,0.1c0.3,0,0.6,0,0.9,0c0.7-0.1,1.4-0.4,1.8-1c0.3-0.5,0.4-1,0.5-1.5
				c0.1-0.7,0.2-1.3,0.2-2C42-106.4,39.1-106,38.9-104.6z"/>
			<g>
				<path class="st1" d="M31.3-98.7c-0.2-0.7-0.6-1.3-0.9-1.9c-0.2-0.2-0.3-0.4-0.4-0.7c0,0,0-0.3-0.1-0.3c0,0,0-0.1,0-0.1
					c0,0-0.1,0.1-0.2,0.1c0.1,0,0.1-0.1,0.2-0.1c0,0,0.1-0.1,0.1-0.1c0.4-0.4,0.7-0.9,0.3-1.4c-0.4-0.6-1.4-0.6-2-0.3
					c-1,0.6-1.5,1.6-1.3,2.8c0.2,1.1,1.2,1.7,1.4,2.8C28.8-96.5,31.6-97.3,31.3-98.7z"/>
				<path class="st1" d="M29.9-101.7C29.9-101.8,30-101.8,29.9-101.7C29.9-101.8,29.9-101.7,29.9-101.7
					C29.9-101.7,29.9-101.7,29.9-101.7z"/>
			</g>
			<path class="st1" d="M22.5-100.1c-0.3-0.7-1-0.9-1.7-0.7c-0.5,0.1-1.4,0.8-1.1,1.5c0.1,0.3,0.6,1.1,0.4,1.5
				c-0.1,0.1-0.3,0.2-0.5,0.3c-0.3,0.2-0.5,0.5-0.7,0.8c-0.9,1.6,1.7,2.2,2.5,1c0.2-0.3,0.4-0.4,0.7-0.6c0.4-0.3,0.7-0.7,0.8-1.2
				C23.2-98.4,22.9-99.3,22.5-100.1z"/>
			<path class="st1" d="M10-125.3c-0.5-1.4-3.4-0.6-2.9,0.8c0.5,1.3,0.5,2.7-0.3,3.9c-1,1.6,1.7,2.2,2.5,1
				C10.4-121.3,10.7-123.4,10-125.3z"/>
			<path class="st1" d="M45.8-109.7c-1.3-0.6-3.2,1.3-1.6,2.1c-0.1-0.1,0.1,0.1,0.1,0.1c0.1,0.1,0.1,0.1,0.1,0.2c0,0,0,0,0,0
				c0,0,0,0,0,0.1c0.1,0.3,0.1,0.4,0,0.7c-0.3,0.7,0.3,1.2,0.9,1.3c0.7,0.1,1.5-0.3,1.8-0.9C47.9-107.5,47.1-109.1,45.8-109.7z"/>
			<path class="st1" d="M38.2-92.6c-0.3-0.5-0.9-0.8-1.5-1.1c0,0-0.1-0.1-0.2-0.1c-0.1-0.1-0.2-0.2-0.1-0.1c0,0,0,0-0.1-0.1
				c0.3-0.5,0-1.1-0.5-1.4c-0.7-0.3-1.5,0-2,0.6C33.2-94,33.4-93,34-92.3c0.3,0.3,0.7,0.5,1,0.7c0.1,0,0.1,0.1,0.2,0.1
				c0,0,0,0,0.1,0.1c0.1,0.1,0.1,0.1,0.1,0c0.1,0.1,0.1,0.1,0.1,0.2C36.4-90,39-91.3,38.2-92.6z"/>
			<path class="st1" d="M55.3-123.2c-1.1-0.9-3.5,0.7-2.1,1.8c0.7,0.6,1,1.5,0.9,2.4c-0.1,1.6,2.8,1.2,2.9-0.2
				C57.1-120.7,56.4-122.2,55.3-123.2z"/>
			<path class="st1" d="M10.2-98.5c-1.1-0.9-2.2-2-2-3.4c0.2-1.6,1.8-2.3,3.2-2.6c0.6-0.1,1.4,0.3,1.4,1c0,0.8-0.9,1.2-1.5,1.3
				c-0.1,0-0.1,0-0.2,0c-0.1,0.2,0,0.4,0,0.6c0.2,0.6,0.7,0.9,1.2,1.3C13.7-99.2,11.3-97.6,10.2-98.5z"/>
			<path class="st1" d="M9.5-111.3c-0.4-0.3-0.7-1.1-0.3-1.3c0.5-0.3,1.1-1,0.6-1.6c-0.4-0.6-1.4-0.6-2-0.3
				c-0.9,0.5-1.6,1.4-1.7,2.4c-0.1,1,0.4,2,1.2,2.6c0.6,0.4,1.5,0.3,2.1-0.2C9.9-110.1,10.1-110.8,9.5-111.3z"/>
			<path class="st1" d="M55.5-112.3c-0.3-1.5-3.2-0.7-2.9,0.8c0.1,0.4,0,0.8-0.1,1.1c-0.2,0.3-0.3,0.4-0.6,0.5c-0.6,0.3-1,1-0.6,1.6
				c0.5,0.6,1.4,0.5,2,0.3C54.9-108.7,55.9-110.5,55.5-112.3z"/>
			<path class="st1" d="M47.8-97.6c-0.4,1.3-1,2.6-2.2,3.3c-1.1,0.7-2.7,0.8-3.8,0c-1.4-1,1-2.7,2.1-1.8c0,0,0.1,0.1,0.1,0.1
				c0,0,0.1,0,0.1,0c0,0,0.1-0.2,0.2-0.2c0.4-0.5,0.5-1.1,0.7-1.7C45.5-99.4,48.3-99.3,47.8-97.6z"/>
			<path class="st1" d="M57.7-103.2c-0.3,0.7-1.1,1-1.8,0.9c-0.4-0.1-0.8,0.2-1.2,0.4c-0.1,0.1-0.3,0.2-0.5,0.3
				c0.3,0.4,0.1,1.1-0.3,1.4c-0.6,0.5-1.4,0.6-2.1,0.2c-1.3-0.9-0.5-2.4,0.5-3.1c1.3-0.9,2.7-1.6,4.4-1.4
				C57.4-104.5,57.9-103.9,57.7-103.2z"/>
		</g>
		<g>
			<path class="st1" d="M85.3-122.2c-0.6-1.6-1.8-3.5-3.7-3.4c-0.9,0-1.7,0.4-2.3,1.1c-0.5,0.5-0.7,1.6-1.3,1.9
				c-1.7,1-0.1,2.7,1.4,1.9c1-0.6,1.4-1.3,1.9-2.3c0,0,0.1-0.1,0.1-0.1c0,0,0,0,0.1,0c0.4,0.6,0.8,1,1,1.7
				C83-120,85.8-120.8,85.3-122.2z"/>
			<path class="st1" d="M94.2-122.3c-0.7-1.2-3.4,0-2.6,1.4c0.1,0.2-0.5,1.3-0.6,1.4c-0.3,0.6-0.6,1.3-0.8,1.9
				c-0.3,0.7,0.3,1.2,0.9,1.3c0.7,0.1,1.5-0.3,1.8-0.9c0.4-0.9,0.8-1.8,1.2-2.8C94.5-120.8,94.7-121.5,94.2-122.3z"/>
			<path class="st1" d="M76.3-117.1c-0.3-1.5-3.1-0.7-2.9,0.8c0.1,0.6,0.1,1.3,0,1.9c-0.7-0.8-2.9,0-2.6,1.3
				c0.4,1.9,2.9,1.9,4.2,0.9C76.4-113.3,76.6-115.4,76.3-117.1z"/>
			<path class="st1" d="M80.7-109.5c-0.8-1.2-3.5,0.1-2.6,1.4c0.6,0.8,0.5,2.9-0.9,2.5c-0.7-0.2-1.6,0-2,0.6
				c-0.4,0.5-0.2,1.3,0.4,1.5c1.7,0.5,3.7,0.1,4.9-1.3C81.7-106.2,81.7-108.1,80.7-109.5z"/>
			<path class="st1" d="M94.9-110.5c-0.5,0.6-1.3,0.8-2,0.6c-0.1,0-0.4-0.1-0.7-0.1c0,0.3,0,0.8,0,0.8c0,0.4,0,0.7-0.2,1
				c-0.4,0.7-1.1,1.1-1.8,0.9c-0.6-0.1-1.3-0.7-0.9-1.3c0.2-0.4,0-1,0-1.5c0.1-0.6,0.5-1.2,1-1.6c1.3-1,2.8-0.8,4.2-0.4
				C95.2-111.8,95.3-111,94.9-110.5z"/>
			<g>
				<path class="st1" d="M104-119.4c-0.6-0.4-1.6-0.3-2.1,0.2c0.1-0.1-0.2,0.1-0.3,0.1c-0.1,0-0.5,0.1-0.7,0.1
					c-0.5,0.1-1,0.3-1.4,0.7c-1.1,1-0.7,2.6-0.6,3.9c0.1,0.7,0.7,1.1,1.4,1c0.6,0,1.6-0.5,1.5-1.3c0-0.6-0.1-1.1-0.1-1.7
					c0-0.1,0-0.3,0-0.4c-0.1,0.1-0.7-0.3-0.1-0.1c0,0,0.1,0,0.1,0c0-0.1,0-0.1-0.1-0.2c0,0.1,0.1,0.1,0.1,0.2c0.3,0,0.7-0.2,0.9-0.2
					c0.5-0.1,0.9-0.4,1.3-0.7C104.4-118.2,104.6-119,104-119.4z"/>
				<path class="st1" d="M101.7-116.8C101.7-116.8,101.7-116.8,101.7-116.8C101.7-116.9,101.7-116.9,101.7-116.8
					C101.7-116.9,101.7-116.8,101.7-116.8z"/>
			</g>
			<path class="st1" d="M101.1-124.9c-0.1-0.3-0.3-0.6-0.6-0.9c-0.1-0.1-0.3-0.3-0.4-0.4c-0.2-0.1-0.3-0.3-0.2,0
				c-0.5-1.4-3.3-0.6-2.9,0.8c0.1,0.3,0.3,0.6,0.6,0.8c0.2,0.1,0.4,0.2,0.6,0.4c0.4,0.5,0.2,1.3,0.1,1.9c-0.1,0.7,0.8,1.1,1.4,1
				c0.7-0.1,1.4-0.5,1.5-1.3C101.3-123.3,101.5-124.1,101.1-124.9z"/>
			<path class="st1" d="M95.6-104.6c-0.1,0.4-0.1,0.8-0.2,1.3c0,0.1-0.1,0.4-0.1,0.7c-0.4,0-0.7,0-1.1,0.1c-0.6,0.1-1.3,0.8-1.1,1.5
				c0.2,0.7,1.1,0.8,1.7,0.7c-0.2,0.1,0.3,0.1,0.3,0.1c0.3,0,0.6,0,0.9,0c0.7-0.1,1.4-0.4,1.8-1c0.3-0.5,0.4-1,0.5-1.5
				c0.1-0.7,0.2-1.3,0.2-2C98.7-106.4,95.8-106,95.6-104.6z"/>
			<g>
				<path class="st1" d="M88-98.7c-0.2-0.7-0.6-1.3-0.9-1.9c-0.2-0.2-0.3-0.4-0.4-0.7c0,0,0-0.3-0.1-0.3c0,0,0-0.1,0-0.1
					c0,0-0.1,0.1-0.2,0.1c0.1,0,0.1-0.1,0.2-0.1c0,0,0.1-0.1,0.1-0.1c0.4-0.4,0.7-0.9,0.3-1.4c-0.4-0.6-1.4-0.6-2-0.3
					c-1,0.6-1.5,1.6-1.3,2.8c0.2,1.1,1.2,1.7,1.4,2.8C85.4-96.5,88.3-97.3,88-98.7z"/>
				<path class="st1" d="M86.6-101.7C86.6-101.8,86.6-101.8,86.6-101.7C86.6-101.8,86.6-101.7,86.6-101.7
					C86.6-101.7,86.6-101.7,86.6-101.7z"/>
			</g>
			<path class="st1" d="M79.2-100.1c-0.3-0.7-1-0.9-1.7-0.7c-0.5,0.1-1.4,0.8-1.1,1.5c0.1,0.3,0.6,1.1,0.4,1.5
				c-0.1,0.1-0.3,0.2-0.5,0.3c-0.3,0.2-0.5,0.5-0.7,0.8c-0.9,1.6,1.7,2.2,2.5,1c0.2-0.3,0.4-0.4,0.7-0.6c0.4-0.3,0.7-0.7,0.8-1.2
				C79.9-98.4,79.6-99.3,79.2-100.1z"/>
			<path class="st1" d="M66.7-125.3c-0.5-1.4-3.4-0.6-2.9,0.8c0.5,1.3,0.5,2.7-0.3,3.9c-1,1.6,1.7,2.2,2.5,1
				C67.1-121.3,67.4-123.4,66.7-125.3z"/>
			<path class="st1" d="M102.5-109.7c-1.3-0.6-3.2,1.3-1.6,2.1c-0.1-0.1,0.1,0.1,0.1,0.1c0.1,0.1,0.1,0.1,0.1,0.2c0,0,0,0,0,0
				c0,0,0,0,0,0.1c0.1,0.3,0.1,0.4,0,0.7c-0.3,0.7,0.3,1.2,0.9,1.3c0.7,0.1,1.5-0.3,1.8-0.9C104.6-107.5,103.8-109.1,102.5-109.7z"
				/>
			<path class="st1" d="M94.9-92.6c-0.3-0.5-0.9-0.8-1.5-1.1c0,0-0.1-0.1-0.2-0.1c-0.1-0.1-0.2-0.2-0.1-0.1c0,0,0,0-0.1-0.1
				c0.3-0.5,0-1.1-0.5-1.4c-0.7-0.3-1.5,0-2,0.6c-0.6,0.8-0.4,1.8,0.2,2.4c0.3,0.3,0.7,0.5,1,0.7c0.1,0,0.1,0.1,0.2,0.1
				c0,0,0,0,0.1,0.1c0.1,0.1,0.1,0.1,0.1,0c0.1,0.1,0.1,0.1,0.1,0.2C93.1-90,95.7-91.3,94.9-92.6z"/>
			<path class="st1" d="M112-123.2c-1.1-0.9-3.5,0.7-2.1,1.8c0.7,0.6,1,1.5,0.9,2.4c-0.1,1.6,2.8,1.2,2.9-0.2
				C113.8-120.7,113.1-122.2,112-123.2z"/>
			<path class="st1" d="M66.9-98.5c-1.1-0.9-2.2-2-2-3.4c0.2-1.6,1.8-2.3,3.2-2.6c0.6-0.1,1.4,0.3,1.4,1c0,0.8-0.9,1.2-1.5,1.3
				c-0.1,0-0.1,0-0.2,0c-0.1,0.2,0,0.4,0,0.6c0.2,0.6,0.7,0.9,1.2,1.3C70.4-99.2,68-97.6,66.9-98.5z"/>
			<path class="st1" d="M66.2-111.3c-0.4-0.3-0.7-1.1-0.3-1.3c0.5-0.3,1.1-1,0.6-1.6c-0.4-0.6-1.4-0.6-2-0.3
				c-0.9,0.5-1.6,1.4-1.7,2.4c-0.1,1,0.4,2,1.2,2.6c0.6,0.4,1.5,0.3,2.1-0.2C66.6-110.1,66.8-110.8,66.2-111.3z"/>
			<path class="st1" d="M112.2-112.3c-0.3-1.5-3.2-0.7-2.9,0.8c0.1,0.4,0,0.8-0.1,1.1c-0.2,0.3-0.3,0.4-0.6,0.5
				c-0.6,0.3-1,1-0.6,1.6c0.5,0.6,1.4,0.5,2,0.3C111.6-108.7,112.6-110.5,112.2-112.3z"/>
			<path class="st1" d="M104.5-97.6c-0.4,1.3-1,2.6-2.2,3.3c-1.1,0.7-2.7,0.8-3.8,0c-1.4-1,1-2.7,2.1-1.8c0,0,0.1,0.1,0.1,0.1
				c0,0,0.1,0,0.1,0c0,0,0.1-0.2,0.2-0.2c0.4-0.5,0.5-1.1,0.7-1.7C102.2-99.4,105-99.3,104.5-97.6z"/>
			<path class="st1" d="M114.3-103.2c-0.3,0.7-1.1,1-1.8,0.9c-0.4-0.1-0.8,0.2-1.2,0.4c-0.1,0.1-0.3,0.2-0.5,0.3
				c0.3,0.4,0.1,1.1-0.3,1.4c-0.6,0.5-1.4,0.6-2.1,0.2c-1.3-0.9-0.5-2.4,0.5-3.1c1.3-0.9,2.7-1.6,4.4-1.4
				C114.1-104.5,114.6-103.9,114.3-103.2z"/>
		</g>
	</g>
</pattern>
<g id="g10" transform="matrix(0,1.25,1.25,0,0,0)" inkscape:groupmode="layer" inkscape:label="passive mult ">
	<g id="g7281" transform="translate(24.836643,-198.22368)">
		<path id="rect8691-4-7-8-7_2_" inkscape:connector-curvature="0" class="st2" d="M-24.8,199v54.2h364.2V199H-24.8z"/>
		<g id="g7029-5-8-4-5-4-0" transform="matrix(0,0.79999182,0.8,0,-338.49486,50.9055)">
			<path id="path32-3-8-0-9-5-3-6_2_" inkscape:connector-curvature="0" class="st3" d="M205.2,830.6h10.6"/>
			<path id="path34-0-1-5-8-0-3-7_2_" inkscape:connector-curvature="0" class="st3" d="M205.2,841.9h10.6"/>
			<path id="path36-6-0-5-2-2-4-7_2_" inkscape:connector-curvature="0" class="st3" d="M205.2,830.6c-3.1,0-5.7,2.5-5.7,5.7
				c0,3.1,2.5,5.7,5.7,5.7c0,0,0,0,0,0"/>
			<path id="path38-7-3-7-0-4-6-4_2_" inkscape:connector-curvature="0" class="st3" d="M215.9,841.9c3.1,0,5.7-2.5,5.7-5.7
				s-2.5-5.7-5.7-5.7"/>
		</g>
		<g id="g7029-5-8-6-6-5-0-9" transform="matrix(0,0.79999182,0.8,0,-685.69501,50.9055)">
			<path id="path32-3-8-0-6-3-3-5-2_2_" inkscape:connector-curvature="0" class="st3" d="M205.2,830.6h10.6"/>
			<path id="path34-0-1-5-0-7-9-7-7_2_" inkscape:connector-curvature="0" class="st3" d="M205.2,841.9h10.6"/>
			<path id="path36-6-0-5-1-5-5-3-8_2_" inkscape:connector-curvature="0" class="st3" d="M205.2,830.6c-3.1,0-5.7,2.5-5.7,5.7
				c0,3.1,2.5,5.7,5.7,5.7c0,0,0,0,0,0"/>
			<path id="path38-7-3-7-2-3-1-5-6_2_" inkscape:connector-curvature="0" class="st3" d="M215.9,841.9c3.1,0,5.7-2.5,5.7-5.7
				s-2.5-5.7-5.7-5.7"/>
		</g>
		<g id="g7051" transform="translate(3.2,3.2)">
			<path id="path72-0-2-8-1_2_" inkscape:connector-curvature="0" class="st4" d="M29.1,231.5c-5.1,0-9.2-4.1-9.2-9.2
				s4.1-9.2,9.2-9.2s9.2,4.1,9.2,9.2S34.2,231.5,29.1,231.5z"/>
			<path id="path72-0-2-8-1-2_2_" inkscape:connector-curvature="0" class="st4" d="M65,231.5c-5.1,0-9.2-4.1-9.2-9.2
				s4.1-9.2,9.2-9.2s9.2,4.1,9.2,9.2S70,231.5,65,231.5z"/>
			<path id="path72-0-2-8-1-9_2_" inkscape:connector-curvature="0" class="st4" d="M100.9,231.5c-5.1,0-9.2-4.1-9.2-9.2
				s4.1-9.2,9.2-9.2l0,0c5.1,0,9.2,4.1,9.2,9.2S106,231.5,100.9,231.5z"/>
			<path id="path72-0-2-8-1-2-4_2_" inkscape:connector-curvature="0" class="st4" d="M137,231.5c-5.1,0-9.2-4.1-9.2-9.2
				s4.1-9.2,9.2-9.2s9.2,4.1,9.2,9.2S142,231.5,137,231.5z"/>
			<path id="path72-0-2-8-1-0_2_" inkscape:connector-curvature="0" class="st4" d="M180.2,231.5c-5.1,0-9.2-4.1-9.2-9.2
				s4.1-9.2,9.2-9.2s9.2,4.1,9.2,9.2S185.3,231.5,180.2,231.5z"/>
			<path id="path72-0-2-8-1-2-3_2_" inkscape:connector-curvature="0" class="st4" d="M216.1,231.5c-5.1,0-9.2-4.1-9.2-9.2
				s4.1-9.2,9.2-9.2s9.2,4.1,9.2,9.2S221.1,231.5,216.1,231.5z"/>
			<path id="path72-0-2-8-1-9-1_2_" inkscape:connector-curvature="0" class="st4" d="M252,231.5c-5.1,0-9.2-4.1-9.2-9.2
				s4.1-9.2,9.2-9.2s9.2,4.1,9.2,9.2S257.1,231.5,252,231.5z"/>
			<path id="path72-0-2-8-1-2-4-6_2_" inkscape:connector-curvature="0" class="st4" d="M288.1,231.5c-5.1,0-9.2-4.1-9.2-9.2
				s4.1-9.2,9.2-9.2l0,0c5.1,0,9.2,4.1,9.2,9.2S293.1,231.5,288.1,231.5z"/>
		</g>
	</g>
</g>
<g>
	<path class="st1" d="M14.2,44.8c0.1,0.7-0.3,1.1-1.1,1.2c-0.2,0-0.7,0-1.5,0c-1.2,0-2.1-0.1-2.8,0c0.2,2.6,0.2,4,0.2,4.4
		c-0.1,0.9-0.4,1.5-1,1.5C7.4,52,7,51.6,6.9,50.7c0,0,0-0.5-0.1-1.5c0-1.1-0.1-2.2-0.2-3.2c-1.4,0.1-2.8,0.3-4.2,0.4
		c-0.9,0-1.4-0.2-1.5-0.8c-0.1-0.7,0.4-1.2,1.4-1.3c1.1-0.2,2.5-0.3,4.2-0.4c-0.1-1.4-0.3-2.8-0.4-4.2c0-0.9,0.3-1.4,0.9-1.5
		c0.7-0.1,1.2,0.3,1.4,1.4c0,0.1,0.1,0.6,0.1,1.4c0.1,1,0.2,2,0.3,2.9c2.2,0,3.5,0,4,0.1C13.7,43.9,14.2,44.3,14.2,44.8z"/>
	<path class="st1" d="M25.7,38.3c0.7-0.1,1,0.3,1.1,1.1c0,0.2,0,0.7-0.1,1.5c-0.1,1.2-0.2,2.1-0.2,2.8c2.6,0,4,0,4.4,0.1
		c0.9,0.1,1.4,0.5,1.5,1c0.1,0.7-0.4,1.1-1.3,1.2c0,0-0.5,0-1.5,0c-1.1,0-2.2,0-3.2,0c0.1,1.4,0.1,2.8,0.2,4.2
		c0,0.9-0.3,1.4-0.9,1.5c-0.7,0.1-1.1-0.4-1.2-1.5c-0.1-1.2-0.2-2.5-0.1-4.2c-1.4,0-2.8,0.1-4.2,0.1c-0.9-0.1-1.4-0.4-1.4-1
		c-0.1-0.7,0.4-1.2,1.4-1.3c0.1,0,0.6,0,1.4-0.1c1,0,2-0.1,2.9-0.2c0.1-2.2,0.2-3.5,0.3-4C24.8,38.8,25.2,38.4,25.7,38.3z"/>
	<path class="st1" d="M50.3,44.8c0.1,0.7-0.3,1.1-1.1,1.2c-0.2,0-0.7,0-1.5,0c-1.2,0-2.1-0.1-2.8,0c0.2,2.6,0.2,4,0.2,4.4
		c-0.1,0.9-0.4,1.5-1,1.5c-0.7,0.1-1.1-0.3-1.2-1.2c0,0,0-0.5-0.1-1.5c0-1.1-0.1-2.2-0.2-3.2c-1.4,0.1-2.8,0.3-4.2,0.4
		c-0.9,0-1.4-0.2-1.5-0.8c-0.1-0.7,0.4-1.2,1.4-1.3c1.1-0.2,2.5-0.3,4.2-0.4c-0.1-1.4-0.3-2.8-0.4-4.2c0-0.9,0.3-1.4,0.9-1.5
		c0.7-0.1,1.2,0.3,1.4,1.4c0,0.1,0.1,0.6,0.1,1.4c0.1,1,0.2,2,0.3,2.9c2.2,0,3.5,0,4,0.1C49.7,43.9,50.2,44.2,50.3,44.8z"/>
	<path class="st1" d="M68.2,46.2c0,0.7-0.5,1-1.3,0.9c-0.2,0-0.7-0.1-1.4-0.3c-1.1-0.3-2-0.5-2.8-0.6c-0.4,2.5-0.6,4-0.7,4.3
		c-0.2,0.9-0.7,1.3-1.3,1.3c-0.7,0-1-0.5-1-1.5c0,0,0.1-0.5,0.3-1.5c0.2-1.1,0.4-2.1,0.5-3.2c-1.4-0.2-2.8-0.3-4.2-0.5
		c-0.9-0.2-1.4-0.5-1.3-1.1c0-0.7,0.6-1.1,1.7-1c1.2,0.1,2.5,0.2,4.2,0.5c0.2-1.4,0.3-2.8,0.5-4.2c0.2-0.9,0.6-1.3,1.2-1.3
		c0.8,0,1.1,0.6,1,1.6c0,0.1-0.1,0.6-0.1,1.4c-0.1,1-0.2,2-0.3,2.9c2.1,0.4,3.5,0.7,3.9,0.9C67.9,45.2,68.3,45.6,68.2,46.2z"/>
</g>
<g>
	<path class="st1" d="M13.7,56c0.5-0.5,0.2-1.3-0.4-1.5c-0.7-0.3-1.5,0-2,0.6c-0.7,0.9-1.8,1.9-2.1,3c-0.4,1.1,0.6,1.7,1.1,2.5
		c0.7,1.2,3.4,0,2.6-1.4c-0.1-0.3-0.3-0.5-0.5-0.7c-0.3-0.3-0.3-0.2-0.1-0.5C12.4,57.3,13.1,56.6,13.7,56z"/>
	<path class="st1" d="M5.5,64.3c-0.5-1.4-3.4-0.6-2.9,0.8c0.5,1.3,0.5,2.7-0.3,3.9c-1,1.6,1.7,2.2,2.5,1C5.9,68.3,6.3,66.3,5.5,64.3
		z"/>
	<path class="st1" d="M50.8,66.5c-1.1-0.9-3.5,0.7-2.1,1.8c0.7,0.6,1,1.5,0.9,2.4c-0.1,1.6,2.8,1.2,2.9-0.2
		C52.6,68.9,52,67.5,50.8,66.5z"/>
	<path class="st1" d="M55.7,60.9c-0.2-0.9-0.4-1.7-0.6-2.6c-0.1-0.3-0.6-1.8-0.4-2.1c0.5-0.5,0.2-1.3-0.4-1.5c-0.7-0.3-1.6,0-2,0.6
		c-0.6,0.8-0.5,1.6-0.3,2.5c0.3,1.3,0.6,2.6,0.9,3.9C53.1,63.2,56,62.4,55.7,60.9z"/>
	<path class="st1" d="M45.8,60.4L45.8,60.4L45.8,60.4l-0.2-0.3c0.1,0.1-0.1-0.3-0.1-0.3l0-0.3c0,0.1,0.1-0.1,0-0.1l0.1-0.2
		c0.5-0.5,0.2-1.3-0.4-1.5c-0.7-0.3-1.5,0-2,0.6c-1,1.2-0.8,2.9,0.4,3.9C44.7,63.1,47.1,61.5,45.8,60.4z"/>
	<path class="st1" d="M11.1,66.8L11.1,66.8z"/>
	<path class="st1" d="M62.2,64.3c-0.5-1.4-3.4-0.6-2.9,0.8c0.5,1.3,0.5,2.7-0.3,3.9c-1,1.6,1.7,2.2,2.5,1
		C62.6,68.3,63,66.3,62.2,64.3z"/>
	<path class="st1" d="M67.8,66.8L67.8,66.8z"/>
	<path class="st1" d="M11.4,13.9c-0.6-0.4-1.6-0.3-2.1,0.2c0.1-0.1-0.2,0.1-0.3,0.1c-0.1,0-0.5,0.1-0.7,0.1c-0.5,0.1-1,0.3-1.4,0.7
		c-1.1,1-0.7,2.6-0.6,3.9c0.1,0.7,0.7,1.1,1.4,1c0.6,0,1.6-0.5,1.5-1.3c0-0.6-0.1-1.1-0.1-1.7c0-0.1,0-0.3,0-0.4
		c-0.1,0.1-0.7-0.3-0.1-0.1l0.1,0l-0.1-0.2l0.1,0.2c0.3,0,0.7-0.2,0.9-0.2c0.5-0.1,0.9-0.4,1.3-0.7C11.9,15.1,12,14.3,11.4,13.9z"/>
	<polygon class="st1" points="12.2,14.7 12.2,14.6 12.2,14.6 	"/>
	<path class="st1" d="M11.6,6.6c-0.1-0.3-0.3-0.6-0.6-0.9c-0.1-0.1-0.3-0.3-0.4-0.4c-0.2-0.1-0.3-0.3-0.2,0C10,3.9,7.2,4.7,7.6,6.2
		c0.1,0.3,0.3,0.6,0.6,0.8c0.2,0.1,0.4,0.2,0.6,0.4c0.4,0.5,0.2,1.3,0.1,1.9c-0.1,0.7,0.8,1.1,1.4,1c0.7-0.1,1.4-0.5,1.5-1.3
		C11.9,8.2,12,7.4,11.6,6.6z"/>
	<path class="st1" d="M64.5,17.4c-1.1-0.9-3.5,0.7-2.1,1.8c0.7,0.6,1,1.5,0.9,2.4c-0.1,1.6,2.8,1.2,2.9-0.2
		C66.3,19.8,65.7,18.4,64.5,17.4z"/>
	<path class="st1" d="M52.5,9.3c-0.6-1.6-1.8-3.5-3.7-3.4c-0.9,0-1.7,0.4-2.3,1.1c-0.5,0.5-0.7,1.6-1.3,1.9c-1.7,1-0.1,2.7,1.4,1.9
		c1-0.6,1.4-1.3,1.9-2.3l0.1-0.1l0.1,0c0.4,0.6,0.8,1,1,1.7C50.2,11.5,53,10.7,52.5,9.3z"/>
	<path class="st1" d="M61.4,9.2c-0.7-1.2-3.4,0-2.6,1.4c0.1,0.2-0.5,1.3-0.6,1.4c-0.3,0.6-0.6,1.3-0.8,1.9c-0.3,0.7,0.3,1.2,0.9,1.3
		c0.7,0.1,1.5-0.3,1.8-0.9c0.4-0.9,0.8-1.8,1.2-2.8C61.7,10.7,61.9,10,61.4,9.2z"/>
	<path class="st1" d="M43.5,14.4c-0.3-1.5-3.1-0.7-2.9,0.8c0.1,0.6,0.1,1.3,0,1.9c-0.7-0.8-2.9,0-2.6,1.3c0.4,1.9,2.9,1.9,4.2,0.9
		C43.6,18.2,43.8,16.1,43.5,14.4z"/>
	<path class="st1" d="M68.3,6.6C68.2,6.2,68,6,67.8,5.7c-0.1-0.1-0.3-0.3-0.4-0.4c-0.2-0.1-0.3-0.3-0.2,0c-0.5-1.4-3.3-0.6-2.9,0.8
		c0.1,0.3,0.3,0.6,0.6,0.8c0.2,0.1,0.4,0.2,0.6,0.4c0.4,0.5,0.2,1.3,0.1,1.9c-0.1,0.7,0.8,1.1,1.4,1c0.7-0.1,1.4-0.5,1.5-1.3
		C68.5,8.2,68.7,7.4,68.3,6.6z"/>
	<path class="st1" d="M39.4,8.7L39.4,8.7z"/>
	<path class="st1" d="M24.2,183.7c-0.6-1.6-1.8-3.5-3.7-3.4c-0.9,0-1.7,0.4-2.3,1.1c-0.5,0.5-0.7,1.6-1.3,1.9
		c-1.7,1-0.1,2.7,1.4,1.9c1-0.6,1.3-1.3,1.9-2.3l0.1-0.1l0.1,0c0.4,0.6,0.8,1,1,1.7C21.8,186,24.7,185.1,24.2,183.7z"/>
	<path class="st1" d="M33.1,183.6c-0.7-1.2-3.4,0-2.6,1.4c0.1,0.2-0.5,1.3-0.6,1.4c-0.3,0.6-0.6,1.3-0.8,1.9
		c-0.3,0.7,0.3,1.2,0.9,1.3c0.7,0.1,1.5-0.3,1.8-0.9c0.4-0.9,0.8-1.8,1.2-2.8C33.4,185.1,33.5,184.4,33.1,183.6z"/>
	<path class="st1" d="M29.1,174.1c-1.5-0.5-3.2,0.5-4.4,1.3c-0.5,0.4-1,1-0.6,1.6c0.4,0.6,1.4,0.6,2,0.3c0.4-0.2,1.2-0.9,1.7-0.9
		c0,0,0.1,0.1,0.1,0.2c0.1,0.4,0.1,0.7,0.2,1.1c0,1.6,3,1.2,2.9-0.2C30.8,176,30.5,174.6,29.1,174.1z"/>
	<path class="st1" d="M13.7,172.3c0.5-0.5,0.2-1.3-0.4-1.5c-0.7-0.3-1.5,0-2,0.6c-0.7,0.9-1.8,1.9-2.1,3c-0.4,1.1,0.6,1.7,1.1,2.5
		c0.7,1.2,3.4,0,2.6-1.4c-0.1-0.3-0.3-0.5-0.5-0.7c-0.3-0.3-0.3-0.2-0.1-0.5C12.4,173.5,13.1,172.9,13.7,172.3z"/>
	<path class="st1" d="M40,181c-0.1-0.3-0.3-0.6-0.6-0.9c-0.1-0.1-0.3-0.3-0.4-0.4c-0.2-0.1-0.3-0.3-0.2,0c-0.5-1.4-3.3-0.6-2.9,0.8
		c0.1,0.3,0.3,0.6,0.6,0.8c0.2,0.1,0.4,0.2,0.6,0.4c0.4,0.5,0.2,1.3,0.1,1.9c-0.1,0.7,0.8,1.1,1.4,1c0.7-0.1,1.4-0.5,1.5-1.3
		C40.2,182.6,40.3,181.8,40,181z"/>
	<path class="st1" d="M5.5,180.6c-0.5-1.4-3.4-0.6-2.9,0.8c0.5,1.3,0.5,2.7-0.3,3.9c-1,1.6,1.7,2.2,2.5,1
		C5.9,184.6,6.3,182.5,5.5,180.6z"/>
	<path class="st1" d="M50.8,182.8c-1.1-0.9-3.5,0.7-2.1,1.8c0.7,0.6,1,1.5,0.9,2.4c-0.1,1.6,2.8,1.2,2.9-0.2
		C52.6,185.2,52,183.7,50.8,182.8z"/>
	<path class="st1" d="M55.7,177.2c-0.2-0.9-0.4-1.7-0.6-2.6c-0.1-0.3-0.6-1.8-0.4-2.1c0.5-0.5,0.2-1.3-0.4-1.5c-0.7-0.3-1.6,0-2,0.6
		c-0.6,0.8-0.5,1.6-0.3,2.5c0.3,1.3,0.6,2.6,0.9,3.9C53.1,179.5,56,178.7,55.7,177.2z"/>
	<polygon class="st1" points="53.2,164.6 53.2,164.6 53.2,164.6 	"/>
	<polygon class="st1" points="52.9,163.8 52.9,163.8 52.9,163.8 	"/>
	<path class="st1" d="M53.2,164.6L53.2,164.6L53.2,164.6L53.2,164.6l-0.1-0.1c-0.1-0.1-0.2-0.2-0.2-0.4c0-0.1,0-0.2,0-0.3l0-0.1
		l-0.1,0l0.1,0l0,0c0.6-0.2,1.2-0.8,1-1.5s-1.1-0.9-1.7-0.7c-1.4,0.4-2.5,1.7-2.3,3.2c0.2,1.4,1.7,2.1,3,2.1c0.7,0,1.5-0.5,1.5-1.3
		C54.6,164.9,53.8,164.6,53.2,164.6z"/>
	<path class="st1" d="M16.7,162.2l-0.1,0.2l-0.3,0c-0.2,0-0.4,0-0.7-0.1c-0.7-0.1-1.6,0.2-1.8,0.9c-0.3,0.7,0.3,1.3,0.9,1.3
		c1.7,0.2,4.1-0.1,4.7-2C20,160.9,17.1,160.8,16.7,162.2z"/>
	<path class="st1" d="M5.9,162.5c-0.4-0.6-1.4-0.6-2-0.3c-2.1,1.1-4,4.6-2.3,6.7c0.9,1.1,3.6-0.2,2.6-1.4c-0.5-0.6-0.4-1.2-0.1-1.8
		c0.2-0.5,0.7-1.4,1.2-1.6C5.9,163.9,6.3,163.2,5.9,162.5z"/>
	<path class="st1" d="M45.8,176.7L45.8,176.7L45.8,176.7l-0.2-0.3c0.1,0.1-0.1-0.3-0.1-0.3l0-0.3c0,0.1,0.1-0.1,0-0.1l0.1-0.2
		c0.5-0.5,0.2-1.3-0.4-1.5c-0.7-0.3-1.5,0-2,0.6c-1,1.2-0.8,2.9,0.4,3.9C44.7,179.4,47.1,177.8,45.8,176.7z"/>
	<path class="st1" d="M11.1,183.1L11.1,183.1z"/>
	<path class="st1" d="M62.2,180.6c-0.5-1.4-3.4-0.6-2.9,0.8c0.5,1.3,0.5,2.7-0.3,3.9c-1,1.6,1.7,2.2,2.5,1
		C62.6,184.6,63,182.5,62.2,180.6z"/>
	<path class="st1" d="M62.6,162.5c-0.4-0.6-1.4-0.6-2-0.3c-2.1,1.1-4,4.6-2.3,6.7c0.9,1.1,3.6-0.2,2.6-1.4c-0.5-0.6-0.4-1.2-0.1-1.8
		c0.2-0.5,0.7-1.4,1.2-1.6C62.6,163.9,63,163.2,62.6,162.5z"/>
	<path class="st1" d="M67.8,183.1L67.8,183.1z"/>
	<path class="st1" d="M7.2,112.9c-0.4-0.7-1.1-1.3-1.4-2c-0.3-1,0.5-2,1-2.7c1.1-1.5-1.6-2.1-2.5-1c-0.8,1.1-1.7,2.4-1.6,3.8
		c0.1,1.4,1.2,2.1,1.8,3.3C5.3,115.5,8,114.3,7.2,112.9z"/>
	<path class="st1" d="M14.5,128.3c-0.6-0.4-1.6-0.3-2.1,0.2c0.1-0.1-0.2,0.1-0.3,0.1c-0.1,0-0.5,0.1-0.7,0.1c-0.5,0.1-1,0.3-1.4,0.7
		c-1.1,1-0.7,2.6-0.6,3.9c0.1,0.7,0.7,1.1,1.4,1c0.6,0,1.6-0.5,1.5-1.3c0-0.6-0.1-1.1-0.1-1.7c0-0.1,0-0.3,0-0.4
		c-0.1,0.1-0.7-0.3-0.1-0.1l0.1,0l-0.1-0.2l0.1,0.2c0.3,0,0.7-0.2,0.9-0.2c0.5-0.1,0.9-0.4,1.3-0.7
		C14.9,129.5,15.1,128.8,14.5,128.3z"/>
	<polygon class="st1" points="12.2,131 12.2,130.9 12.2,130.9 	"/>
	<path class="st1" d="M11.6,122.9c-0.1-0.3-0.3-0.6-0.6-0.9c-0.1-0.1-0.3-0.3-0.4-0.4c-0.2-0.1-0.3-0.3-0.2,0
		c-0.5-1.4-3.3-0.6-2.9,0.8c0.1,0.3,0.3,0.6,0.6,0.8c0.2,0.1,0.4,0.2,0.6,0.4c0.4,0.5,0.2,1.3,0.1,1.9c-0.1,0.7,0.8,1.1,1.4,1
		c0.7-0.1,1.4-0.5,1.5-1.3C11.9,124.5,12,123.6,11.6,122.9z"/>
	<path class="st1" d="M6.1,143.2C6.1,143.6,6,144,6,144.5c0,0.1-0.1,0.4-0.1,0.7c-0.4,0-0.7,0-1.1,0.1c-0.6,0.1-1.3,0.8-1.1,1.5
		c0.2,0.7,1.1,0.8,1.7,0.7c-0.2,0.1,0.3,0.1,0.3,0.1c0.3,0,0.6,0,0.9,0c0.7-0.1,1.4-0.4,1.8-1c0.3-0.5,0.4-1,0.5-1.5
		c0.1-0.7,0.2-1.3,0.2-2C9.2,141.4,6.3,141.8,6.1,143.2z"/>
	<path class="st1" d="M20.2,58.8c-1.3-0.6-3.3,1.3-1.6,2.1c-0.1-0.1,0.1,0.1,0.1,0.1l0.1,0.2l0,0l0,0.1c0.1,0.3,0.1,0.4,0,0.7
		c-0.3,0.7,0.3,1.2,0.9,1.3c0.7,0.1,1.5-0.3,1.8-0.9C22.3,61,21.6,59.5,20.2,58.8z"/>
	<path class="st1" d="M5.4,155.2c-0.3-0.5-0.9-0.8-1.5-1.1L3.8,154l-0.1-0.1l-0.1-0.1c0.3-0.5,0-1.1-0.5-1.4c-0.7-0.3-1.5,0-2,0.6
		c-0.6,0.8-0.4,1.8,0.2,2.4c0.3,0.3,0.7,0.5,1,0.7l0.2,0.1l0.1,0.1c0.1,0.1,0.1,0.1,0.1,0l0.1,0.2C3.6,157.7,6.2,156.5,5.4,155.2z"
		/>
	<path class="st1" d="M22.5,124.6c-1.1-0.9-3.5,0.7-2.1,1.8c0.7,0.6,1,1.5,0.9,2.4c-0.1,1.6,2.8,1.2,2.9-0.2
		C24.3,127,23.6,125.6,22.5,124.6z"/>
	<path class="st1" d="M16.2,107.8c-0.2-0.3-0.5-0.4-0.8-0.5c-0.7-0.1-1.4,0.2-1.8,0.9l0,0l-0.1,0.1l0,0l-0.1,0.1l-0.1,0l-0.1,0
		c-0.3,0.1-0.7,0.3-0.9,0.6c-0.2,0.2-0.3,0.6-0.2,0.9c0.2,0.7,1.1,0.9,1.7,0.7c1.1-0.3,1.9-1,2.4-2C16.4,108.4,16.3,108,16.2,107.8z
		"/>
	<path class="st1" d="M22.7,135.5c-0.3-1.5-3.2-0.7-2.9,0.8c0.1,0.4,0,0.8-0.1,1.1c-0.2,0.3-0.3,0.4-0.6,0.5c-0.6,0.3-1,1-0.6,1.6
		c0.5,0.6,1.4,0.5,2,0.3C22.1,139.1,23.1,137.3,22.7,135.5z"/>
	<path class="st1" d="M12.2,149.8c-0.2,0.6-0.3,1.2-0.7,1.7l-0.2,0.2l-0.1,0l-0.1-0.1c-1.1-0.9-3.5,0.8-2.1,1.8
		c1.1,0.8,2.7,0.7,3.8,0c1.2-0.7,1.8-2,2.2-3.3C15.5,148.5,12.7,148.4,12.2,149.8z"/>
	<path class="st1" d="M23.9,143.2c-1.6-0.2-3.1,0.5-4.4,1.4c-1,0.7-1.8,2.2-0.5,3.1c0.6,0.4,1.5,0.3,2.1-0.2c0.4-0.3,0.6-1,0.3-1.4
		c0.2-0.1,0.3-0.2,0.5-0.3c0.4-0.2,0.7-0.5,1.2-0.4c0.7,0.1,1.6-0.3,1.8-0.9C25.1,143.9,24.6,143.3,23.9,143.2z"/>
	<path class="st1" d="M16,101.6c-0.8-1.8-2.9-2.7-4.8-2c-0.6,0.2-1.3,0.8-1.1,1.5c0.2,0.7,1.1,0.9,1.7,0.7c0.3-0.1,0.4-0.1,0.7,0
		c0.3,0.1,0.5,0.3,0.6,0.6c0.3,0.7,1.1,0.9,1.7,0.7C15.4,102.9,16.3,102.3,16,101.6z"/>
	<path class="st1" d="M17.4,118.5L17.4,118.5L17.4,118.5l-0.2-0.3c0.1,0.1-0.1-0.3-0.1-0.3l0-0.3c0,0.1,0.1-0.1,0-0.1l0.1-0.2
		c0.5-0.5,0.2-1.3-0.4-1.5c-0.7-0.3-1.5,0-2,0.6c-1,1.2-0.8,2.9,0.4,3.9C16.4,121.2,18.8,119.6,17.4,118.5z"/>
	<path class="st1" d="M52.5,125.6c-0.6-1.6-1.8-3.5-3.7-3.4c-0.9,0-1.7,0.4-2.3,1.1c-0.5,0.5-0.7,1.6-1.3,1.9
		c-1.7,1-0.1,2.7,1.4,1.9c1-0.6,1.4-1.3,1.9-2.3l0.1-0.1l0.1,0c0.4,0.6,0.8,1,1,1.7C50.2,127.8,53,127,52.5,125.6z"/>
	<path class="st1" d="M61.4,125.4c-0.7-1.2-3.4,0-2.6,1.4c0.1,0.2-0.5,1.3-0.6,1.4c-0.3,0.6-0.6,1.3-0.8,1.9
		c-0.3,0.7,0.3,1.2,0.9,1.3c0.7,0.1,1.5-0.3,1.8-0.9c0.4-0.9,0.8-1.8,1.2-2.8C61.7,126.9,61.9,126.2,61.4,125.4z"/>
	<path class="st1" d="M57.4,116c-1.5-0.5-3.2,0.5-4.4,1.3c-0.5,0.4-1,1-0.6,1.6c0.4,0.6,1.4,0.6,2,0.3c0.4-0.2,1.2-0.9,1.7-0.9
		c0,0,0.1,0.1,0.1,0.2c0.1,0.4,0.1,0.7,0.2,1.1c0,1.6,3,1.2,2.9-0.2C59.2,117.9,58.9,116.5,57.4,116z"/>
	<path class="st1" d="M43.5,130.7c-0.3-1.5-3.1-0.7-2.9,0.8c0.1,0.6,0.1,1.3,0,1.9c-0.7-0.8-2.9,0-2.6,1.3c0.4,1.9,2.9,1.9,4.2,0.9
		C43.6,134.4,43.8,132.4,43.5,130.7z"/>
	<path class="st1" d="M47.9,138.2c-0.8-1.2-3.5,0.1-2.6,1.4c0.6,0.8,0.5,2.9-0.9,2.5c-0.7-0.2-1.6,0-2,0.6c-0.4,0.5-0.2,1.3,0.4,1.5
		c1.7,0.5,3.7,0.1,4.9-1.3C48.9,141.6,48.9,139.6,47.9,138.2z"/>
	<path class="st1" d="M61.7,135.7c-1.4-0.4-3-0.6-4.2,0.4c-0.5,0.4-0.9,0.9-1,1.6c-0.1,0.5,0.2,1.1,0,1.5c-0.4,0.6,0.4,1.3,0.9,1.3
		c0.8,0.1,1.5-0.3,1.8-0.9c0.2-0.3,0.2-0.7,0.2-1c0,0,0-0.6,0-0.8c0.3,0,0.6,0.1,0.7,0.1c0.7,0.2,1.6,0,2-0.6
		C62.5,136.7,62.4,135.9,61.7,135.7z"/>
	<path class="st1" d="M54.2,110.5c-0.2-1.4-1.7-2.2-3.1-2.1c-0.8,0-1.5,0.4-2,0.9c-0.5,0.5-0.8,1.1-1.3,1.5
		c-0.5,0.4-0.6,1.2-0.1,1.6c0.6,0.5,1.5,0.3,2.1-0.2c0.4-0.3,1-0.9,1.3-1.4l0.1,0.1c0.1,0.1,0.1,0.3,0.1,0.4
		c0.1,0.7,1.2,0.8,1.7,0.7C53.8,111.8,54.4,111.2,54.2,110.5z"/>
	<path class="st1" d="M63.9,112.9c-0.4-0.7-1.1-1.3-1.4-2c-0.3-1,0.5-2,1-2.7c1.1-1.5-1.6-2.1-2.5-1c-0.8,1.1-1.7,2.4-1.6,3.8
		c0.1,1.4,1.2,2.1,1.8,3.3C62,115.5,64.7,114.3,63.9,112.9z"/>
	<path class="st1" d="M68.3,122.9c-0.1-0.3-0.3-0.6-0.6-0.9c-0.1-0.1-0.3-0.3-0.4-0.4c-0.2-0.1-0.3-0.3-0.2,0
		c-0.5-1.4-3.3-0.6-2.9,0.8c0.1,0.3,0.3,0.6,0.6,0.8c0.2,0.1,0.4,0.2,0.6,0.4c0.4,0.5,0.2,1.3,0.1,1.9c-0.1,0.7,0.8,1.1,1.4,1
		c0.7-0.1,1.4-0.5,1.5-1.3C68.5,124.5,68.7,123.6,68.3,122.9z"/>
	<path class="st1" d="M62.8,143.2c-0.1,0.4-0.1,0.8-0.2,1.3c0,0.1-0.1,0.4-0.1,0.7c-0.4,0-0.7,0-1.1,0.1c-0.6,0.1-1.3,0.8-1.1,1.5
		c0.2,0.7,1.1,0.8,1.7,0.7c-0.2,0.1,0.3,0.1,0.3,0.1c0.3,0,0.6,0,0.9,0c0.7-0.1,1.4-0.4,1.8-1c0.3-0.5,0.4-1,0.5-1.5
		c0.1-0.7,0.2-1.3,0.2-2C65.9,141.4,63,141.8,62.8,143.2z"/>
	<path class="st1" d="M55.2,149c-0.2-0.7-0.6-1.3-0.9-1.9c-0.2-0.2-0.3-0.4-0.4-0.7l-0.1-0.3l0-0.1c0,0-0.1,0.1-0.2,0.1l0.2-0.1
		l0.1-0.1c0.4-0.4,0.7-0.9,0.3-1.4c-0.4-0.6-1.4-0.6-2-0.3c-1,0.6-1.5,1.6-1.3,2.8c0.2,1.1,1.2,1.7,1.4,2.8
		C52.6,151.3,55.5,150.5,55.2,149z"/>
	<polygon class="st1" points="53.8,146.1 53.8,146 53.8,146 	"/>
	<path class="st1" d="M20.9,19.3c-0.3-1.1-1.5-1.4-2.5-1.1c-0.9,0.3-1.5,1.1-2.1,1.9l-0.2,0.1c-1.2,0.6-1.5,2.1-1.3,3.4
		c0.3,1.5,3.2,0.7,2.9-0.8c0-0.1,0-0.3,0-0.4c0.2,0,0.3,0,0.5,0c0.6,0,1.1-0.2,1.6-0.5C20.5,21.3,21.1,20.3,20.9,19.3z"/>
	<path class="st1" d="M62.1,155.2c-0.3-0.5-0.9-0.8-1.5-1.1l-0.2-0.1l-0.1-0.1l-0.1-0.1c0.3-0.5,0-1.1-0.5-1.4c-0.7-0.3-1.5,0-2,0.6
		c-0.6,0.8-0.4,1.8,0.2,2.4c0.3,0.3,0.7,0.5,1,0.7l0.2,0.1l0.1,0.1c0.1,0.1,0.1,0.1,0.1,0l0.1,0.2C60.2,157.7,62.9,156.5,62.1,155.2
		z"/>
	<path class="st1" d="M33.4,136.5c-0.4-0.3-0.7-1.1-0.3-1.3c0.5-0.3,1.1-1,0.6-1.6c-0.4-0.6-1.4-0.6-2-0.3c-0.9,0.5-1.6,1.4-1.7,2.4
		c-0.1,1,0.4,2,1.2,2.6c0.6,0.4,1.5,0.3,2.1-0.2C33.8,137.7,34,136.9,33.4,136.5z"/>
	<path class="st1" d="M60.2,98.6c-0.6-0.5-1.5-0.2-2.1,0.2c-0.9,0.7-1.9,1.5-2.3,2.6c-0.4,1.3,0.1,2.4,0.8,3.4
		c0.8,1.2,3.5,0,2.6-1.4c-0.4-0.6-0.8-1.2-0.5-1.9c0.3-0.6,0.9-1,1.4-1.3C60.7,99.8,60.7,99,60.2,98.6z"/>
	<path class="st1" d="M42.2,100l-0.1,0.2l-0.3,0c-0.2,0-0.4,0-0.7-0.1c-0.7-0.1-1.6,0.2-1.8,0.9c-0.3,0.7,0.3,1.3,0.9,1.3
		c1.7,0.2,4.1-0.1,4.7-2C45.4,98.7,42.6,98.6,42.2,100z"/>
	<path class="st1" d="M51,93.9c-1.3-0.1-2.5,0.1-3.5,0.8c-0.5,0.4-0.6,1.2-0.1,1.6c0.6,0.5,1.5,0.3,2.1-0.2c0,0,0.4,0,0.5,0l0.2,0
		c0,1.3,2.4,1.2,2.8,0C53.4,94.9,52.3,94,51,93.9z"/>
	<path class="st1" d="M39.4,125L39.4,125z"/>
	<path class="st1" d="M6,54c-0.7-1.2-3.4,0-2.6,1.4c0.1,0.2-0.5,1.3-0.6,1.4c-0.3,0.6-0.6,1.3-0.8,1.9c-0.3,0.7,0.3,1.2,0.9,1.3
		c0.7,0.1,1.5-0.3,1.8-0.9c0.4-0.9,0.8-1.8,1.2-2.8C6.3,55.5,6.4,54.8,6,54z"/>
	<path class="st1" d="M15.1,72.6c-0.3-1.5-3.1-0.7-2.9,0.8c0.1,0.6,0.1,1.3,0,1.9c-0.7-0.8-2.9,0-2.6,1.3c0.4,1.9,2.9,1.9,4.2,0.9
		C15.3,76.3,15.4,74.2,15.1,72.6z"/>
	<path class="st1" d="M19.6,80.1c-0.8-1.2-3.5,0.1-2.6,1.4c0.6,0.8,0.5,2.9-0.9,2.5c-0.7-0.2-1.6,0-2,0.6c-0.4,0.5-0.2,1.3,0.4,1.5
		c1.7,0.5,3.7,0.1,4.9-1.3C20.5,83.5,20.6,81.5,19.6,80.1z"/>
	<path class="st1" d="M66.5,53.9c-0.6-0.4-1.6-0.3-2.1,0.2c0.1-0.1-0.2,0.1-0.3,0.1c-0.1,0-0.5,0.1-0.7,0.1c-0.5,0.1-1,0.3-1.4,0.7
		c-1.1,1-0.7,2.6-0.6,3.9c0.1,0.7,0.7,1.1,1.4,1c0.6,0,1.6-0.5,1.5-1.3c0-0.6-0.1-1.1-0.1-1.7c0-0.1,0-0.3,0-0.4
		c-0.1,0.1-0.7-0.3-0.1-0.1l0.1,0l-0.1-0.2l0.1,0.2c0.3,0,0.7-0.2,0.9-0.2c0.5-0.1,0.9-0.4,1.3-0.7C66.9,55,67.1,54.3,66.5,53.9z"/>
	<path class="st1" d="M34.5,85.1c-0.1,0.4-0.1,0.8-0.2,1.3c0,0.1-0.1,0.4-0.1,0.7c-0.4,0-0.7,0-1.1,0.1c-0.6,0.1-1.3,0.8-1.1,1.5
		c0.2,0.7,1.1,0.8,1.7,0.7c-0.2,0.1,0.3,0.1,0.3,0.1c0.3,0,0.6,0,0.9,0c0.7-0.1,1.4-0.4,1.8-1c0.3-0.5,0.4-1,0.5-1.5
		c0.1-0.7,0.2-1.3,0.2-2C37.6,83.3,34.7,83.6,34.5,85.1z"/>
	<path class="st1" d="M26.8,90.9c-0.2-0.7-0.6-1.3-0.9-1.9c-0.2-0.2-0.3-0.4-0.4-0.7L25.4,88l0-0.1c0,0-0.1,0.1-0.2,0.1l0.2-0.1
		l0.1-0.1c0.4-0.4,0.7-0.9,0.3-1.4c-0.4-0.6-1.4-0.6-2-0.3c-1,0.6-1.5,1.6-1.3,2.8c0.2,1.1,1.2,1.7,1.4,2.8
		C24.3,93.2,27.2,92.4,26.8,90.9z"/>
	<polygon class="st1" points="25.4,87.9 25.5,87.9 25.4,87.9 	"/>
	<path class="st1" d="M18,89.5c-0.3-0.7-1-0.9-1.7-0.7c-0.5,0.1-1.4,0.8-1.1,1.5c0.1,0.3,0.6,1.1,0.4,1.5c-0.1,0.1-0.3,0.2-0.5,0.3
		c-0.3,0.2-0.5,0.5-0.7,0.8c-0.9,1.6,1.7,2.2,2.5,1c0.2-0.3,0.4-0.4,0.7-0.6c0.4-0.3,0.7-0.7,0.8-1.2C18.7,91.3,18.4,90.3,18,89.5z"
		/>
	<path class="st1" d="M5.5,64.3c-0.5-1.4-3.4-0.6-2.9,0.8c0.5,1.3,0.5,2.7-0.3,3.9c-1,1.6,1.7,2.2,2.5,1C5.9,68.3,6.3,66.3,5.5,64.3
		z"/>
	<path class="st1" d="M33.7,97c-0.3-0.5-0.9-0.8-1.5-1.1l-0.2-0.1L32,95.7l-0.1-0.1c0.3-0.5,0-1.1-0.5-1.4c-0.7-0.3-1.5,0-2,0.6
		c-0.6,0.8-0.4,1.8,0.2,2.4c0.3,0.3,0.7,0.5,1,0.7l0.2,0.1l0.1,0.1c0.1,0.1,0.1,0.1,0.1,0l0.1,0.2C31.9,99.6,34.6,98.4,33.7,97z"/>
	<path class="st1" d="M50.8,66.5c-1.1-0.9-3.5,0.7-2.1,1.8c0.7,0.6,1,1.5,0.9,2.4c-0.1,1.6,2.8,1.2,2.9-0.2
		C52.6,68.9,52,67.5,50.8,66.5z"/>
	<path class="st1" d="M7.9,89.3c-0.4-0.4-1-0.7-1.2-1.3c-0.1-0.2-0.1-0.4,0-0.6l0.2,0c0.7-0.1,1.5-0.5,1.5-1.3c0-0.7-0.7-1.1-1.4-1
		c-1.4,0.2-3,0.9-3.2,2.6c-0.2,1.5,0.9,2.6,2,3.4C6.8,92,9.2,90.4,7.9,89.3z"/>
	<path class="st1" d="M5,78.4c-0.4-0.3-0.7-1.1-0.3-1.3c0.5-0.3,1.1-1,0.6-1.6c-0.4-0.6-1.4-0.6-2-0.3c-0.9,0.5-1.6,1.4-1.7,2.4
		c-0.1,1,0.4,2,1.2,2.6c0.6,0.4,1.5,0.3,2.1-0.2C5.4,79.6,5.6,78.8,5,78.4z"/>
	<path class="st1" d="M51.1,77.3c-0.3-1.5-3.2-0.7-2.9,0.8c0.1,0.4,0,0.8-0.1,1.1c-0.2,0.3-0.3,0.4-0.6,0.5c-0.6,0.3-1,1-0.6,1.6
		c0.5,0.6,1.4,0.5,2,0.3C50.5,80.9,51.5,79.1,51.1,77.3z"/>
	<path class="st1" d="M51.6,18.2c-0.2,0.6-0.3,1.2-0.7,1.7l-0.2,0.2l-0.1,0l-0.1-0.1c-1.1-0.9-3.5,0.8-2.1,1.8
		c1.1,0.8,2.7,0.7,3.8,0c1.2-0.7,1.8-2,2.2-3.3C54.9,17,52,16.9,51.6,18.2z"/>
	<path class="st1" d="M52.3,85.1c-1.6-0.2-3.1,0.5-4.4,1.4c-1,0.7-1.8,2.2-0.5,3.1c0.6,0.4,1.5,0.3,2.1-0.2c0.4-0.3,0.6-1,0.3-1.4
		c0.2-0.1,0.3-0.2,0.5-0.3c0.4-0.2,0.7-0.5,1.2-0.4c0.7,0.1,1.6-0.3,1.8-0.9C53.5,85.7,52.9,85.2,52.3,85.1z"/>
	<path class="st1" d="M62.2,64.3c-0.5-1.4-3.4-0.6-2.9,0.8c0.5,1.3,0.5,2.7-0.3,3.9c-1,1.6,1.7,2.2,2.5,1
		C62.6,68.3,63,66.3,62.2,64.3z"/>
	<path class="st1" d="M64.6,89.3c-0.4-0.4-1-0.7-1.2-1.3c-0.1-0.2-0.1-0.4,0-0.6l0.2,0c0.7-0.1,1.5-0.5,1.5-1.3c0-0.7-0.7-1.1-1.4-1
		c-1.4,0.2-3,0.9-3.2,2.6c-0.2,1.5,0.9,2.6,2,3.4C63.5,92,65.9,90.4,64.6,89.3z"/>
	<path class="st1" d="M61.7,78.4c-0.4-0.3-0.7-1.1-0.3-1.3c0.5-0.3,1.1-1,0.6-1.6c-0.4-0.6-1.4-0.6-2-0.3c-0.9,0.5-1.6,1.4-1.7,2.4
		c-0.1,1,0.4,2,1.2,2.6c0.6,0.4,1.5,0.3,2.1-0.2C62.1,79.6,62.3,78.8,61.7,78.4z"/>
	<path class="st1" d="M13.7,288.5c0.5-0.5,0.2-1.3-0.4-1.5c-0.7-0.3-1.5,0-2,0.6c-0.7,0.9-1.8,1.9-2.1,3c-0.4,1.1,0.6,1.7,1.1,2.5
		c0.7,1.2,3.4,0,2.6-1.4c-0.1-0.3-0.3-0.5-0.5-0.7c-0.3-0.3-0.3-0.2-0.1-0.5C12.4,289.8,13.1,289.1,13.7,288.5z"/>
	<path class="st1" d="M25.9,284.9c-0.2-1.4-1.7-2.2-3.1-2.1c-0.8,0-1.5,0.4-2,0.9c-0.5,0.5-0.8,1.1-1.3,1.5
		c-0.5,0.4-0.6,1.2-0.1,1.6c0.6,0.5,1.5,0.3,2.1-0.2c0.4-0.3,1-0.9,1.3-1.4l0.1,0.1c0.1,0.1,0.1,0.3,0.1,0.4
		c0.1,0.7,1.2,0.8,1.7,0.7C25.5,286.2,26,285.6,25.9,284.9z"/>
	<path class="st1" d="M35.6,287.3c-0.4-0.7-1.1-1.3-1.4-2c-0.3-1,0.5-2,1-2.7c1.1-1.5-1.6-2.1-2.5-1c-0.8,1.1-1.7,2.4-1.6,3.8
		c0.1,1.4,1.2,2.1,1.8,3.3C33.6,289.9,36.3,288.8,35.6,287.3z"/>
	<path class="st1" d="M5.5,296.9c-0.5-1.4-3.4-0.6-2.9,0.8c0.5,1.3,0.5,2.7-0.3,3.9c-1,1.6,1.7,2.2,2.5,1
		C5.9,300.9,6.3,298.8,5.5,296.9z"/>
	<path class="st1" d="M21.7,277.4c-0.3-1.1-1.5-1.4-2.4-1.1c-0.9,0.3-1.5,1.1-2.1,1.9l-0.2,0.1c-1.2,0.6-1.5,2.1-1.3,3.4
		c0.3,1.5,3.2,0.7,2.9-0.8c0-0.1,0-0.3,0-0.4c0.2,0,0.3,0,0.5,0c0.6,0,1.1-0.2,1.6-0.5C21.4,279.4,22,278.4,21.7,277.4z"/>
	<path class="st1" d="M50.8,299c-1.1-0.9-3.5,0.7-2.1,1.8c0.7,0.6,1,1.5,0.9,2.4c-0.1,1.6,2.8,1.2,2.9-0.2
		C52.6,301.5,52,300,50.8,299z"/>
	<path class="st1" d="M44.5,282.2c-0.2-0.3-0.5-0.4-0.8-0.5c-0.7-0.1-1.4,0.2-1.8,0.9l0,0l-0.1,0.1l0,0l-0.1,0.1l-0.1,0l-0.1,0
		c-0.3,0.1-0.7,0.3-0.9,0.6c-0.2,0.2-0.3,0.6-0.2,0.9c0.2,0.7,1.1,0.9,1.7,0.7c1.1-0.3,1.9-1,2.4-2
		C44.7,282.9,44.7,282.5,44.5,282.2z"/>
	<path class="st1" d="M55.7,293.5c-0.2-0.9-0.4-1.7-0.6-2.6c-0.1-0.3-0.6-1.8-0.4-2.1c0.5-0.5,0.2-1.3-0.4-1.5c-0.7-0.3-1.6,0-2,0.6
		c-0.6,0.8-0.5,1.6-0.3,2.5c0.3,1.3,0.6,2.6,0.9,3.9C53.1,295.7,56,294.9,55.7,293.5z"/>
	<path class="st1" d="M44.4,276c-0.8-1.8-2.9-2.7-4.8-2c-0.6,0.2-1.3,0.8-1.1,1.5c0.2,0.7,1.1,0.9,1.7,0.7c0.3-0.1,0.4-0.1,0.7,0
		c0.3,0.1,0.5,0.3,0.6,0.6c0.3,0.7,1.1,0.9,1.7,0.7C43.8,277.3,44.7,276.7,44.4,276z"/>
	<path class="st1" d="M51.9,271.9c-0.8-1.8-2.9-2.7-4.8-2c-0.6,0.2-1.3,0.8-1.1,1.5c0.2,0.7,1.1,0.9,1.7,0.7c0.3-0.1,0.4-0.1,0.7,0
		c0.3,0.1,0.5,0.3,0.6,0.6c0.3,0.7,1.1,0.9,1.7,0.7C51.3,273.2,52.2,272.6,51.9,271.9z"/>
	<polygon class="st1" points="53.2,280.9 53.2,280.9 53.2,280.9 	"/>
	<polygon class="st1" points="52.9,280.1 52.9,280.1 52.9,280.1 	"/>
	<path class="st1" d="M53.2,280.9L53.2,280.9L53.2,280.9L53.2,280.9l-0.1-0.1c-0.1-0.1-0.2-0.2-0.2-0.4c0-0.1,0-0.2,0-0.3l0-0.1
		l-0.1,0l0.1,0l0,0c0.6-0.2,1.2-0.8,1-1.5s-1.1-0.9-1.7-0.7c-1.4,0.4-2.5,1.7-2.3,3.2c0.2,1.4,1.7,2.1,3,2.1c0.7,0,1.5-0.5,1.5-1.3
		C54.6,281.2,53.8,280.9,53.2,280.9z"/>
	<path class="st1" d="M49.2,254L49.2,254L49.2,254L49.2,254l-0.1-0.1c-0.1-0.1-0.2-0.2-0.2-0.4c0-0.1,0-0.2,0-0.3l0-0.1l-0.1,0
		l0.1,0l0,0c0.6-0.2,1.2-0.8,1-1.5s-1.1-0.9-1.7-0.7c-1.4,0.4-2.5,1.7-2.3,3.2c0.2,1.4,1.7,2.1,3,2.1c0.7,0,1.5-0.5,1.5-1.3
		C50.6,254.3,49.9,254,49.2,254z"/>
	<path class="st1" d="M31.9,273c-0.6-0.5-1.5-0.2-2.1,0.2c-0.9,0.7-1.9,1.5-2.3,2.6c-0.4,1.3,0.1,2.4,0.8,3.4c0.8,1.2,3.5,0,2.6-1.4
		c-0.4-0.6-0.8-1.2-0.5-1.9c0.3-0.6,0.9-1,1.4-1.3C32.3,274.2,32.4,273.4,31.9,273z"/>
	<path class="st1" d="M13.8,274.4l-0.1,0.2l-0.3,0c-0.2,0-0.4,0-0.7-0.1c-0.7-0.1-1.6,0.2-1.8,0.9c-0.3,0.7,0.3,1.3,0.9,1.3
		c1.7,0.2,4.1-0.1,4.7-2C17.1,273.1,14.2,273,13.8,274.4z"/>
	<path class="st1" d="M22.7,268.3c-1.3-0.1-2.5,0.1-3.5,0.8c-0.5,0.4-0.6,1.2-0.1,1.6c0.6,0.5,1.5,0.3,2.1-0.2c0,0,0.4,0,0.5,0
		l0.2,0c0,1.3,2.4,1.2,2.8,0C25,269.3,23.9,268.4,22.7,268.3z"/>
	<path class="st1" d="M5.9,278.8c-0.4-0.6-1.4-0.6-2-0.3c-2.1,1.1-4,4.6-2.3,6.7c0.9,1.1,3.6-0.2,2.6-1.4c-0.5-0.6-0.4-1.2-0.1-1.8
		c0.2-0.5,0.7-1.4,1.2-1.6C5.9,280.1,6.3,279.4,5.9,278.8z"/>
	<path class="st1" d="M45.8,292.9L45.8,292.9L45.8,292.9l-0.2-0.3c0.1,0.1-0.1-0.3-0.1-0.3l0-0.3c0,0.1,0.1-0.1,0-0.1l0.1-0.2
		c0.5-0.5,0.2-1.3-0.4-1.5c-0.7-0.3-1.5,0-2,0.6c-1,1.2-0.8,2.9,0.4,3.9C44.7,295.7,47.1,294.1,45.8,292.9z"/>
	<path class="st1" d="M11.1,299.4L11.1,299.4z"/>
	<path class="st1" d="M62.2,296.9c-0.5-1.4-3.4-0.6-2.9,0.8c0.5,1.3,0.5,2.7-0.3,3.9c-1,1.6,1.7,2.2,2.5,1
		C62.6,300.9,63,298.8,62.2,296.9z"/>
	<path class="st1" d="M62.6,278.8c-0.4-0.6-1.4-0.6-2-0.3c-2.1,1.1-4,4.6-2.3,6.7c0.9,1.1,3.6-0.2,2.6-1.4c-0.5-0.6-0.4-1.2-0.1-1.8
		c0.2-0.5,0.7-1.4,1.2-1.6C62.6,280.1,63,279.4,62.6,278.8z"/>
	<path class="st1" d="M67.8,299.4L67.8,299.4z"/>
	<polygon class="st1" points="12.2,247.2 12.2,247.2 12.2,247.2 	"/>
	<path class="st1" d="M6.1,259.5c-0.1,0.4-0.1,0.8-0.2,1.3c0,0.1-0.1,0.4-0.1,0.7c-0.4,0-0.7,0-1.1,0.1c-0.6,0.1-1.3,0.8-1.1,1.5
		c0.2,0.7,1.1,0.8,1.7,0.7c-0.2,0.1,0.3,0.1,0.3,0.1c0.3,0,0.6,0,0.9,0c0.7-0.1,1.4-0.4,1.8-1c0.3-0.5,0.4-1,0.5-1.5
		c0.1-0.7,0.2-1.3,0.2-2C9.2,257.7,6.3,258,6.1,259.5z"/>
	<path class="st1" d="M13,254.3c-1.3-0.6-3.3,1.3-1.6,2.1c-0.1-0.1,0.1,0.1,0.1,0.1l0.1,0.2l0,0l0,0.1c0.1,0.3,0.1,0.4,0,0.7
		c-0.3,0.7,0.3,1.2,0.9,1.3c0.7,0.1,1.5-0.3,1.8-0.9C15.1,256.5,14.3,255,13,254.3z"/>
	<path class="st1" d="M5.4,271.4c-0.3-0.5-0.9-0.8-1.5-1.1l-0.2-0.1l-0.1-0.1l-0.1-0.1c0.3-0.5,0-1.1-0.5-1.4c-0.7-0.3-1.5,0-2,0.6
		c-0.6,0.8-0.4,1.8,0.2,2.4c0.3,0.3,0.7,0.5,1,0.7l0.2,0.1l0.1,0.1c0.1,0.1,0.1,0.1,0.1,0l0.1,0.2C3.6,274,6.2,272.8,5.4,271.4z"/>
	<path class="st1" d="M22.7,251.8c-0.3-1.5-3.2-0.7-2.9,0.8c0.1,0.4,0,0.8-0.1,1.1c-0.2,0.3-0.3,0.4-0.6,0.5c-0.6,0.3-1,1-0.6,1.6
		c0.5,0.6,1.4,0.5,2,0.3C22.1,255.4,23.1,253.5,22.7,251.8z"/>
	<path class="st1" d="M12.2,266c-0.2,0.6-0.3,1.2-0.7,1.7l-0.2,0.2l-0.1,0l-0.1-0.1c-1.1-0.9-3.5,0.8-2.1,1.8c1.1,0.8,2.7,0.7,3.8,0
		c1.2-0.7,1.8-2,2.2-3.3C15.5,264.8,12.7,264.7,12.2,266z"/>
	<path class="st1" d="M5.9,252c-0.2,0.6-0.3,1.2-0.7,1.7L5,253.9l-0.1,0l-0.1-0.1c-1.1-0.9-3.5,0.8-2.1,1.8c1.1,0.8,2.7,0.7,3.8,0
		c1.2-0.7,1.8-2,2.2-3.3C9.2,250.7,6.4,250.6,5.9,252z"/>
	<path class="st1" d="M16,217.9c-0.8-1.8-2.9-2.7-4.8-2c-0.6,0.2-1.3,0.8-1.1,1.5c0.2,0.7,1.1,0.9,1.7,0.7c0.3-0.1,0.4-0.1,0.7,0
		c0.3,0.1,0.5,0.3,0.6,0.6c0.3,0.7,1.1,0.9,1.7,0.7C15.4,219.2,16.3,218.5,16,217.9z"/>
	<polygon class="st1" points="24.9,222.8 24.9,222.8 24.9,222.8 	"/>
	<polygon class="st1" points="24.6,221.9 24.6,221.9 24.6,221.9 	"/>
	<path class="st1" d="M61.7,252c-1.4-0.4-3-0.6-4.2,0.4c-0.5,0.4-0.9,0.9-1,1.6c-0.1,0.5,0.2,1.1,0,1.5c-0.4,0.6,0.4,1.3,0.9,1.3
		c0.8,0.1,1.5-0.3,1.8-0.9c0.2-0.3,0.2-0.7,0.2-1c0,0,0-0.6,0-0.8c0.3,0,0.6,0.1,0.7,0.1c0.7,0.2,1.6,0,2-0.6
		C62.5,253,62.4,252.2,61.7,252z"/>
	<path class="st1" d="M62.8,259.5c-0.1,0.4-0.1,0.8-0.2,1.3c0,0.1-0.1,0.4-0.1,0.7c-0.4,0-0.7,0-1.1,0.1c-0.6,0.1-1.3,0.8-1.1,1.5
		c0.2,0.7,1.1,0.8,1.7,0.7c-0.2,0.1,0.3,0.1,0.3,0.1c0.3,0,0.6,0,0.9,0c0.7-0.1,1.4-0.4,1.8-1c0.3-0.5,0.4-1,0.5-1.5
		c0.1-0.7,0.2-1.3,0.2-2C65.9,257.7,63,258,62.8,259.5z"/>
	<path class="st1" d="M55.2,265.3c-0.2-0.7-0.6-1.3-0.9-1.9c-0.2-0.2-0.3-0.4-0.4-0.7l-0.1-0.3l0-0.1c0,0-0.1,0.1-0.2,0.1l0.2-0.1
		l0.1-0.1c0.4-0.4,0.7-0.9,0.3-1.4c-0.4-0.6-1.4-0.6-2-0.3c-1,0.6-1.5,1.6-1.3,2.8c0.2,1.1,1.2,1.7,1.4,2.8
		C52.6,267.6,55.5,266.8,55.2,265.3z"/>
	<polygon class="st1" points="53.8,262.3 53.8,262.3 53.8,262.3 	"/>
	<path class="st1" d="M50.1,219.3c-0.3-1.1-1.5-1.4-2.5-1.1c-0.9,0.3-1.5,1.1-2.1,1.9l-0.2,0.1c-1.2,0.6-1.5,2.1-1.3,3.4
		c0.3,1.5,3.2,0.7,2.9-0.8c0-0.1,0-0.3,0-0.4c0.2,0,0.3,0,0.5,0c0.6,0,1.1-0.2,1.6-0.5C49.8,221.3,50.4,220.3,50.1,219.3z"/>
	<path class="st1" d="M62.1,271.4c-0.3-0.5-0.9-0.8-1.5-1.1l-0.2-0.1l-0.1-0.1l-0.1-0.1c0.3-0.5,0-1.1-0.5-1.4c-0.7-0.3-1.5,0-2,0.6
		c-0.6,0.8-0.4,1.8,0.2,2.4c0.3,0.3,0.7,0.5,1,0.7l0.2,0.1l0.1,0.1c0.1,0.1,0.1,0.1,0.1,0l0.1,0.2C60.2,274,62.9,272.8,62.1,271.4z"
		/>
	<path class="st1" d="M60.2,214.9c-0.6-0.5-1.5-0.2-2.1,0.2c-0.9,0.7-1.9,1.5-2.3,2.6c-0.4,1.3,0.1,2.4,0.8,3.4
		c0.8,1.2,3.5,0,2.6-1.4c-0.4-0.6-0.8-1.2-0.5-1.9c0.3-0.6,0.9-1,1.4-1.3C60.7,216.1,60.7,215.3,60.2,214.9z"/>
	<path class="st1" d="M51,210.2c-1.3-0.1-2.5,0.1-3.5,0.8c-0.5,0.4-0.6,1.2-0.1,1.6c0.6,0.5,1.5,0.3,2.1-0.2c0,0,0.4,0,0.5,0l0.2,0
		c0,1.3,2.4,1.2,2.8,0C53.4,211.2,52.3,210.3,51,210.2z"/>
	<path class="st1" d="M24.2,183.7c-0.6-1.6-1.8-3.5-3.7-3.4c-0.9,0-1.7,0.4-2.3,1.1c-0.5,0.5-0.7,1.6-1.3,1.9
		c-1.7,1-0.1,2.7,1.4,1.9c1-0.6,1.3-1.3,1.9-2.3l0.1-0.1l0.1,0c0.4,0.6,0.8,1,1,1.7C21.8,186,24.7,185.1,24.2,183.7z"/>
	<path class="st1" d="M33.1,183.6c-0.7-1.2-3.4,0-2.6,1.4c0.1,0.2-0.5,1.3-0.6,1.4c-0.3,0.6-0.6,1.3-0.8,1.9
		c-0.3,0.7,0.3,1.2,0.9,1.3c0.7,0.1,1.5-0.3,1.8-0.9c0.4-0.9,0.8-1.8,1.2-2.8C33.4,185.1,33.5,184.4,33.1,183.6z"/>
	<path class="st1" d="M15.1,188.8c-0.3-1.5-3.1-0.7-2.9,0.8c0.1,0.6,0.1,1.3,0,1.9c-0.7-0.8-2.9,0-2.6,1.3c0.4,1.9,2.9,1.9,4.2,0.9
		C15.3,192.6,15.4,190.5,15.1,188.8z"/>
	<path class="st1" d="M6.3,217.1c-0.3-1.5-3.1-0.7-2.9,0.8c0.1,0.6,0.1,1.3,0,1.9c-0.7-0.8-2.9,0-2.6,1.3c0.4,1.9,2.9,1.9,4.2,0.9
		C6.5,220.8,6.7,218.8,6.3,217.1z"/>
	<path class="st1" d="M19.6,196.4c-0.8-1.2-3.5,0.1-2.6,1.4c0.6,0.8,0.5,2.9-0.9,2.5c-0.7-0.2-1.6,0-2,0.6c-0.4,0.5-0.2,1.3,0.4,1.5
		c1.7,0.5,3.7,0.1,4.9-1.3C20.5,199.7,20.6,197.8,19.6,196.4z"/>
	<path class="st1" d="M42.8,186.5c-0.6-0.4-1.6-0.3-2.1,0.2c0.1-0.1-0.2,0.1-0.3,0.1c-0.1,0-0.5,0.1-0.7,0.1c-0.5,0.1-1,0.3-1.4,0.7
		c-1.1,1-0.7,2.6-0.6,3.9c0.1,0.7,0.7,1.1,1.4,1c0.6,0,1.6-0.5,1.5-1.3c0-0.6-0.1-1.1-0.1-1.7c0-0.1,0-0.3,0-0.4
		c-0.1,0.1-0.7-0.3-0.1-0.1l0.1,0l-0.1-0.2l0.1,0.2c0.3,0,0.7-0.2,0.9-0.2c0.5-0.1,0.9-0.4,1.3-0.7
		C43.2,187.7,43.4,186.9,42.8,186.5z"/>
	<path class="st1" d="M27.1,216.5c-0.6-0.4-1.6-0.3-2.1,0.2c0.1-0.1-0.2,0.1-0.3,0.1c-0.1,0-0.5,0.1-0.7,0.1c-0.5,0.1-1,0.3-1.4,0.7
		c-1.1,1-0.7,2.6-0.6,3.9c0.1,0.7,0.7,1.1,1.4,1c0.6,0,1.6-0.5,1.5-1.3c0-0.6-0.1-1.1-0.1-1.7c0-0.1,0-0.3,0-0.4
		c-0.1,0.1-0.7-0.3-0.1-0.1l0.1,0l-0.1-0.2l0.1,0.2c0.3,0,0.7-0.2,0.9-0.2c0.5-0.1,0.9-0.4,1.3-0.7C27.5,217.7,27.7,217,27.1,216.5z
		"/>
	<polygon class="st1" points="40.5,189.1 40.5,189 40.5,189 	"/>
	<path class="st1" d="M34.4,21.8c-0.1-0.3-0.3-0.6-0.6-0.9c-0.1-0.1-0.3-0.3-0.4-0.4c-0.2-0.1-0.3-0.3-0.2,0
		c-0.5-1.4-3.3-0.6-2.9,0.8c0.1,0.3,0.3,0.6,0.6,0.8c0.2,0.1,0.4,0.2,0.6,0.4c0.4,0.5,0.2,1.3,0.1,1.9c-0.1,0.7,0.8,1.1,1.4,1
		c0.7-0.1,1.4-0.5,1.5-1.3C34.6,23.4,34.7,22.5,34.4,21.8z"/>
	<path class="st1" d="M18,205.8c-0.3-0.7-1-0.9-1.7-0.7c-0.5,0.1-1.4,0.8-1.1,1.5c0.1,0.3,0.6,1.1,0.4,1.5c-0.1,0.1-0.3,0.2-0.5,0.3
		c-0.3,0.2-0.5,0.5-0.7,0.8c-0.9,1.6,1.7,2.2,2.5,1c0.2-0.3,0.4-0.4,0.7-0.6c0.4-0.3,0.7-0.7,0.8-1.2
		C18.7,207.5,18.4,206.6,18,205.8z"/>
	<path class="st1" d="M5.5,180.6c-0.5-1.4-3.4-0.6-2.9,0.8c0.5,1.3,0.5,2.7-0.3,3.9c-1,1.6,1.7,2.2,2.5,1
		C5.9,184.6,6.3,182.5,5.5,180.6z"/>
	<path class="st1" d="M50.8,182.8c-1.1-0.9-3.5,0.7-2.1,1.8c0.7,0.6,1,1.5,0.9,2.4c-0.1,1.6,2.8,1.2,2.9-0.2
		C52.6,185.2,52,183.7,50.8,182.8z"/>
	<path class="st1" d="M7.9,205.6c-0.4-0.4-1-0.7-1.2-1.3c-0.1-0.2-0.1-0.4,0-0.6l0.2,0c0.7-0.1,1.5-0.5,1.5-1.3c0-0.7-0.7-1.1-1.4-1
		c-1.4,0.2-3,0.9-3.2,2.6c-0.2,1.5,0.9,2.6,2,3.4C6.8,208.3,9.2,206.7,7.9,205.6z"/>
	<path class="st1" d="M5,194.6c-0.4-0.3-0.7-1.1-0.3-1.3c0.5-0.3,1.1-1,0.6-1.6c-0.4-0.6-1.4-0.6-2-0.3c-0.9,0.5-1.6,1.4-1.7,2.4
		c-0.1,1,0.4,2,1.2,2.6c0.6,0.4,1.5,0.3,2.1-0.2C5.4,195.8,5.6,195.1,5,194.6z"/>
	<path class="st1" d="M51.1,193.6c-0.3-1.5-3.2-0.7-2.9,0.8c0.1,0.4,0,0.8-0.1,1.1c-0.2,0.3-0.3,0.4-0.6,0.5c-0.6,0.3-1,1-0.6,1.6
		c0.5,0.6,1.4,0.5,2,0.3C50.5,197.2,51.5,195.4,51.1,193.6z"/>
	<path class="st1" d="M52.3,201.4c-1.6-0.2-3.1,0.5-4.4,1.4c-1,0.7-1.8,2.2-0.5,3.1c0.6,0.4,1.5,0.3,2.1-0.2c0.4-0.3,0.6-1,0.3-1.4
		c0.2-0.1,0.3-0.2,0.5-0.3c0.4-0.2,0.7-0.5,1.2-0.4c0.7,0.1,1.6-0.3,1.8-0.9C53.5,202,52.9,201.5,52.3,201.4z"/>
	<path class="st1" d="M62.2,180.6c-0.5-1.4-3.4-0.6-2.9,0.8c0.5,1.3,0.5,2.7-0.3,3.9c-1,1.6,1.7,2.2,2.5,1
		C62.6,184.6,63,182.5,62.2,180.6z"/>
	<path class="st1" d="M64.6,205.6c-0.4-0.4-1-0.7-1.2-1.3c-0.1-0.2-0.1-0.4,0-0.6l0.2,0c0.7-0.1,1.5-0.5,1.5-1.3
		c0-0.7-0.7-1.1-1.4-1c-1.4,0.2-3,0.9-3.2,2.6c-0.2,1.5,0.9,2.6,2,3.4C63.5,208.3,65.9,206.7,64.6,205.6z"/>
	<path class="st1" d="M61.7,194.6c-0.4-0.3-0.7-1.1-0.3-1.3c0.5-0.3,1.1-1,0.6-1.6c-0.4-0.6-1.4-0.6-2-0.3c-0.9,0.5-1.6,1.4-1.7,2.4
		c-0.1,1,0.4,2,1.2,2.6c0.6,0.4,1.5,0.3,2.1-0.2C62.1,195.8,62.3,195.1,61.7,194.6z"/>
	<path class="st1" d="M24.2,416.3c-0.6-1.6-1.8-3.5-3.7-3.4c-0.9,0-1.7,0.4-2.3,1.1c-0.5,0.5-0.7,1.6-1.3,1.9
		c-1.7,1-0.1,2.7,1.4,1.9c1-0.6,1.3-1.3,1.9-2.3l0.1-0.2l0.1,0c0.4,0.6,0.8,1,1,1.7C21.8,418.5,24.7,417.7,24.2,416.3z"/>
	<path class="st1" d="M33.1,416.1c-0.7-1.2-3.4,0-2.6,1.4c0.1,0.2-0.5,1.3-0.6,1.4c-0.3,0.6-0.6,1.3-0.8,1.9
		c-0.3,0.7,0.3,1.2,0.9,1.3c0.7,0.1,1.5-0.3,1.8-0.9c0.4-0.9,0.8-1.8,1.2-2.8C33.4,417.6,33.5,416.9,33.1,416.1z"/>
	<path class="st1" d="M29.1,406.7c-1.5-0.5-3.2,0.5-4.4,1.3c-0.5,0.3-1,1-0.6,1.6c0.4,0.6,1.4,0.6,2,0.3c0.4-0.2,1.2-0.9,1.7-0.9
		c0,0,0.1,0.1,0.1,0.2c0.1,0.4,0.1,0.7,0.2,1.1c0,1.6,3,1.2,2.9-0.2C30.8,408.6,30.5,407.2,29.1,406.7z"/>
	<path class="st1" d="M13.7,404.8c0.5-0.5,0.2-1.3-0.4-1.5c-0.7-0.3-1.5,0-2,0.6c-0.7,0.9-1.8,1.9-2.1,3c-0.4,1.1,0.6,1.7,1.1,2.5
		c0.7,1.2,3.4,0,2.6-1.4c-0.1-0.3-0.3-0.5-0.5-0.7c-0.3-0.3-0.3-0.2-0.1-0.5C12.4,406.1,13.1,405.4,13.7,404.8z"/>
	<path class="st1" d="M40,413.6c-0.1-0.3-0.3-0.6-0.6-0.9c-0.1-0.1-0.3-0.3-0.4-0.4c-0.2-0.1-0.3-0.3-0.2,0
		c-0.5-1.4-3.3-0.6-2.9,0.8c0.1,0.3,0.3,0.6,0.6,0.8c0.2,0.1,0.4,0.2,0.6,0.4c0.4,0.5,0.2,1.4,0.1,1.9c-0.1,0.7,0.8,1.1,1.4,1
		c0.7-0.1,1.4-0.5,1.5-1.3C40.2,415.2,40.3,414.3,40,413.6z"/>
	<path class="st1" d="M5.5,413.2c-0.5-1.4-3.4-0.6-2.9,0.8c0.5,1.3,0.5,2.7-0.3,3.9c-1,1.6,1.7,2.2,2.5,1
		C5.9,417.1,6.3,415.1,5.5,413.2z"/>
	<path class="st1" d="M50.8,415.3c-1.1-0.9-3.5,0.7-2.1,1.8c0.7,0.6,1,1.5,0.9,2.4c-0.1,1.6,2.8,1.2,2.9-0.2
		C52.6,417.7,52,416.3,50.8,415.3z"/>
	<path class="st1" d="M55.7,409.8c-0.2-0.9-0.4-1.7-0.6-2.6c-0.1-0.3-0.6-1.8-0.4-2.1c0.5-0.5,0.2-1.3-0.4-1.5c-0.7-0.3-1.6,0-2,0.6
		c-0.6,0.8-0.5,1.6-0.3,2.5c0.3,1.3,0.6,2.6,0.9,3.9C53.1,412,56,411.2,55.7,409.8z"/>
	<polygon class="st1" points="53.2,397.2 53.2,397.2 53.2,397.2 	"/>
	<polygon class="st1" points="52.9,396.4 52.9,396.4 52.9,396.4 	"/>
	<path class="st1" d="M53.2,397.2L53.2,397.2L53.2,397.2L53.2,397.2l-0.1-0.1c-0.1-0.1-0.2-0.2-0.2-0.4c0-0.1,0-0.2,0-0.3l0-0.1
		l-0.1,0l0.1,0l0,0c0.6-0.2,1.2-0.8,1-1.5c-0.2-0.7-1.1-0.9-1.7-0.7c-1.4,0.4-2.5,1.7-2.3,3.2c0.2,1.4,1.7,2.1,3,2.1
		c0.7,0,1.5-0.5,1.5-1.3C54.6,397.5,53.8,397.2,53.2,397.2z"/>
	<path class="st1" d="M13.8,390.7l-0.1,0.2l-0.3,0c-0.2,0-0.4,0-0.7-0.1c-0.7-0.1-1.6,0.2-1.8,0.9c-0.3,0.7,0.3,1.3,0.9,1.3
		c1.7,0.2,4.1-0.1,4.7-2C17.1,389.4,14.2,389.3,13.8,390.7z"/>
	<path class="st1" d="M5.9,395.1c-0.4-0.6-1.4-0.6-2-0.3c-2.1,1.1-4,4.6-2.3,6.7c0.9,1.1,3.6-0.2,2.6-1.4c-0.5-0.6-0.4-1.2-0.1-1.8
		c0.2-0.5,0.7-1.4,1.2-1.6C5.9,396.4,6.3,395.7,5.9,395.1z"/>
	<path class="st1" d="M45.8,409.2L45.8,409.2L45.8,409.2l-0.2-0.3c0.1,0.1-0.1-0.3-0.1-0.3l0-0.3c0,0.1,0.1-0.1,0-0.1l0.1-0.2
		c0.5-0.5,0.2-1.3-0.4-1.5c-0.7-0.3-1.5,0-2,0.6c-1,1.2-0.8,2.9,0.4,3.9C44.7,411.9,47.1,410.3,45.8,409.2z"/>
	<path class="st1" d="M11.1,415.7L11.1,415.7z"/>
	<path class="st1" d="M62.2,413.2c-0.5-1.4-3.4-0.6-2.9,0.8c0.5,1.3,0.5,2.7-0.3,3.9c-1,1.6,1.7,2.2,2.5,1
		C62.6,417.1,63,415.1,62.2,413.2z"/>
	<path class="st1" d="M62.6,395.1c-0.4-0.6-1.4-0.6-2-0.3c-2.1,1.1-4,4.6-2.3,6.7c0.9,1.1,3.6-0.2,2.6-1.4c-0.5-0.6-0.4-1.2-0.1-1.8
		c0.2-0.5,0.7-1.4,1.2-1.6C62.6,396.4,63,395.7,62.6,395.1z"/>
	<path class="st1" d="M67.8,415.7L67.8,415.7z"/>
	<path class="st1" d="M7.2,345.5c-0.4-0.7-1.1-1.3-1.4-2c-0.3-1,0.5-2,1-2.7c1.1-1.5-1.6-2.1-2.5-1c-0.8,1.1-1.7,2.4-1.6,3.8
		c0.1,1.4,1.2,2.1,1.8,3.3C5.3,348.1,8,346.9,7.2,345.5z"/>
	<path class="st1" d="M11.5,361.1c-0.6-0.4-1.6-0.3-2.1,0.2c0.1-0.1-0.2,0.1-0.3,0.1c-0.1,0-0.5,0.1-0.7,0.1c-0.5,0.1-1,0.3-1.4,0.7
		c-1.1,1-0.7,2.6-0.6,3.9c0.1,0.7,0.7,1.1,1.4,1c0.6,0,1.6-0.5,1.5-1.3c0-0.6-0.1-1.1-0.1-1.7c0-0.1,0-0.3,0-0.4
		c-0.1,0.1-0.7-0.3-0.1-0.1l0.1,0l-0.1-0.2l0.1,0.2c0.3,0,0.7-0.2,0.9-0.2c0.5-0.1,0.9-0.4,1.3-0.7
		C11.9,362.3,12.1,361.5,11.5,361.1z"/>
	<path class="st1" d="M8.5,329c-0.6-0.4-1.6-0.3-2.1,0.2c0.1-0.1-0.2,0.1-0.3,0.1c-0.1,0-0.5,0.1-0.7,0.1c-0.5,0.1-1,0.3-1.4,0.7
		c-1.1,1-0.7,2.6-0.6,3.9c0.1,0.7,0.7,1.1,1.4,1c0.6,0,1.6-0.5,1.5-1.3c0-0.6-0.1-1.1-0.1-1.7c0-0.1,0-0.3,0-0.4
		c-0.1,0.1-0.7-0.3-0.1-0.1l0.1,0l-0.1-0.2l0.1,0.2c0.3,0,0.7-0.2,0.9-0.2c0.5-0.1,0.9-0.4,1.3-0.7C8.9,330.2,9.1,329.5,8.5,329z"/>
	<polygon class="st1" points="12.2,363.5 12.2,363.5 12.2,363.5 	"/>
	<polygon class="st1" points="12.2,364 12.2,363.9 12.2,363.9 	"/>
	<path class="st1" d="M9.3,353.9c-0.1-0.3-0.3-0.6-0.6-0.9c-0.1-0.1-0.3-0.3-0.4-0.4c-0.2-0.1-0.3-0.3-0.2,0
		c-0.5-1.4-3.3-0.6-2.9,0.8c0.1,0.3,0.3,0.6,0.6,0.8c0.2,0.1,0.4,0.2,0.6,0.4c0.4,0.5,0.2,1.4,0.1,1.9c-0.1,0.7,0.8,1.1,1.4,1
		c0.7-0.1,1.4-0.5,1.5-1.3C9.5,355.5,9.6,354.6,9.3,353.9z"/>
	<path class="st1" d="M7.2,373c-0.1,0.4-0.1,0.8-0.2,1.3c0,0.1-0.1,0.4-0.1,0.7c-0.4,0-0.7,0-1.1,0.1c-0.6,0.1-1.3,0.8-1.1,1.5
		c0.2,0.7,1.1,0.8,1.7,0.7c-0.2,0.1,0.3,0.1,0.3,0.1c0.3,0,0.6,0,0.9,0c0.7-0.1,1.4-0.4,1.8-1c0.3-0.5,0.4-1,0.5-1.5
		c0.1-0.7,0.2-1.3,0.2-2C10.3,371.2,7.3,371.6,7.2,373z"/>
	<path class="st1" d="M14.5,366.1c-1.3-0.6-3.3,1.3-1.6,2.1c-0.1-0.1,0.1,0.1,0.1,0.1l0.1,0.2l0,0l0,0.1c0.1,0.3,0.1,0.4,0,0.7
		c-0.3,0.7,0.3,1.2,0.9,1.3c0.7,0.1,1.5-0.3,1.8-0.9C16.6,368.3,15.8,366.8,14.5,366.1z"/>
	<path class="st1" d="M22.5,357.2c-1.1-0.9-3.5,0.7-2.1,1.8c0.7,0.6,1,1.5,0.9,2.4c-0.1,1.6,2.8,1.2,2.9-0.2
		C24.3,359.6,23.6,358.2,22.5,357.2z"/>
	<path class="st1" d="M16.2,340.4c-0.2-0.3-0.5-0.4-0.8-0.5c-0.7-0.1-1.4,0.2-1.8,0.9l0,0l-0.1,0.1l0,0l-0.1,0.1l-0.1,0l-0.1,0
		c-0.3,0.1-0.7,0.3-0.9,0.6c-0.2,0.2-0.3,0.6-0.2,0.9c0.2,0.7,1.1,0.9,1.7,0.7c1.1-0.3,1.9-1,2.4-2C16.4,341,16.3,340.6,16.2,340.4z
		"/>
	<path class="st1" d="M18.6,397.7c-0.2-0.3-0.5-0.4-0.8-0.5c-0.7-0.1-1.4,0.2-1.8,0.9l0,0l-0.1,0.1l0,0l-0.1,0.1l-0.1,0l-0.1,0
		c-0.3,0.1-0.7,0.3-0.9,0.6c-0.2,0.2-0.3,0.6-0.2,0.9c0.2,0.7,1.1,0.9,1.7,0.7c1.1-0.3,1.9-1,2.4-2
		C18.8,398.3,18.8,397.9,18.6,397.7z"/>
	<path class="st1" d="M22.7,368.1c-0.3-1.5-3.2-0.7-2.9,0.8c0.1,0.4,0,0.8-0.1,1.1c-0.2,0.3-0.3,0.4-0.6,0.5c-0.6,0.3-1,1-0.6,1.6
		c0.5,0.6,1.4,0.5,2,0.3C22.1,371.7,23.1,369.8,22.7,368.1z"/>
	<path class="st1" d="M10.2,383c-0.2,0.6-0.3,1.2-0.7,1.7l-0.2,0.2l-0.1,0l-0.1-0.1C8,384,5.6,385.6,7,386.7c1.1,0.8,2.7,0.7,3.8,0
		c1.2-0.7,1.8-2,2.2-3.3C13.5,381.7,10.6,381.6,10.2,383z"/>
	<path class="st1" d="M23.9,375.8c-1.6-0.2-3.1,0.5-4.4,1.4c-1,0.7-1.8,2.2-0.5,3.1c0.6,0.4,1.5,0.3,2.1-0.2c0.4-0.3,0.6-1,0.3-1.4
		c0.2-0.1,0.3-0.2,0.5-0.3c0.4-0.2,0.7-0.5,1.2-0.4c0.7,0.1,1.6-0.3,1.8-0.9C25.1,376.4,24.6,375.9,23.9,375.8z"/>
	<path class="st1" d="M16,334.1c-0.8-1.8-2.9-2.7-4.8-2c-0.6,0.2-1.3,0.8-1.1,1.5c0.2,0.7,1.1,0.9,1.7,0.7c0.3-0.1,0.4-0.1,0.7,0
		c0.3,0.1,0.5,0.3,0.6,0.6c0.3,0.7,1.1,0.9,1.7,0.7C15.4,335.5,16.3,334.8,16,334.1z"/>
	<polygon class="st1" points="24.9,339 24.9,339 24.9,339 	"/>
	<polygon class="st1" points="24.6,338.2 24.6,338.2 24.6,338.2 	"/>
	<path class="st1" d="M17.4,351.1L17.4,351.1L17.4,351.1l-0.2-0.3c0.1,0.1-0.1-0.3-0.1-0.3l0-0.3c0,0.1,0.1-0.1,0-0.1l0.1-0.2
		c0.5-0.5,0.2-1.3-0.4-1.5c-0.7-0.3-1.5,0-2,0.6c-1,1.2-0.8,2.9,0.4,3.9C16.4,353.8,18.8,352.2,17.4,351.1z"/>
	<path class="st1" d="M52.5,358.2c-0.6-1.6-1.8-3.5-3.7-3.4c-0.9,0-1.7,0.4-2.3,1.1c-0.5,0.5-0.7,1.6-1.3,1.9
		c-1.7,1-0.1,2.7,1.4,1.9c1-0.6,1.4-1.3,1.9-2.3l0.1-0.1l0.1,0c0.4,0.6,0.8,1,1,1.7C50.2,360.4,53,359.5,52.5,358.2z"/>
	<path class="st1" d="M61.4,358c-0.7-1.2-3.4,0-2.6,1.4c0.1,0.2-0.5,1.3-0.6,1.4c-0.3,0.6-0.6,1.3-0.8,1.9c-0.3,0.7,0.3,1.2,0.9,1.3
		c0.7,0.1,1.5-0.3,1.8-0.9c0.4-0.9,0.8-1.8,1.2-2.8C61.7,359.5,61.9,358.8,61.4,358z"/>
	<path class="st1" d="M57.4,348.5c-1.5-0.5-3.2,0.5-4.4,1.3c-0.5,0.4-1,1-0.6,1.6c0.4,0.6,1.4,0.6,2,0.3c0.4-0.2,1.2-0.9,1.7-0.9
		c0,0,0.1,0.1,0.1,0.2c0.1,0.4,0.1,0.7,0.2,1.1c0,1.6,3,1.2,2.9-0.2C59.2,350.4,58.9,349,57.4,348.5z"/>
	<path class="st1" d="M43.5,363.3c-0.3-1.5-3.1-0.7-2.9,0.8c0.1,0.6,0.1,1.3,0,1.9c-0.7-0.8-2.9,0-2.6,1.3c0.4,1.9,2.9,1.9,4.2,0.9
		C43.6,367,43.8,364.9,43.5,363.3z"/>
	<path class="st1" d="M47.9,370.8c-0.8-1.2-3.5,0.1-2.6,1.4c0.6,0.8,0.5,2.9-0.9,2.5c-0.7-0.2-1.6,0-2,0.6c-0.4,0.5-0.2,1.3,0.4,1.5
		c1.7,0.5,3.7,0.1,4.9-1.3C48.9,374.2,48.9,372.2,47.9,370.8z"/>
	<path class="st1" d="M61.7,368.3c-1.4-0.4-3-0.6-4.2,0.4c-0.5,0.4-0.9,0.9-1,1.6c-0.1,0.5,0.2,1.1,0,1.5c-0.4,0.6,0.4,1.3,0.9,1.3
		c0.8,0.1,1.5-0.3,1.8-0.9c0.2-0.3,0.2-0.7,0.2-1c0,0,0-0.6,0-0.8c0.3,0,0.6,0.1,0.7,0.1c0.7,0.2,1.6,0,2-0.6
		C62.5,369.3,62.4,368.5,61.7,368.3z"/>
	<path class="st1" d="M54.2,343.1c-0.2-1.4-1.7-2.2-3.1-2.1c-0.8,0-1.5,0.4-2,0.9c-0.5,0.5-0.8,1.1-1.3,1.5
		c-0.5,0.4-0.6,1.2-0.1,1.6c0.6,0.5,1.5,0.3,2.1-0.2c0.4-0.3,1-0.9,1.3-1.4l0.1,0.1c0.1,0.1,0.1,0.3,0.1,0.4
		c0.1,0.7,1.2,0.8,1.7,0.7C53.8,344.3,54.4,343.8,54.2,343.1z"/>
	<path class="st1" d="M63.9,345.5c-0.4-0.7-1.1-1.3-1.4-2c-0.3-1,0.5-2,1-2.7c1.1-1.5-1.6-2.1-2.5-1c-0.8,1.1-1.7,2.4-1.6,3.8
		c0.1,1.4,1.2,2.1,1.8,3.3C62,348.1,64.7,346.9,63.9,345.5z"/>
	<path class="st1" d="M68.3,355.4c-0.1-0.3-0.3-0.6-0.6-0.9c-0.1-0.1-0.3-0.3-0.4-0.4c-0.2-0.1-0.3-0.3-0.2,0
		c-0.5-1.4-3.3-0.6-2.9,0.8c0.1,0.3,0.3,0.6,0.6,0.8c0.2,0.1,0.4,0.2,0.6,0.4c0.4,0.5,0.2,1.4,0.1,1.9c-0.1,0.7,0.8,1.1,1.4,1
		c0.7-0.1,1.4-0.5,1.5-1.3C68.5,357.1,68.7,356.2,68.3,355.4z"/>
	<path class="st1" d="M52.8,364.7c-0.1-0.3-0.3-0.6-0.6-0.9c-0.1-0.1-0.3-0.3-0.4-0.4c-0.2-0.1-0.3-0.3-0.2,0
		c-0.5-1.4-3.3-0.6-2.9,0.8c0.1,0.3,0.3,0.6,0.6,0.8c0.2,0.1,0.4,0.2,0.6,0.4c0.4,0.5,0.2,1.4,0.1,1.9c-0.1,0.7,0.8,1.1,1.4,1
		c0.7-0.1,1.4-0.5,1.5-1.3C53,366.4,53.1,365.5,52.8,364.7z"/>
	<path class="st1" d="M62.8,375.8c-0.1,0.4-0.1,0.8-0.2,1.3c0,0.1-0.1,0.4-0.1,0.7c-0.4,0-0.7,0-1.1,0.1c-0.6,0.1-1.3,0.8-1.1,1.5
		c0.2,0.7,1.1,0.8,1.7,0.7c-0.2,0.1,0.3,0.1,0.3,0.1c0.3,0,0.6,0,0.9,0c0.7-0.1,1.4-0.4,1.8-1c0.3-0.5,0.4-1,0.5-1.5
		c0.1-0.7,0.2-1.3,0.2-2C65.9,374,63,374.3,62.8,375.8z"/>
	<path class="st1" d="M55.2,381.6c-0.2-0.7-0.6-1.3-0.9-1.9c-0.2-0.2-0.3-0.4-0.4-0.7l-0.1-0.3l0-0.1c0,0-0.1,0.1-0.2,0.1l0.2-0.1
		l0.1-0.1c0.4-0.4,0.7-0.9,0.3-1.4c-0.4-0.6-1.4-0.6-2-0.3c-1,0.6-1.5,1.6-1.3,2.8c0.2,1.1,1.2,1.7,1.4,2.8
		C52.6,383.9,55.5,383.1,55.2,381.6z"/>
	<polygon class="st1" points="53.8,378.6 53.8,378.6 53.8,378.6 	"/>
	<path class="st1" d="M46.4,333.1c-0.3-1.1-1.5-1.4-2.5-1.1c-0.9,0.3-1.5,1.1-2.1,1.9l-0.2,0.1c-1.2,0.6-1.5,2.1-1.3,3.4
		c0.3,1.5,3.2,0.7,2.9-0.8c0-0.1,0-0.3,0-0.4c0.2,0,0.3,0,0.5,0c0.6,0,1.1-0.2,1.6-0.5C46.1,335.2,46.7,334.1,46.4,333.1z"/>
	<path class="st1" d="M62.1,387.7c-0.3-0.5-0.9-0.8-1.5-1.1l-0.2-0.1l-0.1-0.1l-0.1-0.1c0.3-0.5,0-1.1-0.5-1.4c-0.7-0.3-1.5,0-2,0.6
		c-0.6,0.8-0.4,1.8,0.2,2.4c0.3,0.3,0.7,0.5,1,0.7l0.2,0.1l0.1,0.1c0.1,0.1,0.1,0.1,0.1,0l0.1,0.2C60.2,390.3,62.9,389.1,62.1,387.7
		z"/>
	<path class="st1" d="M36.2,380c-0.4-0.4-1-0.7-1.2-1.3c-0.1-0.2-0.1-0.4,0-0.6l0.2,0c0.7-0.1,1.5-0.5,1.5-1.3c0-0.7-0.7-1.1-1.4-1
		c-1.4,0.2-3,0.9-3.2,2.6c-0.2,1.5,0.9,2.6,2,3.4C35.2,382.7,37.6,381.1,36.2,380z"/>
	<path class="st1" d="M33.4,369.1c-0.4-0.3-0.7-1.1-0.3-1.3c0.5-0.3,1.1-1,0.6-1.6c-0.4-0.6-1.4-0.6-2-0.3c-0.9,0.5-1.6,1.4-1.7,2.4
		c-0.1,1,0.4,2,1.2,2.6c0.6,0.4,1.5,0.3,2.1-0.2C33.8,370.3,34,369.5,33.4,369.1z"/>
	<path class="st1" d="M60.2,331.1c-0.6-0.5-1.5-0.2-2.1,0.2c-0.9,0.7-1.9,1.5-2.3,2.6c-0.4,1.3,0.1,2.4,0.8,3.4
		c0.8,1.2,3.5,0,2.6-1.4c-0.4-0.6-0.8-1.2-0.5-1.9c0.3-0.6,0.9-1,1.4-1.3C60.7,332.4,60.7,331.6,60.2,331.1z"/>
	<path class="st1" d="M22.6,338.4l-0.1,0.2l-0.3,0c-0.2,0-0.4,0-0.7-0.1c-0.7-0.1-1.6,0.2-1.8,0.9c-0.3,0.7,0.3,1.3,0.9,1.3
		c1.7,0.2,4.1-0.1,4.7-2C25.9,337.1,23,337,22.6,338.4z"/>
	<path class="st1" d="M51,326.5c-1.3-0.1-2.5,0.1-3.5,0.8c-0.5,0.4-0.6,1.2-0.1,1.6c0.6,0.5,1.5,0.3,2.1-0.2c0,0,0.4,0,0.5,0l0.2,0
		c0,1.3,2.4,1.2,2.8,0C53.4,327.5,52.3,326.6,51,326.5z"/>
	<path class="st1" d="M15.1,305.1c-0.3-1.5-3.1-0.7-2.9,0.8c0.1,0.6,0.1,1.3,0,1.9c-0.7-0.8-2.9,0-2.6,1.3c0.4,1.9,2.9,1.9,4.2,0.9
		C15.3,308.9,15.4,306.8,15.1,305.1z"/>
	<path class="st1" d="M19.6,312.7c-0.8-1.2-3.5,0.1-2.6,1.4c0.6,0.8,0.5,2.9-0.9,2.5c-0.7-0.2-1.6,0-2,0.6c-0.4,0.5-0.2,1.3,0.4,1.5
		c1.7,0.5,3.7,0.1,4.9-1.3C20.5,316,20.6,314.1,19.6,312.7z"/>
	<path class="st1" d="M26.8,323.5c-0.2-0.7-0.6-1.3-0.9-1.9c-0.2-0.2-0.3-0.4-0.4-0.7l-0.1-0.3l0-0.1c0,0-0.1,0.1-0.2,0.1l0.2-0.1
		l0.1-0.1c0.4-0.4,0.7-0.9,0.3-1.4c-0.4-0.6-1.4-0.6-2-0.3c-1,0.6-1.5,1.6-1.3,2.8c0.2,1.1,1.2,1.7,1.4,2.8
		C24.3,325.7,27.2,324.9,26.8,323.5z"/>
	<polygon class="st1" points="25.4,320.5 25.5,320.4 25.4,320.5 	"/>
	<path class="st1" d="M18,322.1c-0.3-0.7-1-0.9-1.7-0.7c-0.5,0.1-1.4,0.8-1.1,1.5c0.1,0.3,0.6,1.1,0.4,1.5c-0.1,0.1-0.3,0.2-0.5,0.3
		c-0.3,0.2-0.5,0.5-0.7,0.8c-0.9,1.6,1.7,2.2,2.5,1c0.2-0.3,0.4-0.4,0.7-0.6c0.4-0.3,0.7-0.7,0.8-1.2
		C18.7,323.8,18.4,322.9,18,322.1z"/>
	<path class="st1" d="M5.5,296.9c-0.5-1.4-3.4-0.6-2.9,0.8c0.5,1.3,0.5,2.7-0.3,3.9c-1,1.6,1.7,2.2,2.5,1
		C5.9,300.9,6.3,298.8,5.5,296.9z"/>
	<path class="st1" d="M33.7,329.6c-0.3-0.5-0.9-0.8-1.5-1.1l-0.2-0.1l-0.1-0.1l-0.1-0.1c0.3-0.5,0-1.1-0.5-1.4c-0.7-0.3-1.5,0-2,0.6
		c-0.6,0.8-0.4,1.8,0.2,2.4c0.3,0.3,0.7,0.5,1,0.7l0.2,0.1l0.1,0.1c0.1,0.1,0.1,0.1,0.1,0l0.1,0.2C31.9,332.2,34.6,330.9,33.7,329.6
		z"/>
	<path class="st1" d="M24.2,332.4c-0.3-0.5-0.9-0.8-1.5-1.1l-0.2-0.1l-0.1-0.1l-0.1-0.1c0.3-0.5,0-1.1-0.5-1.4c-0.7-0.3-1.5,0-2,0.6
		c-0.6,0.8-0.4,1.8,0.2,2.4c0.3,0.3,0.7,0.5,1,0.7l0.2,0.1l0.1,0.1c0.1,0.1,0.1,0.1,0.1,0l0.1,0.2C22.4,334.9,25,333.7,24.2,332.4z"
		/>
	<path class="st1" d="M18.7,297.9c-0.3-0.5-0.9-0.8-1.5-1.1l-0.2-0.1l-0.1-0.1l-0.1-0.1c0.3-0.5,0-1.1-0.5-1.4c-0.7-0.3-1.5,0-2,0.6
		c-0.6,0.8-0.4,1.8,0.2,2.4c0.3,0.3,0.7,0.5,1,0.7l0.2,0.1l0.1,0.1c0.1,0.1,0.1,0.1,0.1,0l0.1,0.2C16.8,300.4,19.5,299.2,18.7,297.9
		z"/>
	<path class="st1" d="M50.8,299c-1.1-0.9-3.5,0.7-2.1,1.8c0.7,0.6,1,1.5,0.9,2.4c-0.1,1.6,2.8,1.2,2.9-0.2
		C52.6,301.5,52,300,50.8,299z"/>
	<path class="st1" d="M7.9,321.9c-0.4-0.4-1-0.7-1.2-1.3c-0.1-0.2-0.1-0.4,0-0.6l0.2,0c0.7-0.1,1.5-0.5,1.5-1.3c0-0.7-0.7-1.1-1.4-1
		c-1.4,0.2-3,0.9-3.2,2.6c-0.2,1.5,0.9,2.6,2,3.4C6.8,324.6,9.2,323,7.9,321.9z"/>
	<path class="st1" d="M5,310.9c-0.4-0.3-0.7-1.1-0.3-1.3c0.5-0.3,1.1-1,0.6-1.6c-0.4-0.6-1.4-0.6-2-0.3c-0.9,0.5-1.6,1.4-1.7,2.4
		c-0.1,1,0.4,2,1.2,2.6c0.6,0.4,1.5,0.3,2.1-0.2C5.4,312.1,5.6,311.4,5,310.9z"/>
	<path class="st1" d="M51.1,309.9c-0.3-1.5-3.2-0.7-2.9,0.8c0.1,0.4,0,0.8-0.1,1.1c-0.2,0.3-0.3,0.4-0.6,0.5c-0.6,0.3-1,1-0.6,1.6
		c0.5,0.6,1.4,0.5,2,0.3C50.5,313.5,51.5,311.7,51.1,309.9z"/>
	<path class="st1" d="M40.6,324.2c-0.2,0.6-0.3,1.2-0.7,1.7l-0.2,0.2l-0.1,0l-0.1-0.1c-1.1-0.9-3.5,0.8-2.1,1.8
		c1.1,0.8,2.7,0.7,3.8,0c1.2-0.7,1.8-2,2.2-3.3C43.9,322.9,41,322.8,40.6,324.2z"/>
	<path class="st1" d="M52.3,317.6c-1.6-0.2-3.1,0.5-4.4,1.4c-1,0.7-1.8,2.2-0.5,3.1c0.6,0.4,1.5,0.3,2.1-0.2c0.4-0.3,0.6-1,0.3-1.4
		c0.2-0.1,0.3-0.2,0.5-0.3c0.4-0.2,0.7-0.5,1.2-0.4c0.7,0.1,1.6-0.3,1.8-0.9C53.5,318.3,52.9,317.7,52.3,317.6z"/>
	<path class="st1" d="M62.2,296.9c-0.5-1.4-3.4-0.6-2.9,0.8c0.5,1.3,0.5,2.7-0.3,3.9c-1,1.6,1.7,2.2,2.5,1
		C62.6,300.9,63,298.8,62.2,296.9z"/>
	<path class="st1" d="M64.6,321.9c-0.4-0.4-1-0.7-1.2-1.3c-0.1-0.2-0.1-0.4,0-0.6l0.2,0c0.7-0.1,1.5-0.5,1.5-1.3
		c0-0.7-0.7-1.1-1.4-1c-1.4,0.2-3,0.9-3.2,2.6c-0.2,1.5,0.9,2.6,2,3.4C63.5,324.6,65.9,323,64.6,321.9z"/>
	<path class="st1" d="M61.7,310.9c-0.4-0.3-0.7-1.1-0.3-1.3c0.5-0.3,1.1-1,0.6-1.6c-0.4-0.6-1.4-0.6-2-0.3c-0.9,0.5-1.6,1.4-1.7,2.4
		c-0.1,1,0.4,2,1.2,2.6c0.6,0.4,1.5,0.3,2.1-0.2C62.1,312.1,62.3,311.4,61.7,310.9z"/>
	<path class="st1" d="M16,450.4c-0.8-1.8-2.9-2.7-4.8-2c-0.6,0.2-1.3,0.8-1.1,1.5c0.2,0.7,1.1,0.9,1.7,0.7c0.3-0.1,0.4-0.1,0.7,0
		c0.3,0.1,0.5,0.3,0.6,0.6c0.3,0.7,1.1,0.9,1.7,0.7C15.4,451.8,16.3,451.1,16,450.4z"/>
	<polygon class="st1" points="24.9,455.3 24.9,455.3 24.9,455.3 	"/>
	<polygon class="st1" points="24.6,454.5 24.6,454.5 24.6,454.5 	"/>
	<path class="st1" d="M24.2,416.3c-0.6-1.6-1.8-3.5-3.7-3.4c-0.9,0-1.7,0.4-2.3,1.1c-0.5,0.5-0.7,1.6-1.3,1.9
		c-1.7,1-0.1,2.7,1.4,1.9c1-0.6,1.3-1.3,1.9-2.3l0.1-0.2l0.1,0c0.4,0.6,0.8,1,1,1.7C21.8,418.5,24.7,417.7,24.2,416.3z"/>
	<path class="st1" d="M33.1,416.1c-0.7-1.2-3.4,0-2.6,1.4c0.1,0.2-0.5,1.3-0.6,1.4c-0.3,0.6-0.6,1.3-0.8,1.9
		c-0.3,0.7,0.3,1.2,0.9,1.3c0.7,0.1,1.5-0.3,1.8-0.9c0.4-0.9,0.8-1.8,1.2-2.8C33.4,417.6,33.5,416.9,33.1,416.1z"/>
	<path class="st1" d="M15.1,421.4c-0.3-1.5-3.1-0.7-2.9,0.8c0.1,0.6,0.1,1.3,0,1.9c-0.7-0.8-2.9,0-2.6,1.3c0.4,1.9,2.9,1.9,4.2,0.9
		C15.3,425.1,15.4,423.1,15.1,421.4z"/>
	<path class="st1" d="M19.6,428.9c-0.8-1.2-3.5,0.1-2.6,1.4c0.6,0.8,0.5,2.9-0.9,2.5c-0.7-0.2-1.6,0-2,0.6c-0.4,0.5-0.2,1.3,0.4,1.5
		c1.7,0.5,3.7,0.1,4.9-1.3C20.5,432.3,20.6,430.3,19.6,428.9z"/>
	<path class="st1" d="M64.1,445.3c-0.6-0.4-1.6-0.3-2.1,0.2c0.1-0.1-0.2,0.1-0.3,0.1c-0.1,0-0.5,0.1-0.7,0.1c-0.5,0.1-1,0.3-1.4,0.7
		c-1.1,1-0.7,2.6-0.6,3.9c0.1,0.7,0.7,1.1,1.4,1c0.6,0,1.6-0.5,1.5-1.3c0-0.6-0.1-1.1-0.1-1.7c0-0.1,0-0.3,0-0.4
		c-0.1,0.1-0.7-0.3-0.1-0.1l0.1,0l-0.1-0.2l0.1,0.2c0.3,0,0.7-0.2,0.9-0.2c0.5-0.1,0.9-0.4,1.3-0.7
		C64.5,446.5,64.7,445.8,64.1,445.3z"/>
	<polygon class="st1" points="40.5,421.7 40.5,421.6 40.5,421.6 	"/>
	<path class="st1" d="M45.4,449.2c-0.1-0.3-0.3-0.6-0.6-0.9c-0.1-0.1-0.3-0.3-0.4-0.4c-0.2-0.1-0.3-0.3-0.2,0
		c-0.5-1.4-3.3-0.6-2.9,0.8c0.1,0.3,0.3,0.6,0.6,0.8c0.2,0.1,0.4,0.2,0.6,0.4c0.4,0.5,0.2,1.4,0.1,1.9c-0.1,0.7,0.8,1.1,1.4,1
		c0.7-0.1,1.4-0.5,1.5-1.3C45.6,450.9,45.7,450,45.4,449.2z"/>
	<polygon class="st1" points="25.4,436.8 25.5,436.7 25.4,436.8 	"/>
	<path class="st1" d="M5.5,413.2c-0.5-1.4-3.4-0.6-2.9,0.8c0.5,1.3,0.5,2.7-0.3,3.9c-1,1.6,1.7,2.2,2.5,1
		C5.9,417.1,6.3,415.1,5.5,413.2z"/>
	<path class="st1" d="M49.1,440.5c-1.1-0.9-3.5,0.7-2.1,1.8c0.7,0.6,1,1.5,0.9,2.4c-0.1,1.6,2.8,1.2,2.9-0.2
		C50.9,442.9,50.2,441.5,49.1,440.5z"/>
	<path class="st1" d="M7.9,438.2c-0.4-0.4-1-0.7-1.2-1.3c-0.1-0.2-0.1-0.4,0-0.6l0.2,0c0.7-0.1,1.5-0.5,1.5-1.3c0-0.7-0.7-1.1-1.4-1
		c-1.4,0.2-3,0.9-3.2,2.6c-0.2,1.5,0.9,2.6,2,3.4C6.8,440.8,9.2,439.2,7.9,438.2z"/>
	<path class="st1" d="M5,427.2c-0.4-0.3-0.7-1.1-0.3-1.3c0.5-0.3,1.1-1,0.6-1.6c-0.4-0.6-1.4-0.6-2-0.3c-0.9,0.5-1.6,1.4-1.7,2.4
		c-0.1,1,0.4,2,1.2,2.6c0.6,0.4,1.5,0.3,2.1-0.2C5.4,428.4,5.6,427.6,5,427.2z"/>
</g>
<rect x="1" y="0" class="st5" width="67.8" height="455.3"/>
<g>
	<path class="st1" d="M14.4,235.3c0.1,0.7-0.3,1.1-1.1,1.2c-0.2,0-0.7,0-1.5,0c-1.2,0-2.1-0.1-2.8,0c0.2,2.6,0.2,4,0.2,4.4
		c-0.1,0.9-0.4,1.5-1,1.5c-0.7,0.1-1.1-0.3-1.2-1.2c0,0,0-0.5-0.1-1.5c0-1.1-0.1-2.2-0.2-3.2c-1.4,0.1-2.8,0.3-4.2,0.4
		c-0.9,0-1.4-0.2-1.5-0.8c-0.1-0.7,0.4-1.2,1.4-1.3c1.1-0.2,2.5-0.3,4.2-0.4c-0.1-1.4-0.3-2.8-0.4-4.2c0-0.9,0.3-1.4,0.9-1.5
		c0.7-0.1,1.2,0.3,1.4,1.4c0,0.1,0.1,0.6,0.1,1.4c0.1,1,0.2,2,0.3,2.9c2.2,0,3.5,0,4,0.1C13.8,234.5,14.3,234.8,14.4,235.3z"/>
	<path class="st1" d="M25.9,228.8c0.7-0.1,1,0.3,1.1,1.1c0,0.2,0,0.7-0.1,1.5c-0.1,1.2-0.2,2.1-0.2,2.8c2.6,0,4,0,4.4,0.1
		c0.9,0.1,1.4,0.5,1.5,1c0.1,0.7-0.4,1.1-1.3,1.2c0,0-0.5,0-1.5,0c-1.1,0-2.2,0-3.2,0c0.1,1.4,0.1,2.8,0.2,4.2
		c0,0.9-0.3,1.4-0.9,1.5c-0.7,0.1-1.1-0.4-1.2-1.5c-0.1-1.2-0.2-2.5-0.1-4.2c-1.4,0-2.8,0.1-4.2,0.1c-0.9-0.1-1.4-0.4-1.4-1
		c-0.1-0.7,0.4-1.2,1.4-1.3c0.1,0,0.6,0,1.4-0.1c1,0,2-0.1,2.9-0.2c0.1-2.2,0.2-3.5,0.3-4C25,229.3,25.3,228.9,25.9,228.8z"/>
	<path class="st1" d="M50.5,235.3c0.1,0.7-0.3,1.1-1.1,1.2c-0.2,0-0.7,0-1.5,0c-1.2,0-2.1-0.1-2.8,0c0.2,2.6,0.2,4,0.2,4.4
		c-0.1,0.9-0.4,1.5-1,1.5c-0.7,0.1-1.1-0.3-1.2-1.2c0,0,0-0.5-0.1-1.5c0-1.1-0.1-2.2-0.2-3.2c-1.4,0.1-2.8,0.3-4.2,0.4
		c-0.9,0-1.4-0.2-1.5-0.8c-0.1-0.7,0.4-1.2,1.4-1.3c1.1-0.2,2.5-0.3,4.2-0.4c-0.1-1.4-0.3-2.8-0.4-4.2c0-0.9,0.3-1.4,0.9-1.5
		c0.7-0.1,1.2,0.3,1.4,1.4c0,0.1,0.1,0.6,0.1,1.4c0.1,1,0.2,2,0.3,2.9c2.2,0,3.5,0,4,0.1C49.9,234.4,50.4,234.8,50.5,235.3z"/>
	<path class="st1" d="M68.4,236.7c0,0.7-0.5,1-1.3,0.9c-0.2,0-0.7-0.1-1.4-0.3c-1.1-0.3-2-0.5-2.8-0.6c-0.4,2.5-0.6,4-0.7,4.3
		c-0.2,0.9-0.7,1.3-1.3,1.3c-0.7,0-1-0.5-1-1.5c0,0,0.1-0.5,0.3-1.5c0.2-1.1,0.4-2.1,0.5-3.2c-1.4-0.2-2.8-0.3-4.2-0.5
		c-0.9-0.2-1.4-0.5-1.3-1.1c0-0.7,0.6-1.1,1.7-1c1.2,0.1,2.5,0.2,4.2,0.5c0.2-1.4,0.3-2.8,0.5-4.2c0.2-0.9,0.6-1.3,1.2-1.3
		c0.8,0,1.1,0.6,1,1.6c0,0.1-0.1,0.6-0.1,1.4c-0.1,1-0.2,2-0.3,2.9c2.1,0.4,3.5,0.7,3.9,0.9C68,235.8,68.4,236.2,68.4,236.7z"/>
</g>
<g>
	<path class="st1" d="M29.6,428.1l-1,0.1l0.7,5.6c0,0.1,0,0.1,0,0.2c0,0.3-0.1,0.6-0.3,0.8c-0.2,0.2-0.4,0.3-0.7,0.4
		c-0.3,0-0.6,0-0.9-0.2c-0.2-0.2-0.4-0.5-0.4-0.8l-0.7-5.5l-1,0.1c-0.4,0-0.6,0-0.9-0.3c-0.2-0.2-0.3-0.4-0.3-0.7
		c0-0.3,0-0.6,0.2-0.8c0.2-0.2,0.4-0.4,0.7-0.4l4.3-0.5c0.3,0,0.6,0,0.8,0.2c0.2,0.2,0.3,0.4,0.4,0.7c0,0.3,0,0.5-0.2,0.8
		C30.2,427.9,29.9,428.1,29.6,428.1z"/>
	<path class="st1" d="M33.9,428.3c0.4-0.1,0.8-0.1,1.3,0c0.6,0.1,1.1,0.4,1.5,0.9c0.4,0.4,0.6,0.9,0.6,1.5c0,0.2,0,0.4-0.1,0.7
		l-0.7,3.2c-0.1,0.3-0.2,0.5-0.4,0.7s-0.4,0.3-0.7,0.3c-0.1,0-0.2,0-0.3,0c-0.3-0.1-0.5-0.2-0.6-0.4c-0.2-0.2-0.2-0.4-0.2-0.7
		c0-0.1,0-0.2,0-0.3l0.7-2.9c0-0.1,0-0.2,0-0.3c0-0.2-0.1-0.4-0.2-0.6c-0.2-0.1-0.4-0.2-0.6-0.2c-0.4,0-0.6,0.2-0.7,0.7l-0.7,2.9
		c-0.1,0.3-0.2,0.5-0.4,0.7s-0.4,0.3-0.7,0.3c-0.1,0-0.2,0-0.3,0c-0.3-0.1-0.5-0.2-0.6-0.4c-0.2-0.2-0.2-0.4-0.2-0.7
		c0-0.1,0-0.2,0-0.3l1.6-7c0.1-0.3,0.2-0.5,0.4-0.7c0.2-0.2,0.4-0.3,0.7-0.3c0.1,0,0.2,0,0.3,0c0.3,0.1,0.5,0.2,0.6,0.4
		c0.2,0.2,0.2,0.4,0.2,0.7c0,0.1,0,0.2,0,0.3L33.9,428.3z"/>
	<path class="st1" d="M44.4,434.6c-0.1,0-0.2,0-0.3,0c-0.3,0-0.5-0.1-0.7-0.3c-0.3,0.5-0.8,0.8-1.3,0.9c-0.2,0.1-0.5,0.1-0.7,0.1
		c-0.7,0-1.4-0.3-2-0.8c-0.6-0.5-1-1.2-1.2-2.1c-0.1-0.3-0.1-0.6-0.1-0.9c0-0.8,0.2-1.5,0.6-2.1c0.4-0.6,1-1,1.7-1.1
		c0.2,0,0.4-0.1,0.6-0.1c0.4,0,0.7,0.1,1,0.2c0.1-0.3,0.4-0.6,0.8-0.7c0.1,0,0.2,0,0.4,0c0.5,0,0.9,0.4,1,1.1l0.9,4.1
		c0.1,0.2,0.1,0.5,0.1,0.6C45.2,434.1,44.9,434.4,44.4,434.6z M40.4,431.4c0,0.2,0,0.3,0,0.5c0.1,0.3,0.2,0.6,0.4,0.8
		s0.4,0.3,0.7,0.3c0.3,0,0.5-0.1,0.7-0.4c0.2-0.2,0.2-0.5,0.2-0.8c0-0.1,0-0.3-0.1-0.5c-0.1-0.3-0.2-0.6-0.4-0.9
		c-0.2-0.2-0.4-0.3-0.7-0.3c-0.3,0-0.5,0.1-0.7,0.3C40.5,430.8,40.4,431.1,40.4,431.4z"/>
	<path class="st1" d="M50.6,435.5c-0.3-0.1-0.5-0.2-0.6-0.4c-0.2-0.2-0.2-0.4-0.2-0.7c0-0.1,0-0.2,0-0.3l0.7-2.9c0-0.1,0-0.2,0-0.3
		c0-0.2-0.1-0.4-0.2-0.6c-0.2-0.1-0.4-0.2-0.6-0.2c-0.4,0-0.6,0.2-0.7,0.7l-0.7,2.9c-0.1,0.3-0.2,0.5-0.4,0.7s-0.4,0.3-0.7,0.3
		c-0.1,0-0.2,0-0.3,0c-0.3-0.1-0.5-0.2-0.6-0.4c-0.2-0.2-0.2-0.4-0.2-0.7c0-0.1,0-0.2,0-0.3l1-4.4c0.1-0.3,0.2-0.5,0.4-0.7
		c0.2-0.2,0.4-0.3,0.7-0.3c0.5,0,0.8,0.2,1,0.6c0.3-0.1,0.6-0.2,0.9-0.2c0.2,0,0.5,0,0.7,0.1c0.6,0.1,1.1,0.4,1.5,0.9
		c0.4,0.4,0.6,0.9,0.6,1.5c0,0.2,0,0.4-0.1,0.7l-0.7,3.2c-0.1,0.3-0.2,0.5-0.4,0.7c-0.2,0.2-0.4,0.3-0.7,0.3
		C50.7,435.5,50.7,435.5,50.6,435.5z"/>
	<path class="st1" d="M56.9,432.7c0.1,0.3,0.3,0.7,0.5,1.2c0.1,0.2,0.1,0.3,0.1,0.5c0,0.5-0.3,0.9-0.8,1.1c-0.1,0-0.2,0.1-0.4,0.1
		c-0.5,0-0.9-0.3-1.1-0.9l-2.3-6.8c-0.1-0.2-0.1-0.3-0.1-0.5c0-0.5,0.2-0.9,0.7-1.1c0.1,0,0.3-0.1,0.4-0.1c0.5,0,0.9,0.3,1.1,0.9
		l1.1,3.1l0.9-1.7c0.3-0.5,0.6-0.8,1.1-0.8c0.3,0,0.5,0.1,0.7,0.3c0.2,0.2,0.3,0.5,0.3,0.8c0,0.2-0.1,0.4-0.2,0.6l-0.8,1.5l2.4,1.4
		c0.4,0.2,0.6,0.5,0.6,1c0,0.5-0.2,0.9-0.7,1c-0.1,0-0.2,0-0.3,0c-0.2,0-0.5-0.1-0.9-0.3L56.9,432.7z"/>
	<path class="st1" d="M64.6,435.1c-0.2,0.1-0.5,0.1-0.8,0.1c-0.5,0-0.9-0.1-1.3-0.2c-0.5-0.2-0.8-0.5-0.8-1c0-0.2,0.1-0.4,0.2-0.6
		c0.1-0.2,0.3-0.4,0.6-0.4c0.1,0,0.2,0,0.3,0c0.2,0,0.4,0,0.6,0.1c0.3,0.1,0.5,0.1,0.6,0.1c0.1,0,0.2,0,0.3,0
		c0.2-0.1,0.4-0.1,0.3-0.3c0-0.1-0.3-0.1-0.8-0.2c-0.7-0.1-1.2-0.2-1.5-0.4c-0.6-0.3-0.9-0.7-1.1-1.3c0-0.2-0.1-0.4-0.1-0.5
		c0-0.7,0.3-1.3,0.9-1.7c0.5-0.4,1.2-0.6,1.9-0.6c0.5,0,0.9,0.1,1.3,0.3c0.5,0.2,0.7,0.5,0.7,1c0,0.3-0.1,0.5-0.3,0.7
		c-0.2,0.2-0.4,0.3-0.7,0.3c-0.1,0-0.3,0-0.6-0.1c-0.3-0.1-0.5-0.1-0.6-0.1c-0.2,0-0.3,0-0.4,0.1c-0.1,0-0.1,0.1-0.1,0.2
		s0.3,0.1,0.8,0.2c0.7,0.1,1.2,0.2,1.5,0.4c0.6,0.3,0.9,0.7,1.1,1.3c0,0.2,0.1,0.3,0.1,0.5c0,0.6-0.2,1-0.6,1.5
		C65.8,434.7,65.3,435,64.6,435.1z"/>
</g>
<path class="st1" d="M39.1,28.2C39,28.6,39,29,38.9,29.4c0,0.1-0.1,0.4-0.1,0.7c-0.4,0-0.7,0-1.1,0.1c-0.6,0.1-1.3,0.8-1.1,1.5
	c0.2,0.7,1.1,0.8,1.7,0.7c-0.2,0.1,0.3,0.1,0.3,0.1c0.3,0,0.6,0,0.9,0c0.7-0.1,1.4-0.4,1.8-1c0.3-0.5,0.4-1,0.5-1.5
	c0.1-0.7,0.2-1.3,0.2-2C42.2,26.4,39.2,26.7,39.1,28.2z"/>
<path class="st1" d="M28.2,31.4c-0.2-0.7-0.6-1.3-0.9-1.9c-0.2-0.2-0.3-0.4-0.4-0.7l-0.1-0.3l0-0.1c0,0-0.1,0.1-0.2,0.1l0.2-0.1
	l0.1-0.1c0.4-0.4,0.7-0.9,0.3-1.4c-0.4-0.6-1.4-0.6-2-0.3c-1,0.6-1.5,1.6-1.3,2.8c0.2,1.1,1.2,1.7,1.4,2.8
	C25.6,33.7,28.5,32.9,28.2,31.4z"/>
<path class="st1" d="M19.4,30c-0.3-0.7-1-0.9-1.7-0.7c-0.5,0.1-1.4,0.8-1.1,1.5c0.1,0.3,0.6,1.1,0.4,1.5c-0.1,0.1-0.3,0.2-0.5,0.3
	c-0.3,0.2-0.5,0.5-0.7,0.8c-0.9,1.6,1.7,2.2,2.5,1c0.2-0.3,0.4-0.4,0.7-0.6c0.4-0.3,0.7-0.7,0.8-1.2C20,31.7,19.7,30.8,19.4,30z"/>
<path class="st1" d="M9.2,29.8c-0.4-0.4-1-0.7-1.2-1.3c-0.1-0.2-0.1-0.4,0-0.6l0.2,0c0.7-0.1,1.5-0.5,1.5-1.3c0-0.7-0.7-1.1-1.4-1
	c-1.4,0.2-3,0.9-3.2,2.6c-0.2,1.5,0.9,2.6,2,3.4C8.2,32.5,10.5,30.9,9.2,29.8z"/>
<path class="st1" d="M53.6,25.6c-1.6-0.2-3.1,0.5-4.4,1.4c-1,0.7-1.8,2.2-0.5,3.1c0.6,0.4,1.5,0.3,2.1-0.2c0.4-0.3,0.6-1,0.3-1.4
	c0.2-0.1,0.3-0.2,0.5-0.3c0.4-0.2,0.7-0.5,1.2-0.4c0.7,0.1,1.6-0.3,1.8-0.9C54.8,26.2,54.2,25.6,53.6,25.6z"/>
<path class="st1" d="M65.9,29.8c-0.4-0.4-1-0.7-1.2-1.3c-0.1-0.2-0.1-0.4,0-0.6l0.2,0c0.7-0.1,1.5-0.5,1.5-1.3c0-0.7-0.7-1.1-1.4-1
	c-1.4,0.2-3,0.9-3.2,2.6c-0.2,1.5,0.9,2.6,2,3.4C64.8,32.5,67.2,30.9,65.9,29.8z"/>
</svg>
