<svg id="Layer_1" data-name="Layer 1" xmlns="http://www.w3.org/2000/svg" viewBox="0 0 143.61 365.57"><defs><style>.cls-1,.cls-2{fill:red;}.cls-2{stroke:red;stroke-width:0.04px;}.cls-3,.cls-4{fill:none;}.cls-3,.cls-4,.cls-5{stroke:blue;}.cls-3{stroke-miterlimit:10;stroke-width:0.09px;}.cls-4,.cls-5{stroke-linecap:round;stroke-linejoin:round;stroke-width:0.09px;}.cls-5{fill:#fff;}</style></defs><title>VCO</title><path class="cls-1" d="M189.2,115.73h-9.87a1.36,1.36,0,0,1-1.12-2.14L185.59,103a1.34,1.34,0,0,1,1.15-.59,1.37,1.37,0,0,1,1.13.63l3.26,5.11a.26.26,0,0,1,0,.28,9.61,9.61,0,0,0-1.79,5.59,10,10,0,0,0,.12,1.47.25.25,0,0,1-.06.2A.27.27,0,0,1,189.2,115.73Zm-2.49-12.86a.86.86,0,0,0-.71.37l-7.38,10.64a.86.86,0,0,0-.05.89.85.85,0,0,0,.76.46h9.58a11.35,11.35,0,0,1-.08-1.25,10,10,0,0,1,1.79-5.74l-3.18-5a.84.84,0,0,0-.71-.4Z" transform="translate(-127.19 -43.88)"/><path class="cls-1" d="M239.6,117a1.36,1.36,0,0,1-1-.5,1.37,1.37,0,0,1-.2-1.4l5.14-11.89a1.36,1.36,0,0,1,2.23-.4l8.76,9.08a1.36,1.36,0,0,1-.72,2.28L239.88,117A1.33,1.33,0,0,1,239.6,117Zm5.15-14.11h-.17a.82.82,0,0,0-.63.51l-5.14,11.88a.85.85,0,0,0,.13.89.82.82,0,0,0,.84.3h0l13.89-2.8a.87.87,0,0,0,.45-1.45l-8.76-9.08A.83.83,0,0,0,244.75,102.92Z" transform="translate(-127.19 -43.88)"/><path class="cls-1" d="M224.51,216.58a1.37,1.37,0,0,1-.83-.29l-11.21-8.65a1.37,1.37,0,0,1,.42-2.39l12.34-3.9h0a1.35,1.35,0,0,1,1.77,1.42l-1.12,12.56a1.39,1.39,0,0,1-1.37,1.25Zm.87-14.76L213,205.73a.86.86,0,0,0-.59.68.84.84,0,0,0,.32.83L224,215.9a.85.85,0,0,0,.87.1.83.83,0,0,0,.52-.71l1.12-12.56a.86.86,0,0,0-1.12-.91Z" transform="translate(-127.19 -43.88)"/><path class="cls-1" d="M270.56,68.74H262a1.38,1.38,0,0,1-1.13-2.15L268.27,56a1.37,1.37,0,0,1,1.14-.59,1.39,1.39,0,0,1,1.13.63l.23.36a.33.33,0,0,1,0,.14v12A.26.26,0,0,1,270.56,68.74Zm-1.17-12.87a.86.86,0,0,0-.71.37h0l-7.39,10.64a.87.87,0,0,0,.72,1.36h8.3V56.57l-.19-.3a.87.87,0,0,0-.72-.4Zm-.92.23h0Z" transform="translate(-127.19 -43.88)"/><path class="cls-1" d="M139.65,122.22H130a2,2,0,0,1-2-2V110.7a2,2,0,0,1,2-2h9.66a2,2,0,0,1,2,2v9.56A2,2,0,0,1,139.65,122.22Zm-9.66-13a1.45,1.45,0,0,0-1.46,1.45v9.56a1.46,1.46,0,0,0,1.46,1.46h9.66a1.46,1.46,0,0,0,1.46-1.46V110.7a1.45,1.45,0,0,0-1.46-1.45Z" transform="translate(-127.19 -43.88)"/><path class="cls-1" d="M255.68,54.07a.24.24,0,0,1-.14,0,.24.24,0,0,1-.11-.2s0-.07,0-.08a4,4,0,0,0-4-4h-4.25l-.14,0h-.14a.23.23,0,0,1-.25-.17l-1.43-4.05a2,2,0,0,1,.1-1.52.27.27,0,0,1,.23-.14h13.31a.26.26,0,0,1,.24.17l2.11,6a2,2,0,0,1-1.2,2.5l-4.25,1.49Zm-8.49-4.84h4.25a4.51,4.51,0,0,1,4.49,4.23l3.92-1.37a1.46,1.46,0,0,0,.89-1.86l-2.05-5.85h-13a1.43,1.43,0,0,0,0,1h0l1.35,3.86Z" transform="translate(-127.19 -43.88)"/><path class="cls-1" d="M189.26,169H183a2,2,0,0,1-1.95-2v-9.55a2,2,0,0,1,1.95-2h9.67a2,2,0,0,1,2,2v4.37a.24.24,0,0,1-.14.22,9.61,9.61,0,0,0-5,6.72A.25.25,0,0,1,189.26,169Zm-6.23-13a1.45,1.45,0,0,0-1.45,1.46v9.55a1.45,1.45,0,0,0,1.45,1.46h6a10.08,10.08,0,0,1,5.1-6.79v-4.22a1.46,1.46,0,0,0-1.46-1.46Zm11.38,5.83h0Z" transform="translate(-127.19 -43.88)"/><path class="cls-1" d="M158.67,157.25a2.12,2.12,0,0,1-.49-.06l-9.36-2.42a2,2,0,0,1-1.4-2.38l.3-1.18a.25.25,0,0,1,.14-.16.2.2,0,0,1,.21,0,9.65,9.65,0,0,0,13.58-6.56.24.24,0,0,1,.14-.17.24.24,0,0,1,.22,0,2,2,0,0,1,1,2.2l-2.39,9.25A2,2,0,0,1,158.67,157.25Zm-10.54-5.63-.23.89a1.46,1.46,0,0,0,1,1.78l9.36,2.41a1.46,1.46,0,0,0,1.77-1l2.39-9.25A1.43,1.43,0,0,0,162,145a10.11,10.11,0,0,1-9.81,7.53A10,10,0,0,1,148.13,151.62Z" transform="translate(-127.19 -43.88)"/><path class="cls-1" d="M221.07,104.68a.87.87,0,0,1-.53-.18l-1-.82a.86.86,0,0,1-.15-1.2l5-6.39a.35.35,0,0,0-.39-.55l-9.13,3.28a2.62,2.62,0,0,1-2.19-.42h0a2.3,2.3,0,0,1-.66-.82,3.23,3.23,0,0,1,.49-3.41l5.78-7.45a.86.86,0,0,1,1.2-.15l1,.82a.86.86,0,0,1,.33.57.84.84,0,0,1-.18.63l-5.07,6.51a.34.34,0,0,0,0,.42.36.36,0,0,0,.4.14l9.19-3.37A2.43,2.43,0,0,1,228,93.52a3.28,3.28,0,0,1-.49,3.41l-5.76,7.42A.86.86,0,0,1,221.07,104.68Zm3-9.66a.85.85,0,0,1,.66,1.38l-5,6.39a.34.34,0,0,0,.07.49l1,.82a.36.36,0,0,0,.5-.06l5.76-7.42a2.76,2.76,0,0,0,.43-2.88,2,2,0,0,0-2.26-1l-9.18,3.37a.83.83,0,0,1-1-.33.83.83,0,0,1,0-1l5.07-6.5a.37.37,0,0,0,.07-.27.36.36,0,0,0-.13-.23L219.12,87a.3.3,0,0,0-.26-.07.38.38,0,0,0-.24.13l-5.78,7.45a2.76,2.76,0,0,0-.43,2.88,1.81,1.81,0,0,0,.52.64,2,2,0,0,0,1.74.34l9.12-3.28A.84.84,0,0,1,224.06,95Z" transform="translate(-127.19 -43.88)"/><path class="cls-1" d="M138.85,81.72a2.5,2.5,0,0,1-.66-.09A3.25,3.25,0,0,1,136,79l-1.59-9.3a.92.92,0,0,1,.15-.64.83.83,0,0,1,.55-.34l1.32-.23a.82.82,0,0,1,.64.15.88.88,0,0,1,.35.55l1.37,8.14a.34.34,0,0,0,.3.29.36.36,0,0,0,.37-.2l3.72-9A2.44,2.44,0,0,1,146,67.07a3.25,3.25,0,0,1,2.18,2.66L149.79,79a.82.82,0,0,1-.15.64.88.88,0,0,1-.55.35l-1.32.22a.86.86,0,0,1-1-.7l-1.34-8a.36.36,0,0,0-.3-.3.36.36,0,0,0-.37.2l-3.75,9a2.59,2.59,0,0,1-1.79,1.32A2.56,2.56,0,0,1,138.85,81.72ZM136.58,69h-.06l-1.31.23a.35.35,0,0,0-.29.41l1.58,9.29a2.76,2.76,0,0,0,1.83,2.27,1.81,1.81,0,0,0,.83,0,2,2,0,0,0,1.42-1l3.74-8.94a.86.86,0,0,1,1.62.21h0l1.34,8a.36.36,0,0,0,.41.29l1.32-.23a.35.35,0,0,0,.29-.41l-1.58-9.25a2.76,2.76,0,0,0-1.83-2.27,2,2,0,0,0-2.25,1l-3.72,9a.83.83,0,0,1-.89.49.84.84,0,0,1-.73-.7l-1.37-8.14a.33.33,0,0,0-.14-.23A.37.37,0,0,0,136.58,69Z" transform="translate(-127.19 -43.88)"/><path class="cls-1" d="M270.43,97.18a3.58,3.58,0,0,1-1.6-.37l-8.49-4.11a.83.83,0,0,1-.43-.49.81.81,0,0,1,0-.65l.59-1.21a.85.85,0,0,1,1.14-.39l7.42,3.61a.35.35,0,0,0,.41-.08.32.32,0,0,0,.05-.41l-5.2-8.3a2.44,2.44,0,0,1,.61-3h0a3.25,3.25,0,0,1,3.44-.23l2.27,1.1a.26.26,0,0,1,.14.22v2.81a.24.24,0,0,1-.12.21.23.23,0,0,1-.24,0l-2.21-1.07a.33.33,0,0,0-.41.07.35.35,0,0,0-.06.42l3,4.84a.33.33,0,0,1,0,.13v6.68a.26.26,0,0,1-.24.25Zm-9.13-6.81a.34.34,0,0,0-.32.2l-.59,1.2a.36.36,0,0,0,0,.27.34.34,0,0,0,.18.21l8.49,4.11a3.3,3.3,0,0,0,1.26.32V90.32l-3-4.79a.85.85,0,0,1,1.12-1.19l1.85.9V83l-2.13-1a2.75,2.75,0,0,0-2.91.17h0a1.94,1.94,0,0,0-.48,2.41L270,92.82a.86.86,0,0,1-.12,1,.84.84,0,0,1-1,.18l-7.42-3.61A.28.28,0,0,0,261.3,90.37Zm3.82-8.43Z" transform="translate(-127.19 -43.88)"/><path class="cls-1" d="M270,286.94a1.33,1.33,0,0,1-.79-.25l-11.51-8.27a1.37,1.37,0,0,1-.55-1.3,1.35,1.35,0,0,1,.89-1.1h0l12.2-4.32a1,1,0,0,1,.22-.05.34.34,0,0,1,.22.05.3.3,0,0,1,.1.19v14.67a.26.26,0,0,1-.14.22A1.32,1.32,0,0,1,270,286.94Zm-11.79-10.45a.86.86,0,0,0-.57.7.87.87,0,0,0,.35.82l11.51,8.27a.84.84,0,0,0,.78.12V272.22Z" transform="translate(-127.19 -43.88)"/><path class="cls-1" d="M161.88,101.06a1.31,1.31,0,0,1-1-.44l-9.64-10.38h0a1.35,1.35,0,0,1-.29-1.38,1.36,1.36,0,0,1,1.09-.9l12.82-1.82a1.36,1.36,0,0,1,1.51,1.69L163.21,100a1.35,1.35,0,0,1-1,1A1.32,1.32,0,0,1,161.88,101.06ZM151.61,89.9l9.64,10.38a.85.85,0,0,0,.85.25.83.83,0,0,0,.62-.62L165.9,87.7a.87.87,0,0,0-.19-.79.86.86,0,0,0-.77-.28l-12.82,1.83a.85.85,0,0,0-.69.56.86.86,0,0,0,.18.88Z" transform="translate(-127.19 -43.88)"/><path class="cls-1" d="M186.21,241.4h-.08a2,2,0,0,1-1.36-.62h0l-6.58-7.09a2,2,0,0,1,.1-2.76l7-6.51a2,2,0,0,1,1.4-.52,1.9,1.9,0,0,1,1.36.63l1.29,1.38a.31.31,0,0,1,.07.2,8.21,8.21,0,0,0-.09,1.24,9.59,9.59,0,0,0,3.95,7.79.23.23,0,0,1,.1.19.24.24,0,0,1-.08.2l-5.76,5.35A2,2,0,0,1,186.21,241.4Zm-1.07-1a1.43,1.43,0,0,0,1,.46,1.38,1.38,0,0,0,1-.39l5.55-5.15a10.13,10.13,0,0,1-3.85-9.19l-1.2-1.3a1.45,1.45,0,0,0-2.06-.08l-7,6.5a1.47,1.47,0,0,0-.46,1,1.42,1.42,0,0,0,.39,1Z" transform="translate(-127.19 -43.88)"/><path class="cls-1" d="M259.46,367.46a2,2,0,0,1-.91-.23l-8.55-4.5a2,2,0,0,1-1-1.16,2,2,0,0,1,.14-1.49l4.45-8.45h0a2,2,0,0,1,2.65-.82l8.55,4.5a2,2,0,0,1,.82,2.65l-4.45,8.45a1.94,1.94,0,0,1-1.16,1A1.9,1.9,0,0,1,259.46,367.46Zm-5.38-15.6-4.46,8.45a1.45,1.45,0,0,0-.1,1.12,1.43,1.43,0,0,0,.71.85l8.55,4.51a1.45,1.45,0,0,0,1.12.1,1.39,1.39,0,0,0,.85-.71l4.46-8.45a1.46,1.46,0,0,0-.61-2l-8.55-4.51a1.46,1.46,0,0,0-2,.61Z" transform="translate(-127.19 -43.88)"/><path class="cls-1" d="M228.26,278.26h-.07a1.93,1.93,0,0,1-1.37-.62l-6.57-7.08a1.94,1.94,0,0,1,.1-2.77l7-6.5a1.93,1.93,0,0,1,1.41-.53,2,2,0,0,1,1.36.63l6.58,7.08h0a2,2,0,0,1,.52,1.41,1.93,1.93,0,0,1-.63,1.36l-7,6.5A1.93,1.93,0,0,1,228.26,278.26Zm.42-17a1.45,1.45,0,0,0-1,.39l-7,6.51a1.44,1.44,0,0,0-.47,1,1.51,1.51,0,0,0,.39,1l6.58,7.08a1.46,1.46,0,0,0,2.06.08l7-6.51a1.46,1.46,0,0,0,.08-2.06l-6.58-7.08a1.44,1.44,0,0,0-1-.47Z" transform="translate(-127.19 -43.88)"/><path class="cls-1" d="M246.9,196.38a.87.87,0,0,1-.86-.78l-.11-1.33a.85.85,0,0,1,.77-.93l8.08-.69a.32.32,0,0,0,.31-.27.35.35,0,0,0-.16-.39l-8.63-4.46a2.55,2.55,0,0,1-1.17-1.89,2.19,2.19,0,0,1,.14-1,3.25,3.25,0,0,1,2.83-2l9.39-.83a.84.84,0,0,1,.93.77l.12,1.34a.86.86,0,0,1-.78.92l-8.22.71a.34.34,0,0,0-.31.28.34.34,0,0,0,.16.38l8.73,4.45h0a2.44,2.44,0,0,1,1,2.91,3.27,3.27,0,0,1-2.83,2l-9.36.82Zm10.67-14.07h0l-9.4.83a2.75,2.75,0,0,0-2.4,1.64,1.93,1.93,0,0,0-.12.82,2.08,2.08,0,0,0,.94,1.5l8.61,4.45a.86.86,0,0,1-.35,1.6l-8.07.69a.35.35,0,0,0-.32.38l.11,1.33a.37.37,0,0,0,.39.33l9.35-.83a2.76,2.76,0,0,0,2.41-1.64,1.94,1.94,0,0,0-.81-2.31l-8.72-4.45a.86.86,0,0,1,.34-1.6l8.22-.71A.35.35,0,0,0,258,184l-.12-1.33a.35.35,0,0,0-.12-.24A.34.34,0,0,0,257.57,182.31Z" transform="translate(-127.19 -43.88)"/><path class="cls-1" d="M237.33,390.9a3.33,3.33,0,0,1-2.74-1.66l-5-8a.86.86,0,0,1,.27-1.18l1.14-.7a.8.8,0,0,1,.64-.11.86.86,0,0,1,.53.38l4.34,7a.33.33,0,0,0,.39.15.35.35,0,0,0,.27-.32l0-9.79a2.44,2.44,0,0,1,2.15-2.24,3.23,3.23,0,0,1,3,1.64l5,8a.88.88,0,0,1,.11.65.86.86,0,0,1-.38.53l-1.14.71a.85.85,0,0,1-1.17-.28l-4.26-6.9a.34.34,0,0,0-.39-.15.34.34,0,0,0-.26.32l-.1,9.71a2.6,2.6,0,0,1-1.15,1.9,2.48,2.48,0,0,1-1,.34Zm-5.85-11.18a.32.32,0,0,0-.19,0l-1.13.7a.36.36,0,0,0-.12.49l5,8a2.72,2.72,0,0,0,2.55,1.41,1.77,1.77,0,0,0,.78-.27,2,2,0,0,0,.92-1.51l.1-9.69a.83.83,0,0,1,.64-.79.86.86,0,0,1,.94.38l4.25,6.9a.35.35,0,0,0,.49.11h0l1.13-.7a.36.36,0,0,0,.12-.49l-5-8a2.77,2.77,0,0,0-2.55-1.41,2,2,0,0,0-1.7,1.78l0,9.78a.85.85,0,0,1-1.58.41l-4.34-7a.34.34,0,0,0-.22-.15Z" transform="translate(-127.19 -43.88)"/><path class="cls-1" d="M137.54,244.68a1.5,1.5,0,0,1-.55-.11l-9.64-4.12a.25.25,0,0,1-.16-.23v-5.64a.27.27,0,0,1,.12-.21l7.43-4.66a1.35,1.35,0,0,1,1.28-.09,1.38,1.38,0,0,1,.79,1l2.07,12.45a1.34,1.34,0,0,1-.51,1.29A1.3,1.3,0,0,1,137.54,244.68Zm-9.85-4.63,9.5,4.06a.85.85,0,0,0,.87-.12.83.83,0,0,0,.32-.82h0l-2.06-12.45a.84.84,0,0,0-.5-.64.88.88,0,0,0-.82,0l-7.31,4.59Z" transform="translate(-127.19 -43.88)"/><path class="cls-1" d="M177.62,304.71a1.43,1.43,0,0,1-.29,0l-13.87-2.87a1.36,1.36,0,0,1-1-1,1.37,1.37,0,0,1,.38-1.37l9.38-8.91a1.34,1.34,0,0,1,1.24-.34,1.39,1.39,0,0,1,1,.84l4.48,11.79a1.34,1.34,0,0,1-.23,1.37A1.36,1.36,0,0,1,177.62,304.71Zm-4.5-14a.91.91,0,0,0-.6.24l-9.38,8.92a.84.84,0,0,0-.24.86.86.86,0,0,0,.66.61l13.87,2.87a.86.86,0,0,0,1-1.15h0l-4.49-11.79a.85.85,0,0,0-.62-.53A.63.63,0,0,0,173.12,290.69Z" transform="translate(-127.19 -43.88)"/><path class="cls-1" d="M163.17,198.07a1.31,1.31,0,0,1-.54-.11l-.72-.31a.25.25,0,0,1-.15-.19,9.61,9.61,0,0,0-10.51-8.07.25.25,0,0,1-.15-.46l9.27-5.82a1.35,1.35,0,0,1,1.29-.09,1.38,1.38,0,0,1,.79,1l2.06,12.44a1.33,1.33,0,0,1-.5,1.3A1.38,1.38,0,0,1,163.17,198.07Zm-.94-.82.6.25a.86.86,0,0,0,.87-.11.88.88,0,0,0,.32-.83L162,184.12a.86.86,0,0,0-.5-.65.84.84,0,0,0-.81.06l-8.46,5.31h0A10.12,10.12,0,0,1,162.23,197.25Z" transform="translate(-127.19 -43.88)"/><path class="cls-1" d="M134.33,406.38a1.33,1.33,0,0,1-1.19-.7l-5.91-10.56a.28.28,0,0,1,0-.13v-3.45a.25.25,0,0,1,.25-.25.33.33,0,0,1,.1,0l12.88,1.25a1.37,1.37,0,0,1,1.08.71,1.4,1.4,0,0,1,0,1.29l-6,11.12a1.38,1.38,0,0,1-1.19.72Zm-6.64-11.45,5.88,10.5a.87.87,0,0,0,.76.45h0a.88.88,0,0,0,.76-.46h0l6-11.11a.88.88,0,0,0,0-.82.84.84,0,0,0-.68-.45l-12.69-1.24Z" transform="translate(-127.19 -43.88)"/><path class="cls-1" d="M164.86,264.77a1.9,1.9,0,0,1-.77-.16l-4.66-2a.22.22,0,0,1-.14-.17.24.24,0,0,1,.06-.23,9.65,9.65,0,0,0-.35-13.43.23.23,0,0,1-.07-.23.26.26,0,0,1,.16-.18,1.93,1.93,0,0,1,1.4.05l8.89,3.79a2,2,0,0,1,1,2.57l-3.75,8.79a2,2,0,0,1-1.07,1.05A2.1,2.1,0,0,1,164.86,264.77ZM160,262.3l4.34,1.85a1.46,1.46,0,0,0,1.91-.77l3.75-8.79a1.45,1.45,0,0,0-.77-1.91l-8.89-3.8h0a1.43,1.43,0,0,0-.62-.11A10.14,10.14,0,0,1,160,262.3Z" transform="translate(-127.19 -43.88)"/><path class="cls-1" d="M189.07,341h0l-3-.19a2,2,0,0,1-1.82-2.09l.62-9.53a2,2,0,0,1,.67-1.35,2,2,0,0,1,1.42-.48l9.64.64a1.95,1.95,0,0,1,1.83,2.08l0,.75a.27.27,0,0,1-.23.24,9.6,9.6,0,0,0-8.8,9.62.35.35,0,0,1-.08.22C189.2,341,189.14,341,189.07,341Zm-2.26-13.15a1.42,1.42,0,0,0-1,.36,1.49,1.49,0,0,0-.5,1l-.63,9.54a1.47,1.47,0,0,0,1.36,1.55l2.75.18a10.11,10.11,0,0,1,9-9.9l0-.54a1.42,1.42,0,0,0-.36-1.06,1.44,1.44,0,0,0-1-.49l-9.65-.64Zm11.3,3h0Z" transform="translate(-127.19 -43.88)"/><path class="cls-1" d="M144.87,367.27a1.89,1.89,0,0,1-.76-.16l-8.89-3.79a2,2,0,0,1-1-2.57l3.76-8.79a2,2,0,0,1,2.56-1l8.9,3.79a2,2,0,0,1,1,2.57l-3.75,8.79A2,2,0,0,1,144.87,367.27Zm-5.13-16a1.44,1.44,0,0,0-1.34.89L134.64,361a1.46,1.46,0,0,0,.77,1.91l8.89,3.79a1.46,1.46,0,0,0,1.92-.77L150,357.1a1.47,1.47,0,0,0-.77-1.92h0l-8.89-3.79A1.46,1.46,0,0,0,139.74,351.27Z" transform="translate(-127.19 -43.88)"/><path class="cls-1" d="M174.28,387.31a2,2,0,0,1-1.19-.41L165.43,381a2,2,0,0,1-.35-2.75l5.82-7.57a1.9,1.9,0,0,1,1.3-.75,1.93,1.93,0,0,1,1.45.39l7.66,5.89h0a2,2,0,0,1,.36,2.75l-5.83,7.57a1.94,1.94,0,0,1-1.3.75Zm-1.82-16.89h-.19a1.45,1.45,0,0,0-1,.56l-5.83,7.57a1.46,1.46,0,0,0,.27,2.05l7.66,5.89a1.4,1.4,0,0,0,1.08.29,1.38,1.38,0,0,0,1-.55l5.83-7.57a1.47,1.47,0,0,0-.26-2.05l-7.66-5.9A1.51,1.51,0,0,0,172.46,370.42Z" transform="translate(-127.19 -43.88)"/><path class="cls-1" d="M135.49,301.11a.71.71,0,0,1-.2,0l-1.3-.31a.86.86,0,0,1-.53-.38.87.87,0,0,1-.1-.65l1.91-7.88a.34.34,0,0,0-.16-.38.35.35,0,0,0-.42,0l-7,6.77-.11.07a.26.26,0,0,1-.27,0,.25.25,0,0,1-.15-.21v-2.94a.25.25,0,0,1,.16-.23.6.6,0,0,0,.11-.06l7-6.87a2.43,2.43,0,0,1,3.1-.05,3.26,3.26,0,0,1,1,3.31l-2.19,9.13a.86.86,0,0,1-.38.53A.89.89,0,0,1,135.49,301.11Zm-.57-10.18a.78.78,0,0,1,.44.13.85.85,0,0,1,.4.93l-1.91,7.88a.34.34,0,0,0,0,.26.32.32,0,0,0,.22.16l1.3.31a.32.32,0,0,0,.27,0,.4.4,0,0,0,.16-.22l2.18-9.13a2.77,2.77,0,0,0-.79-2.8,2,2,0,0,0-2.47,0l-7,6.85-.11.08v2.23l6.66-6.45h0A.86.86,0,0,1,134.92,290.93Z" transform="translate(-127.19 -43.88)"/><path class="cls-1" d="M269.72,329a3.57,3.57,0,0,1-2-.64l-7.8-5.29a.86.86,0,0,1-.23-1.19l.75-1.1a.86.86,0,0,1,1.19-.23l6.81,4.64a.34.34,0,0,0,.42,0,.37.37,0,0,0,.12-.41l-4-9a2.44,2.44,0,0,1,1.05-2.92h0a3.26,3.26,0,0,1,3.43.27l1.2.81a.26.26,0,0,1,.11.21v3.05a.26.26,0,0,1-.14.22.23.23,0,0,1-.25,0l-1.55-1a.35.35,0,0,0-.42,0,.33.33,0,0,0-.11.4l2.45,5.64a.3.3,0,0,1,0,.1v6.08a.24.24,0,0,1-.18.23A2.8,2.8,0,0,1,269.72,329Zm-8.57-8.1h-.07a.34.34,0,0,0-.23.15l-.75,1.1a.34.34,0,0,0,.1.49L268,328a3,3,0,0,0,2.31.48v-5.84l-2.43-5.6a.85.85,0,0,1,1.27-1l1.16.78v-2.44l-1.09-.74a2.75,2.75,0,0,0-2.9-.24h0a2,2,0,0,0-.83,2.31l3.95,8.95a.84.84,0,0,1-.27,1,.86.86,0,0,1-1,0L261.34,321A.33.33,0,0,0,261.15,320.93Z" transform="translate(-127.19 -43.88)"/><path class="cls-1" d="M214.06,292.7a.84.84,0,0,1-.64-.29l-5-5.78a.23.23,0,0,1,0-.22,9.81,9.81,0,0,0,.3-2.37c0-.33,0-.66,0-1a.24.24,0,0,1,.13-.24.24.24,0,0,1,.27,0,4.31,4.31,0,0,1,.53.49l6.16,7.09a.83.83,0,0,1,.21.62.88.88,0,0,1-.29.58l-1,.88A.85.85,0,0,1,214.06,292.7Zm-5.18-6.3,4.91,5.68a.36.36,0,0,0,.5,0l1-.87a.39.39,0,0,0,.12-.25.33.33,0,0,0-.09-.26l-6.16-7.08h0c0,.14,0,.27,0,.4A10.22,10.22,0,0,1,208.88,286.4Z" transform="translate(-127.19 -43.88)"/><path class="cls-1" d="M206.47,298.8a3.45,3.45,0,0,1-2.54-1.24l-3.16-3.63a.25.25,0,0,1-.05-.25.24.24,0,0,1,.19-.16,9.35,9.35,0,0,0,2.5-.89.26.26,0,0,1,.31.06l1.73,2a.34.34,0,0,0,.4.09.34.34,0,0,0,.22-.36l-.5-3.15a.23.23,0,0,1,.07-.22,9.63,9.63,0,0,0,1.75-2.22.27.27,0,0,1,.26-.12.24.24,0,0,1,.2.21l1.1,7.22a2.6,2.6,0,0,1-.83,2.06,2.34,2.34,0,0,1-.93.5A2.91,2.91,0,0,1,206.47,298.8Zm-5.05-4.89,2.89,3.33a2.75,2.75,0,0,0,2.74,1,2,2,0,0,0,.74-.39,2.06,2.06,0,0,0,.66-1.64l-1-6.52a10.32,10.32,0,0,1-1.38,1.65l.48,3a.85.85,0,0,1-.51.89.84.84,0,0,1-1-.23l-1.6-1.84A10.49,10.49,0,0,1,201.42,293.91Z" transform="translate(-127.19 -43.88)"/><g id="Art"><g id="Jack_Out" data-name="Jack Out"><path class="cls-1" d="M256.81,212.69H234.14a5.66,5.66,0,0,0-5.67,5.67v34a5.67,5.67,0,0,0,5.67,5.67h22.67a5.67,5.67,0,0,0,5.67-5.67v-34A5.67,5.67,0,0,0,256.81,212.69ZM252.29,254l-14.17.06a1.12,1.12,0,0,1-.93-1.75l7.34-10.66a1.11,1.11,0,0,1,1.85,0l6.84,10.6A1.12,1.12,0,0,1,252.29,254Z" transform="translate(-127.19 -43.88)"/><path class="cls-1" d="M256.81,297.71H234.14a5.67,5.67,0,0,0-5.67,5.67v34a5.67,5.67,0,0,0,5.67,5.67h22.67a5.67,5.67,0,0,0,5.67-5.67v-34A5.67,5.67,0,0,0,256.81,297.71Zm-4.53,39.64a1.7,1.7,0,0,1-1.7,1.71h-9.67a1.71,1.71,0,0,1-1.71-1.71V327.8a1.71,1.71,0,0,1,1.71-1.71h9.67a1.7,1.7,0,0,1,1.7,1.71Z" transform="translate(-127.19 -43.88)"/><path class="cls-2" d="M256.81,127.66H234.14a5.67,5.67,0,0,0-5.67,5.67v34a5.67,5.67,0,0,0,5.67,5.67h22.67a5.67,5.67,0,0,0,5.67-5.67v-34A5.67,5.67,0,0,0,256.81,127.66Zm-5.08,41.65h-1.34a.6.6,0,0,1-.61-.6v-8.1a.61.61,0,0,0-1.1-.35l-5.18,8.22a2.29,2.29,0,0,1-1.77.9,2.17,2.17,0,0,1-.92-.21,3,3,0,0,1-1.57-2.76l0-9.43a.6.6,0,0,1,.6-.61h1.34a.61.61,0,0,1,.61.6v8.25a.61.61,0,0,0,1.11.35l5.17-8.33a2.2,2.2,0,0,1,2.69-.69,3,3,0,0,1,1.57,2.76l0,9.39A.6.6,0,0,1,251.73,169.31Z" transform="translate(-127.19 -43.88)"/></g></g><rect id="rect4255" class="cls-3" x="0.25" y="0.25" width="143.11" height="365.27"/><path id="path68-3" class="cls-4" d="M162.15,142.33a9.92,9.92,0,1,1-9.92-9.92A9.92,9.92,0,0,1,162.15,142.33Z" transform="translate(-127.19 -43.88)"/><path id="path72-9" class="cls-4" d="M162.15,199a9.92,9.92,0,1,1-9.92-9.92A9.92,9.92,0,0,1,162.15,199Z" transform="translate(-127.19 -43.88)"/><path id="path76-8" class="cls-4" d="M162.15,255.7a9.92,9.92,0,1,1-9.92-9.92A9.92,9.92,0,0,1,162.15,255.7Z" transform="translate(-127.19 -43.88)"/><path id="path80-4" class="cls-4" d="M162.15,312.38a9.92,9.92,0,1,1-9.92-9.92A9.92,9.92,0,0,1,162.15,312.38Z" transform="translate(-127.19 -43.88)"/><path id="path84-7" class="cls-4" d="M208.92,114a9.92,9.92,0,1,1-9.92-9.91A9.92,9.92,0,0,1,208.92,114Z" transform="translate(-127.19 -43.88)"/><path id="path88" class="cls-4" d="M208.92,170.67a9.92,9.92,0,1,1-9.92-9.92A9.92,9.92,0,0,1,208.92,170.67Z" transform="translate(-127.19 -43.88)"/><path id="path92-8" class="cls-4" d="M208.92,227.35a9.92,9.92,0,1,1-9.92-9.92A9.92,9.92,0,0,1,208.92,227.35Z" transform="translate(-127.19 -43.88)"/><path id="path96" class="cls-4" d="M208.92,284a9.92,9.92,0,1,1-9.92-9.92A9.92,9.92,0,0,1,208.92,284Z" transform="translate(-127.19 -43.88)"/><path id="path100-1" class="cls-4" d="M208.92,340.72A9.92,9.92,0,1,1,199,330.8,9.92,9.92,0,0,1,208.92,340.72Z" transform="translate(-127.19 -43.88)"/><path id="path104" class="cls-5" d="M255.69,142.33a9.92,9.92,0,1,1-9.92-9.92A9.92,9.92,0,0,1,255.69,142.33Z" transform="translate(-127.19 -43.88)"/><path id="path108-0" class="cls-5" d="M255.69,227.35a9.92,9.92,0,1,1-9.92-9.92A9.92,9.92,0,0,1,255.69,227.35Z" transform="translate(-127.19 -43.88)"/><path id="path112-3" class="cls-5" d="M255.69,312.38a9.92,9.92,0,1,1-9.92-9.92A9.92,9.92,0,0,1,255.69,312.38Z" transform="translate(-127.19 -43.88)"/><path id="path118-8" class="cls-4" d="M146.56,58h4.25a4.26,4.26,0,0,0,0-8.51h-4.25a4.26,4.26,0,0,0,0,8.51Z" transform="translate(-127.19 -43.88)"/><path id="path122-2" class="cls-4" d="M247.19,58h4.25a4.26,4.26,0,0,0,0-8.51h-4.25a4.26,4.26,0,0,0,0,8.51Z" transform="translate(-127.19 -43.88)"/><path id="path126-3" class="cls-4" d="M247.19,405.18h4.25a4.26,4.26,0,0,0,0-8.51h-4.25a4.26,4.26,0,0,0,0,8.51Z" transform="translate(-127.19 -43.88)"/><path id="path130-6" class="cls-4" d="M146.56,405.18h4.25a4.26,4.26,0,0,0,0-8.51h-4.25a4.26,4.26,0,0,0,0,8.51Z" transform="translate(-127.19 -43.88)"/><path id="path134-0" class="cls-4" d="M169.79,114.28a4.27,4.27,0,1,1-4.27-4.27A4.27,4.27,0,0,1,169.79,114.28Z" transform="translate(-127.19 -43.88)"/><path class="cls-1" d="M181.19,56.22a2.69,2.69,0,0,0-1.06-1.74,3.19,3.19,0,0,0-1.94-.63,2.85,2.85,0,0,0-2.88,2.4l-2.07,11.16-5.72-9.78A3.08,3.08,0,0,0,165,56.16a3,3,0,0,0-2.12.87,3,3,0,0,0-.61.8,3.72,3.72,0,0,0-1.69.92,3.35,3.35,0,0,0-1.12,2.51,4.21,4.21,0,0,0,.63,2.17l9.75,15.88a3.63,3.63,0,0,0,3.14,2,4.86,4.86,0,0,0,.74-.07,3.59,3.59,0,0,0,1.59-.69,4.08,4.08,0,0,0,1.4-2.51s.13-1.07.15-1.17h0a3.92,3.92,0,0,0,.75-1.7l3.56-17.58A3.52,3.52,0,0,0,181.19,56.22ZM173.53,80.3a2.58,2.58,0,0,1-2.85-1.51l-9.74-15.88a3.15,3.15,0,0,1-.49-1.65,2.35,2.35,0,0,1,.8-1.78A3.12,3.12,0,0,1,162,59a.44.44,0,0,0,0,.1,3.62,3.62,0,0,0,.54,1.83l9.4,15.3a3,3,0,0,0,2.6,1.74,3.52,3.52,0,0,0,.63-.06,2.81,2.81,0,0,0,.62-.18l0,0A2.69,2.69,0,0,1,173.53,80.3Z" transform="translate(-127.19 -43.88)"/><path class="cls-1" d="M205.46,57.53a12.35,12.35,0,0,0-2-1,5.46,5.46,0,0,0-.47-.31,11.42,11.42,0,0,0-4.11-1.5,12,12,0,0,0-1.86-.15,10.23,10.23,0,0,0-7.22,2.8,12.14,12.14,0,0,0-3.7,7.28,13.12,13.12,0,0,0-.18,2.16,11.48,11.48,0,0,0,1.7,6.21,11.74,11.74,0,0,0,2.07,3.84A11.34,11.34,0,0,0,197,81.07a12.53,12.53,0,0,0,2.1.16,11,11,0,0,0,4.21-.72,4,4,0,0,0,2.64-3,3.21,3.21,0,0,0-.75-2.69,3.15,3.15,0,0,0-2.12-1.18,3,3,0,0,0-.48-.84,2.57,2.57,0,0,0-2.08-1,7.66,7.66,0,0,0-1.64.3,8,8,0,0,1-2,.3,6.58,6.58,0,0,1-.87-.06,5,5,0,0,1-1-.29,5.64,5.64,0,0,1-.67-2.81,7.73,7.73,0,0,1,.12-1.33,6.82,6.82,0,0,1,1.61-3.72,3.93,3.93,0,0,1,3-1.34,4.9,4.9,0,0,1,.77.06,6.34,6.34,0,0,1,2.34.81,6.12,6.12,0,0,0,2.71,1,3.08,3.08,0,0,0,2.32-1,3.41,3.41,0,0,0,.93-2.35C208.2,59.91,207.28,58.62,205.46,57.53Zm-1,17.9a2.23,2.23,0,0,1,.53,1.89,3,3,0,0,1-2,2.26,10.08,10.08,0,0,1-3.83.65,11.67,11.67,0,0,1-1.94-.15h0a10.32,10.32,0,0,1-6.72-3.81,2.92,2.92,0,0,1-.21-.28A10.75,10.75,0,0,0,195.18,78a11.88,11.88,0,0,0,1.95.15,10.1,10.1,0,0,0,3.87-.66A3.33,3.33,0,0,0,203.25,75a2,2,0,0,0,0-.34A2.21,2.21,0,0,1,204.46,75.43ZM206.53,63a2.07,2.07,0,0,1-1.58.69,5.06,5.06,0,0,1-2.21-.9,7.5,7.5,0,0,0-2.69-.93,7,7,0,0,0-.92-.07,4.9,4.9,0,0,0-3.76,1.66,7.86,7.86,0,0,0-1.87,4.24,8.41,8.41,0,0,0-.13,1.49,7.76,7.76,0,0,0,.24,1.92,4.28,4.28,0,0,1-.53-.59,5.65,5.65,0,0,1-1-3.45,7.87,7.87,0,0,1,.12-1.35,7.08,7.08,0,0,1,1.68-3.84,4.26,4.26,0,0,1,3.27-1.44,5.32,5.32,0,0,1,.81.06,6.64,6.64,0,0,1,2.43.84,5.5,5.5,0,0,0,2.37.93,2.45,2.45,0,0,0,1.87-.83,2.74,2.74,0,0,0,.58-2.91c1.33.85,2,1.8,2,2.81A2.35,2.35,0,0,1,206.53,63Z" transform="translate(-127.19 -43.88)"/><path class="cls-1" d="M236.28,60.53a11,11,0,0,0-6-3.89,11,11,0,0,0-3.52-1.15,11.66,11.66,0,0,0-1.86-.15,10.19,10.19,0,0,0-7.19,2.8,12.12,12.12,0,0,0-3.7,7.25,13.49,13.49,0,0,0-.18,2.16,11.64,11.64,0,0,0,2,6.78,12,12,0,0,0,1.75,3A11.39,11.39,0,0,0,225,81.51a13.51,13.51,0,0,0,2,.16,11,11,0,0,0,7.81-3.07,13.24,13.24,0,0,0,4-7.78,14.49,14.49,0,0,0,.19-2.27A12.69,12.69,0,0,0,236.28,60.53Zm-16.16,5.85a7.61,7.61,0,0,1,1.71-3.9,4.21,4.21,0,0,1,3.3-1.5,3.46,3.46,0,0,1,.78.09,4.39,4.39,0,0,1,2.42,1.14l-.26-.07a4.7,4.7,0,0,0-.91-.1,4.87,4.87,0,0,0-3.8,1.73,8.38,8.38,0,0,0-1.89,4.3,10,10,0,0,0-.13,1.64,7.57,7.57,0,0,0,.41,2.5,4.05,4.05,0,0,1-.73-.76,6,6,0,0,1-1-3.57A9.48,9.48,0,0,1,220.12,66.38Zm2.22,3.33a10.42,10.42,0,0,1,.11-1.48,7.55,7.55,0,0,1,1.66-3.8,3.88,3.88,0,0,1,3-1.39,3.34,3.34,0,0,1,.7.08h0a4.39,4.39,0,0,1,1.43.48,6.59,6.59,0,0,1,.57,2.83,8.75,8.75,0,0,1-.12,1.44,7.56,7.56,0,0,1-1.65,3.87,4.27,4.27,0,0,1-3.33,1.53,3.86,3.86,0,0,1-.81-.09,6,6,0,0,1-.76-.19A5.81,5.81,0,0,1,222.34,69.71Zm15.48,1a12.29,12.29,0,0,1-3.68,7.22A10.09,10.09,0,0,1,227,80.67a11.66,11.66,0,0,1-1.86-.15h0a10.45,10.45,0,0,1-6.35-3.35,11.19,11.19,0,0,0,4.32,1.6,11.66,11.66,0,0,0,1.86.15,10.14,10.14,0,0,0,7.2-2.82,12.19,12.19,0,0,0,3.69-7.23,12.41,12.41,0,0,0,.18-2.1,11.66,11.66,0,0,0-2.52-7.43l-.21-.24a10.25,10.25,0,0,1,2.17,2,11.62,11.62,0,0,1,2.51,7.4A12.61,12.61,0,0,1,237.82,70.66Z" transform="translate(-127.19 -43.88)"/><path class="cls-1" d="M183.11,133.64a2.89,2.89,0,0,1,.22-1.2,2.38,2.38,0,0,1,.6-.84,2.62,2.62,0,0,1,.9-.49,3.57,3.57,0,0,1,1.1-.16,6.27,6.27,0,0,1,.74.05,4.13,4.13,0,0,1,.78.18l-.2.78a4.39,4.39,0,0,0-.67-.17c-.2,0-.41,0-.61,0a2.67,2.67,0,0,0-.75.11,1.64,1.64,0,0,0-.61.33,1.56,1.56,0,0,0-.41.58,2.25,2.25,0,0,0-.16.87,2.12,2.12,0,0,0,.15.83,1.47,1.47,0,0,0,.4.57,1.61,1.61,0,0,0,.62.33,2.54,2.54,0,0,0,.8.11,5,5,0,0,0,.68,0,3,3,0,0,0,.71-.17l.13.76a3.76,3.76,0,0,1-.78.21,5.71,5.71,0,0,1-.86.06,3.6,3.6,0,0,1-1.12-.17,2.44,2.44,0,0,1-.88-.5,2.26,2.26,0,0,1-.58-.83A3.2,3.2,0,0,1,183.11,133.64Z" transform="translate(-127.19 -43.88)"/><path class="cls-1" d="M193.13,133.62a3.43,3.43,0,0,1-.17,1.1,2.4,2.4,0,0,1-.48.84,2,2,0,0,1-.74.54,2.24,2.24,0,0,1-1.85,0,2.14,2.14,0,0,1-.73-.54,2.4,2.4,0,0,1-.48-.84,3.43,3.43,0,0,1-.17-1.1,3.48,3.48,0,0,1,.17-1.1,2.31,2.31,0,0,1,.48-.84,2.28,2.28,0,0,1,.73-.54,2.35,2.35,0,0,1,1.85,0,2.12,2.12,0,0,1,.74.54,2.31,2.31,0,0,1,.48.84A3.48,3.48,0,0,1,193.13,133.62Zm-.93,0a2.25,2.25,0,0,0-.38-1.37,1.21,1.21,0,0,0-1-.5,1.19,1.19,0,0,0-1,.5,2.32,2.32,0,0,0-.36,1.37,2.26,2.26,0,0,0,.36,1.36,1.17,1.17,0,0,0,1,.5,1.19,1.19,0,0,0,1-.5A2.2,2.2,0,0,0,192.2,133.62Z" transform="translate(-127.19 -43.88)"/><path class="cls-1" d="M196.29,131a3,3,0,0,1,1,.14,1.66,1.66,0,0,1,.63.4,1.34,1.34,0,0,1,.34.62,2.8,2.8,0,0,1,.1.79v3.19l-.84.13a7.48,7.48,0,0,1-1.07.08,5.55,5.55,0,0,1-.82-.07,2.25,2.25,0,0,1-.7-.26,1.31,1.31,0,0,1-.49-.5,1.52,1.52,0,0,1-.19-.81,1.34,1.34,0,0,1,.19-.74,1.38,1.38,0,0,1,.5-.49,1.92,1.92,0,0,1,.69-.27,3.48,3.48,0,0,1,.79-.09,4.14,4.14,0,0,1,1.05.13v-.26a1.61,1.61,0,0,0-.05-.44.88.88,0,0,0-.18-.39,1,1,0,0,0-.38-.28,1.51,1.51,0,0,0-.61-.11,4,4,0,0,0-.82.07,3.58,3.58,0,0,0-.54.13l-.11-.75a2.21,2.21,0,0,1,.62-.15A5.49,5.49,0,0,1,196.29,131Zm.09,4.58.61,0,.44-.06v-1.52l-.42-.09a4.41,4.41,0,0,0-.52,0,2.74,2.74,0,0,0-.5,0,1.45,1.45,0,0,0-.43.14.86.86,0,0,0-.31.26.63.63,0,0,0-.12.4.7.7,0,0,0,.34.68A1.78,1.78,0,0,0,196.38,135.53Z" transform="translate(-127.19 -43.88)"/><path class="cls-1" d="M200.25,136.18v-4.83a6.85,6.85,0,0,1,2.26-.39c.24,0,.46,0,.67,0a5.27,5.27,0,0,1,.71.12l-.17.8a3.45,3.45,0,0,0-.62-.13,5.28,5.28,0,0,0-.59,0,5.43,5.43,0,0,0-1.36.19v4.24Z" transform="translate(-127.19 -43.88)"/><path class="cls-1" d="M208.43,134.9a.55.55,0,0,0-.22-.45,2.28,2.28,0,0,0-.56-.31l-.74-.26a4.33,4.33,0,0,1-.73-.31,2.12,2.12,0,0,1-.56-.46,1.11,1.11,0,0,1-.22-.72,1.27,1.27,0,0,1,.5-1,2.45,2.45,0,0,1,1.56-.41,6.58,6.58,0,0,1,.87.06,5.56,5.56,0,0,1,.76.16l-.16.82a1.28,1.28,0,0,0-.25-.1l-.35-.09-.42-.06-.44,0c-.79,0-1.18.22-1.18.65a.47.47,0,0,0,.22.39,2.52,2.52,0,0,0,.57.29l.74.27a4.08,4.08,0,0,1,.73.34,1.92,1.92,0,0,1,.57.48,1.08,1.08,0,0,1,.22.71,1.23,1.23,0,0,1-.53,1.07,3,3,0,0,1-1.71.38,4.92,4.92,0,0,1-1-.09,4.46,4.46,0,0,1-.83-.26l.17-.83a5.57,5.57,0,0,0,.81.29,3.34,3.34,0,0,0,.91.12C208,135.53,208.43,135.32,208.43,134.9Z" transform="translate(-127.19 -43.88)"/><path class="cls-1" d="M212.92,131a2,2,0,0,1,1.59.64,2.89,2.89,0,0,1,.57,2v.32h-3.66a1.67,1.67,0,0,0,.53,1.2,1.89,1.89,0,0,0,1.31.41,4,4,0,0,0,.83-.07,2.72,2.72,0,0,0,.51-.17l.12.77a2.69,2.69,0,0,1-.59.19,4.74,4.74,0,0,1-1,.1,3,3,0,0,1-1.16-.21,2.32,2.32,0,0,1-.83-.55,2.35,2.35,0,0,1-.49-.84,3.32,3.32,0,0,1-.17-1.06,3.05,3.05,0,0,1,.21-1.19,2.41,2.41,0,0,1,.55-.84,2.24,2.24,0,0,1,.77-.49A2.46,2.46,0,0,1,212.92,131Zm1.23,2.18a1.47,1.47,0,0,0-.34-1,1.17,1.17,0,0,0-.9-.38,1.37,1.37,0,0,0-.58.12,1.43,1.43,0,0,0-.44.32,1.37,1.37,0,0,0-.3.45,1.91,1.91,0,0,0-.14.52Z" transform="translate(-127.19 -43.88)"/><path class="cls-1" d="M143.65,161c-.13.48-.29,1-.45,1.41s-.35.9-.52,1.34-.36.85-.54,1.25-.36.76-.53,1.11h-.82c-.35-.69-.7-1.48-1-2.36a27.71,27.71,0,0,1-.93-2.75h1c.09.33.19.67.3,1s.23.72.36,1.08.25.7.38,1a7.87,7.87,0,0,0,.38.9q.18-.39.39-.9c.13-.33.27-.68.4-1s.26-.72.38-1.08.22-.7.31-1Z" transform="translate(-127.19 -43.88)"/><path class="cls-1" d="M145.67,168h-.93l3.07-9.5h.91Z" transform="translate(-127.19 -43.88)"/><path class="cls-1" d="M154.54,163.6a3.41,3.41,0,0,1-.17,1.09,2.64,2.64,0,0,1-.48.84,2.11,2.11,0,0,1-.74.55,2.38,2.38,0,0,1-.93.19,2.33,2.33,0,0,1-.92-.19,2.07,2.07,0,0,1-.73-.55,2.31,2.31,0,0,1-.48-.84,3.61,3.61,0,0,1,0-2.19,2.44,2.44,0,0,1,.48-.85,2,2,0,0,1,.73-.53,2.17,2.17,0,0,1,.92-.2,2.22,2.22,0,0,1,.93.2,2.06,2.06,0,0,1,.74.53,2.81,2.81,0,0,1,.48.85A3.43,3.43,0,0,1,154.54,163.6Zm-.94,0a2.23,2.23,0,0,0-.37-1.37,1.19,1.19,0,0,0-1-.5,1.17,1.17,0,0,0-1,.5,2.23,2.23,0,0,0-.37,1.37,2.19,2.19,0,0,0,.37,1.35,1.18,1.18,0,0,0,1,.51,1.19,1.19,0,0,0,1-.51A2.19,2.19,0,0,0,153.6,163.6Z" transform="translate(-127.19 -43.88)"/><path class="cls-1" d="M155.52,163.61a3,3,0,0,1,.22-1.2,2.15,2.15,0,0,1,.6-.84,2.62,2.62,0,0,1,.9-.49,3.83,3.83,0,0,1,1.09-.16,6,6,0,0,1,.74.05,6.77,6.77,0,0,1,.79.18l-.21.79a3.29,3.29,0,0,0-.66-.18l-.61,0a2.57,2.57,0,0,0-.75.1,1.57,1.57,0,0,0-.61.33,1.81,1.81,0,0,0-.42.58,2.26,2.26,0,0,0-.15.87,2.29,2.29,0,0,0,.14.83,1.49,1.49,0,0,0,.41.57,1.61,1.61,0,0,0,.62.33,2.53,2.53,0,0,0,.8.12c.23,0,.46,0,.68,0a4.79,4.79,0,0,0,.71-.17l.13.75a3.76,3.76,0,0,1-.78.21,5.81,5.81,0,0,1-.86.06,3.67,3.67,0,0,1-1.13-.17,2.62,2.62,0,0,1-.88-.5,2.24,2.24,0,0,1-.57-.83A3,3,0,0,1,155.52,163.61Z" transform="translate(-127.19 -43.88)"/><path class="cls-1" d="M163.15,161h2.16v.76h-2.16v2.38a2.74,2.74,0,0,0,.06.63.79.79,0,0,0,.18.39.63.63,0,0,0,.32.2,1.65,1.65,0,0,0,.48.06,2.64,2.64,0,0,0,.64-.07,2.32,2.32,0,0,0,.46-.18l.14.77a4.63,4.63,0,0,1-.49.18,2.83,2.83,0,0,1-.83.11,2.76,2.76,0,0,1-.94-.13,1.17,1.17,0,0,1-.56-.4,1.48,1.48,0,0,1-.28-.65,4.16,4.16,0,0,1-.08-.91V161.8h-1.08V161h1.08v-1.43l.9-.15Z" transform="translate(-127.19 -43.88)"/><path class="cls-1" d="M148.79,171.8h-1.47V171h2.38v3.14a1.74,1.74,0,0,0,.21,1,.75.75,0,0,0,.62.26,2.16,2.16,0,0,0,.59-.08,1.73,1.73,0,0,0,.42-.17l.14.77-.19.09-.28.09-.35.08a2.6,2.6,0,0,1-.4,0,2.12,2.12,0,0,1-.81-.13,1.19,1.19,0,0,1-.51-.4,1.6,1.6,0,0,1-.27-.65,4.89,4.89,0,0,1-.08-.91Zm.24-1.55a.68.68,0,0,1-.5-.2.69.69,0,0,1-.21-.53.7.7,0,0,1,.21-.54.73.73,0,0,1,1,0,.73.73,0,0,1,.2.54.72.72,0,0,1-.2.53A.68.68,0,0,1,149,170.25Z" transform="translate(-127.19 -43.88)"/><path class="cls-1" d="M153,171.19a8.9,8.9,0,0,1,1-.19,7.85,7.85,0,0,1,.92-.07,2.11,2.11,0,0,1,1.55.53,2.38,2.38,0,0,1,.52,1.7v3h-.9v-2.83a2.89,2.89,0,0,0-.09-.8,1.09,1.09,0,0,0-.25-.48.88.88,0,0,0-.38-.24,1.93,1.93,0,0,0-.49-.06l-.47,0-.48.08v4.31H153Z" transform="translate(-127.19 -43.88)"/><path class="cls-1" d="M189.93,194.44V190.1h-1.08v-.76h1.08v-.46a2.55,2.55,0,0,1,.17-1,1.72,1.72,0,0,1,.43-.63,1.49,1.49,0,0,1,.63-.34,2.66,2.66,0,0,1,.75-.1,3.7,3.7,0,0,1,.8.09,6.73,6.73,0,0,1,.75.21l-.16.78a3.32,3.32,0,0,0-.61-.21,3.06,3.06,0,0,0-.74-.09,1.54,1.54,0,0,0-.43.06.82.82,0,0,0-.36.21,1,1,0,0,0-.24.4,1.81,1.81,0,0,0-.09.62v.45h2.06v.76h-2.06v4.34Z" transform="translate(-127.19 -43.88)"/><path class="cls-1" d="M195.73,190.1h-1.48v-.76h2.38v3.13a1.72,1.72,0,0,0,.21,1,.77.77,0,0,0,.63.26,2.14,2.14,0,0,0,.58-.08,2.06,2.06,0,0,0,.43-.16l.13.77-.19.08-.28.09-.35.08a2.6,2.6,0,0,1-.4,0,2.15,2.15,0,0,1-.81-.13,1.19,1.19,0,0,1-.51-.4,1.85,1.85,0,0,1-.27-.65,4.88,4.88,0,0,1-.07-.91Zm.23-1.55a.72.72,0,0,1-.5-.2.8.8,0,0,1,0-1.08.72.72,0,0,1,.5-.2.7.7,0,0,1,.5.2.83.83,0,0,1,0,1.08A.7.7,0,0,1,196,188.55Z" transform="translate(-127.19 -43.88)"/><path class="cls-1" d="M199.94,189.48c.33-.08.66-.14,1-.19a7.72,7.72,0,0,1,.92-.06,2.05,2.05,0,0,1,1.55.53,2.31,2.31,0,0,1,.52,1.69v3H203v-2.83a2.94,2.94,0,0,0-.09-.8,1.21,1.21,0,0,0-.25-.48.78.78,0,0,0-.38-.23,1.53,1.53,0,0,0-.49-.07l-.47,0-.48.07v4.31h-.91Z" transform="translate(-127.19 -43.88)"/><path class="cls-1" d="M207.51,189.22a2,2,0,0,1,1.59.64,2.87,2.87,0,0,1,.56,1.95v.32H206a1.72,1.72,0,0,0,.52,1.21,2,2,0,0,0,1.32.41,3.79,3.79,0,0,0,.82-.08,2.32,2.32,0,0,0,.52-.16l.12.77a2.47,2.47,0,0,1-.59.18,4.13,4.13,0,0,1-1,.1,3,3,0,0,1-1.16-.2,2.34,2.34,0,0,1-.83-.56,2.21,2.21,0,0,1-.5-.84,3.27,3.27,0,0,1-.16-1.06,3.12,3.12,0,0,1,.21-1.19,2.46,2.46,0,0,1,.55-.83,2.27,2.27,0,0,1,.77-.5A2.41,2.41,0,0,1,207.51,189.22Zm1.23,2.18a1.46,1.46,0,0,0-.34-1,1.14,1.14,0,0,0-.9-.38,1.34,1.34,0,0,0-.58.12,1.42,1.42,0,0,0-.45.32,1.51,1.51,0,0,0-.29.45,1.93,1.93,0,0,0-.15.52Z" transform="translate(-127.19 -43.88)"/><path class="cls-1" d="M139.44,222.56a2.06,2.06,0,0,1-.8-.13,1.1,1.1,0,0,1-.5-.4,1.54,1.54,0,0,1-.27-.65,4.81,4.81,0,0,1-.08-.91v-4.83h-1.47v-.77h2.38v5.6a2.76,2.76,0,0,0,.05.63,1,1,0,0,0,.15.39.5.5,0,0,0,.26.2,1,1,0,0,0,.36.06,2.35,2.35,0,0,0,.6-.08,1.76,1.76,0,0,0,.42-.16l.14.77-.19.08-.29.09-.35.08A2.73,2.73,0,0,1,139.44,222.56Z" transform="translate(-127.19 -43.88)"/><path class="cls-1" d="M143.29,218.1h-1.47v-.76h2.38v3.13a1.72,1.72,0,0,0,.21,1,.74.74,0,0,0,.62.26,2.16,2.16,0,0,0,.59-.08,1.76,1.76,0,0,0,.42-.16l.14.77-.19.08-.28.09-.35.08a2.69,2.69,0,0,1-.4,0,2.12,2.12,0,0,1-.81-.13,1.19,1.19,0,0,1-.51-.4,1.54,1.54,0,0,1-.27-.65,4.81,4.81,0,0,1-.08-.91Zm.24-1.55a.74.74,0,0,1,0-1.48.72.72,0,0,1,.5.2.83.83,0,0,1,0,1.08A.72.72,0,0,1,143.53,216.55Z" transform="translate(-127.19 -43.88)"/><path class="cls-1" d="M147.51,217.48c.33-.08.66-.14,1-.19a7.72,7.72,0,0,1,.92-.06,2.07,2.07,0,0,1,1.55.53,2.36,2.36,0,0,1,.52,1.69v3h-.9v-2.83a2.94,2.94,0,0,0-.09-.8,1.21,1.21,0,0,0-.25-.48.83.83,0,0,0-.38-.23,1.57,1.57,0,0,0-.49-.07l-.47,0-.48.07v4.31h-.91Z" transform="translate(-127.19 -43.88)"/><path class="cls-1" d="M155.08,217.22a2,2,0,0,1,1.59.64,2.93,2.93,0,0,1,.56,1.95v.32h-3.65a1.72,1.72,0,0,0,.52,1.21,2,2,0,0,0,1.32.41,3.86,3.86,0,0,0,.82-.08,2.32,2.32,0,0,0,.52-.16l.12.77a2.47,2.47,0,0,1-.59.18,4.13,4.13,0,0,1-1,.1,3,3,0,0,1-1.16-.2,2.25,2.25,0,0,1-.83-.56,2.21,2.21,0,0,1-.5-.84,3.27,3.27,0,0,1-.16-1.06,3.12,3.12,0,0,1,.21-1.19,2.32,2.32,0,0,1,.55-.83,2.18,2.18,0,0,1,.77-.5A2.41,2.41,0,0,1,155.08,217.22Zm1.23,2.18a1.5,1.5,0,0,0-.34-1,1.14,1.14,0,0,0-.91-.38,1.39,1.39,0,0,0-1,.44,1.51,1.51,0,0,0-.29.45,1.63,1.63,0,0,0-.15.52Z" transform="translate(-127.19 -43.88)"/><path class="cls-1" d="M160.44,217.22a2.73,2.73,0,0,1,1,.14,1.66,1.66,0,0,1,.63.4,1.4,1.4,0,0,1,.34.61,2.85,2.85,0,0,1,.1.79v3.19l-.84.14a7.64,7.64,0,0,1-1.08.07,4.36,4.36,0,0,1-.81-.07,2.15,2.15,0,0,1-.7-.25,1.41,1.41,0,0,1-.5-.5,1.66,1.66,0,0,1-.18-.82,1.34,1.34,0,0,1,.19-.74,1.64,1.64,0,0,1,.49-.49,2.43,2.43,0,0,1,.7-.27,4.13,4.13,0,0,1,.78-.08,4.72,4.72,0,0,1,1.06.12v-.25a2.22,2.22,0,0,0-.05-.45,1.18,1.18,0,0,0-.19-.39,1,1,0,0,0-.37-.28,1.53,1.53,0,0,0-.61-.1,5,5,0,0,0-.83.06,4.07,4.07,0,0,0-.54.14l-.11-.75a2.67,2.67,0,0,1,.62-.16A6.81,6.81,0,0,1,160.44,217.22Zm.09,4.57a5.72,5.72,0,0,0,.61,0l.45-.05V220.2a2.15,2.15,0,0,0-.43-.09,4.17,4.17,0,0,0-.52,0,2.63,2.63,0,0,0-.49,0,1.36,1.36,0,0,0-.43.13,1,1,0,0,0-.31.26.65.65,0,0,0-.12.4.73.73,0,0,0,.33.69A1.84,1.84,0,0,0,160.53,221.79Z" transform="translate(-127.19 -43.88)"/><path class="cls-1" d="M164.4,222.44v-4.83a7.16,7.16,0,0,1,2.27-.38c.23,0,.46,0,.67,0a3.87,3.87,0,0,1,.7.11l-.16.8a4.45,4.45,0,0,0-.62-.12,5.41,5.41,0,0,0-.59,0,5,5,0,0,0-1.36.19v4.23Z" transform="translate(-127.19 -43.88)"/><path class="cls-1" d="M148.79,228.1h-1.47v-.76h2.38v3.13a1.72,1.72,0,0,0,.21,1,.74.74,0,0,0,.62.26,2.16,2.16,0,0,0,.59-.08,1.76,1.76,0,0,0,.42-.16l.14.77-.19.08-.28.09-.35.08a2.69,2.69,0,0,1-.4,0,2.12,2.12,0,0,1-.81-.13,1.19,1.19,0,0,1-.51-.4,1.54,1.54,0,0,1-.27-.65,4.81,4.81,0,0,1-.08-.91Zm.24-1.55a.74.74,0,0,1,0-1.48.72.72,0,0,1,.5.2.83.83,0,0,1,0,1.08A.72.72,0,0,1,149,226.55Z" transform="translate(-127.19 -43.88)"/><path class="cls-1" d="M153,227.48c.33-.08.66-.14,1-.19a7.72,7.72,0,0,1,.92-.06,2.07,2.07,0,0,1,1.55.53,2.36,2.36,0,0,1,.52,1.69v3h-.9v-2.83a2.94,2.94,0,0,0-.09-.8,1.21,1.21,0,0,0-.25-.48.83.83,0,0,0-.38-.23,1.57,1.57,0,0,0-.49-.07l-.47,0-.48.07v4.31H153Z" transform="translate(-127.19 -43.88)"/><path class="cls-1" d="M194.43,252.71v-4.34h-1.07v-.76h1.07v-.46a2.55,2.55,0,0,1,.17-1,1.72,1.72,0,0,1,.43-.63,1.61,1.61,0,0,1,.63-.34,2.66,2.66,0,0,1,.75-.1,3.63,3.63,0,0,1,.8.09,6.73,6.73,0,0,1,.75.21l-.16.78a3,3,0,0,0-.6-.21,3.12,3.12,0,0,0-.74-.09,1.56,1.56,0,0,0-.44.06.84.84,0,0,0-.35.21,1,1,0,0,0-.25.4,2.12,2.12,0,0,0-.08.62v.45h2v.76h-2v4.34Z" transform="translate(-127.19 -43.88)"/><path class="cls-1" d="M198.61,247.75a3.47,3.47,0,0,1,1.25-.25,2,2,0,0,1,.6.09,1.47,1.47,0,0,1,.48.29,1.59,1.59,0,0,1,1-.38,1.24,1.24,0,0,1,.5.1,1.17,1.17,0,0,1,.42.3,1.55,1.55,0,0,1,.29.49,2.08,2.08,0,0,1,.11.69v3.63h-.83v-3.65a1,1,0,0,0-.17-.6.56.56,0,0,0-.44-.21.74.74,0,0,0-.28.06,1,1,0,0,0-.26.21,2.47,2.47,0,0,1,.06.56v1.66h-.82v-1.67a1.25,1.25,0,0,0-.12-.6.49.49,0,0,0-.48-.22,1.38,1.38,0,0,0-.49.1v4.36h-.83Z" transform="translate(-127.19 -43.88)"/><path class="cls-1" d="M148.93,275.75a4,4,0,0,1-.14,1.07,2.56,2.56,0,0,1-.43.84,1.94,1.94,0,0,1-.69.55,2,2,0,0,1-.93.2,2.17,2.17,0,0,1-.71-.1,1.31,1.31,0,0,1-.46-.22v2h-.92v-6.77a6.14,6.14,0,0,1,.77-.17,5.7,5.7,0,0,1,1.07-.09,2.66,2.66,0,0,1,1,.18,2.23,2.23,0,0,1,.77.54,2.35,2.35,0,0,1,.5.84A3.5,3.5,0,0,1,148.93,275.75Zm-.93,0a2.07,2.07,0,0,0-.42-1.38,1.35,1.35,0,0,0-1.09-.49,4.58,4.58,0,0,0-.59,0,2.68,2.68,0,0,0-.33.08v3.22a1.34,1.34,0,0,0,.45.27,1.62,1.62,0,0,0,.61.12,1.36,1.36,0,0,0,.63-.14,1.24,1.24,0,0,0,.42-.4,1.61,1.61,0,0,0,.24-.58A3.33,3.33,0,0,0,148,275.75Z" transform="translate(-127.19 -43.88)"/><path class="cls-1" d="M153.15,278.29c-.11-.25-.21-.48-.29-.68l-.24-.62-.23-.64c-.07-.22-.16-.48-.27-.77l-.27.77c-.08.22-.16.44-.24.64s-.16.41-.24.62-.18.43-.29.68h-.68c-.21-.9-.38-1.79-.51-2.68s-.24-1.69-.31-2.42h.86c0,.28.05.56.07.84s.06.56.1.86.07.63.12,1,.1.75.16,1.19c.12-.29.22-.55.3-.77l.22-.63c.06-.2.13-.4.19-.6s.13-.44.2-.7h.69c.07.26.14.49.19.7s.13.4.19.6l.21.63c.07.22.17.47.28.76.06-.4.12-.78.17-1.12s.1-.67.13-1,.07-.6.1-.88.06-.58.08-.88h.82c0,.36-.08.76-.13,1.17s-.11.85-.18,1.29-.16.89-.25,1.34-.18.88-.27,1.3Z" transform="translate(-127.19 -43.88)"/><path class="cls-1" d="M155.32,273.33a3.47,3.47,0,0,1,1.25-.25,2,2,0,0,1,.6.09,1.32,1.32,0,0,1,.48.29,1.59,1.59,0,0,1,1-.38,1.24,1.24,0,0,1,.5.1,1.1,1.1,0,0,1,.42.29,1.61,1.61,0,0,1,.29.5,2.08,2.08,0,0,1,.11.69v3.63h-.83v-3.65A1,1,0,0,0,159,274a.59.59,0,0,0-.44-.2.74.74,0,0,0-.28.06.83.83,0,0,0-.26.21,2.47,2.47,0,0,1,.06.56v1.66h-.82v-1.67a1.29,1.29,0,0,0-.12-.61.5.5,0,0,0-.48-.21,1.6,1.6,0,0,0-.49.09v4.37h-.83Z" transform="translate(-127.19 -43.88)"/><path class="cls-1" d="M148.69,284h-1.47v-.76h2.37v3.13a1.72,1.72,0,0,0,.21,1,.77.77,0,0,0,.63.26,2.21,2.21,0,0,0,.59-.08,1.76,1.76,0,0,0,.42-.16l.13.77-.18.08-.28.09-.36.08a2.5,2.5,0,0,1-.4,0,2.06,2.06,0,0,1-.8-.13,1.19,1.19,0,0,1-.51-.4,1.54,1.54,0,0,1-.27-.65,4.81,4.81,0,0,1-.08-.91Zm.23-1.55a.7.7,0,0,1-.49-.2.72.72,0,0,1-.21-.54.7.7,0,0,1,.7-.74.69.69,0,0,1,.5.2.7.7,0,0,1,.21.54.72.72,0,0,1-.21.54A.69.69,0,0,1,148.92,282.4Z" transform="translate(-127.19 -43.88)"/><path class="cls-1" d="M152.9,283.33c.33-.08.66-.14,1-.19a7.59,7.59,0,0,1,.92-.06,2.08,2.08,0,0,1,1.54.52,2.35,2.35,0,0,1,.53,1.7v3H156v-2.83a3.46,3.46,0,0,0-.08-.8,1.35,1.35,0,0,0-.25-.48.86.86,0,0,0-.39-.23,1.53,1.53,0,0,0-.49-.07l-.46,0-.48.07v4.31h-.92Z" transform="translate(-127.19 -43.88)"/><path class="cls-1" d="M195.81,307.65a3.59,3.59,0,0,1-.15,1.07,2.38,2.38,0,0,1-.43.84,1.78,1.78,0,0,1-.69.55,2,2,0,0,1-.92.2,2.17,2.17,0,0,1-.71-.1,1.47,1.47,0,0,1-.47-.22v2h-.91v-6.77a7.54,7.54,0,0,1,.77-.18,6.68,6.68,0,0,1,1.07-.08,2.7,2.7,0,0,1,1,.18,2.23,2.23,0,0,1,.77.54,2.33,2.33,0,0,1,.49.84A3.23,3.23,0,0,1,195.81,307.65Zm-.93,0a2.07,2.07,0,0,0-.42-1.38,1.35,1.35,0,0,0-1.09-.49,4.47,4.47,0,0,0-.59,0,1.71,1.71,0,0,0-.34.08v3.22a1.51,1.51,0,0,0,.46.27,1.58,1.58,0,0,0,.61.12,1.21,1.21,0,0,0,.62-.15,1.15,1.15,0,0,0,.43-.39,1.69,1.69,0,0,0,.24-.58A3.33,3.33,0,0,0,194.88,307.65Z" transform="translate(-127.19 -43.88)"/><path class="cls-1" d="M200,310.19c-.11-.25-.2-.48-.28-.68l-.24-.62c-.08-.2-.15-.42-.23-.64l-.27-.77-.27.77c-.09.22-.16.44-.24.64l-.24.62c-.09.2-.19.43-.29.68h-.69c-.2-.9-.37-1.79-.51-2.68s-.24-1.69-.3-2.42h.86c0,.28,0,.56.07.84s.06.56.09.86.08.63.13,1,.1.75.16,1.19c.12-.29.21-.55.29-.77s.16-.43.23-.63.13-.4.19-.6.13-.44.2-.7h.68c.08.26.14.49.2.7s.12.4.19.6.13.41.21.63.16.47.27.76c.07-.41.13-.78.18-1.12s.09-.67.13-1,.07-.6.1-.88.05-.58.08-.88h.82c0,.36-.08.76-.13,1.17s-.11.85-.19,1.29-.15.89-.24,1.34-.18.88-.27,1.3Z" transform="translate(-127.19 -43.88)"/><path class="cls-1" d="M202.2,305.23a3.46,3.46,0,0,1,1.24-.25,1.89,1.89,0,0,1,.6.09,1.17,1.17,0,0,1,.48.29,1.61,1.61,0,0,1,1-.38,1.18,1.18,0,0,1,.5.1,1.1,1.1,0,0,1,.42.29,1.43,1.43,0,0,1,.29.5,1.85,1.85,0,0,1,.11.69v3.63H206v-3.65a.91.91,0,0,0-.18-.61.53.53,0,0,0-.44-.2.7.7,0,0,0-.27.06.66.66,0,0,0-.27.21,2,2,0,0,1,.07.56v1.66h-.82v-1.67a1.29,1.29,0,0,0-.13-.61.49.49,0,0,0-.47-.21,1.55,1.55,0,0,0-.49.09v4.37h-.83Z" transform="translate(-127.19 -43.88)"/><path class="cls-1" d="M145,332.48a.55.55,0,0,0-.22-.45,2.28,2.28,0,0,0-.56-.31l-.73-.26a3.5,3.5,0,0,1-.74-.31,1.94,1.94,0,0,1-.56-.46A1.09,1.09,0,0,1,142,330a1.27,1.27,0,0,1,.5-1,2.42,2.42,0,0,1,1.57-.42,6.55,6.55,0,0,1,.86.06,5.25,5.25,0,0,1,.76.16l-.16.82-.24-.1-.35-.08a3,3,0,0,0-.43-.06l-.43,0c-.79,0-1.19.22-1.19.65a.45.45,0,0,0,.22.39,2.33,2.33,0,0,0,.57.29l.74.27a5.56,5.56,0,0,1,.74.34,2,2,0,0,1,.56.48,1.08,1.08,0,0,1,.23.71,1.23,1.23,0,0,1-.54,1.07,3,3,0,0,1-1.71.38,4.75,4.75,0,0,1-1-.09,4.33,4.33,0,0,1-.84-.26l.18-.83a4.23,4.23,0,0,0,.8.29,3.39,3.39,0,0,0,.91.12C144.57,333.11,145,332.9,145,332.48Z" transform="translate(-127.19 -43.88)"/><path class="cls-1" d="M147.18,334.72a1.2,1.2,0,0,0,.28.08,1.48,1.48,0,0,0,.34,0,1.31,1.31,0,0,0,.84-.24,2.18,2.18,0,0,0,.56-.78,26.41,26.41,0,0,1-1.16-2.5,23.21,23.21,0,0,1-.89-2.67h1c.07.3.16.61.26,1s.21.69.34,1.05.25.72.4,1.08.29.71.45,1c.12-.34.23-.67.33-1s.2-.66.29-1,.18-.67.26-1l.28-1.11h.94c-.23,1-.49,1.88-.78,2.78s-.6,1.72-.93,2.48a4.83,4.83,0,0,1-.4.76,2.73,2.73,0,0,1-.47.53,1.76,1.76,0,0,1-.57.31,2.74,2.74,0,0,1-.73.1,2,2,0,0,1-.46-.06,2,2,0,0,1-.33-.1Z" transform="translate(-127.19 -43.88)"/><path class="cls-1" d="M152.9,328.8a8.63,8.63,0,0,1,1-.19,7.7,7.7,0,0,1,.92-.07,2.08,2.08,0,0,1,1.54.53,2.34,2.34,0,0,1,.53,1.7v3H156v-2.83a3.4,3.4,0,0,0-.08-.8,1.2,1.2,0,0,0-.25-.48,1,1,0,0,0-.39-.24,1.88,1.88,0,0,0-.49-.06l-.46,0a3.46,3.46,0,0,0-.48.07v4.31h-.92Z" transform="translate(-127.19 -43.88)"/><path class="cls-1" d="M158.16,331.22a3.13,3.13,0,0,1,.22-1.2,2.28,2.28,0,0,1,.61-.84,2.49,2.49,0,0,1,.89-.49,4,4,0,0,1,1.1-.16,6,6,0,0,1,.74.05,6.77,6.77,0,0,1,.79.18l-.21.79a2.75,2.75,0,0,0-.67-.17,4.08,4.08,0,0,0-.61,0,2.66,2.66,0,0,0-.75.1,1.72,1.72,0,0,0-.61.33,1.65,1.65,0,0,0-.41.58,2.26,2.26,0,0,0-.15.87,2.29,2.29,0,0,0,.14.83,1.58,1.58,0,0,0,.4.57,1.77,1.77,0,0,0,.62.34,2.94,2.94,0,0,0,.81.11c.23,0,.46,0,.67,0a4.27,4.27,0,0,0,.71-.17l.13.76a4.06,4.06,0,0,1-.78.2,5.67,5.67,0,0,1-.85.06,3.62,3.62,0,0,1-1.13-.17,2.38,2.38,0,0,1-.88-.5,2.13,2.13,0,0,1-.57-.83A3,3,0,0,1,158.16,331.22Z" transform="translate(-127.19 -43.88)"/><path class="cls-1" d="M148.69,340.41h-1.47v-.76h2.37v3.14a1.74,1.74,0,0,0,.21,1,.77.77,0,0,0,.63.26A2.21,2.21,0,0,0,151,344a1.73,1.73,0,0,0,.42-.17l.13.77a1.48,1.48,0,0,1-.18.09l-.28.09-.36.08a2.5,2.5,0,0,1-.4,0,2.06,2.06,0,0,1-.8-.13,1.19,1.19,0,0,1-.51-.4,1.54,1.54,0,0,1-.27-.65,4.89,4.89,0,0,1-.08-.91Zm.23-1.55a.66.66,0,0,1-.49-.2.69.69,0,0,1-.21-.53.7.7,0,0,1,.21-.54.66.66,0,0,1,.49-.2.65.65,0,0,1,.5.2.7.7,0,0,1,.21.54.69.69,0,0,1-.21.53A.65.65,0,0,1,148.92,338.86Z" transform="translate(-127.19 -43.88)"/><path class="cls-1" d="M152.9,339.8a8.63,8.63,0,0,1,1-.19,7.7,7.7,0,0,1,.92-.07,2.08,2.08,0,0,1,1.54.53,2.34,2.34,0,0,1,.53,1.7v3H156v-2.83a3.4,3.4,0,0,0-.08-.8,1.2,1.2,0,0,0-.25-.48,1,1,0,0,0-.39-.24,1.88,1.88,0,0,0-.49-.06l-.46,0a3.46,3.46,0,0,0-.48.07v4.31h-.92Z" transform="translate(-127.19 -43.88)"/><path class="cls-1" d="M188.71,366.73c-.11-.25-.21-.48-.29-.68l-.24-.62-.23-.64c-.07-.23-.16-.48-.27-.77l-.27.77c-.08.22-.16.44-.24.64s-.16.41-.24.62-.18.43-.29.68H186c-.21-.9-.38-1.8-.51-2.68s-.24-1.69-.31-2.42H186c0,.28.05.56.07.84s.06.56.1.86.07.63.12,1,.1.75.16,1.19c.12-.3.22-.55.3-.77l.22-.63c.06-.2.13-.4.19-.6s.13-.44.2-.7h.69c.07.26.14.49.19.7s.13.4.19.6.14.41.21.63.17.47.28.76c.06-.41.12-.78.17-1.13s.1-.66.13-1,.07-.6.1-.88.06-.58.08-.88h.82c0,.36-.08.75-.13,1.17s-.11.85-.18,1.29-.16.89-.25,1.34-.18.88-.27,1.3Z" transform="translate(-127.19 -43.88)"/><path class="cls-1" d="M192.5,362.38H191v-.75h2.37v3.13a1.72,1.72,0,0,0,.21,1,.77.77,0,0,0,.63.26,2.21,2.21,0,0,0,.59-.08,1.73,1.73,0,0,0,.42-.17l.13.77-.18.09-.28.09-.36.08a2.5,2.5,0,0,1-.4,0,2.06,2.06,0,0,1-.8-.13,1.19,1.19,0,0,1-.51-.4,1.54,1.54,0,0,1-.27-.65,4.81,4.81,0,0,1-.08-.91Zm.23-1.55a.69.69,0,0,1-.49-.19.73.73,0,0,1-.21-.54.7.7,0,0,1,.7-.74.69.69,0,0,1,.5.2.7.7,0,0,1,.21.54.73.73,0,0,1-.21.54A.68.68,0,0,1,192.73,360.83Z" transform="translate(-127.19 -43.88)"/><path class="cls-1" d="M199.74,359.26l.91-.15v7.48c-.2.06-.45.11-.76.17a5.55,5.55,0,0,1-1.07.09,2.56,2.56,0,0,1-1-.19,2.17,2.17,0,0,1-.77-.53,2.48,2.48,0,0,1-.49-.84,3.23,3.23,0,0,1-.18-1.11,3.73,3.73,0,0,1,.15-1.09,2.59,2.59,0,0,1,.44-.84,2,2,0,0,1,1.6-.75,2.61,2.61,0,0,1,.72.1,2,2,0,0,1,.46.21Zm0,3.44a1.77,1.77,0,0,0-.45-.27,1.63,1.63,0,0,0-.62-.12,1.16,1.16,0,0,0-1,.53,1.71,1.71,0,0,0-.24.6,2.9,2.9,0,0,0-.08.74,2,2,0,0,0,.42,1.37,1.35,1.35,0,0,0,1.09.49,3.11,3.11,0,0,0,.57,0l.35-.06Z" transform="translate(-127.19 -43.88)"/><path class="cls-1" d="M204.11,361.63h2.15v.75h-2.15v2.38a3.48,3.48,0,0,0,0,.63,1,1,0,0,0,.18.39.7.7,0,0,0,.33.2,1.65,1.65,0,0,0,.48.06,2.64,2.64,0,0,0,.64-.07,2,2,0,0,0,.46-.18l.13.77a3.37,3.37,0,0,1-.49.18,2.78,2.78,0,0,1-.83.11,2.7,2.7,0,0,1-.93-.13,1.26,1.26,0,0,1-.57-.4,1.55,1.55,0,0,1-.28-.65,4.81,4.81,0,0,1-.08-.91v-2.38h-1.07v-.75h1.07V360.2l.91-.16Z" transform="translate(-127.19 -43.88)"/><path class="cls-1" d="M207.71,366.73v-7.47l.92-.15v2.59a2.86,2.86,0,0,1,.49-.14,3.44,3.44,0,0,1,.54,0,2.39,2.39,0,0,1,1,.17,1.55,1.55,0,0,1,.62.47,2.17,2.17,0,0,1,.33.74,4.62,4.62,0,0,1,.1,1v2.88h-.91v-2.68a2.48,2.48,0,0,0-.26-1.34,1.07,1.07,0,0,0-1-.39,2.51,2.51,0,0,0-.55.06,3,3,0,0,0-.39.11v4.24Z" transform="translate(-127.19 -43.88)"/><path class="cls-1" d="M167.15,390.35l-6.24.44a1.48,1.48,0,0,0-1.12.56,1.59,1.59,0,0,0-.34,1.15,1.52,1.52,0,0,0,.43,1,1.54,1.54,0,0,0,1.24.44l1.43-.1.57,8.09a1.71,1.71,0,0,0,.57,1.23,1.66,1.66,0,0,0,1.25.39,1.75,1.75,0,0,0,1.11-.47,1.61,1.61,0,0,0,.47-1.11,1.22,1.22,0,0,0,0-.27l-.58-8.1,1.43-.1a1.54,1.54,0,0,0,1.18-.6,1.69,1.69,0,0,0,.29-1.11,1.6,1.6,0,0,0-.49-1.06A1.45,1.45,0,0,0,167.15,390.35Z" transform="translate(-127.19 -43.88)"/><path class="cls-1" d="M177.68,394.34a3.53,3.53,0,0,0-1.88-.1l.68-2.38a2.18,2.18,0,0,0,.08-.49,1.74,1.74,0,0,0-.27-1.06,1.53,1.53,0,0,0-.9-.64,1.74,1.74,0,0,0-.39-.05,1.53,1.53,0,0,0-1,.33,1.91,1.91,0,0,0-.64,1L170.42,401a3.11,3.11,0,0,0-.08.49,1.68,1.68,0,0,0,.29,1.06,1.6,1.6,0,0,0,.89.62,1.33,1.33,0,0,0,.38.07,1.55,1.55,0,0,0,1.06-.33,1.85,1.85,0,0,0,.63-1l1.19-4.11c.19-.66.57-1,1.14-.94a1.21,1.21,0,0,1,.84.35,1,1,0,0,1,.3.83,1.53,1.53,0,0,1-.07.4l-1.17,4.1a2.07,2.07,0,0,0-.07.49,1.69,1.69,0,0,0,.27,1.06,1.52,1.52,0,0,0,.9.63l.38.06a1.49,1.49,0,0,0,1-.33,1.85,1.85,0,0,0,.65-1l1.29-4.51a3.88,3.88,0,0,0,.17-1,3.31,3.31,0,0,0-.68-2.28A3.9,3.9,0,0,0,177.68,394.34Z" transform="translate(-127.19 -43.88)"/><path class="cls-1" d="M192.75,396c-.21-1.12-.68-1.7-1.43-1.74a3,3,0,0,0-.51,0,1.56,1.56,0,0,0-1.17.9,3.08,3.08,0,0,0-1.46-.44,4.06,4.06,0,0,0-.84.06,4,4,0,0,0-2.51,1.53,5.06,5.06,0,0,0-1.08,3,6.32,6.32,0,0,0,.09,1.37,5.71,5.71,0,0,0,1.53,3.07,4.17,4.17,0,0,0,2.78,1.28,4.72,4.72,0,0,0,1-.07,3.2,3.2,0,0,0,2-1.17,1.32,1.32,0,0,0,1,.49,1.66,1.66,0,0,0,.44,0,1.37,1.37,0,0,0,1.3-1.36,4.72,4.72,0,0,0-.08-.91Zm-3.08,5.39a1.12,1.12,0,0,1-1,.47,1.34,1.34,0,0,1-1-.53,2.58,2.58,0,0,1-.55-1.23,4.19,4.19,0,0,1,0-.7,2.07,2.07,0,0,1,.41-1.18,1.18,1.18,0,0,1,1-.45,1.31,1.31,0,0,1,1,.54,2.64,2.64,0,0,1,.55,1.26,2.7,2.7,0,0,1,0,.68A1.86,1.86,0,0,1,189.67,401.4Z" transform="translate(-127.19 -43.88)"/><path class="cls-1" d="M204.35,395.79a4.1,4.1,0,0,0-1-.19,2.88,2.88,0,0,0-1.29.2,1.65,1.65,0,0,0-2.48-.61,1.82,1.82,0,0,0-.65,1l-1.79,6.27a2,2,0,0,0-.08.49,1.68,1.68,0,0,0,.28,1.06,1.53,1.53,0,0,0,.89.62,1.23,1.23,0,0,0,.39.07,1.53,1.53,0,0,0,1-.33,2,2,0,0,0,.65-1l1.16-4.11c.2-.66.58-1,1.14-.95a1.31,1.31,0,0,1,.85.35,1,1,0,0,1,.32.82,1.56,1.56,0,0,1-.08.42l-1.18,4.1a2.83,2.83,0,0,0-.08.48,1.68,1.68,0,0,0,.29,1.06,1.53,1.53,0,0,0,.88.62,1.15,1.15,0,0,0,.39.07,1.49,1.49,0,0,0,1.06-.32,1.82,1.82,0,0,0,.63-1L207,400.4a5.83,5.83,0,0,0,.15-1,3.27,3.27,0,0,0-.69-2.28A3.88,3.88,0,0,0,204.35,395.79Z" transform="translate(-127.19 -43.88)"/><path class="cls-1" d="M220.34,402.46,217,400.24l1.32-2.1a1.7,1.7,0,0,0,.32-.87,1.58,1.58,0,0,0-.39-1.13,1.46,1.46,0,0,0-1.06-.53,1.75,1.75,0,0,0-1.62,1.05L214.21,399l-1.3-4.52a1.62,1.62,0,0,0-2.08-1.27,1.5,1.5,0,0,0-1.16,1.49,1.79,1.79,0,0,0,.08.68l2.88,10.06a1.6,1.6,0,0,0,1.53,1.34,1.44,1.44,0,0,0,.54-.07,1.51,1.51,0,0,0,1.21-1.47,2.18,2.18,0,0,0-.1-.71,19,19,0,0,0-.64-1.83l3.09,2.15a2.47,2.47,0,0,0,1.21.51,2,2,0,0,0,.48,0,1.45,1.45,0,0,0,1.13-1.44A1.52,1.52,0,0,0,220.34,402.46Z" transform="translate(-127.19 -43.88)"/><path class="cls-1" d="M231.51,403a2.65,2.65,0,0,0-1.46-1.94,8.06,8.06,0,0,0-2.2-.66c-.77-.13-1.17-.25-1.19-.35a.22.22,0,0,1,.1-.23,1,1,0,0,1,.59-.11,5.08,5.08,0,0,1,.87.17,5,5,0,0,0,.85.16,1.23,1.23,0,0,0,1-.39,1.54,1.54,0,0,0-.5-2.5,4.27,4.27,0,0,0-1.81-.47,4.62,4.62,0,0,0-2.82.74,3,3,0,0,0-1.44,2.43,3,3,0,0,0,.07.77,2.61,2.61,0,0,0,1.46,1.95,7.72,7.72,0,0,0,2.2.66c.76.14,1.15.26,1.17.35s-.13.3-.5.36a1.55,1.55,0,0,1-.37,0,4.08,4.08,0,0,1-.9-.22,3.29,3.29,0,0,0-.92-.22,1.63,1.63,0,0,0-.44,0,1.28,1.28,0,0,0-.9.58,1.64,1.64,0,0,0-.3.9,1.49,1.49,0,0,0,1.08,1.47A4.92,4.92,0,0,0,227,407a5.13,5.13,0,0,0,1.2-.06,4.4,4.4,0,0,0,2.36-1.13,3,3,0,0,0,1-2.07A2.91,2.91,0,0,0,231.51,403Z" transform="translate(-127.19 -43.88)"/></svg>