<svg id="svg2" xmlns="http://www.w3.org/2000/svg" xmlns:xlink="http://www.w3.org/1999/xlink" viewBox="0 0 142.79 456.35">
  <defs>
    <style>
      .cls-1, .cls-11, .cls-13, .cls-2, .cls-4, .cls-5, .cls-6, .cls-7 {
        fill: none;
      }

      .cls-2 {
        stroke: red;
      }

      .cls-11, .cls-13, .cls-2, .cls-6, .cls-7 {
        stroke-miterlimit: 10;
      }

      .cls-3 {
        fill: url(#New_Pattern);
      }

      .cls-4, .cls-5 {
        stroke: blue;
      }

      .cls-4 {
        stroke-linecap: round;
        stroke-linejoin: round;
        stroke-width: 0.03px;
      }

      .cls-5 {
        stroke-width: 0.02px;
      }

      .cls-10, .cls-11, .cls-13, .cls-16, .cls-17, .cls-6, .cls-8 {
        isolation: isolate;
      }

      .cls-6, .cls-8 {
        font-size: 15px;
      }

      .cls-11, .cls-13, .cls-6, .cls-7 {
        stroke: #fff;
      }

      .cls-6, .cls-7 {
        stroke-width: 12px;
      }

      .cls-11, .cls-13, .cls-16, .cls-17, .cls-6, .cls-7, .cls-8, .cls-9 {
        font-family: Abel-Regular, Abel;
      }

      .cls-7, .cls-9 {
        font-size: 12px;
      }

      .cls-16, .cls-17, .cls-8, .cls-9 {
        fill: red;
      }

      .cls-11, .cls-13, .cls-16, .cls-17 {
        font-size: 12.5px;
      }

      .cls-11, .cls-13 {
        stroke-width: 5px;
      }

      .cls-11, .cls-16 {
        letter-spacing: -0.02em;
      }

      .cls-12 {
        letter-spacing: 0em;
      }

      .cls-14 {
        letter-spacing: -0.01em;
      }

      .cls-15 {
        letter-spacing: -0.03em;
      }
    </style>
    <pattern id="New_Pattern" data-name="New Pattern" x="-17.72" y="-578.43" width="85.01" height="78.71" patternUnits="userSpaceOnUse" viewBox="0 0 85.01 78.71">
      <rect class="cls-1" width="85.01" height="78.71"/>
      <path class="cls-2" d="M-49.61,69.59S-22.8,55-22.8,86.18,7.11,101,7.11,101"/>
      <path class="cls-2" d="M-7.11,49.91S19.71,35.29,19.71,66.5s29.9,14.83,29.9,14.83"/>
      <path class="cls-2" d="M35.4,69.59S62.21,55,62.21,86.18,92.12,101,92.12,101"/>
      <path class="cls-2" d="M77.9,49.91s26.82-14.62,26.82,16.59,29.9,14.83,29.9,14.83"/>
      <path class="cls-2" d="M-49.61,30.24S-22.8,15.61-22.8,46.82,7.11,61.66,7.11,61.66"/>
      <path class="cls-2" d="M-7.11,10.56S19.71-4.07,19.71,27.14,49.61,42,49.61,42"/>
      <path class="cls-2" d="M35.4,30.24S62.21,15.61,62.21,46.82,92.12,61.66,92.12,61.66"/>
      <path class="cls-2" d="M77.9,10.56s26.82-14.63,26.82,16.58S134.62,42,134.62,42"/>
      <path class="cls-2" d="M-49.61-9.12S-22.8-23.74-22.8,7.47,7.11,22.3,7.11,22.3"/>
      <path class="cls-2" d="M-7.11-28.79S19.71-43.42,19.71-12.21,49.61,2.62,49.61,2.62"/>
      <path class="cls-2" d="M35.4-9.12S62.21-23.74,62.21,7.47,92.12,22.3,92.12,22.3"/>
      <path class="cls-2" d="M77.9-28.79s26.82-14.63,26.82,16.58,29.9,14.83,29.9,14.83"/>
    </pattern>
  </defs>
  <title>FixedSine</title>
  <g id="Pattern">
    <rect class="cls-3" x="0.01" y="1.06" width="142.77" height="455.29"/>
  </g>
  <g id="Cut">
    <g id="g8793">
      <path id="path24" class="cls-4" d="M130,910.34v-.89l0-.15,0-.15,0-.15,0-.14,0-.15,0-.15,0-.15,0-.14,0-.15,0-.14,0-.15-.05-.14,0-.14-.05-.14-.05-.14,0-.14-.06-.14-.05-.14-.06-.14-.06-.14-.07-.13-.06-.14-.07-.13-.07-.13-.07-.13-.08-.13-.08-.13-.07-.13-.09-.12-.08-.13-.08-.12-.09-.12-.09-.12-.09-.12-.09-.12-.1-.11-.1-.12-.1-.11-.1-.11-.1-.11-.1-.1-.11-.11-.11-.1-.11-.11-.11-.1-.11-.09-.11-.1-.12-.09-.12-.1-.12-.09-.12-.09-.12-.08-.12-.09-.13-.08-.12-.08-.13-.08-.13-.07-.13-.08-.13-.07-.13-.07-.14-.07-.13-.06-.14-.06-.13-.06-.14-.06-.14-.06-.14-.05-.14,0-.14-.05-.15,0-.14,0-.14-.05-.15,0-.14,0-.15,0-.14,0-.15,0-.15,0-.14,0-.15,0-.15,0-.15,0-.15,0h-1.64l-.15,0h-.15l-.14,0-.15,0-.15,0-.15,0-.14,0-.15,0-.15,0-.14,0-.15,0-.14,0-.14,0-.15,0-.14.05-.14,0-.14.05-.14.06-.13.06-.14.06-.14.06-.13.07-.14.06-.13.07-.13.07-.13.08-.13.07-.13.08-.12.08-.13.08-.12.08-.13.09-.12.09-.12.09-.11.09-.12.09-.11.1-.12.1-.11.1-.11.1-.11.1-.1.11-.11.1-.1.11-.1.11-.1.11-.1.12-.1.11-.09.12-.09.12-.09.12-.09.12-.08.12-.09.13-.08.12-.08.13-.08.13-.07.13-.07.13-.08.13-.06.13-.07.13-.06.14-.07.14-.06.13,0,.14-.06.14,0,.14,0,.14,0,.14-.05.14,0,.15,0,.14,0,.15,0,.14,0,.15,0,.14,0,.15,0,.15,0,.14,0,.15,0,.15,0,.15v1.49l0,.15v.3l0,.15,0,.15,0,.14,0,.15,0,.15,0,.15,0,.14,0,.15,0,.14,0,.15,0,.14,0,.14.05.14,0,.15,0,.14,0,.14.06.13.06.14.06.14.06.13.07.14.06.13.07.13.08.14.07.13.08.12.07.13.08.13.09.12.08.13.09.12.09.12.09.12.09.11.1.12.09.11.1.12.1.11.1.11.11.1.1.11.11.1.11.11.11.1.11.1.12.09.11.1.12.09.12.09.12.09.12.09.12.08.13.08.12.09.13.07.13.08.13.08.13.07.13.07.14.07.13.06.14.06.13.07.14,0,.14.06.14.06.14.05.14,0,.14,0,.14.05.15,0,.14,0,.15,0,.14,0,.15,0,.14,0,.15,0,.15,0,.15,0,.14,0h.15l.15,0h1.64l.15,0H122l.15,0,.15,0,.15,0,.14,0,.15,0,.15,0,.14,0,.15,0,.14,0,.15,0,.14,0,.14-.05.14,0,.14-.05.14,0,.14,0,.14-.06.14-.06.13-.06.14-.07.13-.06.14-.07.13-.07.13-.07.13-.08.13-.08.12-.08.13-.08.12-.08.13-.09.12-.08.12-.09.12-.09.11-.1.12-.09.11-.1.11-.1.11-.1.11-.1.11-.11.1-.1.11-.11.1-.11.1-.11.1-.12.09-.11.1-.12.09-.12.09-.11.09-.13.08-.12.09-.12.08-.13.08-.12.08-.13.07-.13.08-.13.07-.13.07-.13.07-.14.06-.13.06-.14.06-.14.06-.13.06-.14.05-.14,0-.14.05-.14.05-.15,0-.14,0-.14,0-.15,0-.14,0-.15,0-.14,0-.15,0-.15,0-.15,0-.14,0-.15,0-.15v-1Z" transform="translate(-17.72 -578.43)"/>
      <path id="path26" class="cls-4" d="M67.14,910.34v-.59l0-.15v-.15l0-.15,0-.15,0-.15,0-.14,0-.15,0-.15,0-.15,0-.14,0-.15,0-.14,0-.15,0-.14,0-.14,0-.14,0-.14,0-.14-.05-.14-.06-.14-.06-.14-.06-.14-.07-.13-.06-.14-.07-.13L66,906l-.07-.13-.08-.13-.07-.13-.08-.13-.08-.12-.09-.13-.08-.12L65.4,905l-.09-.12-.09-.12-.09-.12-.1-.11-.1-.12-.09-.11-.1-.11-.11-.11-.1-.1-.11-.11-.11-.1-.11-.11-.11-.1L64,903.5l-.11-.1-.12-.09-.12-.1-.12-.09-.12-.09-.12-.08-.12-.09-.13-.08-.12-.08-.13-.08-.13-.07-.13-.08-.13-.07-.13-.07-.14-.07L62,902.2l-.14-.06-.13-.06-.14-.06-.14-.06-.14-.05-.14,0-.14-.05-.14,0-.15,0-.14-.05-.14,0-.15,0-.14,0-.15,0-.15,0-.14,0-.15,0-.15,0-.15,0-.15,0-.15,0H57.32l-.15,0H57l-.14,0-.15,0-.15,0-.15,0-.14,0-.15,0-.15,0-.14,0-.14,0-.15,0-.14,0-.14,0-.15.05-.14,0-.14.05-.14.06-.13.06-.14.06-.14.06-.13.07-.14.06-.13.07-.13.07-.13.08-.13.07-.13.08-.12.08-.13.08-.12.08-.12.09-.13.09-.11.09-.12.09-.12.09-.11.1-.12.1-.11.1-.11.1-.11.1-.1.11-.11.1-.1.11-.1.11-.1.11-.1.12-.09.11-.1.12-.09.12-.09.12-.09.12-.08.12-.09.13-.08.12-.08.13-.07.13-.08.13-.07.13-.07.13-.07.13-.07.13-.06.14-.07.14-.06.13,0,.14-.06.14,0,.14-.05.14,0,.14,0,.14,0,.15,0,.14,0,.15,0,.14,0,.15,0,.14,0,.15,0,.15,0,.14,0,.15,0,.15,0,.15v1.64l0,.15v.15l0,.15,0,.15,0,.14,0,.15,0,.15,0,.15,0,.14,0,.15,0,.14,0,.15,0,.14,0,.14.05.14,0,.15.06.14,0,.14.06.13.06.14.06.14.06.13.06.14.07.13.07.13.07.14.08.13.07.12.08.13.08.13.09.12.08.13.09.12.09.12.09.12.09.11.09.12.1.11.1.12.1.11.1.11.11.1.1.11.11.1L52,917l.11.1.11.1.12.09.11.1.12.09.12.09.12.09.12.09.12.08.13.08.12.09.13.07.13.08.13.08.13.07.13.07.14.07.13.06.14.06.13.07.14,0,.14.06.14.06.14.05.14,0,.14,0,.14.05.15,0,.14,0,.15,0,.14,0,.15,0,.14,0,.15,0,.15,0,.15,0,.14,0h.15l.15,0h1.64l.15,0h.15l.15,0,.15,0,.15,0,.14,0,.15,0,.15,0,.14,0,.15,0,.14,0,.14,0,.15,0,.14-.05.14,0,.14-.05.14,0,.14,0,.14-.06.14-.06.13-.06.14-.07.13-.06.14-.07.13-.07.13-.07.13-.08.13-.08L63,918l.13-.08.12-.08.13-.09.12-.08.12-.09.11-.09.12-.1.12-.09.11-.1.11-.1.11-.1.11-.1.11-.11.1-.1.11-.11.1-.11.1-.11.1-.12.09-.11.1-.12.09-.12.09-.11.09-.13.08-.12.09-.12.08-.13.08-.12.08-.13.07-.13.08-.13.07-.13.07-.13.06-.14.07-.13.06-.14.06-.14.06-.13.06-.14,0-.14.05-.14,0-.14,0-.15,0-.14,0-.14,0-.15,0-.14,0-.15,0-.14,0-.15,0-.15,0-.15,0-.14,0-.15,0-.15v-1Z" transform="translate(-17.72 -578.43)"/>
      <path id="path28" class="cls-4" d="M130,820.59v-.9l0-.15,0-.14,0-.15,0-.15,0-.15,0-.14,0-.15,0-.15,0-.14,0-.15,0-.14-.05-.14,0-.15-.05-.14-.05-.14,0-.14-.06-.14-.05-.14-.06-.13-.06-.14-.07-.14-.06-.13-.07-.13-.07-.14-.07-.13-.08-.13-.08-.12-.07-.13-.09-.13-.08-.12-.08-.13-.09-.12-.09-.12-.09-.12-.09-.11-.1-.12-.1-.11-.1-.11-.1-.11-.1-.11-.1-.11-.11-.11-.11-.1-.11-.1-.11-.1-.11-.1-.11-.1-.12-.09-.12-.09-.12-.09-.12-.09-.12-.09-.12-.08-.13-.08-.12-.08-.13-.08-.13-.08-.13-.07-.13-.07-.13-.07-.14-.07-.13-.07-.14-.06-.13-.06-.14-.06-.14,0-.14-.06-.14,0-.14-.05-.15,0-.14,0-.14,0-.15,0-.14,0-.15,0-.14,0-.15,0-.15,0-.14,0-.15,0-.15,0-.15,0h-1.49l-.15,0H120l-.15,0-.14,0-.15,0-.15,0-.15,0-.14,0-.15,0-.15,0-.14,0-.15,0-.14,0-.14,0-.15,0-.14.05-.14,0-.14.05-.14,0-.13.06-.14.06-.14.06-.13.07-.14.07-.13.06-.13.08-.13.07-.13.08-.13.07-.12.08-.13.09-.12.08-.13.09-.12.08-.12.09-.11.1-.12.09-.11.09-.12.1-.11.1-.11.1-.11.11-.1.1-.11.11-.1.11-.1.11-.1.11-.1.11-.1.12-.09.11-.09.12-.09.12-.09.12-.08.13-.09.12-.08.13-.08.12-.08.13-.07.13-.07.13-.07.13-.07.13-.07.14-.06.13-.07.14-.06.14,0,.13-.06.14,0,.14,0,.14,0,.15-.05.14,0,.14,0,.15,0,.14,0,.15,0,.14,0,.15,0,.14,0,.15,0,.15,0,.15,0,.15,0,.14v1.5l0,.15v.29l0,.15,0,.15,0,.15,0,.15,0,.14,0,.15,0,.15,0,.14,0,.15,0,.14,0,.14,0,.15.05.14,0,.14,0,.14,0,.14.06.14.06.14.06.13.06.14.07.13.06.14.07.13.08.13.07.13.08.13.07.12.08.13.09.13.08.12.09.12.09.12.09.12.09.12.1.11.09.12.1.11.1.11.1.11.11.11.1.1.11.11.11.1.11.1.11.1.12.1.11.09.12.09.12.09.12.09.12.09.12.09.13.08.12.08.13.08.13.07.13.08.13.07.13.07.14.07.13.06.14.07.13.06.14.06.14.05.14.06.14.05.14,0,.14,0,.14,0,.15,0,.14,0,.15,0,.14,0,.15,0,.14,0,.15,0,.15,0,.15,0,.14,0,.15,0h.15l.15,0h1.64l.15,0,.15,0,.15,0,.15,0,.14,0,.15,0,.15,0,.14,0,.15,0,.14,0,.15,0,.14,0,.14-.05.14,0,.14-.05.14,0,.14,0,.14-.06.14-.06.13-.06.14-.07.13-.06.14-.07.13-.07.13-.07.13-.08.13-.08.12-.07.13-.09L126,828l.13-.08.12-.09.12-.09.12-.09.11-.1.12-.09.11-.1.11-.1.11-.1.11-.1.11-.11.1-.1.11-.11.1-.11.1-.11.1-.12.09-.11.1-.12.09-.11.09-.12.09-.12.08-.13.09-.12.08-.13.08-.12.08-.13.07-.13.08-.13.07-.13.07-.13.07-.14.06-.13.06-.14.06-.13.06-.14.06-.14.05-.14,0-.14.05-.14.05-.14,0-.15,0-.14,0-.15,0-.14,0-.15,0-.14,0-.15,0-.15,0-.14,0-.15,0-.15,0-.15v-1Z" transform="translate(-17.72 -578.43)"/>
      <path id="path30" class="cls-4" d="M67.14,820.59V820l0-.15v-.15l0-.15,0-.14,0-.15,0-.15,0-.15,0-.14,0-.15,0-.15,0-.14,0-.15,0-.14,0-.14,0-.15,0-.14,0-.14,0-.14-.05-.14-.06-.14-.06-.13-.06-.14-.07-.14-.06-.13-.07-.13-.07-.14-.07-.13-.08-.13-.07-.12-.08-.13-.08-.13-.09-.12-.08-.13-.09-.12-.09-.12-.09-.12-.09-.11-.1-.12-.1-.11-.09-.11-.1-.11-.11-.11-.1-.11-.11-.11-.11-.1-.11-.1-.11-.1-.11-.1-.11-.1-.12-.09-.12-.09-.12-.09-.12-.09-.12-.09-.12-.08L63,813,62.9,813l-.13-.08-.13-.08-.13-.07-.13-.07-.13-.07-.14-.07-.13-.07-.14-.06-.13-.06-.14-.06-.14,0-.14-.06-.14,0-.14-.05-.14,0-.15,0-.14,0-.14,0-.15,0-.14,0-.15,0-.15,0-.14,0-.15,0-.15,0-.15,0-.15,0H57.62l-.15,0h-.3l-.15,0-.14,0-.15,0-.15,0-.15,0-.14,0-.15,0-.15,0-.14,0-.14,0-.15,0-.14,0-.14,0-.15.05-.14,0-.14.05-.14,0-.13.06-.14.06-.14.06-.13.07-.14.07-.13.06-.13.08-.13.07-.13.08-.13.07-.12.08-.13.09-.12.08-.12.09-.13.08-.11.09-.12.1-.12.09-.11.09-.12.1-.11.1L52,814l-.11.11-.1.1-.11.11-.1.11-.1.11-.1.11-.1.11-.09.12-.1.11-.09.12-.09.12-.09.12-.08.13-.09.12-.08.13-.08.12-.07.13-.08.13-.07.13-.07.13-.07.13-.07.14-.06.13-.07.14-.06.14,0,.13-.06.14,0,.14-.05.14,0,.15,0,.14,0,.14,0,.15,0,.14,0,.15,0,.14,0,.15,0,.14,0,.15,0,.15,0,.15,0,.15,0,.14v1.65l0,.15v.14l0,.15,0,.15,0,.15,0,.15,0,.14,0,.15,0,.15,0,.14,0,.15,0,.14,0,.14,0,.15.05.14,0,.14.06.14,0,.14.06.14.06.14.06.13.06.14.06.13.07.14.07.13.07.13.08.13.07.13.08.12.08.13.09.13.08.12.09.12.09.12.09.12.09.12.09.11.1.12.1.11.1.11.1.11.11.11.1.1.11.11.11.1.11.1.11.1.12.1.11.09.12.09.12.09.12.09L53,828l.12.09.13.08.12.08.13.08.13.07.13.08.13.07.13.07.14.07.13.06.14.07.13.06.14.06.14.05.14.06.14.05.14,0,.14,0,.14,0,.15,0,.14,0,.15,0,.14,0,.15,0,.14,0,.15,0,.15,0,.15,0,.14,0,.15,0h.15l.15,0H59l.15,0,.15,0,.15,0,.15,0,.14,0,.15,0,.15,0,.14,0,.15,0,.14,0,.14,0,.15,0,.14-.05.14,0,.14-.05.14,0,.14,0,.14-.06.14-.06.13-.06.14-.07.13-.06.14-.07.13-.07.13-.07.13-.08.13-.08.12-.07.13-.09.12-.08.13-.08.12-.09.12-.09.11-.09.12-.1.12-.09.11-.1.11-.1.11-.1.11-.1.11-.11.1-.1.11-.11.1-.11.1-.11.1-.12.09-.11.1-.12.09-.11.09-.12.09-.12.08-.13.09-.12.08-.13.08-.12.08-.13.07-.13L66,825l.07-.13.07-.13.06-.14.07-.13.06-.14.06-.13.06-.14.06-.14,0-.14.05-.14,0-.14,0-.14,0-.15,0-.14,0-.15,0-.14,0-.15,0-.14,0-.15,0-.15,0-.14,0-.15,0-.15,0-.15v-1Z" transform="translate(-17.72 -578.43)"/>
      <path id="path32" class="cls-4" d="M130,730.83v-.89l0-.15,0-.15,0-.15,0-.15,0-.14,0-.15,0-.15,0-.14,0-.15,0-.14,0-.15-.05-.14,0-.14-.05-.14-.05-.14,0-.15-.06-.13-.05-.14-.06-.14-.06-.14-.07-.13-.06-.14-.07-.13-.07-.13-.07-.13-.08-.13-.08-.13-.07-.13-.09-.12-.08-.13-.08-.12-.09-.12-.09-.12-.09-.12-.09-.12-.1-.11-.1-.12-.1-.11-.1-.11-.1-.11-.1-.11-.11-.1-.11-.1-.11-.11-.11-.1-.11-.09-.11-.1-.12-.1-.12-.09-.12-.09-.12-.09-.12-.08-.12-.09-.13-.08-.12-.08-.13-.08-.13-.07-.13-.08-.13-.07-.13-.07-.14-.07-.13-.06-.14-.06-.13-.07-.14,0-.14-.06-.14-.05-.14-.06-.14,0-.15,0-.14,0-.14,0-.15,0-.14,0-.15,0-.14,0-.15,0-.15,0-.14,0-.15,0-.15,0-.15,0-.15,0H120l-.15,0-.14,0-.15,0-.15,0-.15,0-.14,0-.15,0-.15,0-.14,0-.15,0-.14,0-.14,0-.15,0-.14.05-.14,0-.14.05-.14.06-.13,0-.14.06-.14.07-.13.06-.14.07-.13.07-.13.07-.13.07-.13.08-.13.07-.12.08-.13.09-.12.08-.13.09-.12.08-.12.09-.11.1-.12.09-.11.1-.12.09-.11.1-.11.1-.11.11-.1.1-.11.11-.1.11-.1.11-.1.11-.1.11-.1.12-.09.12-.09.11-.09.12-.09.12-.08.13-.09.12-.08.13-.08.12-.08.13-.07.13-.07.13-.07.13-.07.14-.07.13-.06.13-.07.14-.06.14,0,.14-.06.14,0,.14,0,.14,0,.14-.05.14,0,.14,0,.15,0,.14,0,.15,0,.14,0,.15,0,.15,0,.14,0,.15,0,.15,0,.15,0,.15v1.49l0,.15v.3l0,.14,0,.15,0,.15,0,.15,0,.14,0,.15,0,.15,0,.14,0,.15,0,.14,0,.15,0,.14.05.14,0,.14,0,.14,0,.14.06.14.06.14.06.13.06.14.07.13.06.14.07.13.08.13.07.13.08.13.07.13.08.12.09.13.08.12.09.12.09.12.09.12.09.12.1.12.09.11.1.11.1.11.1.11.11.11.1.11.11.1.11.1.11.1.11.1.12.1.11.09.12.1.12.09.12.09.12.08.12.09.13.08.12.08.13.08.13.08.13.07.13.07.13.07.14.07.13.07.14.06.13.06.14.06.14.06.14,0,.14,0,.14.05.14,0,.14,0,.15,0,.14,0,.15,0,.14,0,.15,0,.14,0,.15,0,.15,0,.15,0,.14,0,.15,0h.15l.15,0h1.34l.15,0h.15l.15,0,.15,0,.15,0,.15,0,.14,0,.15,0,.15,0,.14,0,.15,0,.14,0,.15,0,.14,0,.14,0,.14,0,.14-.05.14-.06.14,0,.14-.06.14-.06.13-.06.14-.06.13-.07.14-.07.13-.07.13-.07.13-.08.13-.07.12-.08.13-.08.12-.09.13-.08.12-.09.12-.09.12-.09.11-.09.12-.1.11-.1.11-.1.11-.1.11-.1.11-.1.1-.11.11-.11.1-.11.1-.11.1-.11.09-.12.1-.12.09-.11.09-.12.09-.12.08-.13.09-.12.08-.12.08-.13.08-.13.07-.13.08-.13.07-.13.07-.13.07-.13.06-.14.06-.14.06-.13.06-.14.06-.14.05-.14,0-.14.05-.14.05-.14,0-.15,0-.14,0-.14,0-.15,0-.14,0-.15,0-.15,0-.14,0-.15,0-.15,0-.15,0-.15v-1Z" transform="translate(-17.72 -578.43)"/>
      <path id="path34" class="cls-4" d="M67.14,730.83v-.59l0-.15v-.15l0-.15,0-.15,0-.15,0-.15,0-.14,0-.15,0-.15,0-.14,0-.15,0-.14,0-.15,0-.14,0-.14,0-.14,0-.14,0-.15-.05-.13-.06-.14-.06-.14-.06-.14-.07-.13-.06-.14-.07-.13-.07-.13L66,726.4l-.08-.13-.07-.13-.08-.13-.08-.12-.09-.13-.08-.12-.09-.12-.09-.12-.09-.12-.09-.12-.1-.11-.1-.12-.09-.11-.1-.11-.11-.11-.1-.11-.11-.1-.11-.1-.11-.11-.11-.1L64,724l-.11-.1-.12-.1-.12-.09-.12-.09-.12-.09-.12-.08-.12-.09-.13-.08-.12-.08-.13-.08-.13-.07-.13-.08-.13-.07-.13-.07-.14-.07-.13-.06-.14-.06-.13-.07-.14,0-.14-.06-.14-.05-.14-.06-.14,0-.14,0-.15,0-.14,0-.14,0-.15,0-.14,0L60,722l-.15,0-.14,0-.15,0-.15,0-.15,0-.15,0-.15,0H57.17l-.15,0-.14,0-.15,0-.15,0-.15,0-.14,0-.15,0-.15,0-.14,0-.14,0-.15,0-.14,0-.14,0-.15.05-.14,0-.14.05-.14.06-.13,0-.14.06-.14.07-.13.06-.14.07-.13.07-.13.07-.13.07-.13.08-.13.07-.12.08-.13.09-.12.08-.12.09-.13.08-.11.09-.12.1-.12.09-.11.1-.12.09-.11.1-.11.1-.11.11-.1.1-.11.11-.1.11-.1.11-.1.11-.1.11-.09.12-.1.12-.09.11-.09.12-.09.12-.08.13-.09.12-.08.13-.08.12-.07.13-.08.13-.07.13-.07.13-.07.14-.07.13L50,727l-.07.14-.06.14,0,.14-.06.14,0,.14-.05.14,0,.14,0,.14,0,.14,0,.15,0,.14,0,.15,0,.14,0,.15,0,.15,0,.14,0,.15,0,.15,0,.15,0,.15v1.64l0,.15v.15l0,.14,0,.15,0,.15,0,.15,0,.14,0,.15,0,.15,0,.14,0,.15,0,.14,0,.15,0,.14.05.14,0,.14.06.14,0,.14.06.14.06.14.06.13.06.14.06.13.07.14.07.13.07.13.08.13.07.13.08.13.08.12.09.13.08.12.09.12.09.12.09.12.09.12.09.12.1.11.1.11.1.11.1.11.11.11.1.11.11.1.11.1.11.1.11.1.12.1.11.09.12.1.12.09.12.09.12.08.12.09.13.08.12.08.13.08.13.08.13.07.13.07.13.07.14.07.13.07.14.06.13.06.14.06.14.06.14,0,.14,0,.14.05.14,0,.14,0,.15,0,.14,0,.15,0,.14,0,.15,0,.14,0,.15,0,.15,0,.15,0,.14,0,.15,0h.15l.15,0h1.34l.15,0H59l.15,0,.15,0,.15,0,.15,0,.14,0,.15,0,.15,0,.14,0,.15,0,.14,0,.14,0,.15,0,.14,0,.14,0,.14-.05.14-.06.14,0,.14-.06.14-.06.13-.06.14-.06.13-.07.14-.07.13-.07.13-.07.13-.08.13-.07.12-.08.13-.08.12-.09.13-.08.12-.09.12-.09.11-.09.12-.09.12-.1.11-.1.11-.1.11-.1.11-.1.11-.1.1-.11.11-.11.1-.11.1-.11.1-.11.09-.12.1-.12.09-.11.09-.12.09-.12.08-.13.09-.12.08-.12.08-.13.08-.13.07-.13.08-.13.07-.13.07-.13.06-.13.07-.14.06-.14.06-.13.06-.14.06-.14,0-.14.05-.14,0-.14,0-.14,0-.15,0-.14,0-.14,0-.15,0-.14,0-.15,0-.15,0-.14,0-.15,0-.15,0-.15,0-.15v-1Z" transform="translate(-17.72 -578.43)"/>
      <path id="path36" class="cls-4" d="M130,641.08v-.9l0-.15,0-.15,0-.14,0-.15,0-.15,0-.15,0-.14,0-.15,0-.14,0-.15,0-.14-.05-.15,0-.14-.05-.14-.05-.14,0-.14-.06-.14-.05-.14-.06-.14-.06-.13-.07-.14L129,637l-.07-.14-.07-.13-.07-.13-.08-.13-.08-.13-.07-.12-.09-.13-.08-.12-.08-.13-.09-.12-.09-.12-.09-.12-.09-.11-.1-.12-.1-.11-.1-.12-.1-.11-.1-.11-.1-.1-.11-.11-.11-.1-.11-.1-.11-.1-.11-.1-.11-.1-.12-.09-.12-.09-.12-.09-.12-.09-.12-.09-.12-.08-.13-.09-.12-.08-.13-.07-.13-.08-.13-.07-.13-.08-.13-.07-.14-.06-.13-.07-.14-.06-.13-.06-.14-.06-.14-.06-.14-.05-.14,0-.14-.05-.15,0-.14,0-.14,0-.15,0-.14,0-.15,0-.14,0-.15,0-.15,0-.14,0-.15,0-.15,0-.15,0h-.15l-.14,0h-1.5l-.15,0-.15,0-.14,0-.15,0-.15,0-.15,0-.14,0-.15,0-.15,0-.14,0-.15,0-.14,0-.14,0-.15,0-.14.05-.14,0-.14.06-.14,0-.13.06-.14.06-.14.06L117,633l-.14.06-.13.07-.13.07-.13.08-.13.07-.13.08-.12.08-.13.08-.12.09-.13.08-.12.09-.12.09-.11.09-.12.1-.11.09-.12.1-.11.1-.11.1-.11.1-.1.11-.11.11-.1.1-.1.11-.1.12-.1.11-.1.12-.09.11-.09.12-.09.12-.09.12-.08.12-.09.13-.08.12-.08.13-.08.13-.07.13-.07.13-.08.13-.06.13-.07.14-.06.13-.07.14-.06.13,0,.14-.06.14,0,.14,0,.14,0,.14-.05.15,0,.14,0,.14,0,.15,0,.14,0,.15,0,.15,0,.14,0,.15,0,.15,0,.15,0,.14,0,.15v1.5l0,.15v.29l0,.15,0,.15,0,.15,0,.14,0,.15,0,.15,0,.14,0,.15,0,.14,0,.15,0,.14,0,.14.05.15,0,.14,0,.14,0,.14.06.14.06.13.06.14.06.14.07.13.06.13.07.14.08.13.07.13.08.13.07.12.08.13.09.12.08.13.09.12.09.12.09.12.09.12.1.11.09.12.1.11.1.11.1.11.11.11.1.1.11.11.11.1.11.1.11.1.12.1.11.09.12.09.12.09.12.09.12.09.12.08.13.09.12.08.13.08.13.07.13.08.13.07.13.07.14.07.13.06.14.07.13.06.14.06.14.05.14.06.14,0,.14.05.14,0,.14,0,.15,0,.14,0,.15,0,.14,0,.15,0,.14,0,.15,0,.15,0,.15,0,.14,0,.15,0h.15l.15,0h1.64l.15,0,.15,0,.15,0,.15,0,.14,0,.15,0,.15,0,.14,0,.15,0,.14,0,.15,0,.14,0,.14-.05.14,0,.14-.05.14,0,.14,0,.14-.06.14-.06.13-.06.14-.07.13-.06.14-.07.13-.07.13-.07.13-.08.13-.08.12-.07.13-.09.12-.08.13-.09.12-.08.12-.09.12-.09.11-.1.12-.09.11-.1.11-.1.11-.1.11-.1.11-.11.1-.1.11-.11.1-.11.1-.11.1-.12.09-.11.1-.12.09-.12.09-.11.09-.13.08-.12.09-.12.08-.13.08-.12.08-.13.07-.13.08-.13.07-.13.07-.13.07-.14.06-.13.06-.14.06-.14.06-.13.06-.14.05-.14,0-.14.05-.14.05-.15,0-.14,0-.14,0-.15,0-.14,0-.15,0-.14,0-.15,0-.15,0-.15,0-.14,0-.15,0-.15v-1Z" transform="translate(-17.72 -578.43)"/>
      <path id="path38" class="cls-4" d="M67.14,641.08v-.6l0-.15v-.15l0-.15,0-.15,0-.14,0-.15,0-.15,0-.15,0-.14,0-.15,0-.14,0-.15,0-.14,0-.15,0-.14,0-.14,0-.14,0-.14-.05-.14-.06-.14-.06-.14-.06-.13-.07-.14-.06-.13-.07-.14-.07-.13-.07-.13-.08-.13-.07-.13-.08-.12-.08-.13-.09-.12-.08-.13-.09-.12-.09-.12-.09-.12-.09-.11-.1-.12-.1-.11-.09-.12-.1-.11-.11-.11-.1-.1-.11-.11-.11-.1-.11-.1-.11-.1-.11-.1-.11-.1-.12-.09-.12-.09-.12-.09-.12-.09-.12-.09-.12-.08-.13-.09-.12-.08-.13-.07-.13-.08-.13-.07-.13-.08-.13-.07-.14-.06-.13-.07-.14-.06-.13-.06-.14-.06-.14-.06-.14-.05-.14,0-.14-.05-.14,0-.15,0-.14,0-.14,0-.15,0-.14,0-.15,0-.15,0-.14,0-.15,0-.15,0-.15,0-.15,0H59l-.14,0h-1.5l-.15,0-.15,0-.14,0-.15,0-.15,0-.15,0-.14,0-.15,0-.15,0-.14,0-.14,0-.15,0-.14,0-.14,0-.15.05-.14,0-.14.06-.14,0-.13.06-.14.06-.14.06-.13.07-.14.06-.13.07-.13.07-.13.08-.13.07-.13.08-.12.08-.13.08-.12.09-.12.08-.13.09-.11.09-.12.09-.12.1-.11.09-.12.1-.11.1-.11.1-.11.1-.1.11-.11.11-.1.1-.1.11-.1.12-.1.11-.09.12-.1.11-.09.12-.09.12-.09.12-.08.12-.09.13-.08.12-.08.13-.07.13-.08.13-.07.13-.07.13-.07.13-.07.14-.06.13-.07.14-.06.13,0,.14-.06.14,0,.14-.05.14,0,.14,0,.15,0,.14,0,.14,0,.15,0,.14,0,.15,0,.15,0,.14,0,.15,0,.15,0,.15,0,.14,0,.15v1.65l0,.14v.15l0,.15,0,.15,0,.15,0,.14,0,.15,0,.15,0,.14,0,.15,0,.14,0,.15,0,.14,0,.14.05.15,0,.14.06.14,0,.14.06.14.06.13.06.14L50,645l.06.13.07.13.07.14.07.13.08.13.07.13.08.12.08.13.09.12.08.13.09.12.09.12.09.12.09.12.09.11.1.12.1.11.1.11.1.11.11.11.1.1.11.11.11.1.11.1.11.1.12.1.11.09.12.09.12.09.12.09.12.09.12.08.13.09.12.08.13.08.13.07.13.08.13.07.13.07.14.07.13.06.14.07.13.06.14.06.14.05.14.06.14,0,.14.05.14,0,.14,0,.15,0,.14,0,.15,0,.14,0,.15,0,.14,0,.15,0,.15,0,.15,0,.14,0,.15,0h.15l.15,0H59l.15,0,.15,0,.15,0,.15,0,.14,0,.15,0,.15,0,.14,0,.15,0,.14,0,.14,0,.15,0,.14-.05.14,0,.14-.05.14,0,.14,0,.14-.06.14-.06.13-.06.14-.07.13-.06.14-.07.13-.07.13-.07.13-.08.13-.08.12-.07.13-.09.12-.08.13-.09.12-.08.12-.09.11-.09.12-.1.12-.09.11-.1.11-.1.11-.1.11-.1.11-.11.1-.1.11-.11.1-.11.1-.11.1-.12.09-.11.1-.12.09-.12.09-.11.09-.13.08-.12.09-.12.08-.13.08-.12.08-.13.07-.13.08-.13.07-.13.07-.13.06-.14.07-.13.06-.14.06-.14.06-.13.06-.14,0-.14.05-.14,0-.14,0-.15,0-.14,0-.14,0-.15,0-.14,0-.15,0-.14,0-.15,0-.15,0-.15,0-.14,0-.15,0-.15v-1Z" transform="translate(-17.72 -578.43)"/>
      <path id="path40" class="cls-4" d="M132.08,672.49v-.89l0-.15v-.15l0-.15,0-.15,0-.15,0-.15,0-.14,0-.15,0-.15,0-.14,0-.15,0-.14,0-.15,0-.14,0-.15,0-.14,0-.14,0-.15,0-.14-.05-.14,0-.14-.06-.14-.05-.14-.06-.14-.06-.13-.06-.14-.07-.13-.06-.14-.07-.13-.07-.14-.07-.13-.07-.13-.07-.13-.08-.13-.07-.13-.08-.12-.08-.13-.09-.12-.08-.13L130,666l-.09-.12-.08-.12-.09-.12-.1-.12-.09-.11-.1-.12-.09-.11-.1-.12-.1-.11-.1-.11-.11-.1-.1-.11-.11-.11-.1-.1-.11-.1-.11-.11-.11-.1-.12-.09-.11-.1-.12-.1-.11-.09-.12-.09-.12-.09-.12-.09-.12-.09-.12-.08-.13-.09-.12-.08-.13-.08-.13-.08-.12-.08-.13-.07-.13-.08-.13-.07-.14-.07-.13-.07-.13-.06-.14-.07-.13-.06-.14-.06-.14-.06-.13-.06-.14-.06-.14,0-.14-.05-.14,0-.15-.05-.14,0-.14,0-.14,0-.15,0-.14,0-.15,0-.14,0-.15,0-.15,0-.14,0-.15,0-.15,0-.15,0-.14,0-.15,0-.15,0h-.3l-.15,0h-1.79l-.15,0-.15,0h-.15l-.14,0-.15,0-.15,0-.15,0-.14,0-.15,0-.15,0-.14,0-.15,0-.14,0-.14,0-.15,0-.14,0-.14.05-.14,0-.14,0-.14.05-.14.06-.14.05-.14.06-.14.06-.13.06-.14.07-.13.06-.14.07-.13.07-.13.07-.13.07-.13.08-.13.07-.13.08-.13.08-.12.08-.13.08-.12.09-.12.08-.12.09-.12.09-.12.09-.12.09-.12.1-.11.09-.12.1-.11.1-.11.1-.11.1-.11.1-.1.11-.11.1-.1.11-.11.11-.1.11-.1.11-.1.12-.09.11-.1.12-.09.11-.09.12-.09.12L112,666l-.09.12-.08.12-.09.13-.08.12-.08.13-.08.13-.08.12-.07.13-.08.13-.07.14-.07.13-.07.13-.06.13-.07.14-.06.14-.06.13-.06.14-.06.14,0,.14-.06.14,0,.14,0,.14-.05.14,0,.14,0,.14,0,.15,0,.14,0,.15,0,.14,0,.15,0,.14,0,.15,0,.15,0,.14,0,.15,0,.15,0,.15,0,.15,0,.14v.15l0,.15v1.8l0,.14v.15l0,.15,0,.15,0,.15,0,.15,0,.14,0,.15,0,.15,0,.14,0,.15,0,.14,0,.15,0,.14,0,.15,0,.14,0,.14,0,.15,0,.14.05.14,0,.14.06.14,0,.13.06.14.06.14.06.14.07.13.06.14.07.13.07.13.07.13.07.13.08.13.07.13.08.13.08.13.08.12.08.13.09.12.09.12.08.12.09.12.09.12.1.12.09.12.1.11.09.11.1.12.1.11.1.11.11.1.1.11.11.11.11.1.11.1.11.1.11.1.11.1.12.1.11.09.12.1.12.09.12.09.12.09.12.08.12.09.12.08.13.09.13.08.12.07.13.08.13.08.13.07.13.07.13.07.14.07.13.07.14.06.13.06.14.06.14.06.13.06.14.05.14.06.14.05.14,0,.15.05.14,0,.14,0,.15,0,.14,0,.14,0,.15,0,.14,0,.15,0,.15,0,.14,0,.15,0,.15,0,.15,0,.15,0,.14,0,.15,0h2.24l.15,0h.15l.15,0,.15,0,.14,0,.15,0,.15,0,.14,0,.15,0,.15,0,.14,0,.15,0,.14,0,.14,0,.15,0,.14,0,.14-.05.14,0,.14-.05.14,0,.14-.06.14-.05.14-.06.14-.06.13-.06.14-.07.13-.06.14-.07.13-.07.13-.07.13-.07.13-.08.13-.07.13-.08.12-.08.13-.08.12-.09.13-.08.12-.09.12-.09.12-.09.12-.09.11-.09.12-.09.12-.1.11-.1.11-.1.11-.1.11-.1.11-.1.11-.11.1-.1.11-.11.1-.11.1-.11.1-.11.1-.12.09-.11.1-.12.09-.11.09-.12.09-.12L130,679l.09-.13.08-.12.09-.12.08-.13.08-.12.08-.13.07-.13.08-.13.07-.13.07-.13.07-.13.07-.14.06-.13.07-.14.06-.13.06-.14.06-.14.06-.13.05-.14.06-.14.05-.14.05-.15,0-.14.05-.14,0-.14,0-.15,0-.14,0-.15,0-.14,0-.15,0-.14,0-.15,0-.15,0-.14,0-.15,0-.15,0-.15,0-.15,0-.14v-1.13Z" transform="translate(-17.72 -578.43)"/>
      <path id="path42" class="cls-4" d="M69.26,672.49v-1l0-.15,0-.15V671l0-.15,0-.15,0-.14,0-.15,0-.15,0-.14,0-.15,0-.14,0-.15,0-.14,0-.15,0-.14,0-.14,0-.15-.05-.14,0-.14,0-.14,0-.14-.06-.14-.06-.14L68.3,668l-.06-.14-.06-.13-.07-.14-.06-.13-.07-.14-.07-.13-.08-.13-.07-.13-.07-.13-.08-.13-.08-.12-.08-.13-.08-.12-.09-.13L67.2,666l-.09-.12L67,665.8l-.09-.12-.09-.12-.1-.11-.09-.12-.1-.11-.1-.12-.1-.11-.1-.11-.1-.1-.11-.11-.1-.11-.11-.1-.11-.1-.11-.11-.11-.1-.11-.09-.12-.1-.11-.1-.12-.09-.12-.09-.12-.09-.12-.09-.12-.09-.12-.08-.12-.09-.13-.08-.13-.08-.12-.08-.13-.08-.13-.07-.13-.08-.13-.07-.13-.07-.14-.07L63,662.5l-.13-.07-.14-.06-.14-.06-.13-.06-.14-.06-.14-.06-.14,0-.14-.05-.14,0-.14-.05-.15,0-.14,0-.14,0-.15,0-.14,0-.15,0-.14,0-.15,0-.14,0-.15,0-.15,0-.15,0-.14,0-.15,0-.15,0-.15,0H59l-.15,0H57.06l-.15,0-.15,0h-.14l-.15,0-.15,0-.15,0-.14,0-.15,0-.15,0-.14,0-.15,0-.14,0-.15,0-.14,0-.15,0-.14,0-.14.05-.14,0-.14,0-.14.05-.14.06-.14.05-.14.06-.14.06-.13.06-.14.07-.13.06-.14.07-.13.07-.13.07-.13.07-.13.08-.13.07-.13.08-.12.08-.13.08-.12.08-.13.09-.12.08-.12.09-.12.09-.12.09-.12.09-.11.1L51,664l-.11.1-.12.1-.11.1-.11.1-.11.1-.1.11-.11.1-.1.11-.1.11-.11.11-.1.11-.09.12-.1.11-.1.12-.09.11-.09.12-.09.12-.09.12-.09.12-.08.12-.09.13-.08.12-.08.13-.08.13-.07.12-.08.13-.07.13-.08.14-.07.13-.06.13-.07.13-.06.14-.07.14-.06.13-.06.14,0,.14-.06.14,0,.14-.06.14,0,.14,0,.14-.05.14,0,.14,0,.15,0,.14,0,.15,0,.14,0,.15,0,.14,0,.15,0,.15,0,.14,0,.15,0,.15,0,.15,0,.15,0,.14v.15l0,.15v1.8l0,.14v.15l0,.15,0,.15,0,.15,0,.15,0,.14,0,.15,0,.15,0,.14,0,.15,0,.14,0,.15,0,.14,0,.15.05.14,0,.14,0,.15.05.14,0,.14,0,.14.06.14.05.13.06.14L48,677l.06.14.07.13.06.14.07.13.07.13.07.13.07.13.08.13.07.13.08.13.08.13.08.12.08.13.09.12.08.12.09.12.09.12.09.12.1.12.09.12.1.11.09.11.1.12.1.11.1.11.11.1.1.11.11.11.11.1.1.1.12.1.11.1.11.1.11.1.12.09.12.1.11.09.12.09.12.09.13.08.12.09.12.08.13.09.12.08.13.07.13.08.13.08.13.07.13.07.13.07.14.07.13.07.14.06.13.06.14.06.14.06.13.06.14.05.14.06.14.05.14,0,.15.05.14,0,.14,0,.14,0,.15,0,.14,0,.15,0,.14,0,.15,0,.15,0,.14,0,.15,0,.15,0,.15,0,.14,0,.15,0,.15,0h2.24l.15,0h.15l.15,0,.15,0,.14,0,.15,0,.15,0,.14,0,.15,0,.15,0,.14,0,.15,0,.14,0,.14,0,.15,0,.14,0,.14-.05.14,0,.14-.05.14,0,.14-.06.14-.05.14-.06.14-.06.13-.06.14-.07.13-.06.14-.07.13-.07.13-.07.13-.07.13-.08.13-.07L64,682l.12-.08.13-.08.12-.09.13-.08.12-.09.12-.09.12-.09.12-.09.11-.09.12-.09.11-.1.12-.1.11-.1.11-.1.11-.1.11-.1.11-.11.1-.1.1-.11.11-.11.1-.11.1-.11.1-.12.09-.11.1-.12.09-.11.09-.12.09-.12.09-.12.09-.13.08-.12.08-.12.09-.13.08-.12.07-.13.08-.13.08-.13.07-.13.07-.13.07-.13.07-.14.06-.13.07-.14.06-.13.06-.14.06-.14.06-.13,0-.14.06-.14,0-.14,0-.15,0-.14,0-.14,0-.14,0-.15,0-.14,0-.15,0-.14,0-.15,0-.14,0-.15,0-.15,0-.14,0-.15,0-.15,0-.15,0-.15,0-.14v-.3l0-.15v-.68Z" transform="translate(-17.72 -578.43)"/>
      <path id="path44" class="cls-4" d="M132.08,762.25v-.9l0-.15v-.15l0-.15,0-.14,0-.15,0-.15,0-.15,0-.14,0-.15,0-.15,0-.14,0-.15,0-.14,0-.15,0-.14,0-.15,0-.14,0-.14,0-.14-.05-.14,0-.14-.06-.14-.05-.14-.06-.14-.06-.14-.06-.13-.07-.14-.06-.13-.07-.14-.07-.13-.07-.13-.07-.13-.07-.13-.08-.13-.07-.13-.08-.13-.08-.12-.09-.13-.08-.12-.09-.12-.09-.12-.08-.12-.09-.12-.1-.12-.09-.12-.1-.11-.09-.12-.1-.11-.1-.11-.1-.11-.11-.11-.1-.11-.11-.1-.1-.11-.11-.1-.11-.1-.11-.1-.12-.1-.11-.1-.12-.09-.11-.09-.12-.1-.12-.09-.12-.09-.12-.08-.12-.09-.13-.08-.12-.09-.13-.08-.13-.07-.12-.08-.13-.08-.13-.07-.13-.07-.14-.07-.13-.07-.13-.07-.14-.06-.13-.07-.14-.06-.14-.06-.13-.06-.14-.05-.14,0-.14-.06-.14,0-.15,0-.14-.05-.14,0-.14,0-.15,0-.14,0-.15,0-.14,0-.15,0-.15,0-.14,0-.15,0-.15,0-.15,0-.14,0h-.15l-.15,0-.15,0h-1.64l-.15,0h-.45l-.15,0-.15,0-.14,0-.15,0-.15,0-.15,0-.14,0-.15,0-.15,0-.14,0-.15,0-.14,0-.14,0-.15,0-.14,0-.14.05-.14,0-.14.06-.14.05-.14,0-.14.06-.14.06-.14.06-.13.06-.14.06-.13.07-.14.06-.13.07-.13.07-.13.08-.13.07-.13.08-.13.07-.13.08-.12.08-.13.09-.12.08-.12.09-.12.08-.12.09-.12.1-.12.09-.12.09-.11.1-.12.09-.11.1-.11.1-.11.11-.11.1-.1.1-.11.11-.1.11-.11.11-.1.11-.1.11-.1.11-.09.11-.1.12-.09.12-.09.11-.09.12-.09.12-.09.13-.08.12-.09.12-.08.13-.08.12-.08.13-.08.13-.07.13-.08.13-.07.13-.07.13-.07.14-.06.13-.07.13-.06.14-.06.14-.06.13-.06.14,0,.14-.06.14,0,.14,0,.14-.05.14,0,.15,0,.14,0,.14,0,.15,0,.14,0,.15,0,.14,0,.15,0,.14,0,.15,0,.15,0,.15,0,.14,0,.15,0,.15,0,.15v.15l0,.15v1.79l0,.15v.15l0,.15,0,.14,0,.15,0,.15,0,.15,0,.14,0,.15,0,.15,0,.14,0,.15,0,.14,0,.15,0,.14,0,.15,0,.14,0,.14,0,.14.05.14,0,.14.06.14,0,.14.06.14.06.13.06.14.07.14.06.13.07.13.07.14.07.13.07.13.08.13.07.13.08.13.08.12.08.13.08.12.09.13.09.12.08.12.09.12.09.12.1.11.09.12.1.12.09.11.1.11.1.11.1.11.11.11.1.11.11.1.11.11.11.1.11.1.11.1.11.1.12.09.11.1.12.09.12.09.12.09.12.09.12.09.12.08.12.09.13.08.13.08.12.08.13.08.13.07.13.07.13.08.13.07.14.06.13.07.14.06.13.07.14.06.14.06.13,0,.14.06.14,0,.14.05.14,0,.15.05.14,0,.14,0,.15,0,.14,0,.14,0,.15,0,.14,0,.15,0,.15,0,.14,0,.15,0,.15,0,.15,0,.15,0h.14l.15,0,.15,0h1.94l.15,0h.15l.15,0,.15,0,.15,0,.14,0,.15,0,.15,0,.14,0,.15,0,.15,0,.14,0,.15,0,.14,0,.14,0,.15,0,.14,0,.14,0,.14,0,.14,0,.14-.05.14-.06.14-.06.14,0,.14-.06.13-.07.14-.06.13-.07.14-.06.13-.07.13-.07.13-.08.13-.07.13-.08.13-.08.12-.08.13-.08.12-.08.13-.09.12-.08.12-.09.12-.09.12-.09.11-.09.12-.1.12-.09.11-.1.11-.1.11-.1.11-.1.11-.11.11-.1.1-.11.11-.11.1-.11.1-.11.1-.11.1-.11.09-.12.1-.11.09-.12.09-.12.09-.12.09-.12.09-.12.08-.12.09-.13.08-.12.08-.13.08-.12.07-.13.08-.13.07-.13.07-.13.07-.14.07-.13.06-.13L131,767l.06-.14.06-.13.06-.14.06-.14.05-.14.06-.14.05-.14.05-.14,0-.14.05-.14,0-.15,0-.14,0-.14,0-.15,0-.14,0-.15,0-.15,0-.14,0-.15,0-.15,0-.14,0-.15,0-.15,0-.15,0-.15v-1.12Z" transform="translate(-17.72 -578.43)"/>
      <path id="path46" class="cls-4" d="M69.26,762.25v-1l0-.15,0-.15v-.14l0-.15,0-.15,0-.15,0-.14,0-.15,0-.15,0-.14,0-.15,0-.14,0-.15,0-.14,0-.15,0-.14,0-.14-.05-.14,0-.14,0-.14,0-.14-.06-.14-.06-.14-.06-.14-.06-.13-.06-.14-.07-.13-.06-.14-.07-.13-.07-.13-.08-.13-.07-.13-.07-.13-.08-.13-.08-.13-.08-.12-.08-.13-.09-.12-.08-.12-.09-.12-.09-.12-.09-.12-.09-.12-.1-.12-.09-.11-.1-.12-.1-.11-.1-.11-.1-.11-.1-.11-.11-.11-.1-.1-.11-.11-.11-.1-.11-.1-.11-.1-.11-.1-.12-.1-.11-.09-.12-.09-.12-.1-.12-.09-.12-.09-.12-.08-.12-.09-.12-.08-.13-.09-.13-.08-.12-.07-.13-.08-.13-.08-.13-.07-.13-.07-.13-.07-.14-.07-.13-.07-.13-.06-.14-.07-.14-.06-.13-.06-.14-.06-.14-.05-.14,0-.14-.06-.14,0-.14,0-.15-.05-.14,0-.14,0-.15,0-.14,0-.15,0-.14,0-.15,0-.14,0-.15,0-.15,0-.15,0-.14,0-.15,0h-.15l-.15,0-.15,0H57.51l-.15,0h-.45l-.15,0-.14,0-.15,0-.15,0-.15,0-.14,0-.15,0-.15,0-.14,0-.15,0-.14,0-.15,0-.14,0-.15,0-.14,0-.14.05-.14,0-.14.06-.14.05-.14,0-.14.06-.14.06-.14.06-.13.06-.14.06-.13.07-.14.06-.13.07-.13.07-.13.08-.13.07-.13.08-.13.07-.12.08-.13.08-.12.09-.13.08-.12.09-.12.08-.12.09-.12.1-.12.09-.11.09-.12.1-.11.09-.12.1-.11.1-.11.11-.11.1-.1.1-.11.11-.1.11-.1.11-.11.11-.1.11-.09.11-.1.11-.1.12-.09.12-.09.11-.09.12-.09.12-.09.13L49,756l-.09.12-.08.13-.08.12-.08.13-.07.13-.08.13-.07.13-.08.13-.07.13-.06.14-.07.13-.06.13-.07.14-.06.14-.06.13,0,.14-.06.14,0,.14-.06.14,0,.14,0,.14-.05.15,0,.14,0,.14,0,.15,0,.14,0,.15,0,.14,0,.15,0,.14,0,.15,0,.15,0,.15,0,.14,0,.15,0,.15,0,.15v.15l0,.15v1.79l0,.15v.15l0,.15,0,.14,0,.15,0,.15,0,.15,0,.14,0,.15,0,.15,0,.14,0,.15,0,.14,0,.15,0,.14.05.15,0,.14,0,.14.05.14,0,.14,0,.14.06.14.05.14.06.14.06.13.06.14.07.14.06.13.07.13.07.14.07.13.07.13.08.13.07.13.08.13.08.12.08.13.08.12.09.13.08.12.09.12.09.12.09.12.1.11.09.12.1.12.09.11.1.11.1.11.1.11.11.11.1.11.11.1.11.11.1.1.12.1.11.1.11.1.11.09.12.1.12.09.11.09.12.09.12.09.13.09.12.08.12.09.13.08.12.08.13.08.13.08.13.07.13.07.13.08.13.07.14.06.13.07.14.06.13.07.14.06.14.06.13,0,.14.06.14,0,.14.05.14,0,.15.05.14,0,.14,0,.14,0,.15,0,.14,0,.15,0,.14,0,.15,0,.15,0,.14,0,.15,0,.15,0,.15,0,.14,0h.15l.15,0,.15,0h1.94l.15,0h.15l.15,0,.15,0,.15,0,.14,0,.15,0,.15,0,.14,0,.15,0,.15,0,.14,0,.15,0,.14,0,.14,0,.15,0,.14,0,.14,0,.14,0,.14,0,.14-.05.14-.06.14-.06.14,0,.14-.06.13-.07.14-.06.13-.07.14-.06.13-.07.13-.07.13-.08.13-.07.13-.08.13-.08.12-.08.13-.08.12-.08.13-.09.12-.08.12-.09.12-.09L65,771l.11-.09.12-.1.11-.09.12-.1.11-.1.11-.1.11-.1.11-.11.11-.1.1-.11.1-.11.11-.11.1-.11.1-.11.1-.11.09-.12.1-.11.09-.12L67,769l.09-.12.09-.12.09-.12.08-.12.08-.13.09-.12.08-.13.07-.12.08-.13.08-.13.07-.13.07-.13.07-.14.07-.13.06-.13.07-.14.06-.14.06-.13.06-.14.06-.14,0-.14.06-.14,0-.14,0-.14,0-.14,0-.14,0-.15,0-.14,0-.14,0-.15,0-.14,0-.15,0-.15,0-.14,0-.15,0-.15,0-.14,0-.15,0-.15,0-.15,0-.15v-.3l0-.15v-.67Z" transform="translate(-17.72 -578.43)"/>
      <path id="path48" class="cls-4" d="M132.08,852v-.89l0-.15v-.15l0-.15,0-.15,0-.15,0-.14,0-.15,0-.15,0-.14,0-.15,0-.15,0-.14,0-.15,0-.14,0-.15,0-.14,0-.14,0-.14,0-.15-.05-.14,0-.14-.06-.14-.05-.14-.06-.13-.06-.14-.06-.14-.07-.13-.06-.14-.07-.13-.07-.13-.07-.14-.07-.13-.07-.13-.08-.13-.07-.12-.08-.13-.08-.13-.09-.12-.08-.13-.09-.12-.09-.12-.08-.12-.09-.12-.1-.12-.09-.11-.1-.12-.09-.11-.1-.11-.1-.11-.1-.11-.11-.11-.1-.11-.11-.11-.1-.1-.11-.1-.11-.1-.11-.1-.12-.1-.11-.1-.12-.09-.11-.1-.12-.09-.12-.09-.12-.09-.12-.09-.12-.08-.13-.09-.12-.08-.13-.08-.13-.08-.12-.08-.13-.07-.13-.08-.13-.07-.14-.07-.13-.07-.13-.06-.14-.07-.13-.06-.14-.06-.14-.06-.13-.06-.14-.06-.14,0-.14-.05-.14,0-.15,0-.14-.05-.14,0-.14,0-.15,0-.14,0-.15,0-.14,0-.15,0-.15,0-.14,0-.15,0-.15,0-.15,0-.14,0-.15,0h-.15l-.15,0H120l-.15,0h-.15l-.15,0-.15,0-.14,0-.15,0-.15,0-.15,0-.14,0-.15,0-.15,0-.14,0-.15,0-.14,0-.14,0-.15,0-.14,0-.14,0-.14,0-.14,0-.14.05-.14.06-.14.06-.14,0-.14.06-.13.06-.14.07L116,842l-.14.07-.13.07-.13.07-.13.07-.13.08-.13.07-.13.08-.13.08-.12.08-.13.08-.12.09-.12.08-.12.09-.12.09-.12.09-.12.09-.12.1-.11.09-.12.1-.11.1-.11.1-.11.1-.11.11-.1.1-.11.11-.1.1-.11.11-.1.11-.1.11-.1.12-.09.11-.1.12-.09.11-.09.12-.09.12-.09.12-.09.12-.08.12-.09.13-.08.12-.08.13-.08.13-.08.13-.07.12-.08.14-.07.13-.07.13L111,847l-.06.14-.07.13-.06.14-.06.13-.06.14-.06.14,0,.14-.06.14,0,.14,0,.14-.05.14,0,.14,0,.14,0,.15,0,.14,0,.15,0,.14,0,.15,0,.14,0,.15,0,.15,0,.14,0,.15,0,.15,0,.15,0,.15,0,.15V851l0,.15v1.8l0,.15v.14l0,.15,0,.15,0,.15,0,.15,0,.14,0,.15,0,.15,0,.14,0,.15,0,.14,0,.15,0,.14,0,.15,0,.14,0,.14,0,.15,0,.14.05.14,0,.14.06.14,0,.14.06.13.06.14.06.14.07.13.06.14.07.13.07.13.07.13.07.14.08.13.07.12.08.13.08.13.08.12.08.13.09.12.09.12.08.12.09.12.09.12.1.12.09.12.1.11.09.11.1.12.1.11.1.11.11.11.1.1.11.11.11.1.11.1.11.11.11.1.11.09.12.1.11.09.12.1.12.09.12.09.12.09.12.09.12.08.12.08.13.09.13.08.12.07.13.08.13.08.13.07.13.07.13.07.14.07.13.07.14.06.13.06.14.06.14.06.13.06.14.06.14,0,.14.05.14,0,.15.05.14,0,.14,0,.15,0,.14,0,.14,0,.15,0,.14,0,.15,0,.15,0,.14,0,.15,0,.15,0,.15,0,.15,0,.14,0,.15,0h1.79l.15,0h.45l.15,0,.15,0,.15,0,.14,0,.15,0,.15,0,.14,0,.15,0,.15,0,.14,0,.15,0,.14,0,.14,0,.15,0,.14,0,.14-.05.14,0,.14,0,.14-.05.14,0,.14-.06.14-.06.14-.06.13-.06.14-.07.13-.06.14-.07.13-.07.13-.07.13-.07.13-.08.13-.07.13-.08.12-.08.13-.08.12-.08.13-.09.12-.09.12-.08.12-.09.12-.1.11-.09.12-.09.12-.1.11-.1.11-.09.11-.11.11-.1.11-.1.11-.11.1-.1.11-.11.1-.11.1-.11.1-.11.1-.12.09-.11.1-.12.09-.11.09-.12.09-.12.09-.12.09-.12.08-.13.09-.12.08-.12.08-.13.08-.13.07-.13.08-.13.07-.13.07-.13.07-.13.07-.13.06-.14.07-.13.06-.14.06-.14.06-.13.06-.14.05-.14.06-.14.05-.14.05-.14,0-.15.05-.14,0-.14,0-.14,0-.15,0-.14,0-.15,0-.14,0-.15,0-.15,0-.14,0-.15,0-.15,0-.15,0-.15,0-.14,0-.15V852Z" transform="translate(-17.72 -578.43)"/>
      <path id="path50" class="cls-4" d="M69.26,852v-1l0-.15,0-.15v-.15l0-.15,0-.14,0-.15,0-.15,0-.14,0-.15,0-.15,0-.14,0-.15,0-.14,0-.15,0-.14,0-.14,0-.14-.05-.15,0-.14,0-.14,0-.14-.06-.14-.06-.13-.06-.14-.06-.14-.06-.13-.07-.14-.06-.13-.07-.13-.07-.14-.08-.13-.07-.13-.07-.13-.08-.12-.08-.13-.08-.13-.08-.12-.09-.13-.08-.12-.09-.12-.09-.12-.09-.12-.09-.12-.1-.11-.09-.12-.1-.11-.1-.11-.1-.11-.1-.11-.1-.11-.11-.11-.1-.11-.11-.1-.11-.1-.11-.1-.11-.1-.11-.1-.12-.1-.11-.09-.12-.1-.12-.09-.12-.09-.12-.09-.12-.09-.12-.08-.12-.09-.13-.08-.13-.08-.12-.08-.13-.08-.13-.07-.13-.08-.13-.07-.13-.07-.14-.07L63,842l-.13-.07-.14-.06-.14-.06-.13-.06-.14-.06-.14-.06-.14,0-.14-.05-.14,0-.14,0-.15-.05-.14,0-.14,0-.15,0-.14,0-.15,0-.14,0-.15,0-.14,0-.15,0L60,841l-.15,0-.14,0-.15,0-.15,0H59.3l-.15,0H57.21l-.15,0h-.15l-.15,0-.14,0-.15,0-.15,0-.15,0-.14,0-.15,0-.15,0-.14,0-.15,0-.14,0-.15,0-.14,0-.15,0-.14,0-.14,0-.14,0-.14,0-.14.05-.14.06-.14.06-.14,0-.14.06-.13.06-.14.07-.13.06-.14.07-.13.07-.13.07-.13.07-.13.08-.13.07-.13.08-.12.08-.13.08-.12.08-.13.09-.12.08-.12.09-.12.09-.12.09-.12.09-.11.1-.12.09-.11.1-.12.1-.11.1-.11.1-.11.11-.1.1-.11.11-.1.1-.1.11-.11.11-.1.11-.09.12-.1.11-.1.12-.09.11-.09.12-.09.12-.09.12-.09.12-.08.12-.09.13-.08.12-.08.13-.08.13-.07.13-.08.12-.07.14-.08.13-.07.13-.06.13-.07.14-.06.13-.07.14-.06.13-.06.14,0,.14-.06.14,0,.14-.06.14,0,.14,0,.14-.05.14,0,.14,0,.15,0,.14,0,.15,0,.14,0,.15,0,.14,0,.15,0,.15,0,.14,0,.15,0,.15,0,.15,0,.15,0,.15V851l0,.15v1.8l0,.15v.14l0,.15,0,.15,0,.15,0,.15,0,.14,0,.15,0,.15,0,.14,0,.15,0,.14,0,.15,0,.14,0,.15.05.14,0,.14,0,.15.05.14,0,.14,0,.14.06.14.05.14.06.13.06.14.06.14.07.13.06.14.07.13.07.13.07.13.07.14.08.13.07.12.08.13.08.13.08.12.08.13.09.12.08.12.09.12.09.12.09.12.1.12.09.12.1.11.09.11.1.12.1.11.1.11.11.11.1.1.11.11.11.1.1.1.12.11.11.1.11.09.11.1.12.09.12.1.11.09.12.09.12.09.13.09.12.08.12.08.13.09.12.08.13.07.13.08.13.08.13.07.13.07.13.07.14.07.13.07.14.06.13.06.14.06.14.06.13.06.14.06.14,0,.14.05.14,0,.15.05.14,0,.14,0,.14,0,.15,0,.14,0,.15,0,.14,0,.15,0,.15,0,.14,0,.15,0,.15,0,.15,0,.14,0,.15,0,.15,0h1.79l.15,0h.45l.15,0,.15,0,.15,0,.14,0,.15,0,.15,0,.14,0,.15,0,.15,0,.14,0,.15,0,.14,0,.14,0,.15,0,.14,0,.14-.05.14,0,.14,0,.14-.05.14,0,.14-.06.14-.06.14-.06.13-.06L63,862l.13-.06.14-.07.13-.07.13-.07.13-.07.13-.08.13-.07.13-.08.12-.08.13-.08.12-.08.13-.09.12-.09.12-.08.12-.09.12-.1.11-.09.12-.09.11-.1.12-.1.11-.09.11-.11.11-.1.11-.1.11-.11.1-.1.1-.11.11-.11.1-.11.1-.11.1-.12.09-.11.1-.12.09-.11.09-.12.09-.12.09-.12.09-.12.08-.13.08-.12.09-.12.08-.13.07-.13.08-.13.08-.13.07-.13.07-.13.07-.13.07-.13.06-.14.07-.13.06-.14.06-.14.06-.13.06-.14,0-.14.06-.14,0-.14,0-.14,0-.15,0-.14,0-.14,0-.14,0-.15,0-.14,0-.15,0-.14,0-.15,0-.15,0-.14,0-.15,0-.15,0-.15,0-.15,0-.14,0-.15v-.3l0-.15V852Z" transform="translate(-17.72 -578.43)"/>
      <path id="path52" class="cls-4" d="M132.08,941.76v-.9l0-.15v-.15l0-.14,0-.15,0-.15,0-.15,0-.15,0-.14,0-.15,0-.15,0-.14,0-.15,0-.14,0-.15,0-.14,0-.14,0-.15,0-.14,0-.14-.05-.14,0-.14-.06-.14-.05-.14-.06-.14-.06-.14-.06-.13L131,937l-.06-.13-.07-.14-.07-.13-.07-.13-.07-.13-.07-.13-.08-.13-.07-.13-.08-.13-.08-.12-.09-.13-.08-.12-.09-.12-.09-.12-.08-.12-.09-.12-.1-.12-.09-.12-.1-.11-.09-.12-.1-.11-.1-.11-.1-.11L129,934l-.1-.1-.11-.11-.1-.1-.11-.11-.11-.1-.11-.1-.12-.1-.11-.09-.12-.1-.11-.09-.12-.1-.12-.09-.12-.08-.12-.09-.12-.09-.13-.08-.12-.08-.13-.08-.13-.08-.12-.08-.13-.08-.13-.07-.13-.07-.14-.07-.13-.07-.13-.07-.14-.06-.13-.07-.14-.06-.14-.06-.13,0-.14-.06-.14,0-.14-.06-.14,0-.15,0-.14-.05-.14,0-.14-.05-.15,0-.14,0-.15,0-.14,0-.15,0-.15,0-.14,0-.15,0-.15,0-.15,0-.14,0-.15,0-.15,0H122l-.15,0h-1.94l-.15,0h-.15l-.15,0-.14,0-.15,0-.15,0-.15,0-.14,0-.15,0-.15,0-.14,0-.15,0-.14,0-.14,0-.15,0-.14,0-.14.05-.14,0-.14,0-.14.05-.14,0-.14.06-.14.06-.14.06-.13.06-.14.06-.13.07-.14.07-.13.07-.13.07-.13.07-.13.07-.13.08-.13.08-.13.08-.12.08-.13.08-.12.08-.12.09-.12.09-.12.09-.12.09-.12.09-.12.09-.11.1-.12.1-.11.1-.11.1-.11.1-.11.1-.1.11-.11.1-.1.11-.11.11-.1.11-.1.11-.1.11-.09.12-.1.11-.09.12-.09.12-.09.12-.09.12-.09.12-.08.12-.09.13-.08.12-.08.13-.08.12-.08.13-.07.13-.08.13-.07.13-.07.13-.07.14-.06.13-.07.14-.06.13-.06.14-.06.14-.06.13,0,.14-.06.14,0,.14,0,.14-.05.15,0,.14,0,.14,0,.15,0,.14,0,.14,0,.15,0,.14,0,.15,0,.15,0,.14,0,.15,0,.15,0,.15,0,.14,0,.15,0,.15v.15l0,.15v1.79l0,.15V943l0,.15,0,.15,0,.15,0,.14,0,.15,0,.15,0,.14,0,.15,0,.15,0,.14,0,.15,0,.14,0,.14,0,.15,0,.14,0,.14,0,.14.05.14,0,.14.06.14,0,.14.06.14.06.14.06.13.07.14.06.13.07.14.07.13.07.13.07.13.08.13.07.13.08.13.08.13.08.12.08.13.09.12.09.12.08.12.09.12.09.12.1.12.09.11.1.12.09.11.1.11.1.12.1.11.11.1.1.11.11.11.11.1.11.1.11.1.11.1.11.1.12.1.11.09.12.1.12.09.12.09.12.09.12.08.12.09.12.08.13.08.13.08.12.08.13.08.13.07.13.08.13.07.13.07.14.07.13.06.14.07.13.06.14.06.14.06.13.06.14,0,.14.06.14,0,.14,0,.15,0,.14,0,.14,0,.15.05.14,0,.14,0,.15,0,.14,0,.15,0,.15,0,.14,0,.15,0,.15,0,.15,0,.15,0,.14,0h.15l.15,0h2.09l.15,0h.15l.15,0,.15,0,.14,0,.15,0,.15,0,.14,0,.15,0,.15,0,.14,0,.15,0,.14,0,.14,0,.15-.05.14,0,.14-.05.14,0,.14,0,.14-.05.14-.06.14-.05.14-.06.14-.06.13-.06.14-.07.13-.06.14-.07.13-.07.13-.07.13-.07.13-.08.13-.08.13-.07.12-.08.13-.08.12-.09.13-.08.12-.09.12-.09.12-.09.12-.09.11-.09.12-.1.12-.09.11-.1.11-.1.11-.1.11-.1.11-.1.11-.11.1-.11.11-.1.1-.11.1-.11.1-.12.1-.11.09-.11.1-.12.09-.12.09-.11.09-.12.09-.12.09-.13.08-.12.09-.12.08-.13.08-.12.08-.13.07-.13.08-.13.07-.13.07-.13.07-.13.07-.14.06-.13.07-.14.06-.13.06-.14.06-.14.06-.14.05-.14.06-.14.05-.14.05-.14,0-.14.05-.14,0-.14,0-.15,0-.14,0-.15,0-.14,0-.15,0-.14,0-.15,0-.15,0-.14,0-.15,0-.15,0-.15,0-.15,0-.15v-1.12Z" transform="translate(-17.72 -578.43)"/>
      <path id="path54" class="cls-4" d="M69.26,941.76v-1l0-.15,0-.14v-.15l0-.15,0-.15,0-.15,0-.14,0-.15,0-.15,0-.14,0-.15,0-.14,0-.15,0-.14,0-.14,0-.15,0-.14-.05-.14,0-.14,0-.14,0-.14-.06-.14-.06-.14-.06-.14-.06-.13-.06-.14-.07-.13-.06-.14-.07-.13-.07-.13-.08-.13-.07-.13-.07-.13-.08-.13-.08-.13-.08-.12-.08-.13-.09-.12-.08-.12-.09-.12-.09-.12-.09-.12-.09-.12-.1-.12-.09-.11-.1-.12-.1-.11-.1-.11-.1-.11-.1-.11-.11-.1-.1-.11-.11-.1-.11-.11-.11-.1-.11-.1-.11-.1-.12-.09-.11-.1L65,933l-.12-.1-.12-.09-.12-.08-.12-.09-.12-.09-.12-.08-.13-.08-.13-.08-.12-.08-.13-.08-.13-.08-.13-.07-.13-.07-.13-.07-.14-.07-.13-.07-.13-.06-.14-.07-.14-.06-.13-.06-.14,0-.14-.06-.14,0-.14-.06-.14,0-.14,0-.15-.05-.14,0-.14-.05-.15,0-.14,0-.15,0-.14,0-.15,0-.14,0-.15,0-.15,0-.15,0-.14,0-.15,0-.15,0-.15,0h-.15l-.15,0H57.06l-.15,0h-.15l-.14,0-.15,0-.15,0-.15,0-.14,0-.15,0-.15,0-.14,0-.15,0-.14,0-.15,0-.14,0-.15,0-.14,0-.14.05-.14,0-.14,0-.14.05-.14,0-.14.06-.14.06-.14.06-.13.06-.14.06-.13.07-.14.07-.13.07-.13.07-.13.07-.13.07-.13.08-.13.08-.12.08-.13.08-.12.08-.13.08-.12.09-.12.09-.12.09-.12.09-.12.09-.11.09-.12.1-.11.1-.12.1-.11.1-.11.1-.11.1-.1.11-.11.1-.1.11-.1.11-.11.11-.1.11-.09.11-.1.12-.1.11-.09.12-.09.12-.09.12-.09.12-.09.12-.08.12-.09.13-.08.12-.08.13-.08.12-.07.13-.08.13-.07.13-.08.13-.07.13-.06.14-.07.13-.06.14-.07.13-.06.14-.06.14,0,.13-.06.14,0,.14-.06.14,0,.14,0,.15-.05.14,0,.14,0,.15,0,.14,0,.14,0,.15,0,.14,0,.15,0,.15,0,.14,0,.15,0,.15,0,.15,0,.14,0,.15,0,.15v.15l0,.15v1.79l0,.15V943l0,.15,0,.15,0,.15,0,.14,0,.15,0,.15,0,.14,0,.15,0,.15,0,.14,0,.15,0,.14,0,.14.05.15,0,.14,0,.14.05.14,0,.14,0,.14.06.14.05.14.06.14.06.14.06.13.07.14.06.13.07.14.07.13.07.13.07.13.08.13.07.13.08.13.08.13.08.12.08.13.09.12.08.12.09.12.09.12.09.12.1.12.09.11.1.12.09.11.1.11.1.12.1.11.11.1.1.11.11.11.11.1.1.1.12.1.11.1.11.1.11.1.12.09.12.1.11.09.12.09.12.09.13.08.12.09L52,951l.13.08.12.08.13.08.13.08.13.07.13.08.13.07.13.07.14.07.13.06.14.07.13.06.14.06.14.06.13.06.14,0,.14.06.14,0,.14,0,.15,0,.14,0,.14,0,.14.05.15,0,.14,0,.15,0,.14,0,.15,0,.15,0,.14,0,.15,0,.15,0,.15,0,.14,0,.15,0H57l.15,0h2.09l.15,0h.15l.15,0,.15,0,.14,0,.15,0,.15,0,.14,0,.15,0,.15,0,.14,0,.15,0,.14,0,.14,0,.15-.05.14,0,.14-.05.14,0,.14,0,.14-.05.14-.06.14-.05.14-.06.14-.06.13-.06.14-.07.13-.06.14-.07.13-.07.13-.07.13-.07.13-.08.13-.08.13-.07.12-.08.13-.08.12-.09.13-.08.12-.09.12-.09.12-.09.12-.09.11-.09.12-.1.11-.09.12-.1.11-.1.11-.1.11-.1.11-.1.11-.11.1-.11.1-.1.11-.11.1-.11.1-.12.1-.11.09-.11.1-.12.09-.12.09-.11.09-.12.09-.12.09-.13.08-.12.08-.12.09-.13.08-.12.07-.13.08-.13.08-.13.07-.13.07-.13.07-.13.07-.14.06-.13.07-.14.06-.13.06-.14.06-.14.06-.14,0-.14.06-.14,0-.14,0-.14,0-.14,0-.14,0-.14,0-.15,0-.14,0-.15,0-.14,0-.15,0-.14,0-.15,0-.15,0-.14,0-.15,0-.15,0-.15,0-.15,0-.15v-.29l0-.15v-.68Z" transform="translate(-17.72 -578.43)"/>
      <path id="path56" class="cls-4" d="M95.19,968.69v-.6l0-.15,0-.15,0-.15,0-.14,0-.15,0-.14,0-.15,0-.14,0-.14,0-.14-.06-.14-.06-.14-.06-.13-.07-.14-.07-.13-.07-.13-.08-.13-.08-.12-.08-.13-.09-.12-.09-.12-.09-.11-.1-.12-.1-.11-.1-.11-.11-.11-.11-.1-.11-.1-.11-.1-.12-.09-.11-.09-.12-.09-.13-.09-.12-.08-.13-.08-.13-.07-.13-.07-.13-.07-.14-.07-.14-.06-.13-.06-.14,0-.14,0-.15-.05-.14,0-.14,0-.15,0-.15,0-.14,0-.15,0h-.15l-.15,0h-.89l-.15,0h-.15l-.15,0-.15,0-.15,0-.14,0-.15,0-.14,0-.14,0-.15.05-.14,0-.14.05-.13.06-.14.06-.14.07-.13.07-.13.07-.13.07-.12.08-.13.09-.12.08-.12.09-.12.09-.11.1-.12.1-.11.1-.1.1-.11.11-.1.11-.1.11-.1.12-.09.11-.09.12-.08.13-.09.12-.08.13-.07.13-.07.13-.07.13-.07.13-.06.14-.06.14-.06.14,0,.14,0,.14,0,.14,0,.15,0,.14,0,.15,0,.14,0,.15,0,.15,0,.15v1.19l0,.15,0,.15,0,.15,0,.14,0,.15,0,.14,0,.15.05.14,0,.14,0,.14.06.14.06.13.06.14.07.13.07.13.08.13.08.13.08.13.08.12.09.12.09.12.1.12.09.11.1.11.11.11.1.11.11.1.11.1.12.09.11.1.12.09.12.09.13.08.12.08.13.08.13.07.13.07.14.07.13.06.14.06.14.06.14,0,.14,0,.14.05.14,0,.15,0,.15,0,.14,0,.15,0,.15,0h.15l.14,0h1.05l.15,0,.15,0,.14,0,.15,0,.15,0,.14,0,.15,0,.14,0,.14,0,.14,0,.14-.06.14-.06.13-.06.14-.06.13-.07.13-.08.13-.07.12-.08.13-.09.12-.09.12-.09.11-.09.12-.09.11-.1.11-.11.11-.1.1-.11.1-.11.1-.11.1-.12.09-.12.09-.12.08-.12.08-.12.08-.13.08-.13.07-.13.07-.13.06-.14.06-.14.06-.13.06-.14,0-.14,0-.15,0-.14,0-.14,0-.15,0-.15,0-.14,0-.15,0-.15v-.67Z" transform="translate(-17.72 -578.43)"/>
      <path id="path58" class="cls-4" d="M95.19,645.56V645l0-.15,0-.15,0-.15,0-.14,0-.15,0-.14,0-.15,0-.14,0-.14,0-.14-.06-.14-.06-.14-.06-.13-.07-.14-.07-.13-.07-.13-.08-.13-.08-.12-.08-.13-.09-.12-.09-.12-.09-.12-.1-.11-.1-.11-.1-.11-.11-.11-.11-.1-.11-.1-.11-.1-.12-.09-.11-.09-.12-.09-.13-.09-.12-.08-.13-.08-.13-.07-.13-.08-.13-.06-.14-.07-.14-.06-.13-.06-.14,0-.14,0-.15-.05-.14,0-.14,0-.15,0-.15,0-.14,0-.15,0-.15,0H89l-.15,0-.15,0-.15,0-.15,0-.14,0-.15,0-.14,0-.14,0-.15,0-.14,0-.14.06-.13.06-.14.06-.14.06-.13.07-.13.08-.13.07-.12.08-.13.08-.12.09-.12.09-.12.09-.11.1-.12.09-.11.11-.1.1-.11.11-.1.11-.1.11-.1.11-.09.12-.09.12-.08.12-.09.13-.08.12-.07.13-.07.13-.07.14-.07.13-.06.14-.06.13-.06.14,0,.14,0,.15,0,.14,0,.14,0,.15,0,.14,0,.15,0,.15,0,.15,0,.15v1.19l0,.15,0,.15,0,.14,0,.15,0,.15,0,.14,0,.14.05.15,0,.14,0,.14.06.13.06.14.06.14.07.13.07.13.08.13.08.13.08.12.08.13L85,649l.09.12.1.11.09.12.1.11.11.11.1.1.11.1.11.1.12.1.11.1.12.09.12.08.13.09.12.08.13.08.13.07.13.07.14.07.13.06.14.06.14.06.14,0,.14,0,.14.05.14,0,.15,0,.15,0,.14,0,.15,0,.15,0,.15,0,.14,0H90l.15,0h.15l.15,0,.14,0,.15,0,.15,0,.14,0,.15,0,.14,0,.14-.05.14,0,.14-.06.14-.06.13-.06.14-.07.13-.07.13-.07.13-.08.12-.08.13-.08.12-.09L93,650l.11-.09.12-.1.11-.1.11-.1.11-.1.1-.11.1-.11.1-.11.1-.12.09-.12.09-.12.08-.12.08-.13.08-.12.08-.13.07-.13.07-.14.06-.13.06-.14.06-.14.06-.14,0-.14,0-.14,0-.14,0-.15,0-.14,0-.15,0-.15,0-.14,0-.15v-.67Z" transform="translate(-17.72 -578.43)"/>
      <path id="path60" class="cls-4" d="M140.25,1023.56v-.44l0-.15,0-.15,0-.15,0-.15,0-.14,0-.15,0-.14,0-.15,0-.14-.05-.14-.06-.14-.05-.14-.06-.14-.06-.13-.07-.14-.07-.13-.08-.13-.07-.13-.08-.12-.09-.13-.08-.12-.1-.12L139,1020l-.09-.11-.1-.11-.11-.11-.1-.11-.11-.1-.11-.1-.11-.1-.12-.09-.12-.1-.12-.08-.12-.09-.13-.08-.12-.08-.13-.07-.14-.08-.13-.06-.13-.07-.14-.06-.14-.06-.14,0-.14,0-.14-.05-.15,0-.14,0-.15,0-.14,0-.15,0-.15,0-.14,0-.15,0h-.9l-.15,0h-.15l-.15,0-.14,0-.15,0-.15,0-.14,0-.15,0-.14,0-.14,0-.14,0-.14.06-.14.06-.14.06-.13.06-.13.07-.13.08-.13.07-.13.08-.12.08-.13.09-.12.09-.11.09-.12.1-.11.09-.11.11-.11.1-.1.11-.11.11-.09.11-.1.11-.09.12-.09.12-.09.12-.08.13-.08.12-.08.13-.07.13-.07.14-.07.13-.06.14-.06.13-.05.14-.05.14,0,.15,0,.14,0,.14,0,.15,0,.14,0,.15,0,.15,0,.15v.15l0,.14v.9l0,.15v.15l0,.15,0,.14,0,.15,0,.15,0,.14,0,.14.05.15,0,.14.05.14.06.14.06.13.06.14.07.13.07.13.07.13.08.13.08.12.09.13.09.12.09.12.09.11.1.12.1.11.1.11.11.1.11.11.11.09.11.1.12.1.12.09.12.08.12.09.13.08.13.08.13.07.13.07.13.07.14.06.14.06.13.06.14.05.15,0,.14,0,.14,0,.15,0,.14,0,.15,0,.15,0,.14,0H134l.15,0h1.05l.14,0,.15,0,.15,0,.15,0,.14,0,.15,0,.14,0,.14,0,.15,0,.14-.05.13-.06.14-.06.14-.06.13-.06.13-.07.13-.08.13-.07.13-.08.12-.09.12-.09.12-.09.12-.09.12-.09.11-.1.11-.11.1-.1.11-.11.1-.11.1-.11.09-.12.09-.12.09-.12.09-.12.08-.12.08-.13.07-.13.08-.13.06-.13.07-.14.06-.14.06-.13,0-.14.05-.14.05-.15,0-.14,0-.14,0-.15,0-.15,0-.14,0-.15,0-.15,0-.15v-.52Z" transform="translate(-17.72 -578.43)"/>
      <path id="path62" class="cls-4" d="M50.49,1023.56V1023l0-.15,0-.15,0-.15,0-.14,0-.15,0-.14,0-.15,0-.14-.05-.14,0-.14-.06-.14-.06-.14-.06-.13-.07-.14-.07-.13-.07-.13-.08-.13-.08-.12-.08-.13-.09-.12-.09-.12-.09-.12-.1-.11-.1-.11-.1-.11-.11-.11-.11-.1-.11-.1-.11-.1-.12-.09-.11-.1-.13-.08-.12-.09-.12-.08-.13-.08-.13-.07-.13-.08-.13-.06-.14-.07-.14-.06-.13-.06-.14,0-.15,0-.14-.05-.14,0-.15,0-.14,0-.15,0-.14,0-.15,0-.15,0-.15,0h-.9l-.14,0h-.15l-.15,0-.15,0-.15,0-.14,0-.15,0-.14,0-.15,0-.14,0-.14,0-.14.06-.13.06-.14.06-.14.06-.13.07-.13.08-.13.07-.12.08-.13.08-.12.09-.12.09-.12.09-.11.1-.12.09-.11.11-.11.1-.1.11-.1.11-.1.11-.1.11-.09.12-.09.12-.08.12-.09.13-.08.12-.07.13-.08.13-.07.14-.06.13-.06.14-.06.13-.06.14,0,.14,0,.15,0,.14,0,.14,0,.15,0,.14,0,.15,0,.15,0,.15,0,.15v1l0,.15v.15l0,.15,0,.14,0,.15,0,.15,0,.14,0,.14,0,.15.05.14,0,.14.06.14.06.13.06.14.07.13.07.13.08.13.07.13.08.12.09.13.09.12.09.12.09.11.1.12.1.11.1.11.11.1.11.11.11.09.11.1.12.1.12.09.12.08.12.09.13.08.13.08.13.07.13.07.13.07.14.06.14.06.13.06.14.05.15,0,.14,0,.14,0,.15,0,.14,0,.15,0,.15,0,.14,0h.15l.15,0h1.05l.15,0,.14,0,.15,0,.15,0,.14,0,.15,0,.14,0,.15,0,.14,0,.14-.05.14-.06.13-.06.14-.06.13-.06.14-.07.13-.08.12-.07.13-.08.12-.09.13-.09.12-.09.11-.09.12-.09.11-.1.11-.11.11-.1.1-.11.1-.11.1-.11.09-.12.1-.12.08-.12.09-.12.08-.12.08-.13.08-.13.07-.13.07-.13L50,1026l.06-.14.06-.13.05-.14,0-.14,0-.15,0-.14,0-.14,0-.15,0-.15,0-.14,0-.15,0-.15,0-.15v-.52Z" transform="translate(-17.72 -578.43)"/>
      <path id="path64" class="cls-4" d="M140.25,590.69v-.45l0-.15,0-.15,0-.15,0-.14,0-.15,0-.15,0-.14,0-.15,0-.14-.05-.14-.06-.14-.05-.14-.06-.14-.06-.13-.07-.14-.07-.13-.08-.13-.07-.13-.08-.12-.09-.13-.08-.12-.1-.12-.09-.11-.09-.12-.1-.11-.11-.11-.1-.11-.11-.1-.11-.1-.11-.1-.12-.09-.12-.09-.12-.09-.12-.09-.13-.08-.12-.08-.13-.07-.14-.07-.13-.07-.13-.07-.14-.06-.14-.06-.14,0-.14,0-.14-.05-.15,0-.14,0-.15,0-.14,0-.15,0-.15,0h-.14l-.15,0h-.9l-.15,0h-.15l-.15,0-.14,0-.15,0-.15,0-.14,0-.15,0-.14,0-.14,0-.14.06-.14.05-.14.06-.14.06-.13.07-.13.07-.13.07-.13.07-.13.08-.12.09-.13.08-.12.09-.11.09-.12.1-.11.1-.11.1-.11.1-.1.11-.11.11-.09.11-.1.12-.09.11-.09.12-.09.12-.08.13-.08.13-.08.12-.07.14-.07.13-.07.13-.06.14-.06.14-.05.13-.05.15,0,.14,0,.14,0,.14,0,.15,0,.15,0,.14,0,.15,0,.15v.15l0,.15v.89l0,.15v.15l0,.15,0,.14,0,.15,0,.15,0,.14,0,.14.05.15,0,.14.05.14.06.14.06.13.06.14.07.13.07.13.07.13.08.13.08.13.09.12.09.12.09.12.09.11.1.12.1.11.1.11.11.1.11.11.11.1.11.09.12.1.12.09.12.08.12.09.13.08.13.08.13.07.13.07.13.07.14.06.14.06.13.06.14,0,.15,0,.14.05.14,0,.15,0,.14,0,.15,0,.15,0,.14,0,.15,0,.15,0h1.05l.14,0,.15,0,.15,0,.15,0,.14,0,.15,0,.14,0,.14,0,.15,0,.14,0,.13-.06.14-.06.14-.06.13-.06.13-.07.13-.08.13-.07.13-.08.12-.09.12-.09.12-.09.12-.09.12-.09.11-.1.11-.11.1-.1.11-.11.1-.11.1-.11.09-.12.09-.12.09-.12.09-.12.08-.12.08-.13.07-.13.08-.13.06-.14.07-.13.06-.14.06-.13,0-.14.05-.15.05-.14,0-.14,0-.15,0-.14,0-.15,0-.14,0-.15,0-.15,0-.15v-.52Z" transform="translate(-17.72 -578.43)"/>
      <path id="path66" class="cls-4" d="M50.49,590.69v-.6l0-.15,0-.15,0-.14,0-.15,0-.15,0-.14,0-.15,0-.14-.05-.14,0-.14-.06-.14-.06-.14-.06-.13-.07-.14-.07-.13-.07-.13-.08-.13-.08-.12-.08-.13-.09-.12-.09-.12-.09-.11-.1-.12-.1-.11-.1-.11-.11-.11-.11-.1-.11-.1-.11-.1-.12-.09-.11-.09-.13-.09L48,586l-.12-.08-.13-.08-.13-.07-.13-.07-.13-.07-.14-.07-.14-.06-.13-.06-.14,0-.15,0-.14-.05-.14,0-.15,0-.14,0-.15,0-.14,0-.15,0h-.15l-.15,0h-.9l-.14,0h-.15l-.15,0-.15,0-.15,0-.14,0-.15,0-.14,0-.15,0-.14,0-.14.06-.14.05-.13.06-.14.06-.14.07-.13.07-.13.07-.13.07-.12.08-.13.09-.12.08-.12.09-.12.09-.11.1-.12.1-.11.1-.11.1-.1.11-.1.11-.1.11-.1.12-.09.11-.09.12-.08.12-.09.13-.08.13-.07.12-.08.14-.07.13-.06.13-.06.14-.06.14-.06.13,0,.15,0,.14,0,.14,0,.14,0,.15,0,.15,0,.14,0,.15,0,.15,0,.15v1l0,.15v.15l0,.15,0,.14,0,.15,0,.15,0,.14,0,.14,0,.15.05.14,0,.14.06.14.06.13.06.14.07.13.07.13.08.13.07.13.08.13.09.12.09.12.09.12.09.11.1.12.1.11.1.11.11.1.11.11.11.1.11.09.12.1.12.09.12.08.12.09.13.08.13.08.13.07.13.07.13.07.14.06.14.06.13.06.14,0,.15,0,.14.05.14,0,.15,0,.14,0,.15,0,.15,0,.14,0,.15,0,.15,0h1.05l.15,0,.14,0,.15,0,.15,0,.14,0,.15,0,.14,0,.15,0,.14,0,.14,0,.14-.06.13-.06.14-.06.13-.06.14-.07.13-.08.12-.07.13-.08.12-.09.13-.09.12-.09.11-.09.12-.09.11-.1.11-.11.11-.1.1-.11.1-.11.1-.11.09-.12.1-.12.08-.12.09-.12.08-.12.08-.13.08-.13.07-.13.07-.14.06-.13.06-.14.06-.13.05-.14,0-.15,0-.14,0-.14,0-.15,0-.14,0-.15,0-.14,0-.15,0-.15,0-.15v-.52Z" transform="translate(-17.72 -578.43)"/>
      <rect id="rect8691" class="cls-5" x="0.01" y="1.06" width="142.77" height="455.29"/>
    </g>
  </g>
  <g id="TitleText">
    <g id="Layer_2_copy" data-name="Layer 2 copy">
      <text class="cls-6" transform="translate(45.77 22.65)">MSK 010</text>
      <text class="cls-7" transform="translate(22.32 38.48) scale(1.19 1.51)">FIXED SIGN BANK</text>
    </g>
    <text class="cls-8" transform="translate(45.77 22.65)">MSK 010</text>
    <text class="cls-9" transform="translate(22.32 38.48) scale(1.19 1.51)">FIXED SIGN BANK</text>
  </g>
  <g id="SpeedText">
    <g id="Layer_4_copy" data-name="Layer 4 copy">
      <g id="text8699-1-4-2-2" class="cls-10">
        <text class="cls-11" transform="translate(94.23 392.19)">1<tspan class="cls-12" x="6.26" y="0">6s</tspan></text>
      </g>
      <g id="text8699" class="cls-10">
        <text class="cls-13" transform="translate(27.12 122.19)">63ms</text>
      </g>
      <g id="text8699-1" class="cls-10">
        <text class="cls-13" transform="translate(23.19 212.19)">7<tspan class="cls-14" x="6.43" y="0">5</tspan><tspan class="cls-12" x="12.73" y="0">0ms</tspan></text>
      </g>
      <g id="text8699-1-4" class="cls-10">
        <text class="cls-13" transform="translate(24.96 302.19)">210ms</text>
      </g>
      <g id="text8699-1-4-2" class="cls-10">
        <text class="cls-13" transform="translate(31.39 392.19)">1.4s</text>
      </g>
      <g id="text8699-4" class="cls-10">
        <text class="cls-13" transform="translate(94.23 122.19)">63s</text>
      </g>
      <g id="text8699-1-3" class="cls-10">
        <text class="cls-13" transform="translate(94.23 212.19)"><tspan class="cls-15">5.</tspan><tspan x="8.42" y="0">3s</tspan></text>
      </g>
      <g id="text8699-1-4-5">
        <text class="cls-13" transform="translate(89.1 302.19)">2.4ms</text>
      </g>
    </g>
    <g id="text8699-1-4-2-2-2" data-name="text8699-1-4-2-2" class="cls-10">
      <text class="cls-16" transform="translate(94.23 392.19)">1<tspan class="cls-12" x="6.26" y="0">6s</tspan></text>
    </g>
    <g id="text8699-2" data-name="text8699" class="cls-10">
      <text class="cls-17" transform="translate(27.12 122.19)">63ms</text>
    </g>
    <g id="text8699-1-2" data-name="text8699-1" class="cls-10">
      <text class="cls-17" transform="translate(23.19 212.19)">7<tspan class="cls-14" x="6.43" y="0">5</tspan><tspan class="cls-12" x="12.73" y="0">0ms</tspan></text>
    </g>
    <g id="text8699-1-4-2-2" data-name="text8699-1-4" class="cls-10">
      <text class="cls-17" transform="translate(24.96 302.19)">210ms</text>
    </g>
    <g id="text8699-1-4-2-3" data-name="text8699-1-4-2" class="cls-10">
      <text class="cls-17" transform="translate(31.39 392.19)">1.4s</text>
    </g>
    <g id="text8699-4-2" data-name="text8699-4" class="cls-10">
      <text class="cls-17" transform="translate(94.23 122.19)">63s</text>
    </g>
    <g id="text8699-1-3-2" data-name="text8699-1-3" class="cls-10">
      <text class="cls-17" transform="translate(94.23 212.19)"><tspan class="cls-15">5.</tspan><tspan x="8.42" y="0">3s</tspan></text>
    </g>
    <g id="text8699-1-4-5-2" data-name="text8699-1-4-5">
      <text class="cls-17" transform="translate(89.1 302.19)">2.4ms</text>
    </g>
  </g>
</svg>
