<?xml version="1.0" encoding="utf-8"?>
<!-- Generator: Adobe Illustrator 22.0.1, SVG Export Plug-In . SVG Version: 6.00 Build 0)  -->
<svg version="1.0"
	 id="svg2" inkscape:version="0.91 r13725" sodipodi:docname="passive mult.svg" xmlns:cc="http://creativecommons.org/ns#" xmlns:dc="http://purl.org/dc/elements/1.1/" xmlns:inkscape="http://www.inkscape.org/namespaces/inkscape" xmlns:rdf="http://www.w3.org/1999/02/22-rdf-syntax-ns#" xmlns:sodipodi="http://sodipodi.sourceforge.net/DTD/sodipodi-0.dtd" xmlns:svg="http://www.w3.org/2000/svg"
	 xmlns="http://www.w3.org/2000/svg" xmlns:xlink="http://www.w3.org/1999/xlink" x="0px" y="0px" viewBox="0 0 66 456"
	 style="enable-background:new 0 0 66 456;" xml:space="preserve">
<style type="text/css">
	.st0{fill:none;}
	.st1{fill:#FF0000;}
	.st2{fill:none;stroke:#0000FF;stroke-width:8.066480e-02;}
	.st3{fill:none;stroke:#0000FF;stroke-width:9.000000e-02;}
	.st4{opacity:0.98;fill:none;stroke:#0000FF;stroke-width:7.200000e-02;stroke-miterlimit:4.2449;enable-background:new    ;}
	.st5{display:none;fill:url(#SVGID_1_);}
</style>
<pattern  x="-1.7" y="0.3" width="113.4" height="116.3" patternUnits="userSpaceOnUse" id="New_Pattern" viewBox="4.5 -122.3 113.4 116.3" style="overflow:visible;">
	<g>
		<rect x="4.5" y="-122.3" class="st0" width="113.4" height="116.3"/>
		<g>
			<path class="st1" d="M28.6-5.9c-0.6-1.6-1.8-3.5-3.7-3.4c-0.9,0-1.7,0.4-2.3,1.1c-0.5,0.5-0.7,1.6-1.3,1.9
				c-1.7,1-0.1,2.7,1.4,1.9c1-0.6,1.4-1.3,1.9-2.3c0,0,0.1-0.1,0.1-0.1c0,0,0,0,0.1,0c0.4,0.6,0.8,1,1,1.7
				C26.3-3.7,29.1-4.5,28.6-5.9z"/>
			<path class="st1" d="M37.5-6.1c-0.7-1.2-3.4,0-2.6,1.4c0.1,0.2-0.5,1.3-0.6,1.4C34-2.6,33.7-2,33.5-1.4c-0.3,0.7,0.3,1.2,0.9,1.3
				c0.7,0.1,1.5-0.3,1.8-0.9c0.4-0.9,0.8-1.8,1.2-2.8C37.8-4.6,38-5.3,37.5-6.1z"/>
			<path class="st1" d="M35.3-12.3c0,1.4-2.9,1.8-2.9,0.2c0-0.4,0-0.7-0.2-1.1c0-0.1-0.1-0.1-0.1-0.2c-0.5,0-1.3,0.7-1.7,0.9
				c-0.5,0.3-1.6,0.3-2-0.3c-0.4-0.6,0.1-1.3,0.6-1.6c1.2-0.8,2.9-1.7,4.4-1.3C35-15,35.3-13.6,35.3-12.3z"/>
			<path class="st1" d="M18.1-17.4c0.5-0.5,0.2-1.3-0.4-1.5c-0.7-0.3-1.5,0-2,0.6c-0.7,0.9-1.8,1.9-2.1,3c-0.4,1.1,0.6,1.7,1.1,2.5
				c0.7,1.2,3.4,0,2.6-1.4c-0.1-0.3-0.3-0.5-0.5-0.7c-0.3-0.3-0.3-0.2-0.1-0.5C16.9-16.1,17.6-16.8,18.1-17.4z"/>
			<path class="st1" d="M30.3-21c-0.2-1.4-1.7-2.2-3.1-2.1c-0.8,0-1.5,0.4-2,0.9c-0.5,0.5-0.8,1.1-1.3,1.5c-0.5,0.4-0.6,1.2-0.1,1.6
				c0.6,0.5,1.5,0.3,2.1-0.2c0.4-0.3,1-0.9,1.3-1.4c0.1,0,0.1,0.1,0.1,0.1c0.1,0.1,0.1,0.3,0.1,0.4c0.1,0.7,1.2,0.8,1.7,0.7
				C29.9-19.7,30.5-20.3,30.3-21z"/>
			<path class="st1" d="M40-18.6c-0.4-0.7-1.1-1.3-1.4-2c-0.3-1,0.5-2,1-2.7c1.1-1.5-1.6-2.1-2.5-1c-0.8,1.1-1.7,2.4-1.6,3.8
				c0.1,1.4,1.2,2.1,1.8,3.3C38.1-16,40.8-17.2,40-18.6z"/>
			<path class="st1" d="M44.4-8.6c-0.1-0.3-0.3-0.6-0.6-0.9c-0.1-0.1-0.3-0.3-0.4-0.4c-0.2-0.1-0.3-0.3-0.2,0
				c-0.5-1.4-3.3-0.6-2.9,0.8c0.1,0.3,0.3,0.6,0.6,0.8c0.2,0.1,0.4,0.2,0.6,0.4c0.4,0.5,0.2,1.3,0.1,1.9c-0.1,0.7,0.8,1.1,1.4,1
				c0.7-0.1,1.4-0.5,1.5-1.3C44.7-7,44.8-7.9,44.4-8.6z"/>
			<path class="st1" d="M10-9c-0.5-1.4-3.4-0.6-2.9,0.8c0.5,1.3,0.5,2.7-0.3,3.9c-1,1.6,1.7,2.2,2.5,1C10.4-5.1,10.7-7.1,10-9z"/>
			<path class="st1" d="M26.2-28.5c-0.3-1.1-1.5-1.4-2.4-1.1c-0.9,0.3-1.5,1.1-2.1,1.9c-0.1,0-0.1,0.1-0.2,0.1
				c-1.2,0.6-1.5,2.1-1.3,3.4c0.3,1.5,3.2,0.7,2.9-0.8c0-0.1,0-0.3,0-0.4c0.2,0,0.3,0,0.5,0c0.6,0,1.1-0.2,1.6-0.5
				C25.9-26.5,26.5-27.5,26.2-28.5z"/>
			<path class="st1" d="M55.3-6.9c-1.1-0.9-3.5,0.7-2.1,1.8c0.7,0.6,1,1.5,0.9,2.4c-0.1,1.6,2.8,1.2,2.9-0.2
				C57.1-4.5,56.4-5.9,55.3-6.9z"/>
			<path class="st1" d="M49.1-22.8c-0.5,1-1.3,1.7-2.4,2c-0.6,0.2-1.5,0-1.7-0.7c-0.1-0.3,0-0.7,0.2-0.9c0.2-0.3,0.5-0.5,0.9-0.6
				c0,0,0,0,0.1,0c0,0,0,0,0.1,0c0,0,0,0,0.1-0.1c0,0,0,0,0,0c0,0,0.1-0.1,0.1-0.1c0,0,0,0,0,0c0.4-0.6,1.1-1,1.8-0.9
				c0.3,0,0.7,0.2,0.8,0.5C49.1-23.4,49.2-23.1,49.1-22.8z"/>
			<path class="st1" d="M60.1-12.4c-0.2-0.9-0.4-1.7-0.6-2.6c-0.1-0.3-0.6-1.8-0.4-2.1c0.5-0.5,0.2-1.3-0.4-1.5
				c-0.7-0.3-1.6,0-2,0.6c-0.6,0.8-0.5,1.6-0.3,2.5c0.3,1.3,0.6,2.6,0.9,3.9C57.6-10.2,60.4-11,60.1-12.4z"/>
			<path class="st1" d="M48.8-29.9c-0.8-1.8-2.9-2.7-4.8-2c-0.6,0.2-1.3,0.8-1.1,1.5c0.2,0.7,1.1,0.9,1.7,0.7c0.3-0.1,0.4-0.1,0.7,0
				c0.3,0.1,0.5,0.3,0.6,0.6c0.3,0.7,1.1,0.9,1.7,0.7C48.2-28.6,49.1-29.2,48.8-29.9z"/>
			<g>
				<path class="st1" d="M57.7-25C57.7-25,57.7-25,57.7-25C57.7-25,57.7-25,57.7-25C57.7-25,57.7-25,57.7-25z"/>
				<path class="st1" d="M57.4-25.8C57.4-25.8,57.4-25.8,57.4-25.8C57.4-25.8,57.4-25.8,57.4-25.8C57.4-25.8,57.4-25.8,57.4-25.8z"
					/>
				<path class="st1" d="M57.7-25C57.7-25,57.7-25,57.7-25C57.6-25,57.6-25,57.7-25C57.6-25,57.6-25,57.7-25c0,0-0.1,0-0.1-0.1
					c-0.1-0.1-0.2-0.2-0.2-0.4c0-0.1,0-0.2,0-0.3c0-0.1,0-0.1,0-0.1c0,0,0,0-0.1,0c0,0,0,0,0.1,0c0,0,0,0,0,0c0.6-0.2,1.2-0.8,1-1.5
					c-0.2-0.7-1.1-0.9-1.7-0.7c-1.4,0.4-2.5,1.7-2.3,3.2c0.2,1.4,1.7,2.1,3,2.1c0.7,0,1.5-0.5,1.5-1.3C59-24.7,58.3-25,57.7-25z"/>
			</g>
			<path class="st1" d="M36.3-32.9c-0.6-0.5-1.5-0.2-2.1,0.2c-0.9,0.7-1.9,1.5-2.3,2.6c-0.4,1.3,0.1,2.4,0.8,3.4
				c0.8,1.2,3.5,0,2.6-1.4c-0.4-0.6-0.8-1.2-0.5-1.9c0.2-0.6,0.9-1,1.4-1.3C36.8-31.7,36.9-32.5,36.3-32.9z"/>
			<path class="st1" d="M21.1-31.2c-0.6,2-3,2.2-4.7,2c-0.7-0.1-1.2-0.7-0.9-1.3c0.3-0.7,1.1-1,1.8-0.9c0.2,0,0.4,0.1,0.7,0.1
				c0.1,0,0.2,0,0.3,0c0-0.1,0.1-0.1,0.1-0.2C18.7-32.9,21.6-32.8,21.1-31.2z"/>
			<path class="st1" d="M27.1-37.6c-1.3-0.1-2.5,0.1-3.5,0.8c-0.5,0.4-0.6,1.2-0.1,1.6c0.6,0.5,1.5,0.3,2.1-0.2c0,0,0.4,0,0.5,0
				c0,0,0.1,0,0.2,0c0,1.3,2.4,1.2,2.8,0C29.5-36.6,28.4-37.5,27.1-37.6z"/>
			<path class="st1" d="M10.4-27.1c-0.4-0.6-1.4-0.6-2-0.3c-2.1,1.1-4,4.6-2.3,6.7c0.9,1.1,3.6-0.2,2.6-1.4
				c-0.5-0.6-0.4-1.2-0.1-1.8c0.2-0.5,0.7-1.4,1.2-1.6C10.3-25.8,10.8-26.5,10.4-27.1z"/>
			<g>
				<path class="st1" d="M50.2-13C50.3-13,50.3-13,50.2-13C50.2-13,50.2-13,50.2-13c-0.1-0.1-0.2-0.2-0.2-0.3
					c0.1,0.1-0.1-0.3-0.1-0.3c0,0,0-0.3,0-0.3c0,0.1,0.1-0.1,0-0.1c0,0,0.1-0.2,0.1-0.2c0.5-0.5,0.2-1.3-0.4-1.5
					c-0.7-0.3-1.5,0-2,0.6c-1,1.2-0.8,2.9,0.4,3.9C49.2-10.3,51.6-11.9,50.2-13z"/>
				<path class="st1" d="M15.5-6.5C15.6-6.5,15.6-6.5,15.5-6.5L15.5-6.5z"/>
			</g>
		</g>
		<g>
			<path class="st1" d="M85.3-5.9c-0.6-1.6-1.8-3.5-3.7-3.4c-0.9,0-1.7,0.4-2.3,1.1c-0.5,0.5-0.7,1.6-1.3,1.9
				c-1.7,1-0.1,2.7,1.4,1.9c1-0.6,1.4-1.3,1.9-2.3c0,0,0.1-0.1,0.1-0.1c0,0,0,0,0.1,0c0.4,0.6,0.8,1,1,1.7C83-3.7,85.8-4.5,85.3-5.9
				z"/>
			<path class="st1" d="M94.2-6.1c-0.7-1.2-3.4,0-2.6,1.4c0.1,0.2-0.5,1.3-0.6,1.4c-0.3,0.6-0.6,1.3-0.8,1.9
				c-0.3,0.7,0.3,1.2,0.9,1.3c0.7,0.1,1.5-0.3,1.8-0.9c0.4-0.9,0.8-1.8,1.2-2.8C94.5-4.6,94.7-5.3,94.2-6.1z"/>
			<path class="st1" d="M92-12.3c0,1.4-2.9,1.8-2.9,0.2c0-0.4,0-0.7-0.2-1.1c0-0.1-0.1-0.1-0.1-0.2c-0.5,0-1.3,0.7-1.7,0.9
				c-0.5,0.3-1.6,0.3-2-0.3c-0.4-0.6,0.1-1.3,0.6-1.6c1.2-0.8,2.9-1.7,4.4-1.3C91.7-15,92-13.6,92-12.3z"/>
			<path class="st1" d="M74.8-17.4c0.5-0.5,0.2-1.3-0.4-1.5c-0.7-0.3-1.5,0-2,0.6c-0.7,0.9-1.8,1.9-2.1,3c-0.4,1.1,0.6,1.7,1.1,2.5
				c0.7,1.2,3.4,0,2.6-1.4c-0.1-0.3-0.3-0.5-0.5-0.7c-0.3-0.3-0.3-0.2-0.1-0.5C73.6-16.1,74.3-16.8,74.8-17.4z"/>
			<path class="st1" d="M87-21c-0.2-1.4-1.7-2.2-3.1-2.1c-0.8,0-1.5,0.4-2,0.9c-0.5,0.5-0.8,1.1-1.3,1.5c-0.5,0.4-0.6,1.2-0.1,1.6
				c0.6,0.5,1.5,0.3,2.1-0.2c0.4-0.3,1-0.9,1.3-1.4c0.1,0,0.1,0.1,0.1,0.1c0.1,0.1,0.1,0.3,0.1,0.4c0.1,0.7,1.2,0.8,1.7,0.7
				C86.6-19.7,87.2-20.3,87-21z"/>
			<path class="st1" d="M96.7-18.6c-0.4-0.7-1.1-1.3-1.4-2c-0.3-1,0.5-2,1-2.7c1.1-1.5-1.6-2.1-2.5-1c-0.8,1.1-1.7,2.4-1.6,3.8
				c0.1,1.4,1.2,2.1,1.8,3.3C94.8-16,97.5-17.2,96.7-18.6z"/>
			<path class="st1" d="M101.1-8.6c-0.1-0.3-0.3-0.6-0.6-0.9c-0.1-0.1-0.3-0.3-0.4-0.4c-0.2-0.1-0.3-0.3-0.2,0
				c-0.5-1.4-3.3-0.6-2.9,0.8c0.1,0.3,0.3,0.6,0.6,0.8c0.2,0.1,0.4,0.2,0.6,0.4c0.4,0.5,0.2,1.3,0.1,1.9c-0.1,0.7,0.8,1.1,1.4,1
				c0.7-0.1,1.4-0.5,1.5-1.3C101.3-7,101.5-7.9,101.1-8.6z"/>
			<path class="st1" d="M66.7-9c-0.5-1.4-3.4-0.6-2.9,0.8c0.5,1.3,0.5,2.7-0.3,3.9c-1,1.6,1.7,2.2,2.5,1C67.1-5.1,67.4-7.1,66.7-9z"
				/>
			<path class="st1" d="M82.9-28.5c-0.3-1.1-1.5-1.4-2.4-1.1c-0.9,0.3-1.5,1.1-2.1,1.9c-0.1,0-0.1,0.1-0.2,0.1
				c-1.2,0.6-1.5,2.1-1.3,3.4c0.3,1.5,3.2,0.7,2.9-0.8c0-0.1,0-0.3,0-0.4c0.2,0,0.3,0,0.5,0c0.6,0,1.1-0.2,1.6-0.5
				C82.6-26.5,83.2-27.5,82.9-28.5z"/>
			<path class="st1" d="M112-6.9c-1.1-0.9-3.5,0.7-2.1,1.8c0.7,0.6,1,1.5,0.9,2.4c-0.1,1.6,2.8,1.2,2.9-0.2
				C113.8-4.5,113.1-5.9,112-6.9z"/>
			<path class="st1" d="M105.8-22.8c-0.5,1-1.3,1.7-2.4,2c-0.6,0.2-1.5,0-1.7-0.7c-0.1-0.3,0-0.7,0.2-0.9c0.2-0.3,0.5-0.5,0.9-0.6
				c0,0,0,0,0.1,0c0,0,0,0,0.1,0c0,0,0,0,0.1-0.1c0,0,0,0,0,0c0,0,0.1-0.1,0.1-0.1c0,0,0,0,0,0c0.4-0.6,1.1-1,1.8-0.9
				c0.3,0,0.7,0.2,0.8,0.5C105.8-23.4,105.9-23.1,105.8-22.8z"/>
			<path class="st1" d="M116.8-12.4c-0.2-0.9-0.4-1.7-0.6-2.6c-0.1-0.3-0.6-1.8-0.4-2.1c0.5-0.5,0.2-1.3-0.4-1.5
				c-0.7-0.3-1.6,0-2,0.6c-0.6,0.8-0.5,1.6-0.3,2.5c0.3,1.3,0.6,2.6,0.9,3.9C114.3-10.2,117.1-11,116.8-12.4z"/>
			<path class="st1" d="M105.5-29.9c-0.8-1.8-2.9-2.7-4.8-2c-0.6,0.2-1.3,0.8-1.1,1.5c0.2,0.7,1.1,0.9,1.7,0.7
				c0.3-0.1,0.4-0.1,0.7,0c0.3,0.1,0.5,0.3,0.6,0.6c0.3,0.7,1.1,0.9,1.7,0.7C104.9-28.6,105.8-29.2,105.5-29.9z"/>
			<g>
				<path class="st1" d="M114.4-25C114.4-25,114.4-25,114.4-25C114.3-25,114.3-25,114.4-25C114.4-25,114.4-25,114.4-25z"/>
				<path class="st1" d="M114.1-25.8C114.1-25.8,114.1-25.8,114.1-25.8C114.1-25.8,114.1-25.8,114.1-25.8
					C114.1-25.8,114.1-25.8,114.1-25.8z"/>
				<path class="st1" d="M114.4-25C114.4-25,114.4-25,114.4-25C114.3-25,114.3-25,114.4-25C114.3-25,114.3-25,114.4-25
					c0,0-0.1,0-0.1-0.1c-0.1-0.1-0.2-0.2-0.2-0.4c0-0.1,0-0.2,0-0.3c0-0.1,0-0.1,0-0.1c0,0,0,0-0.1,0c0,0,0,0,0.1,0c0,0,0,0,0,0
					c0.6-0.2,1.2-0.8,1-1.5c-0.2-0.7-1.1-0.9-1.7-0.7c-1.4,0.4-2.5,1.7-2.3,3.2c0.2,1.4,1.7,2.1,3,2.1c0.7,0,1.5-0.5,1.5-1.3
					C115.7-24.7,115-25,114.4-25z"/>
			</g>
			<path class="st1" d="M93-32.9c-0.6-0.5-1.5-0.2-2.1,0.2c-0.9,0.7-1.9,1.5-2.3,2.6c-0.4,1.3,0.1,2.4,0.8,3.4
				c0.8,1.2,3.5,0,2.6-1.4c-0.4-0.6-0.8-1.2-0.5-1.9c0.2-0.6,0.9-1,1.4-1.3C93.5-31.7,93.6-32.5,93-32.9z"/>
			<path class="st1" d="M77.8-31.2c-0.6,2-3,2.2-4.7,2c-0.7-0.1-1.2-0.7-0.9-1.3c0.3-0.7,1.1-1,1.8-0.9c0.2,0,0.4,0.1,0.7,0.1
				c0.1,0,0.2,0,0.3,0c0-0.1,0.1-0.1,0.1-0.2C75.4-32.9,78.2-32.8,77.8-31.2z"/>
			<path class="st1" d="M83.8-37.6c-1.3-0.1-2.5,0.1-3.5,0.8c-0.5,0.4-0.6,1.2-0.1,1.6c0.6,0.5,1.5,0.3,2.1-0.2c0,0,0.4,0,0.5,0
				c0,0,0.1,0,0.2,0c0,1.3,2.4,1.2,2.8,0C86.2-36.6,85.1-37.5,83.8-37.6z"/>
			<path class="st1" d="M67.1-27.1c-0.4-0.6-1.4-0.6-2-0.3c-2.1,1.1-4,4.6-2.3,6.7c0.9,1.1,3.6-0.2,2.6-1.4
				c-0.5-0.6-0.4-1.2-0.1-1.8c0.2-0.5,0.7-1.4,1.2-1.6C67-25.8,67.5-26.5,67.1-27.1z"/>
			<g>
				<path class="st1" d="M106.9-13C106.9-13,106.9-13,106.9-13C106.9-13,106.9-13,106.9-13c-0.1-0.1-0.2-0.2-0.2-0.3
					c0.1,0.1-0.1-0.3-0.1-0.3c0,0,0-0.3,0-0.3c0,0.1,0.1-0.1,0-0.1c0,0,0.1-0.2,0.1-0.2c0.5-0.5,0.2-1.3-0.4-1.5
					c-0.7-0.3-1.5,0-2,0.6c-1,1.2-0.8,2.9,0.4,3.9C105.9-10.3,108.3-11.9,106.9-13z"/>
				<path class="st1" d="M72.2-6.5C72.2-6.5,72.3-6.5,72.2-6.5L72.2-6.5z"/>
			</g>
		</g>
		<g>
			<path class="st1" d="M9.2-64.2c-0.7-1.2-3.4,0-2.6,1.4C6.7-62.6,6-61.6,6-61.4c-0.3,0.6-0.6,1.3-0.8,1.9
				c-0.3,0.7,0.3,1.2,0.9,1.3c0.7,0.1,1.5-0.3,1.8-0.9C8.3-60,8.7-61,9.1-61.9C9.5-62.7,9.6-63.4,9.2-64.2z"/>
			<path class="st1" d="M7-70.4c0,1.4-2.9,1.8-2.9,0.2c0-0.4,0-0.7-0.2-1.1c0-0.1-0.1-0.1-0.1-0.2c-0.5,0-1.3,0.7-1.7,0.9
				c-0.5,0.3-1.6,0.3-2-0.3c-0.4-0.6,0.1-1.3,0.6-1.6c1.2-0.8,2.9-1.7,4.4-1.3C6.6-73.2,6.9-71.8,7-70.4z"/>
			<path class="st1" d="M9.9-52.4c-0.5,0.6-1.3,0.8-2,0.6c-0.1,0-0.4-0.1-0.7-0.1c0,0.3,0,0.8,0,0.8c0,0.4,0,0.7-0.2,1
				c-0.4,0.7-1.1,1.1-1.8,0.9c-0.6-0.1-1.3-0.7-0.9-1.3c0.2-0.4,0-1,0-1.5c0.1-0.6,0.5-1.2,1-1.6c1.3-1,2.8-0.8,4.2-0.4
				C10.2-53.7,10.3-52.9,9.9-52.4z"/>
			<path class="st1" d="M11.7-76.7c-0.4-0.7-1.1-1.3-1.4-2c-0.3-1,0.5-2,1-2.7c1.1-1.5-1.6-2.1-2.5-1c-0.8,1.1-1.7,2.4-1.6,3.8
				c0.1,1.4,1.2,2.1,1.8,3.3C9.7-74.1,12.4-75.3,11.7-76.7z"/>
			<g>
				<path class="st1" d="M18.9-61.3c-0.6-0.4-1.6-0.3-2.1,0.2c0.1-0.1-0.2,0.1-0.3,0.1c-0.1,0-0.5,0.1-0.7,0.1
					c-0.5,0.1-1,0.3-1.4,0.7c-1.1,1-0.7,2.6-0.6,3.9c0.1,0.7,0.7,1.1,1.4,1c0.6,0,1.6-0.5,1.5-1.3c0-0.6-0.1-1.1-0.1-1.7
					c0-0.1,0-0.3,0-0.4c-0.1,0.1-0.7-0.3-0.1-0.1c0,0,0.1,0,0.1,0c0-0.1,0-0.1-0.1-0.2c0,0.1,0.1,0.1,0.1,0.2c0.3,0,0.7-0.2,0.9-0.2
					c0.5-0.1,0.9-0.4,1.3-0.7C19.3-60.1,19.5-60.8,18.9-61.3z"/>
				<path class="st1" d="M16.6-58.7C16.7-58.7,16.7-58.7,16.6-58.7C16.6-58.7,16.6-58.7,16.6-58.7C16.6-58.7,16.6-58.7,16.6-58.7z"
					/>
			</g>
			<path class="st1" d="M16.1-66.8c-0.1-0.3-0.3-0.6-0.6-0.9c-0.1-0.1-0.3-0.3-0.4-0.4c-0.2-0.1-0.3-0.3-0.2,0
				c-0.5-1.4-3.3-0.6-2.9,0.8c0.1,0.3,0.3,0.6,0.6,0.8c0.2,0.1,0.4,0.2,0.6,0.4c0.4,0.5,0.2,1.3,0.1,1.9c-0.1,0.7,0.8,1.1,1.4,1
				c0.7-0.1,1.4-0.5,1.5-1.3C16.3-65.1,16.4-66,16.1-66.8z"/>
			<path class="st1" d="M10.6-46.4c-0.1,0.4-0.1,0.8-0.2,1.3c0,0.1-0.1,0.4-0.1,0.7c-0.4,0-0.7,0-1.1,0.1c-0.6,0.1-1.3,0.8-1.1,1.5
				c0.2,0.7,1.1,0.8,1.7,0.7c-0.2,0.1,0.3,0.1,0.3,0.1c0.3,0,0.6,0,0.9,0c0.7-0.1,1.4-0.4,1.8-1c0.3-0.5,0.4-1,0.5-1.5
				c0.1-0.7,0.2-1.3,0.2-2C13.7-48.2,10.8-47.9,10.6-46.4z"/>
			<path class="st1" d="M17.4-51.6c-1.3-0.6-3.2,1.3-1.6,2.1c-0.1-0.1,0.1,0.1,0.1,0.1c0.1,0.1,0.1,0.1,0.1,0.2c0,0,0,0,0,0
				c0,0,0,0,0,0.1c0.1,0.3,0.1,0.4,0,0.7c-0.3,0.7,0.3,1.2,0.9,1.3c0.7,0.1,1.5-0.3,1.8-0.9C19.6-49.4,18.8-50.9,17.4-51.6z"/>
			<path class="st1" d="M9.8-34.5c-0.3-0.5-0.9-0.8-1.5-1.1c0,0-0.1-0.1-0.2-0.1c-0.1-0.1-0.2-0.2-0.1-0.1c0,0,0,0-0.1-0.1
				c0.3-0.5,0-1.1-0.5-1.4c-0.7-0.3-1.5,0-2,0.6c-0.6,0.8-0.4,1.8,0.2,2.4c0.3,0.3,0.7,0.5,1,0.7c0.1,0,0.1,0.1,0.2,0.1
				c0,0,0,0,0.1,0.1c0.1,0.1,0.1,0.1,0.1,0c0.1,0.1,0.1,0.1,0.1,0.2C8-31.9,10.7-33.1,9.8-34.5z"/>
			<path class="st1" d="M26.9-65c-1.1-0.9-3.5,0.7-2.1,1.8c0.7,0.6,1,1.5,0.9,2.4c-0.1,1.6,2.8,1.2,2.9-0.2
				C28.7-62.6,28.1-64,26.9-65z"/>
			<path class="st1" d="M20.7-80.9c-0.5,1-1.3,1.7-2.4,2c-0.6,0.2-1.5,0-1.7-0.7c-0.1-0.3,0-0.7,0.2-0.9c0.2-0.3,0.5-0.5,0.9-0.6
				c0,0,0,0,0.1,0c0,0,0,0,0.1,0c0,0,0,0,0.1-0.1c0,0,0,0,0,0c0,0,0.1-0.1,0.1-0.1c0,0,0,0,0,0c0.4-0.6,1.1-1,1.8-0.9
				c0.3,0,0.7,0.2,0.8,0.5C20.8-81.6,20.8-81.2,20.7-80.9z"/>
			<path class="st1" d="M27.2-54.1c-0.3-1.5-3.2-0.7-2.9,0.8c0.1,0.4,0,0.8-0.1,1.1c-0.2,0.3-0.3,0.4-0.6,0.5c-0.6,0.3-1,1-0.6,1.6
				c0.5,0.6,1.4,0.5,2,0.3C26.6-50.5,27.6-52.4,27.2-54.1z"/>
			<path class="st1" d="M19.5-39.5c-0.4,1.3-1,2.6-2.2,3.3c-1.1,0.7-2.7,0.8-3.8,0c-1.4-1,1-2.7,2.1-1.8c0,0,0.1,0.1,0.1,0.1
				c0,0,0.1,0,0.1,0c0,0,0.1-0.2,0.2-0.2c0.4-0.5,0.5-1.1,0.7-1.7C17.1-41.2,20-41.1,19.5-39.5z"/>
			<path class="st1" d="M29.3-45.1c-0.3,0.7-1.1,1-1.8,0.9c-0.4-0.1-0.8,0.2-1.2,0.4c-0.1,0.1-0.3,0.2-0.5,0.3
				c0.3,0.4,0.1,1.1-0.3,1.4c-0.6,0.5-1.4,0.6-2.1,0.2C22.2-42.7,23-44.3,24-45c1.3-0.9,2.7-1.6,4.4-1.4
				C29-46.3,29.6-45.8,29.3-45.1z"/>
			<path class="st1" d="M31.8-70.6c-0.2-0.9-0.4-1.7-0.6-2.6c-0.1-0.3-0.6-1.8-0.4-2.1c0.5-0.5,0.2-1.3-0.4-1.5
				c-0.7-0.3-1.6,0-2,0.6c-0.6,0.8-0.5,1.6-0.3,2.5c0.3,1.3,0.6,2.6,0.9,3.9C29.2-68.3,32.1-69.1,31.8-70.6z"/>
			<path class="st1" d="M20.5-88.1c-0.8-1.8-2.9-2.7-4.8-2c-0.6,0.2-1.3,0.8-1.1,1.5c0.2,0.7,1.1,0.9,1.7,0.7c0.3-0.1,0.4-0.1,0.7,0
				c0.3,0.1,0.5,0.3,0.6,0.6c0.3,0.7,1.1,0.9,1.7,0.7C19.9-86.7,20.8-87.4,20.5-88.1z"/>
			<g>
				<path class="st1" d="M29.3-83.2C29.3-83.2,29.3-83.2,29.3-83.2C29.3-83.2,29.3-83.2,29.3-83.2C29.3-83.2,29.3-83.2,29.3-83.2z"
					/>
				<path class="st1" d="M29-84C29-84,29-84,29-84C29-84,29-84,29-84C29-84,29-84,29-84z"/>
				<path class="st1" d="M29.3-83.2C29.3-83.2,29.3-83.2,29.3-83.2C29.3-83.2,29.3-83.2,29.3-83.2C29.3-83.2,29.3-83.2,29.3-83.2
					c0,0-0.1,0-0.1-0.1c-0.1-0.1-0.2-0.2-0.2-0.4c0-0.1,0-0.2,0-0.3c0-0.1,0-0.1,0-0.1c0,0,0,0-0.1,0c0,0,0,0,0.1,0c0,0,0,0,0,0
					c0.6-0.2,1.2-0.8,1-1.5c-0.2-0.7-1.1-0.9-1.7-0.7c-1.4,0.4-2.5,1.7-2.3,3.2c0.2,1.4,1.7,2.1,3,2.1c0.7,0,1.5-0.5,1.5-1.3
					C30.7-82.8,29.9-83.2,29.3-83.2z"/>
			</g>
			<path class="st1" d="M8-91.1c-0.6-0.5-1.5-0.2-2.1,0.2C5-90.2,4-89.4,3.6-88.3c-0.4,1.3,0.1,2.4,0.8,3.4c0.8,1.2,3.5,0,2.6-1.4
				c-0.4-0.6-0.8-1.2-0.5-1.9c0.2-0.6,0.9-1,1.4-1.3C8.4-89.8,8.5-90.6,8-91.1z"/>
			<g>
				<path class="st1" d="M21.9-71.1C21.9-71.1,21.9-71.1,21.9-71.1C21.9-71.1,21.9-71.2,21.9-71.1c-0.1-0.1-0.2-0.2-0.2-0.3
					c0.1,0.1-0.1-0.3-0.1-0.3c0,0,0-0.3,0-0.3c0,0.1,0.1-0.1,0-0.1c0,0,0.1-0.2,0.1-0.2c0.5-0.5,0.2-1.3-0.4-1.5
					c-0.7-0.3-1.5,0-2,0.6c-1,1.2-0.8,2.9,0.4,3.9C20.8-68.4,23.2-70,21.9-71.1z"/>
			</g>
		</g>
		<g>
			<path class="st1" d="M57-64c-0.6-1.6-1.8-3.5-3.7-3.4c-0.9,0-1.7,0.4-2.3,1.1c-0.5,0.5-0.7,1.6-1.3,1.9c-1.7,1-0.1,2.7,1.4,1.9
				c1-0.6,1.4-1.3,1.9-2.3c0,0,0.1-0.1,0.1-0.1c0,0,0,0,0.1,0c0.4,0.6,0.8,1,1,1.7C54.6-61.8,57.5-62.7,57-64z"/>
			<path class="st1" d="M65.9-64.2c-0.7-1.2-3.4,0-2.6,1.4c0.1,0.2-0.5,1.3-0.6,1.4c-0.3,0.6-0.6,1.3-0.8,1.9
				c-0.3,0.7,0.3,1.2,0.9,1.3c0.7,0.1,1.5-0.3,1.8-0.9c0.4-0.9,0.8-1.8,1.2-2.8C66.2-62.7,66.3-63.4,65.9-64.2z"/>
			<path class="st1" d="M63.7-70.4c0,1.4-2.9,1.8-2.9,0.2c0-0.4,0-0.7-0.2-1.1c0-0.1-0.1-0.1-0.1-0.2c-0.5,0-1.3,0.7-1.7,0.9
				c-0.5,0.3-1.6,0.3-2-0.3c-0.4-0.6,0.1-1.3,0.6-1.6c1.2-0.8,2.9-1.7,4.4-1.3C63.3-73.2,63.6-71.8,63.7-70.4z"/>
			<path class="st1" d="M46.5-75.5c0.5-0.5,0.2-1.3-0.4-1.5c-0.7-0.3-1.5,0-2,0.6c-0.7,0.9-1.8,1.9-2.1,3c-0.4,1.1,0.6,1.7,1.1,2.5
				c0.7,1.2,3.4,0,2.6-1.4c-0.1-0.3-0.3-0.5-0.5-0.7c-0.3-0.3-0.3-0.2-0.1-0.5C45.2-74.2,45.9-74.9,46.5-75.5z"/>
			<path class="st1" d="M47.9-58.9c-0.3-1.5-3.1-0.7-2.9,0.8c0.1,0.6,0.1,1.3,0,1.9c-0.7-0.8-2.9,0-2.6,1.3c0.4,1.9,2.9,1.9,4.2,0.9
				C48.1-55.2,48.2-57.2,47.9-58.9z"/>
			<path class="st1" d="M52.4-51.4c-0.8-1.2-3.5,0.1-2.6,1.4c0.6,0.8,0.5,2.9-0.9,2.5c-0.7-0.2-1.6,0-2,0.6
				c-0.4,0.5-0.2,1.3,0.4,1.5c1.7,0.5,3.7,0.1,4.9-1.3C53.3-48,53.4-50,52.4-51.4z"/>
			<path class="st1" d="M66.6-52.4c-0.5,0.6-1.3,0.8-2,0.6c-0.1,0-0.4-0.1-0.7-0.1c0,0.3,0,0.8,0,0.8c0,0.4,0,0.7-0.2,1
				c-0.4,0.7-1.1,1.1-1.8,0.9c-0.6-0.1-1.3-0.7-0.9-1.3c0.2-0.4,0-1,0-1.5c0.1-0.6,0.5-1.2,1-1.6c1.3-1,2.8-0.8,4.2-0.4
				C66.8-53.7,67-52.9,66.6-52.4z"/>
			<path class="st1" d="M58.7-79.1c-0.2-1.4-1.7-2.2-3.1-2.1c-0.8,0-1.5,0.4-2,0.9c-0.5,0.5-0.8,1.1-1.3,1.5
				c-0.5,0.4-0.6,1.2-0.1,1.6c0.6,0.5,1.5,0.3,2.1-0.2c0.4-0.3,1-0.9,1.3-1.4c0.1,0,0.1,0.1,0.1,0.1c0.1,0.1,0.1,0.3,0.1,0.4
				c0.1,0.7,1.2,0.8,1.7,0.7C58.3-77.9,58.8-78.4,58.7-79.1z"/>
			<path class="st1" d="M68.4-76.7c-0.4-0.7-1.1-1.3-1.4-2c-0.3-1,0.5-2,1-2.7c1.1-1.5-1.6-2.1-2.5-1c-0.8,1.1-1.7,2.4-1.6,3.8
				c0.1,1.4,1.2,2.1,1.8,3.3C66.4-74.1,69.1-75.3,68.4-76.7z"/>
			<g>
				<path class="st1" d="M75.6-61.3c-0.6-0.4-1.6-0.3-2.1,0.2c0.1-0.1-0.2,0.1-0.3,0.1c-0.1,0-0.5,0.1-0.7,0.1
					c-0.5,0.1-1,0.3-1.4,0.7c-1.1,1-0.7,2.6-0.6,3.9c0.1,0.7,0.7,1.1,1.4,1c0.6,0,1.6-0.5,1.5-1.3c0-0.6-0.1-1.1-0.1-1.7
					c0-0.1,0-0.3,0-0.4c-0.1,0.1-0.7-0.3-0.1-0.1c0,0,0.1,0,0.1,0c0-0.1,0-0.1-0.1-0.2c0,0.1,0.1,0.1,0.1,0.2c0.3,0,0.7-0.2,0.9-0.2
					c0.5-0.1,0.9-0.4,1.3-0.7C76-60.1,76.2-60.8,75.6-61.3z"/>
				<path class="st1" d="M73.3-58.7C73.3-58.7,73.3-58.7,73.3-58.7C73.3-58.7,73.3-58.7,73.3-58.7C73.3-58.7,73.3-58.7,73.3-58.7z"
					/>
			</g>
			<path class="st1" d="M72.8-66.8c-0.1-0.3-0.3-0.6-0.6-0.9c-0.1-0.1-0.3-0.3-0.4-0.4c-0.2-0.1-0.3-0.3-0.2,0
				c-0.5-1.4-3.3-0.6-2.9,0.8c0.1,0.3,0.3,0.6,0.6,0.8c0.2,0.1,0.4,0.2,0.6,0.4c0.4,0.5,0.2,1.3,0.1,1.9c-0.1,0.7,0.8,1.1,1.4,1
				c0.7-0.1,1.4-0.5,1.5-1.3C73-65.1,73.1-66,72.8-66.8z"/>
			<path class="st1" d="M67.3-46.4c-0.1,0.4-0.1,0.8-0.2,1.3c0,0.1-0.1,0.4-0.1,0.7c-0.4,0-0.7,0-1.1,0.1c-0.6,0.1-1.3,0.8-1.1,1.5
				c0.2,0.7,1.1,0.8,1.7,0.7c-0.2,0.1,0.3,0.1,0.3,0.1c0.3,0,0.6,0,0.9,0c0.7-0.1,1.4-0.4,1.8-1c0.3-0.5,0.4-1,0.5-1.5
				c0.1-0.7,0.2-1.3,0.2-2C70.4-48.2,67.5-47.9,67.3-46.4z"/>
			<g>
				<path class="st1" d="M59.6-40.6c-0.2-0.7-0.6-1.3-0.9-1.9c-0.2-0.2-0.3-0.4-0.4-0.7c0,0,0-0.3-0.1-0.3c0,0,0-0.1,0-0.1
					c0,0-0.1,0.1-0.2,0.1c0.1,0,0.1-0.1,0.2-0.1c0,0,0.1-0.1,0.1-0.1c0.4-0.4,0.7-0.9,0.3-1.4c-0.4-0.6-1.4-0.6-2-0.3
					c-1,0.6-1.5,1.6-1.3,2.8c0.2,1.1,1.2,1.7,1.4,2.8C57.1-38.3,60-39.1,59.6-40.6z"/>
				<path class="st1" d="M58.2-43.6C58.3-43.6,58.3-43.6,58.2-43.6C58.3-43.6,58.3-43.6,58.2-43.6C58.2-43.6,58.2-43.6,58.2-43.6z"
					/>
			</g>
			<path class="st1" d="M50.8-42c-0.3-0.7-1-0.9-1.7-0.7c-0.5,0.1-1.4,0.8-1.1,1.5c0.1,0.3,0.6,1.1,0.4,1.5
				c-0.1,0.1-0.3,0.2-0.5,0.3c-0.3,0.2-0.5,0.5-0.7,0.8c-0.9,1.6,1.7,2.2,2.5,1c0.2-0.3,0.4-0.4,0.7-0.6c0.4-0.3,0.7-0.7,0.8-1.2
				C51.5-40.2,51.2-41.2,50.8-42z"/>
			<path class="st1" d="M38.3-67.2c-0.5-1.4-3.4-0.6-2.9,0.8c0.5,1.3,0.5,2.7-0.3,3.9c-1,1.6,1.7,2.2,2.5,1
				C38.7-63.2,39.1-65.2,38.3-67.2z"/>
			<path class="st1" d="M54.5-86.6c-0.3-1.1-1.5-1.4-2.4-1.1c-0.9,0.3-1.5,1.1-2.1,1.9c-0.1,0-0.1,0.1-0.2,0.1
				c-1.2,0.6-1.5,2.1-1.3,3.4c0.3,1.5,3.2,0.7,2.9-0.8c0-0.1,0-0.3,0-0.4c0.2,0,0.3,0,0.5,0c0.6,0,1.1-0.2,1.6-0.5
				C54.2-84.6,54.8-85.7,54.5-86.6z"/>
			<path class="st1" d="M74.1-51.6c-1.3-0.6-3.2,1.3-1.6,2.1c-0.1-0.1,0.1,0.1,0.1,0.1c0.1,0.1,0.1,0.1,0.1,0.2c0,0,0,0,0,0
				c0,0,0,0,0,0.1c0.1,0.3,0.1,0.4,0,0.7c-0.3,0.7,0.3,1.2,0.9,1.3c0.7,0.1,1.5-0.3,1.8-0.9C76.3-49.4,75.5-50.9,74.1-51.6z"/>
			<path class="st1" d="M66.5-34.5c-0.3-0.5-0.9-0.8-1.5-1.1c0,0-0.1-0.1-0.2-0.1c-0.1-0.1-0.2-0.2-0.1-0.1c0,0,0,0-0.1-0.1
				c0.3-0.5,0-1.1-0.5-1.4c-0.7-0.3-1.5,0-2,0.6c-0.6,0.8-0.4,1.8,0.2,2.4c0.3,0.3,0.7,0.5,1,0.7c0.1,0,0.1,0.1,0.2,0.1
				c0,0,0,0,0.1,0.1c0.1,0.1,0.1,0.1,0.1,0c0.1,0.1,0.1,0.1,0.1,0.2C64.7-31.9,67.4-33.1,66.5-34.5z"/>
			<path class="st1" d="M83.6-65c-1.1-0.9-3.5,0.7-2.1,1.8c0.7,0.6,1,1.5,0.9,2.4c-0.1,1.6,2.8,1.2,2.9-0.2
				C85.4-62.6,84.8-64,83.6-65z"/>
			<path class="st1" d="M77.4-80.9c-0.5,1-1.3,1.7-2.4,2c-0.6,0.2-1.5,0-1.7-0.7c-0.1-0.3,0-0.7,0.2-0.9c0.2-0.3,0.5-0.5,0.9-0.6
				c0,0,0,0,0.1,0c0,0,0,0,0.1,0c0,0,0,0,0.1-0.1c0,0,0,0,0,0c0,0,0.1-0.1,0.1-0.1c0,0,0,0,0,0c0.4-0.6,1.1-1,1.8-0.9
				c0.3,0,0.7,0.2,0.8,0.5C77.5-81.6,77.5-81.2,77.4-80.9z"/>
			<path class="st1" d="M38.5-40.4c-1.1-0.9-2.2-2-2-3.4c0.2-1.6,1.8-2.3,3.2-2.6c0.6-0.1,1.4,0.3,1.4,1c0,0.8-0.9,1.2-1.5,1.3
				c-0.1,0-0.1,0-0.2,0c-0.1,0.2,0,0.4,0,0.6c0.2,0.6,0.7,0.9,1.2,1.3C42-41.1,39.6-39.5,38.5-40.4z"/>
			<path class="st1" d="M37.8-53.1c-0.4-0.3-0.7-1.1-0.3-1.3c0.5-0.3,1.1-1,0.6-1.6c-0.4-0.6-1.4-0.6-2-0.3
				c-0.9,0.5-1.6,1.4-1.7,2.4c-0.1,1,0.4,2,1.2,2.6c0.6,0.4,1.5,0.3,2.1-0.2C38.2-51.9,38.4-52.7,37.8-53.1z"/>
			<path class="st1" d="M83.9-54.1c-0.3-1.5-3.2-0.7-2.9,0.8c0.1,0.4,0,0.8-0.1,1.1c-0.2,0.3-0.3,0.4-0.6,0.5c-0.6,0.3-1,1-0.6,1.6
				c0.5,0.6,1.4,0.5,2,0.3C83.3-50.5,84.3-52.4,83.9-54.1z"/>
			<path class="st1" d="M76.2-39.5c-0.4,1.3-1,2.6-2.2,3.3c-1.1,0.7-2.7,0.8-3.8,0c-1.4-1,1-2.7,2.1-1.8c0,0,0.1,0.1,0.1,0.1
				c0,0,0.1,0,0.1,0c0,0,0.1-0.2,0.2-0.2c0.4-0.5,0.5-1.1,0.7-1.7C73.8-41.2,76.7-41.1,76.2-39.5z"/>
			<path class="st1" d="M86-45.1c-0.3,0.7-1.1,1-1.8,0.9c-0.4-0.1-0.8,0.2-1.2,0.4c-0.1,0.1-0.3,0.2-0.5,0.3
				c0.3,0.4,0.1,1.1-0.3,1.4c-0.6,0.5-1.4,0.6-2.1,0.2c-1.3-0.9-0.5-2.4,0.5-3.1c1.3-0.9,2.7-1.6,4.4-1.4
				C85.7-46.3,86.3-45.8,86-45.1z"/>
			<path class="st1" d="M88.5-70.6c-0.2-0.9-0.4-1.7-0.6-2.6c-0.1-0.3-0.6-1.8-0.4-2.1c0.5-0.5,0.2-1.3-0.4-1.5
				c-0.7-0.3-1.6,0-2,0.6c-0.6,0.8-0.5,1.6-0.3,2.5c0.3,1.3,0.6,2.6,0.9,3.9C85.9-68.3,88.8-69.1,88.5-70.6z"/>
			<path class="st1" d="M77.2-88.1c-0.8-1.8-2.9-2.7-4.8-2c-0.6,0.2-1.3,0.8-1.1,1.5c0.2,0.7,1.1,0.9,1.7,0.7c0.3-0.1,0.4-0.1,0.7,0
				c0.3,0.1,0.5,0.3,0.6,0.6c0.3,0.7,1.1,0.9,1.7,0.7C76.6-86.7,77.5-87.4,77.2-88.1z"/>
			<g>
				<path class="st1" d="M86-83.2C86-83.2,86-83.2,86-83.2C86-83.2,86-83.2,86-83.2C86-83.2,86-83.2,86-83.2z"/>
				<path class="st1" d="M85.7-84C85.7-84,85.7-84,85.7-84C85.7-84,85.7-84,85.7-84C85.7-84,85.7-84,85.7-84z"/>
				<path class="st1" d="M86-83.2C86-83.2,86-83.2,86-83.2C86-83.2,86-83.2,86-83.2C86-83.2,86-83.2,86-83.2c0,0-0.1,0-0.1-0.1
					c-0.1-0.1-0.2-0.2-0.2-0.4c0-0.1,0-0.2,0-0.3c0-0.1,0-0.1,0-0.1c0,0,0,0-0.1,0c0,0,0,0,0.1,0c0,0,0,0,0,0c0.6-0.2,1.2-0.8,1-1.5
					c-0.2-0.7-1.1-0.9-1.7-0.7c-1.4,0.4-2.5,1.7-2.3,3.2c0.2,1.4,1.7,2.1,3,2.1c0.7,0,1.5-0.5,1.5-1.3C87.4-82.8,86.6-83.2,86-83.2z
					"/>
			</g>
			<path class="st1" d="M64.7-91.1c-0.6-0.5-1.5-0.2-2.1,0.2c-0.9,0.7-1.9,1.5-2.3,2.6c-0.4,1.3,0.1,2.4,0.8,3.4
				c0.8,1.2,3.5,0,2.6-1.4c-0.4-0.6-0.8-1.2-0.5-1.9c0.2-0.6,0.9-1,1.4-1.3C65.1-89.8,65.2-90.6,64.7-91.1z"/>
			<path class="st1" d="M49.4-89.3c-0.6,2-3,2.2-4.7,2c-0.7-0.1-1.2-0.7-0.9-1.3c0.3-0.7,1.1-1,1.8-0.9c0.2,0,0.4,0.1,0.7,0.1
				c0.1,0,0.2,0,0.3,0c0-0.1,0.1-0.1,0.1-0.2C47-91,49.9-91,49.4-89.3z"/>
			<path class="st1" d="M55.5-95.7c-1.3-0.1-2.5,0.1-3.5,0.8c-0.5,0.4-0.6,1.2-0.1,1.6c0.6,0.5,1.5,0.3,2.1-0.2c0,0,0.4,0,0.5,0
				c0,0,0.1,0,0.2,0c0,1.3,2.4,1.2,2.8,0C57.8-94.7,56.7-95.6,55.5-95.7z"/>
			<path class="st1" d="M38.7-85.2c-0.4-0.6-1.4-0.6-2-0.3c-2.1,1.1-4,4.6-2.3,6.7c0.9,1.1,3.6-0.2,2.6-1.4
				c-0.5-0.6-0.4-1.2-0.1-1.8c0.2-0.5,0.7-1.4,1.2-1.6C38.7-83.9,39.1-84.6,38.7-85.2z"/>
			<g>
				<path class="st1" d="M78.6-71.1C78.6-71.1,78.6-71.1,78.6-71.1C78.6-71.1,78.6-71.2,78.6-71.1c-0.1-0.1-0.2-0.2-0.2-0.3
					c0.1,0.1-0.1-0.3-0.1-0.3c0,0,0-0.3,0-0.3c0,0.1,0.1-0.1,0-0.1c0,0,0.1-0.2,0.1-0.2c0.5-0.5,0.2-1.3-0.4-1.5
					c-0.7-0.3-1.5,0-2,0.6c-1,1.2-0.8,2.9,0.4,3.9C77.5-68.4,79.9-70,78.6-71.1z"/>
				<path class="st1" d="M43.9-64.7C43.9-64.6,43.9-64.6,43.9-64.7L43.9-64.7z"/>
			</g>
		</g>
		<g>
			<path class="st1" d="M113.6-64c-0.6-1.6-1.8-3.5-3.7-3.4c-0.9,0-1.7,0.4-2.3,1.1c-0.5,0.5-0.7,1.6-1.3,1.9
				c-1.7,1-0.1,2.7,1.4,1.9c1-0.6,1.4-1.3,1.9-2.3c0,0,0.1-0.1,0.1-0.1c0,0,0,0,0.1,0c0.4,0.6,0.8,1,1,1.7
				C111.3-61.8,114.2-62.7,113.6-64z"/>
			<path class="st1" d="M120.4-70.4c0,1.4-2.9,1.8-2.9,0.2c0-0.4,0-0.7-0.2-1.1c0-0.1-0.1-0.1-0.1-0.2c-0.5,0-1.3,0.7-1.7,0.9
				c-0.5,0.3-1.6,0.3-2-0.3c-0.4-0.6,0.1-1.3,0.6-1.6c1.2-0.8,2.9-1.7,4.4-1.3C120-73.2,120.3-71.8,120.4-70.4z"/>
			<path class="st1" d="M103.2-75.5c0.5-0.5,0.2-1.3-0.4-1.5c-0.7-0.3-1.5,0-2,0.6c-0.7,0.9-1.8,1.9-2.1,3c-0.4,1.1,0.6,1.7,1.1,2.5
				c0.7,1.2,3.4,0,2.6-1.4c-0.1-0.3-0.3-0.5-0.5-0.7c-0.3-0.3-0.3-0.2-0.1-0.5C101.9-74.2,102.6-74.9,103.2-75.5z"/>
			<path class="st1" d="M104.6-58.9c-0.3-1.5-3.1-0.7-2.9,0.8c0.1,0.6,0.1,1.3,0,1.9c-0.7-0.8-2.9,0-2.6,1.3
				c0.4,1.9,2.9,1.9,4.2,0.9C104.7-55.2,104.9-57.2,104.6-58.9z"/>
			<path class="st1" d="M109.1-51.4c-0.8-1.2-3.5,0.1-2.6,1.4c0.6,0.8,0.5,2.9-0.9,2.5c-0.7-0.2-1.6,0-2,0.6
				c-0.4,0.5-0.2,1.3,0.4,1.5c1.7,0.5,3.7,0.1,4.9-1.3C110-48,110.1-50,109.1-51.4z"/>
			<path class="st1" d="M123.3-52.4c-0.5,0.6-1.3,0.8-2,0.6c-0.1,0-0.4-0.1-0.7-0.1c0,0.3,0,0.8,0,0.8c0,0.4,0,0.7-0.2,1
				c-0.4,0.7-1.1,1.1-1.8,0.9c-0.6-0.1-1.3-0.7-0.9-1.3c0.2-0.4,0-1,0-1.5c0.1-0.6,0.5-1.2,1-1.6c1.3-1,2.8-0.8,4.2-0.4
				C123.5-53.7,123.7-52.9,123.3-52.4z"/>
			<path class="st1" d="M115.4-79.1c-0.2-1.4-1.7-2.2-3.1-2.1c-0.8,0-1.5,0.4-2,0.9c-0.5,0.5-0.8,1.1-1.3,1.5
				c-0.5,0.4-0.6,1.2-0.1,1.6c0.6,0.5,1.5,0.3,2.1-0.2c0.4-0.3,1-0.9,1.3-1.4c0.1,0,0.1,0.1,0.1,0.1c0.1,0.1,0.1,0.3,0.1,0.4
				c0.1,0.7,1.2,0.8,1.7,0.7C115-77.9,115.5-78.4,115.4-79.1z"/>
			<g>
				<path class="st1" d="M116.3-40.6c-0.2-0.7-0.6-1.3-0.9-1.9c-0.2-0.2-0.3-0.4-0.4-0.7c0,0,0-0.3-0.1-0.3c0,0,0-0.1,0-0.1
					c0,0-0.1,0.1-0.2,0.1c0.1,0,0.1-0.1,0.2-0.1c0,0,0.1-0.1,0.1-0.1c0.4-0.4,0.7-0.9,0.3-1.4c-0.4-0.6-1.4-0.6-2-0.3
					c-1,0.6-1.5,1.6-1.3,2.8c0.2,1.1,1.2,1.7,1.4,2.8C113.8-38.3,116.6-39.1,116.3-40.6z"/>
				<path class="st1" d="M114.9-43.6C115-43.6,115-43.6,114.9-43.6C115-43.6,115-43.6,114.9-43.6C114.9-43.6,114.9-43.6,114.9-43.6z
					"/>
			</g>
			<path class="st1" d="M107.5-42c-0.3-0.7-1-0.9-1.7-0.7c-0.5,0.1-1.4,0.8-1.1,1.5c0.1,0.3,0.6,1.1,0.4,1.5
				c-0.1,0.1-0.3,0.2-0.5,0.3c-0.3,0.2-0.5,0.5-0.7,0.8c-0.9,1.6,1.7,2.2,2.5,1c0.2-0.3,0.4-0.4,0.7-0.6c0.4-0.3,0.7-0.7,0.8-1.2
				C108.2-40.2,107.9-41.2,107.5-42z"/>
			<path class="st1" d="M95-67.2c-0.5-1.4-3.4-0.6-2.9,0.8c0.5,1.3,0.5,2.7-0.3,3.9c-1,1.6,1.7,2.2,2.5,1
				C95.4-63.2,95.8-65.2,95-67.2z"/>
			<path class="st1" d="M111.2-86.6c-0.3-1.1-1.5-1.4-2.4-1.1c-0.9,0.3-1.5,1.1-2.1,1.9c-0.1,0-0.1,0.1-0.2,0.1
				c-1.2,0.6-1.5,2.1-1.3,3.4c0.3,1.5,3.2,0.7,2.9-0.8c0-0.1,0-0.3,0-0.4c0.2,0,0.3,0,0.5,0c0.6,0,1.1-0.2,1.6-0.5
				C110.9-84.6,111.5-85.7,111.2-86.6z"/>
			<path class="st1" d="M95.2-40.4c-1.1-0.9-2.2-2-2-3.4c0.2-1.6,1.8-2.3,3.2-2.6c0.6-0.1,1.4,0.3,1.4,1c0,0.8-0.9,1.2-1.5,1.3
				c-0.1,0-0.1,0-0.2,0c-0.1,0.2,0,0.4,0,0.6c0.2,0.6,0.7,0.9,1.2,1.3C98.7-41.1,96.3-39.5,95.2-40.4z"/>
			<path class="st1" d="M94.5-53.1c-0.4-0.3-0.7-1.1-0.3-1.3c0.5-0.3,1.1-1,0.6-1.6c-0.4-0.6-1.4-0.6-2-0.3
				c-0.9,0.5-1.6,1.4-1.7,2.4c-0.1,1,0.4,2,1.2,2.6c0.6,0.4,1.5,0.3,2.1-0.2C94.9-51.9,95.1-52.7,94.5-53.1z"/>
			<path class="st1" d="M121.4-91.1c-0.6-0.5-1.5-0.2-2.1,0.2c-0.9,0.7-1.9,1.5-2.3,2.6c-0.4,1.3,0.1,2.4,0.8,3.4
				c0.8,1.2,3.5,0,2.6-1.4c-0.4-0.6-0.8-1.2-0.5-1.9c0.2-0.6,0.9-1,1.4-1.3C121.8-89.8,121.9-90.6,121.4-91.1z"/>
			<path class="st1" d="M106.1-89.3c-0.6,2-3,2.2-4.7,2c-0.7-0.1-1.2-0.7-0.9-1.3c0.3-0.7,1.1-1,1.8-0.9c0.2,0,0.4,0.1,0.7,0.1
				c0.1,0,0.2,0,0.3,0c0-0.1,0.1-0.1,0.1-0.2C103.7-91,106.6-91,106.1-89.3z"/>
			<path class="st1" d="M112.2-95.7c-1.3-0.1-2.5,0.1-3.5,0.8c-0.5,0.4-0.6,1.2-0.1,1.6c0.6,0.5,1.5,0.3,2.1-0.2c0,0,0.4,0,0.5,0
				c0,0,0.1,0,0.2,0c0,1.3,2.4,1.2,2.8,0C114.5-94.7,113.4-95.6,112.2-95.7z"/>
			<path class="st1" d="M95.4-85.2c-0.4-0.6-1.4-0.6-2-0.3c-2.1,1.1-4,4.6-2.3,6.7c0.9,1.1,3.6-0.2,2.6-1.4
				c-0.5-0.6-0.4-1.2-0.1-1.8c0.2-0.5,0.7-1.4,1.2-1.6C95.4-83.9,95.8-84.6,95.4-85.2z"/>
			<g>
				<path class="st1" d="M100.6-64.7C100.6-64.6,100.6-64.6,100.6-64.7L100.6-64.7z"/>
			</g>
		</g>
		<g>
			<path class="st1" d="M28.6-122.2c-0.6-1.6-1.8-3.5-3.7-3.4c-0.9,0-1.7,0.4-2.3,1.1c-0.5,0.5-0.7,1.6-1.3,1.9
				c-1.7,1-0.1,2.7,1.4,1.9c1-0.6,1.4-1.3,1.9-2.3c0,0,0.1-0.1,0.1-0.1c0,0,0,0,0.1,0c0.4,0.6,0.8,1,1,1.7
				C26.3-120,29.1-120.8,28.6-122.2z"/>
			<path class="st1" d="M37.5-122.3c-0.7-1.2-3.4,0-2.6,1.4c0.1,0.2-0.5,1.3-0.6,1.4c-0.3,0.6-0.6,1.3-0.8,1.9
				c-0.3,0.7,0.3,1.2,0.9,1.3c0.7,0.1,1.5-0.3,1.8-0.9c0.4-0.9,0.8-1.8,1.2-2.8C37.8-120.8,38-121.5,37.5-122.3z"/>
			<path class="st1" d="M19.6-117.1c-0.3-1.5-3.1-0.7-2.9,0.8c0.1,0.6,0.1,1.3,0,1.9c-0.7-0.8-2.9,0-2.6,1.3
				c0.4,1.9,2.9,1.9,4.2,0.9C19.7-113.3,19.9-115.4,19.6-117.1z"/>
			<path class="st1" d="M24-109.5c-0.8-1.2-3.5,0.1-2.6,1.4c0.6,0.8,0.5,2.9-0.9,2.5c-0.7-0.2-1.6,0-2,0.6c-0.4,0.5-0.2,1.3,0.4,1.5
				c1.7,0.5,3.7,0.1,4.9-1.3C25-106.2,25-108.1,24-109.5z"/>
			<path class="st1" d="M38.3-110.5c-0.5,0.6-1.3,0.8-2,0.6c-0.1,0-0.4-0.1-0.7-0.1c0,0.3,0,0.8,0,0.8c0,0.4,0,0.7-0.2,1
				c-0.4,0.7-1.1,1.1-1.8,0.9c-0.6-0.1-1.3-0.7-0.9-1.3c0.2-0.4,0-1,0-1.5c0.1-0.6,0.5-1.2,1-1.6c1.3-1,2.8-0.8,4.2-0.4
				C38.5-111.8,38.6-111,38.3-110.5z"/>
			<g>
				<path class="st1" d="M47.3-119.4c-0.6-0.4-1.6-0.3-2.1,0.2c0.1-0.1-0.2,0.1-0.3,0.1c-0.1,0-0.5,0.1-0.7,0.1
					c-0.5,0.1-1,0.3-1.4,0.7c-1.1,1-0.7,2.6-0.6,3.9c0.1,0.7,0.7,1.1,1.4,1c0.6,0,1.6-0.5,1.5-1.3c0-0.6-0.1-1.1-0.1-1.7
					c0-0.1,0-0.3,0-0.4c-0.1,0.1-0.7-0.3-0.1-0.1c0,0,0.1,0,0.1,0c0-0.1,0-0.1-0.1-0.2c0,0.1,0.1,0.1,0.1,0.2c0.3,0,0.7-0.2,0.9-0.2
					c0.5-0.1,0.9-0.4,1.3-0.7C47.7-118.2,47.9-119,47.3-119.4z"/>
				<path class="st1" d="M45-116.8C45-116.8,45-116.8,45-116.8C45-116.9,45-116.9,45-116.8C45-116.9,45-116.8,45-116.8z"/>
			</g>
			<path class="st1" d="M44.4-124.9c-0.1-0.3-0.3-0.6-0.6-0.9c-0.1-0.1-0.3-0.3-0.4-0.4c-0.2-0.1-0.3-0.3-0.2,0
				c-0.5-1.4-3.3-0.6-2.9,0.8c0.1,0.3,0.3,0.6,0.6,0.8c0.2,0.1,0.4,0.2,0.6,0.4c0.4,0.5,0.2,1.3,0.1,1.9c-0.1,0.7,0.8,1.1,1.4,1
				c0.7-0.1,1.4-0.5,1.5-1.3C44.7-123.3,44.8-124.1,44.4-124.9z"/>
			<path class="st1" d="M38.9-104.6c-0.1,0.4-0.1,0.8-0.2,1.3c0,0.1-0.1,0.4-0.1,0.7c-0.4,0-0.7,0-1.1,0.1c-0.6,0.1-1.3,0.8-1.1,1.5
				c0.2,0.7,1.1,0.8,1.7,0.7c-0.2,0.1,0.3,0.1,0.3,0.1c0.3,0,0.6,0,0.9,0c0.7-0.1,1.4-0.4,1.8-1c0.3-0.5,0.4-1,0.5-1.5
				c0.1-0.7,0.2-1.3,0.2-2C42-106.4,39.1-106,38.9-104.6z"/>
			<g>
				<path class="st1" d="M31.3-98.7c-0.2-0.7-0.6-1.3-0.9-1.9c-0.2-0.2-0.3-0.4-0.4-0.7c0,0,0-0.3-0.1-0.3c0,0,0-0.1,0-0.1
					c0,0-0.1,0.1-0.2,0.1c0.1,0,0.1-0.1,0.2-0.1c0,0,0.1-0.1,0.1-0.1c0.4-0.4,0.7-0.9,0.3-1.4c-0.4-0.6-1.4-0.6-2-0.3
					c-1,0.6-1.5,1.6-1.3,2.8c0.2,1.1,1.2,1.7,1.4,2.8C28.8-96.5,31.6-97.3,31.3-98.7z"/>
				<path class="st1" d="M29.9-101.7C29.9-101.8,30-101.8,29.9-101.7C29.9-101.8,29.9-101.7,29.9-101.7
					C29.9-101.7,29.9-101.7,29.9-101.7z"/>
			</g>
			<path class="st1" d="M22.5-100.1c-0.3-0.7-1-0.9-1.7-0.7c-0.5,0.1-1.4,0.8-1.1,1.5c0.1,0.3,0.6,1.1,0.4,1.5
				c-0.1,0.1-0.3,0.2-0.5,0.3c-0.3,0.2-0.5,0.5-0.7,0.8c-0.9,1.6,1.7,2.2,2.5,1c0.2-0.3,0.4-0.4,0.7-0.6c0.4-0.3,0.7-0.7,0.8-1.2
				C23.2-98.4,22.9-99.3,22.5-100.1z"/>
			<path class="st1" d="M10-125.3c-0.5-1.4-3.4-0.6-2.9,0.8c0.5,1.3,0.5,2.7-0.3,3.9c-1,1.6,1.7,2.2,2.5,1
				C10.4-121.3,10.7-123.4,10-125.3z"/>
			<path class="st1" d="M45.8-109.7c-1.3-0.6-3.2,1.3-1.6,2.1c-0.1-0.1,0.1,0.1,0.1,0.1c0.1,0.1,0.1,0.1,0.1,0.2c0,0,0,0,0,0
				c0,0,0,0,0,0.1c0.1,0.3,0.1,0.4,0,0.7c-0.3,0.7,0.3,1.2,0.9,1.3c0.7,0.1,1.5-0.3,1.8-0.9C47.9-107.5,47.1-109.1,45.8-109.7z"/>
			<path class="st1" d="M38.2-92.6c-0.3-0.5-0.9-0.8-1.5-1.1c0,0-0.1-0.1-0.2-0.1c-0.1-0.1-0.2-0.2-0.1-0.1c0,0,0,0-0.1-0.1
				c0.3-0.5,0-1.1-0.5-1.4c-0.7-0.3-1.5,0-2,0.6C33.2-94,33.4-93,34-92.3c0.3,0.3,0.7,0.5,1,0.7c0.1,0,0.1,0.1,0.2,0.1
				c0,0,0,0,0.1,0.1c0.1,0.1,0.1,0.1,0.1,0c0.1,0.1,0.1,0.1,0.1,0.2C36.4-90,39-91.3,38.2-92.6z"/>
			<path class="st1" d="M55.3-123.2c-1.1-0.9-3.5,0.7-2.1,1.8c0.7,0.6,1,1.5,0.9,2.4c-0.1,1.6,2.8,1.2,2.9-0.2
				C57.1-120.7,56.4-122.2,55.3-123.2z"/>
			<path class="st1" d="M10.2-98.5c-1.1-0.9-2.2-2-2-3.4c0.2-1.6,1.8-2.3,3.2-2.6c0.6-0.1,1.4,0.3,1.4,1c0,0.8-0.9,1.2-1.5,1.3
				c-0.1,0-0.1,0-0.2,0c-0.1,0.2,0,0.4,0,0.6c0.2,0.6,0.7,0.9,1.2,1.3C13.7-99.2,11.3-97.6,10.2-98.5z"/>
			<path class="st1" d="M9.5-111.3c-0.4-0.3-0.7-1.1-0.3-1.3c0.5-0.3,1.1-1,0.6-1.6c-0.4-0.6-1.4-0.6-2-0.3
				c-0.9,0.5-1.6,1.4-1.7,2.4c-0.1,1,0.4,2,1.2,2.6c0.6,0.4,1.5,0.3,2.1-0.2C9.9-110.1,10.1-110.8,9.5-111.3z"/>
			<path class="st1" d="M55.5-112.3c-0.3-1.5-3.2-0.7-2.9,0.8c0.1,0.4,0,0.8-0.1,1.1c-0.2,0.3-0.3,0.4-0.6,0.5c-0.6,0.3-1,1-0.6,1.6
				c0.5,0.6,1.4,0.5,2,0.3C54.9-108.7,55.9-110.5,55.5-112.3z"/>
			<path class="st1" d="M47.8-97.6c-0.4,1.3-1,2.6-2.2,3.3c-1.1,0.7-2.7,0.8-3.8,0c-1.4-1,1-2.7,2.1-1.8c0,0,0.1,0.1,0.1,0.1
				c0,0,0.1,0,0.1,0c0,0,0.1-0.2,0.2-0.2c0.4-0.5,0.5-1.1,0.7-1.7C45.5-99.4,48.3-99.3,47.8-97.6z"/>
			<path class="st1" d="M57.7-103.2c-0.3,0.7-1.1,1-1.8,0.9c-0.4-0.1-0.8,0.2-1.2,0.4c-0.1,0.1-0.3,0.2-0.5,0.3
				c0.3,0.4,0.1,1.1-0.3,1.4c-0.6,0.5-1.4,0.6-2.1,0.2c-1.3-0.9-0.5-2.4,0.5-3.1c1.3-0.9,2.7-1.6,4.4-1.4
				C57.4-104.5,57.9-103.9,57.7-103.2z"/>
		</g>
		<g>
			<path class="st1" d="M85.3-122.2c-0.6-1.6-1.8-3.5-3.7-3.4c-0.9,0-1.7,0.4-2.3,1.1c-0.5,0.5-0.7,1.6-1.3,1.9
				c-1.7,1-0.1,2.7,1.4,1.9c1-0.6,1.4-1.3,1.9-2.3c0,0,0.1-0.1,0.1-0.1c0,0,0,0,0.1,0c0.4,0.6,0.8,1,1,1.7
				C83-120,85.8-120.8,85.3-122.2z"/>
			<path class="st1" d="M94.2-122.3c-0.7-1.2-3.4,0-2.6,1.4c0.1,0.2-0.5,1.3-0.6,1.4c-0.3,0.6-0.6,1.3-0.8,1.9
				c-0.3,0.7,0.3,1.2,0.9,1.3c0.7,0.1,1.5-0.3,1.8-0.9c0.4-0.9,0.8-1.8,1.2-2.8C94.5-120.8,94.7-121.5,94.2-122.3z"/>
			<path class="st1" d="M76.3-117.1c-0.3-1.5-3.1-0.7-2.9,0.8c0.1,0.6,0.1,1.3,0,1.9c-0.7-0.8-2.9,0-2.6,1.3
				c0.4,1.9,2.9,1.9,4.2,0.9C76.4-113.3,76.6-115.4,76.3-117.1z"/>
			<path class="st1" d="M80.7-109.5c-0.8-1.2-3.5,0.1-2.6,1.4c0.6,0.8,0.5,2.9-0.9,2.5c-0.7-0.2-1.6,0-2,0.6
				c-0.4,0.5-0.2,1.3,0.4,1.5c1.7,0.5,3.7,0.1,4.9-1.3C81.7-106.2,81.7-108.1,80.7-109.5z"/>
			<path class="st1" d="M94.9-110.5c-0.5,0.6-1.3,0.8-2,0.6c-0.1,0-0.4-0.1-0.7-0.1c0,0.3,0,0.8,0,0.8c0,0.4,0,0.7-0.2,1
				c-0.4,0.7-1.1,1.1-1.8,0.9c-0.6-0.1-1.3-0.7-0.9-1.3c0.2-0.4,0-1,0-1.5c0.1-0.6,0.5-1.2,1-1.6c1.3-1,2.8-0.8,4.2-0.4
				C95.2-111.8,95.3-111,94.9-110.5z"/>
			<g>
				<path class="st1" d="M104-119.4c-0.6-0.4-1.6-0.3-2.1,0.2c0.1-0.1-0.2,0.1-0.3,0.1c-0.1,0-0.5,0.1-0.7,0.1
					c-0.5,0.1-1,0.3-1.4,0.7c-1.1,1-0.7,2.6-0.6,3.9c0.1,0.7,0.7,1.1,1.4,1c0.6,0,1.6-0.5,1.5-1.3c0-0.6-0.1-1.1-0.1-1.7
					c0-0.1,0-0.3,0-0.4c-0.1,0.1-0.7-0.3-0.1-0.1c0,0,0.1,0,0.1,0c0-0.1,0-0.1-0.1-0.2c0,0.1,0.1,0.1,0.1,0.2c0.3,0,0.7-0.2,0.9-0.2
					c0.5-0.1,0.9-0.4,1.3-0.7C104.4-118.2,104.6-119,104-119.4z"/>
				<path class="st1" d="M101.7-116.8C101.7-116.8,101.7-116.8,101.7-116.8C101.7-116.9,101.7-116.9,101.7-116.8
					C101.7-116.9,101.7-116.8,101.7-116.8z"/>
			</g>
			<path class="st1" d="M101.1-124.9c-0.1-0.3-0.3-0.6-0.6-0.9c-0.1-0.1-0.3-0.3-0.4-0.4c-0.2-0.1-0.3-0.3-0.2,0
				c-0.5-1.4-3.3-0.6-2.9,0.8c0.1,0.3,0.3,0.6,0.6,0.8c0.2,0.1,0.4,0.2,0.6,0.4c0.4,0.5,0.2,1.3,0.1,1.9c-0.1,0.7,0.8,1.1,1.4,1
				c0.7-0.1,1.4-0.5,1.5-1.3C101.3-123.3,101.5-124.1,101.1-124.9z"/>
			<path class="st1" d="M95.6-104.6c-0.1,0.4-0.1,0.8-0.2,1.3c0,0.1-0.1,0.4-0.1,0.7c-0.4,0-0.7,0-1.1,0.1c-0.6,0.1-1.3,0.8-1.1,1.5
				c0.2,0.7,1.1,0.8,1.7,0.7c-0.2,0.1,0.3,0.1,0.3,0.1c0.3,0,0.6,0,0.9,0c0.7-0.1,1.4-0.4,1.8-1c0.3-0.5,0.4-1,0.5-1.5
				c0.1-0.7,0.2-1.3,0.2-2C98.7-106.4,95.8-106,95.6-104.6z"/>
			<g>
				<path class="st1" d="M88-98.7c-0.2-0.7-0.6-1.3-0.9-1.9c-0.2-0.2-0.3-0.4-0.4-0.7c0,0,0-0.3-0.1-0.3c0,0,0-0.1,0-0.1
					c0,0-0.1,0.1-0.2,0.1c0.1,0,0.1-0.1,0.2-0.1c0,0,0.1-0.1,0.1-0.1c0.4-0.4,0.7-0.9,0.3-1.4c-0.4-0.6-1.4-0.6-2-0.3
					c-1,0.6-1.5,1.6-1.3,2.8c0.2,1.1,1.2,1.7,1.4,2.8C85.4-96.5,88.3-97.3,88-98.7z"/>
				<path class="st1" d="M86.6-101.7C86.6-101.8,86.6-101.8,86.6-101.7C86.6-101.8,86.6-101.7,86.6-101.7
					C86.6-101.7,86.6-101.7,86.6-101.7z"/>
			</g>
			<path class="st1" d="M79.2-100.1c-0.3-0.7-1-0.9-1.7-0.7c-0.5,0.1-1.4,0.8-1.1,1.5c0.1,0.3,0.6,1.1,0.4,1.5
				c-0.1,0.1-0.3,0.2-0.5,0.3c-0.3,0.2-0.5,0.5-0.7,0.8c-0.9,1.6,1.7,2.2,2.5,1c0.2-0.3,0.4-0.4,0.7-0.6c0.4-0.3,0.7-0.7,0.8-1.2
				C79.9-98.4,79.6-99.3,79.2-100.1z"/>
			<path class="st1" d="M66.7-125.3c-0.5-1.4-3.4-0.6-2.9,0.8c0.5,1.3,0.5,2.7-0.3,3.9c-1,1.6,1.7,2.2,2.5,1
				C67.1-121.3,67.4-123.4,66.7-125.3z"/>
			<path class="st1" d="M102.5-109.7c-1.3-0.6-3.2,1.3-1.6,2.1c-0.1-0.1,0.1,0.1,0.1,0.1c0.1,0.1,0.1,0.1,0.1,0.2c0,0,0,0,0,0
				c0,0,0,0,0,0.1c0.1,0.3,0.1,0.4,0,0.7c-0.3,0.7,0.3,1.2,0.9,1.3c0.7,0.1,1.5-0.3,1.8-0.9C104.6-107.5,103.8-109.1,102.5-109.7z"
				/>
			<path class="st1" d="M94.9-92.6c-0.3-0.5-0.9-0.8-1.5-1.1c0,0-0.1-0.1-0.2-0.1c-0.1-0.1-0.2-0.2-0.1-0.1c0,0,0,0-0.1-0.1
				c0.3-0.5,0-1.1-0.5-1.4c-0.7-0.3-1.5,0-2,0.6c-0.6,0.8-0.4,1.8,0.2,2.4c0.3,0.3,0.7,0.5,1,0.7c0.1,0,0.1,0.1,0.2,0.1
				c0,0,0,0,0.1,0.1c0.1,0.1,0.1,0.1,0.1,0c0.1,0.1,0.1,0.1,0.1,0.2C93.1-90,95.7-91.3,94.9-92.6z"/>
			<path class="st1" d="M112-123.2c-1.1-0.9-3.5,0.7-2.1,1.8c0.7,0.6,1,1.5,0.9,2.4c-0.1,1.6,2.8,1.2,2.9-0.2
				C113.8-120.7,113.1-122.2,112-123.2z"/>
			<path class="st1" d="M66.9-98.5c-1.1-0.9-2.2-2-2-3.4c0.2-1.6,1.8-2.3,3.2-2.6c0.6-0.1,1.4,0.3,1.4,1c0,0.8-0.9,1.2-1.5,1.3
				c-0.1,0-0.1,0-0.2,0c-0.1,0.2,0,0.4,0,0.6c0.2,0.6,0.7,0.9,1.2,1.3C70.4-99.2,68-97.6,66.9-98.5z"/>
			<path class="st1" d="M66.2-111.3c-0.4-0.3-0.7-1.1-0.3-1.3c0.5-0.3,1.1-1,0.6-1.6c-0.4-0.6-1.4-0.6-2-0.3
				c-0.9,0.5-1.6,1.4-1.7,2.4c-0.1,1,0.4,2,1.2,2.6c0.6,0.4,1.5,0.3,2.1-0.2C66.6-110.1,66.8-110.8,66.2-111.3z"/>
			<path class="st1" d="M112.2-112.3c-0.3-1.5-3.2-0.7-2.9,0.8c0.1,0.4,0,0.8-0.1,1.1c-0.2,0.3-0.3,0.4-0.6,0.5
				c-0.6,0.3-1,1-0.6,1.6c0.5,0.6,1.4,0.5,2,0.3C111.6-108.7,112.6-110.5,112.2-112.3z"/>
			<path class="st1" d="M104.5-97.6c-0.4,1.3-1,2.6-2.2,3.3c-1.1,0.7-2.7,0.8-3.8,0c-1.4-1,1-2.7,2.1-1.8c0,0,0.1,0.1,0.1,0.1
				c0,0,0.1,0,0.1,0c0,0,0.1-0.2,0.2-0.2c0.4-0.5,0.5-1.1,0.7-1.7C102.2-99.4,105-99.3,104.5-97.6z"/>
			<path class="st1" d="M114.3-103.2c-0.3,0.7-1.1,1-1.8,0.9c-0.4-0.1-0.8,0.2-1.2,0.4c-0.1,0.1-0.3,0.2-0.5,0.3
				c0.3,0.4,0.1,1.1-0.3,1.4c-0.6,0.5-1.4,0.6-2.1,0.2c-1.3-0.9-0.5-2.4,0.5-3.1c1.3-0.9,2.7-1.6,4.4-1.4
				C114.1-104.5,114.6-103.9,114.3-103.2z"/>
		</g>
	</g>
</pattern>
<g id="g10" transform="matrix(0,1.25,1.25,0,0,0)" inkscape:groupmode="layer" inkscape:label="passive mult ">
	<g id="g7281" transform="translate(24.836643,-198.22368)">
		<path id="rect8691-4-7-8-7_2_" inkscape:connector-curvature="0" class="st2" d="M-24.4,198.8v51.7h364.2v-51.7H-24.4z"/>
		<g id="g7029-5-8-4-5-4-0" transform="matrix(0,0.79999182,0.8,0,-338.49486,50.9055)">
			<path id="path32-3-8-0-9-5-3-6_2_" inkscape:connector-curvature="0" class="st3" d="M204,831.2h10.1"/>
			<path id="path34-0-1-5-8-0-3-7_2_" inkscape:connector-curvature="0" class="st3" d="M204,842.5h10.1"/>
			<path id="path36-6-0-5-2-2-4-7_2_" inkscape:connector-curvature="0" class="st3" d="M204,831.2c-3,0-5.4,2.5-5.4,5.7
				c0,3.1,2.4,5.7,5.4,5.7c0,0,0,0,0,0"/>
			<path id="path38-7-3-7-0-4-6-4_2_" inkscape:connector-curvature="0" class="st3" d="M214.1,842.5c3,0,5.4-2.5,5.4-5.7
				s-2.4-5.7-5.4-5.7"/>
		</g>
		<g id="g7029-5-8-6-6-5-0-9" transform="matrix(0,0.79999182,0.8,0,-685.69501,50.9055)">
			<path id="path32-3-8-0-6-3-3-5-2_2_" inkscape:connector-curvature="0" class="st3" d="M204,831.2h10.1"/>
			<path id="path34-0-1-5-0-7-9-7-7_2_" inkscape:connector-curvature="0" class="st3" d="M204,842.5h10.1"/>
			<path id="path36-6-0-5-1-5-5-3-8_2_" inkscape:connector-curvature="0" class="st3" d="M204,831.2c-3,0-5.4,2.5-5.4,5.7
				c0,3.1,2.4,5.7,5.4,5.7c0,0,0,0,0,0"/>
			<path id="path38-7-3-7-2-3-1-5-6_2_" inkscape:connector-curvature="0" class="st3" d="M214.1,842.5c3,0,5.4-2.5,5.4-5.7
				s-2.4-5.7-5.4-5.7"/>
		</g>
		<g id="g7051" transform="translate(3.2,3.2)">
			<path id="path72-0-2-8-1_2_" inkscape:connector-curvature="0" class="st4" d="M29.6,229.6c-5.1,0-9.2-3.9-9.2-8.8
				c0-4.9,4.1-8.8,9.2-8.8s9.2,3.9,9.2,8.8C38.8,225.7,34.6,229.6,29.6,229.6z"/>
			<path id="path72-0-2-8-1-2_2_" inkscape:connector-curvature="0" class="st4" d="M65.4,229.6c-5.1,0-9.2-3.9-9.2-8.8
				c0-4.9,4.1-8.8,9.2-8.8s9.2,3.9,9.2,8.8C74.6,225.7,70.5,229.6,65.4,229.6z"/>
			<path id="path72-0-2-8-1-9_2_" inkscape:connector-curvature="0" class="st4" d="M101.4,229.6c-5.1,0-9.2-3.9-9.2-8.8
				c0-4.9,4.1-8.8,9.2-8.8l0,0c5.1,0,9.2,3.9,9.2,8.8C110.6,225.7,106.5,229.6,101.4,229.6z"/>
			<path id="path72-0-2-8-1-2-4_2_" inkscape:connector-curvature="0" class="st4" d="M137.4,229.6c-5.1,0-9.2-3.9-9.2-8.8
				c0-4.9,4.1-8.8,9.2-8.8s9.2,3.9,9.2,8.8C146.6,225.7,142.5,229.6,137.4,229.6z"/>
			<path id="path72-0-2-8-1-0_2_" inkscape:connector-curvature="0" class="st4" d="M180.7,229.6c-5.1,0-9.2-3.9-9.2-8.8
				c0-4.9,4.1-8.8,9.2-8.8s9.2,3.9,9.2,8.8C189.9,225.7,185.7,229.6,180.7,229.6z"/>
			<path id="path72-0-2-8-1-2-3_2_" inkscape:connector-curvature="0" class="st4" d="M216.5,229.6c-5.1,0-9.2-3.9-9.2-8.8
				c0-4.9,4.1-8.8,9.2-8.8s9.2,3.9,9.2,8.8C225.7,225.7,221.6,229.6,216.5,229.6z"/>
			<path id="path72-0-2-8-1-9-1_2_" inkscape:connector-curvature="0" class="st4" d="M252.5,229.6c-5.1,0-9.2-3.9-9.2-8.8
				c0-4.9,4.1-8.8,9.2-8.8c5.1,0,9.2,3.9,9.2,8.8C261.7,225.7,257.6,229.6,252.5,229.6z"/>
			<path id="path72-0-2-8-1-2-4-6_2_" inkscape:connector-curvature="0" class="st4" d="M288.5,229.6c-5.1,0-9.2-3.9-9.2-8.8
				c0-4.9,4.1-8.8,9.2-8.8l0,0c5.1,0,9.2,3.9,9.2,8.8C297.7,225.7,293.6,229.6,288.5,229.6z"/>
		</g>
	</g>
</g>
<g>
	<path class="st1" d="M13.3,45.4c0.1,0.7-0.2,1.1-1,1.2c-0.2,0-0.6,0-1.4,0c-1.1,0-2-0.1-2.7,0c0.2,2.6,0.2,4,0.2,4.4
		c-0.1,0.9-0.4,1.5-0.9,1.5c-0.7,0.1-1.1-0.3-1.2-1.2c0,0,0-0.5-0.1-1.5c0-1.1-0.1-2.2-0.2-3.2c-1.3,0.1-2.7,0.3-4,0.4
		c-0.9,0-1.4-0.2-1.5-0.8c-0.1-0.7,0.3-1.2,1.4-1.3c1.1-0.2,2.4-0.3,4-0.4c-0.1-1.4-0.2-2.8-0.4-4.2c0-0.9,0.3-1.4,0.9-1.5
		c0.7-0.1,1.1,0.3,1.3,1.4c0,0.1,0.1,0.6,0.1,1.4c0.1,1,0.2,2,0.3,2.9c2.1,0,3.4,0,3.8,0.1C12.8,44.5,13.3,44.8,13.3,45.4z"/>
	<path class="st1" d="M24.3,38.9c0.6-0.1,1,0.3,1.1,1.1c0,0.2,0,0.7-0.1,1.5c-0.1,1.2-0.2,2.1-0.2,2.8c2.4,0,3.9,0,4.2,0.1
		c0.9,0.1,1.4,0.5,1.4,1c0.1,0.7-0.4,1.1-1.2,1.2c0,0-0.5,0-1.4,0c-1,0-2.1,0-3.1,0c0,1.4,0.1,2.8,0.2,4.2c0,0.9-0.3,1.4-0.9,1.5
		c-0.7,0.1-1.1-0.4-1.2-1.5c-0.1-1.2-0.1-2.5-0.1-4.2c-1.3,0-2.7,0.1-4,0.1c-0.9-0.1-1.3-0.4-1.4-1c-0.1-0.7,0.4-1.2,1.4-1.3
		c0.1,0,0.6,0,1.3-0.1c1,0,1.9-0.1,2.7-0.2c0.1-2.2,0.2-3.5,0.3-4C23.4,39.4,23.8,38.9,24.3,38.9z"/>
	<path class="st1" d="M47.7,45.4c0.1,0.7-0.2,1.1-1,1.2c-0.2,0-0.6,0-1.4,0c-1.1,0-2-0.1-2.7,0c0.2,2.6,0.2,4,0.2,4.4
		c0,0.9-0.4,1.5-0.9,1.5c-0.7,0.1-1.1-0.3-1.2-1.2c0,0,0-0.5-0.1-1.5c0-1.1-0.1-2.2-0.2-3.2c-1.3,0.1-2.7,0.3-4,0.4
		c-0.9,0-1.4-0.2-1.5-0.8c-0.1-0.7,0.3-1.2,1.4-1.3c1.1-0.2,2.4-0.3,4-0.4c-0.1-1.4-0.3-2.8-0.4-4.2c0-0.9,0.3-1.4,0.9-1.5
		c0.7-0.1,1.1,0.3,1.3,1.4c0,0.1,0.1,0.6,0.1,1.4c0.1,1,0.2,2,0.3,2.9c2.1,0,3.4,0,3.8,0.1C47.2,44.5,47.7,44.8,47.7,45.4z"/>
	<path class="st1" d="M64.9,46.8c0,0.7-0.4,1-1.2,0.9c-0.2,0-0.6-0.1-1.4-0.3c-1.1-0.3-1.9-0.5-2.6-0.6c-0.4,2.5-0.6,4-0.7,4.3
		c-0.2,0.9-0.6,1.3-1.2,1.3c-0.7,0-1-0.5-0.9-1.5c0,0,0.1-0.5,0.2-1.5c0.2-1.1,0.3-2.1,0.5-3.2c-1.3-0.2-2.7-0.3-4-0.5
		c-0.9-0.2-1.3-0.5-1.3-1.1c0-0.7,0.6-1.1,1.6-1c1.1,0.1,2.4,0.2,4,0.5c0.2-1.4,0.3-2.8,0.5-4.2c0.2-0.9,0.6-1.3,1.1-1.3
		c0.7,0,1,0.6,1,1.6c0,0.1-0.1,0.6-0.1,1.4c-0.1,1-0.2,2-0.3,2.9c2.1,0.4,3.3,0.7,3.7,0.9C64.5,45.8,64.9,46.2,64.9,46.8z"/>
</g>
<g>
	<path class="st1" d="M12.8,56.6c0.4-0.5,0.2-1.3-0.4-1.5c-0.7-0.3-1.5,0-1.9,0.6c-0.7,0.9-1.7,1.9-2,3c-0.3,1.1,0.5,1.7,1,2.5
		c0.7,1.2,3.2,0,2.5-1.4c-0.1-0.3-0.3-0.5-0.5-0.7c-0.3-0.3-0.3-0.2-0.1-0.5C11.6,57.9,12.3,57.2,12.8,56.6z"/>
	<path class="st1" d="M5,64.9c-0.5-1.4-3.2-0.6-2.7,0.8C2.8,67,2.7,68.4,2,69.6c-1,1.6,1.6,2.2,2.3,1C5.4,68.9,5.7,66.8,5,64.9z"/>
	<path class="st1" d="M48.2,67.1c-1-0.9-3.3,0.7-2,1.8c0.7,0.6,0.9,1.5,0.9,2.4c-0.1,1.6,2.7,1.2,2.8-0.2
		C50,69.5,49.3,68.1,48.2,67.1z"/>
	<path class="st1" d="M52.9,61.5c-0.2-0.9-0.4-1.7-0.5-2.6c-0.1-0.3-0.6-1.8-0.4-2.1c0.4-0.5,0.2-1.3-0.4-1.5
		c-0.7-0.3-1.5,0-1.9,0.6c-0.6,0.8-0.5,1.6-0.3,2.5c0.3,1.3,0.5,2.6,0.8,3.9C50.4,63.8,53.2,63,52.9,61.5z"/>
	<path class="st1" d="M43.4,61L43.4,61L43.4,61l-0.2-0.3c0,0.1-0.1-0.3-0.1-0.3l0-0.3c0,0.1,0.1-0.1,0-0.1l0.1-0.2
		c0.4-0.5,0.2-1.3-0.4-1.5c-0.7-0.3-1.5,0-1.9,0.6c-0.9,1.2-0.8,2.9,0.3,3.9C42.4,63.7,44.7,62.1,43.4,61z"/>
	<path class="st1" d="M10.3,67.4L10.3,67.4z"/>
	<path class="st1" d="M59.1,64.9c-0.5-1.4-3.2-0.6-2.7,0.8c0.5,1.3,0.4,2.7-0.3,3.9c-1,1.6,1.6,2.2,2.3,1
		C59.5,68.9,59.8,66.8,59.1,64.9z"/>
	<path class="st1" d="M64.4,67.4L64.4,67.4z"/>
	<path class="st1" d="M10.7,14.5c-0.5-0.4-1.5-0.3-2,0.2c0.1-0.1-0.1,0.1-0.3,0.1c-0.1,0-0.5,0.1-0.7,0.1c-0.5,0.1-1,0.3-1.4,0.7
		c-1.1,1-0.7,2.6-0.6,3.9c0,0.7,0.6,1.1,1.3,1c0.6,0,1.5-0.5,1.5-1.3c0-0.6-0.1-1.1-0.1-1.7c0-0.1,0-0.3,0-0.4
		c-0.1,0.1-0.6-0.3-0.1-0.1l0.1,0l-0.1-0.2L8.5,17c0.2,0,0.7-0.2,0.9-0.2c0.4-0.1,0.9-0.4,1.2-0.7C11.1,15.7,11.2,14.9,10.7,14.5z"
		/>
	<polygon class="st1" points="11.4,15.3 11.4,15.2 11.4,15.2 	"/>
	<path class="st1" d="M10.9,7.2c-0.1-0.3-0.3-0.6-0.5-0.9C10.2,6.2,10.1,6,9.9,5.9c-0.2-0.1-0.3-0.3-0.2,0C9.3,4.5,6.6,5.3,7,6.8
		c0.1,0.3,0.3,0.6,0.5,0.8c0.2,0.1,0.4,0.2,0.5,0.4c0.4,0.5,0.2,1.3,0.1,1.9c-0.1,0.7,0.8,1.1,1.3,1c0.7-0.1,1.3-0.5,1.5-1.3
		C11.1,8.8,11.2,7.9,10.9,7.2z"/>
	<path class="st1" d="M61.3,18c-1-0.9-3.3,0.7-2,1.8c0.7,0.6,0.9,1.5,0.9,2.4c-0.1,1.6,2.7,1.2,2.8-0.2C63,20.4,62.4,19,61.3,18z"/>
	<path class="st1" d="M49.8,9.9c-0.6-1.6-1.7-3.5-3.5-3.4c-0.9,0-1.6,0.4-2.2,1.1c-0.4,0.5-0.7,1.6-1.2,1.9c-1.6,1-0.1,2.7,1.3,1.9
		c0.9-0.6,1.3-1.3,1.8-2.3L46.1,9l0.1,0c0.4,0.6,0.7,1,1,1.7C47.6,12.1,50.3,11.3,49.8,9.9z"/>
	<path class="st1" d="M58.3,9.7c-0.7-1.2-3.2,0-2.5,1.4c0.1,0.2-0.5,1.3-0.6,1.4c-0.3,0.6-0.5,1.3-0.8,1.9c-0.3,0.7,0.3,1.2,0.9,1.3
		c0.7,0.1,1.5-0.3,1.8-0.9c0.4-0.9,0.8-1.8,1.2-2.8C58.6,11.2,58.8,10.5,58.3,9.7z"/>
	<path class="st1" d="M41.2,15c-0.3-1.5-3-0.7-2.7,0.8c0.1,0.6,0.1,1.3,0,1.9c-0.7-0.8-2.8,0-2.5,1.3c0.4,1.9,2.8,1.9,4,0.9
		C41.3,18.7,41.5,16.7,41.2,15z"/>
	<path class="st1" d="M65,7.2c-0.1-0.3-0.3-0.6-0.5-0.9C64.3,6.2,64.2,6,64,5.9c-0.2-0.1-0.3-0.3-0.2,0c-0.4-1.4-3.2-0.6-2.7,0.8
		c0.1,0.3,0.3,0.6,0.5,0.8c0.2,0.1,0.4,0.2,0.5,0.4c0.4,0.5,0.2,1.3,0.1,1.9c-0.1,0.7,0.8,1.1,1.3,1c0.7-0.1,1.3-0.5,1.5-1.3
		C65.2,8.8,65.3,7.9,65,7.2z"/>
	<path class="st1" d="M37.4,9.3L37.4,9.3z"/>
	<path class="st1" d="M22.8,184.3c-0.6-1.6-1.7-3.5-3.5-3.4c-0.9,0-1.6,0.4-2.2,1.1c-0.4,0.5-0.7,1.6-1.2,1.9
		c-1.6,1-0.1,2.7,1.3,1.9c0.9-0.6,1.3-1.3,1.8-2.3l0.1-0.1l0.1,0c0.4,0.6,0.7,1,1,1.7C20.6,186.5,23.3,185.7,22.8,184.3z"/>
	<path class="st1" d="M31.3,184.2c-0.7-1.2-3.2,0-2.5,1.4c0.1,0.2-0.5,1.3-0.6,1.4c-0.3,0.6-0.5,1.3-0.8,1.9
		c-0.3,0.7,0.3,1.2,0.9,1.3c0.7,0.1,1.5-0.3,1.8-0.9c0.4-0.9,0.8-1.8,1.2-2.8C31.6,185.7,31.7,185,31.3,184.2z"/>
	<path class="st1" d="M27.5,174.7c-1.4-0.5-3,0.5-4.2,1.3c-0.5,0.4-1,1-0.6,1.6c0.4,0.6,1.4,0.6,1.9,0.3c0.3-0.2,1.1-0.9,1.6-0.9
		c0,0,0.1,0.1,0.1,0.2c0.1,0.4,0.1,0.7,0.1,1.1c0,1.6,2.8,1.2,2.8-0.2C29.2,176.6,28.9,175.2,27.5,174.7z"/>
	<path class="st1" d="M12.8,172.8c0.4-0.5,0.2-1.3-0.4-1.5c-0.7-0.3-1.5,0-1.9,0.6c-0.7,0.9-1.7,1.9-2,3c-0.3,1.1,0.5,1.7,1,2.5
		c0.7,1.2,3.2,0,2.5-1.4c-0.1-0.3-0.3-0.5-0.5-0.7c-0.3-0.3-0.3-0.2-0.1-0.5C11.6,174.1,12.3,173.5,12.8,172.8z"/>
	<path class="st1" d="M37.9,181.6c-0.1-0.3-0.3-0.6-0.5-0.9c-0.1-0.1-0.2-0.3-0.4-0.4c-0.2-0.1-0.3-0.3-0.2,0
		c-0.4-1.4-3.2-0.6-2.7,0.8c0.1,0.3,0.3,0.6,0.5,0.8c0.2,0.1,0.4,0.2,0.5,0.4c0.4,0.5,0.2,1.3,0.1,1.9c-0.1,0.7,0.8,1.1,1.3,1
		c0.7-0.1,1.3-0.5,1.5-1.3C38.1,183.2,38.2,182.4,37.9,181.6z"/>
	<path class="st1" d="M5,181.2c-0.5-1.4-3.2-0.6-2.7,0.8c0.5,1.3,0.4,2.7-0.3,3.9c-1,1.6,1.6,2.2,2.3,1C5.4,185.2,5.7,183.1,5,181.2
		z"/>
	<path class="st1" d="M48.2,183.3c-1-0.9-3.3,0.7-2,1.8c0.7,0.6,0.9,1.5,0.9,2.4c-0.1,1.6,2.7,1.2,2.8-0.2
		C50,185.8,49.3,184.3,48.2,183.3z"/>
	<path class="st1" d="M52.9,177.8c-0.2-0.9-0.4-1.7-0.5-2.6c-0.1-0.3-0.6-1.8-0.4-2.1c0.4-0.5,0.2-1.3-0.4-1.5
		c-0.7-0.3-1.5,0-1.9,0.6c-0.6,0.8-0.5,1.6-0.3,2.5c0.3,1.3,0.5,2.6,0.8,3.9C50.4,180.1,53.2,179.3,52.9,177.8z"/>
	<polygon class="st1" points="50.5,165.2 50.5,165.2 50.5,165.2 	"/>
	<polygon class="st1" points="50.2,164.4 50.2,164.4 50.2,164.4 	"/>
	<path class="st1" d="M50.5,165.2L50.5,165.2L50.5,165.2L50.5,165.2l-0.1-0.1c-0.1-0.1-0.2-0.2-0.2-0.4c0-0.1,0-0.2,0-0.3l0-0.1
		l-0.1,0l0.1,0l0,0c0.6-0.2,1.2-0.8,1-1.5c-0.2-0.7-1.1-0.9-1.7-0.7c-1.3,0.4-2.4,1.7-2.1,3.2c0.2,1.4,1.6,2.1,2.9,2.1
		c0.6,0,1.4-0.5,1.5-1.3C51.8,165.5,51.1,165.2,50.5,165.2z"/>
	<path class="st1" d="M15.7,162.7l-0.1,0.2l-0.3,0c-0.2,0-0.4,0-0.6-0.1c-0.7-0.1-1.5,0.2-1.8,0.9c-0.2,0.7,0.3,1.3,0.9,1.3
		c1.6,0.2,3.9-0.1,4.5-2C18.8,161.5,16.1,161.4,15.7,162.7z"/>
	<path class="st1" d="M5.4,163.1c-0.4-0.6-1.3-0.6-1.9-0.3c-2,1.1-3.9,4.6-2.2,6.7c0.9,1.1,3.4-0.2,2.5-1.4
		c-0.5-0.6-0.4-1.2-0.1-1.8c0.2-0.5,0.6-1.4,1.1-1.6C5.4,164.4,5.8,163.7,5.4,163.1z"/>
	<path class="st1" d="M43.4,177.2L43.4,177.2L43.4,177.2l-0.2-0.3c0,0.1-0.1-0.3-0.1-0.3l0-0.3c0,0.1,0.1-0.1,0-0.1l0.1-0.2
		c0.4-0.5,0.2-1.3-0.4-1.5c-0.7-0.3-1.5,0-1.9,0.6c-0.9,1.2-0.8,2.9,0.3,3.9C42.4,180,44.7,178.4,43.4,177.2z"/>
	<path class="st1" d="M10.3,183.7L10.3,183.7z"/>
	<path class="st1" d="M59.1,181.2c-0.5-1.4-3.2-0.6-2.7,0.8c0.5,1.3,0.4,2.7-0.3,3.9c-1,1.6,1.6,2.2,2.3,1
		C59.5,185.2,59.8,183.1,59.1,181.2z"/>
	<path class="st1" d="M59.5,163.1c-0.4-0.6-1.3-0.6-1.9-0.3c-2,1.1-3.9,4.6-2.2,6.7c0.9,1.1,3.4-0.2,2.5-1.4
		c-0.5-0.6-0.4-1.2-0.1-1.8c0.2-0.5,0.6-1.4,1.1-1.6C59.5,164.4,59.9,163.7,59.5,163.1z"/>
	<path class="st1" d="M64.4,183.7L64.4,183.7z"/>
	<path class="st1" d="M6.7,113.5c-0.3-0.7-1.1-1.3-1.3-2c-0.3-1,0.5-2,1-2.7c1-1.5-1.5-2.1-2.3-1c-0.8,1.1-1.6,2.4-1.5,3.8
		c0.1,1.4,1.2,2.1,1.7,3.3C4.8,116.1,7.3,114.9,6.7,113.5z"/>
	<path class="st1" d="M13.6,128.9c-0.5-0.4-1.5-0.3-2,0.2c0.1-0.1-0.1,0.1-0.3,0.1c-0.1,0-0.5,0.1-0.7,0.1c-0.5,0.1-1,0.3-1.4,0.7
		c-1.1,1-0.7,2.6-0.6,3.9c0,0.7,0.6,1.1,1.3,1c0.6,0,1.5-0.5,1.5-1.3c0-0.6-0.1-1.1-0.1-1.7c0-0.1,0-0.3,0-0.4
		c-0.1,0.1-0.6-0.3-0.1-0.1l0.1,0l-0.1-0.2l0.1,0.2c0.2,0,0.7-0.2,0.9-0.2c0.4-0.1,0.9-0.4,1.2-0.7C14,130.1,14.1,129.4,13.6,128.9z
		"/>
	<polygon class="st1" points="11.4,131.5 11.4,131.5 11.4,131.5 	"/>
	<path class="st1" d="M10.9,123.4c-0.1-0.3-0.3-0.6-0.5-0.9c-0.1-0.1-0.2-0.3-0.4-0.4c-0.2-0.1-0.3-0.3-0.2,0
		c-0.4-1.4-3.2-0.6-2.7,0.8c0.1,0.3,0.3,0.6,0.5,0.8c0.2,0.1,0.4,0.2,0.5,0.4c0.4,0.5,0.2,1.3,0.1,1.9c-0.1,0.7,0.8,1.1,1.3,1
		c0.7-0.1,1.3-0.5,1.5-1.3C11.1,125.1,11.2,124.2,10.9,123.4z"/>
	<path class="st1" d="M5.6,143.8c0,0.4-0.1,0.8-0.1,1.3c0,0.1-0.1,0.4-0.1,0.7c-0.3,0-0.6,0-1,0.1c-0.6,0.1-1.3,0.8-1.1,1.5
		c0.2,0.7,1.1,0.8,1.7,0.7c-0.2,0.1,0.3,0.1,0.3,0.1c0.3,0,0.6,0,0.8,0c0.7-0.1,1.3-0.4,1.7-1c0.3-0.5,0.4-1,0.5-1.5
		c0.1-0.7,0.2-1.3,0.2-2C8.6,142,5.8,142.4,5.6,143.8z"/>
	<path class="st1" d="M19,59.4c-1.3-0.6-3.1,1.3-1.5,2.1c-0.1-0.1,0.1,0.1,0.1,0.1l0.1,0.2l0,0l0,0.1c0.1,0.3,0.1,0.4,0,0.7
		c-0.3,0.7,0.3,1.2,0.9,1.3c0.7,0.1,1.5-0.3,1.8-0.9C21,61.6,20.3,60.1,19,59.4z"/>
	<path class="st1" d="M4.9,155.7c-0.3-0.5-0.9-0.8-1.4-1.1l-0.1-0.1l-0.1-0.1l0-0.1c0.3-0.5,0-1.1-0.5-1.4c-0.7-0.3-1.5,0-1.9,0.6
		c-0.6,0.8-0.4,1.8,0.2,2.4c0.3,0.3,0.6,0.5,1,0.7l0.2,0.1l0.1,0.1c0.1,0.1,0.1,0.1,0.1,0l0.1,0.2C3.1,158.3,5.7,157.1,4.9,155.7z"
		/>
	<path class="st1" d="M21.2,125.2c-1-0.9-3.3,0.7-2,1.8c0.7,0.6,0.9,1.5,0.9,2.4c-0.1,1.6,2.7,1.2,2.8-0.2
		C22.9,127.6,22.3,126.2,21.2,125.2z"/>
	<path class="st1" d="M15.2,108.4c-0.2-0.3-0.5-0.4-0.8-0.5c-0.7-0.1-1.4,0.2-1.7,0.9l0,0l-0.1,0.1l0,0l-0.1,0.1l-0.1,0l-0.1,0
		c-0.3,0.1-0.6,0.3-0.8,0.6c-0.2,0.2-0.3,0.6-0.2,0.9c0.2,0.7,1.1,0.9,1.7,0.7c1-0.3,1.8-1,2.3-2C15.4,109,15.3,108.6,15.2,108.4z"
		/>
	<path class="st1" d="M21.4,136.1c-0.3-1.5-3-0.7-2.7,0.8c0.1,0.4,0,0.8-0.1,1.1c-0.2,0.3-0.3,0.4-0.6,0.5c-0.6,0.3-1,1-0.6,1.6
		c0.4,0.6,1.3,0.5,1.9,0.3C20.9,139.7,21.8,137.8,21.4,136.1z"/>
	<path class="st1" d="M11.4,150.3c-0.2,0.6-0.3,1.2-0.7,1.7l-0.2,0.2l-0.1,0l-0.1-0.1c-1.1-0.9-3.4,0.8-2,1.8c1.1,0.8,2.6,0.7,3.7,0
		c1.2-0.7,1.7-2,2.1-3.3C14.6,149.1,11.8,149,11.4,150.3z"/>
	<path class="st1" d="M22.6,143.8c-1.6-0.2-2.9,0.5-4.2,1.4c-1,0.7-1.8,2.2-0.5,3.1c0.6,0.4,1.4,0.3,2-0.2c0.4-0.3,0.6-1,0.3-1.4
		c0.1-0.1,0.3-0.2,0.4-0.3c0.3-0.2,0.7-0.5,1.1-0.4c0.7,0.1,1.5-0.3,1.8-0.9C23.7,144.5,23.2,143.9,22.6,143.8z"/>
	<path class="st1" d="M15,102.2c-0.8-1.8-2.8-2.7-4.6-2c-0.6,0.2-1.3,0.8-1.1,1.5c0.2,0.7,1.1,0.9,1.7,0.7c0.3-0.1,0.3-0.1,0.7,0
		c0.3,0.1,0.5,0.3,0.6,0.6c0.3,0.7,1,0.9,1.7,0.7C14.5,103.5,15.3,102.8,15,102.2z"/>
	<path class="st1" d="M16.4,119.1L16.4,119.1L16.4,119.1l-0.2-0.3c0,0.1-0.1-0.3-0.1-0.3l0-0.3c0,0.1,0.1-0.1,0-0.1l0.1-0.2
		c0.4-0.5,0.2-1.3-0.4-1.5c-0.7-0.3-1.5,0-1.9,0.6c-0.9,1.2-0.8,2.9,0.3,3.9C15.4,121.8,17.7,120.2,16.4,119.1z"/>
	<path class="st1" d="M49.8,126.2c-0.6-1.6-1.7-3.5-3.5-3.4c-0.9,0-1.6,0.4-2.2,1.1c-0.4,0.5-0.7,1.6-1.2,1.9
		c-1.6,1-0.1,2.7,1.3,1.9c0.9-0.6,1.3-1.3,1.8-2.3l0.1-0.1l0.1,0c0.4,0.6,0.7,1,1,1.7C47.6,128.4,50.3,127.6,49.8,126.2z"/>
	<path class="st1" d="M58.3,126c-0.7-1.2-3.2,0-2.5,1.4c0.1,0.2-0.5,1.3-0.6,1.4c-0.3,0.6-0.5,1.3-0.8,1.9c-0.3,0.7,0.3,1.2,0.9,1.3
		c0.7,0.1,1.5-0.3,1.8-0.9c0.4-0.9,0.8-1.8,1.2-2.8C58.6,127.5,58.8,126.8,58.3,126z"/>
	<path class="st1" d="M54.5,116.6c-1.4-0.5-3,0.5-4.2,1.3c-0.5,0.4-1,1-0.6,1.6c0.4,0.6,1.4,0.6,1.9,0.3c0.3-0.2,1.1-0.9,1.6-0.9
		c0,0,0.1,0.1,0.1,0.2c0.1,0.4,0.1,0.7,0.1,1.1c0,1.6,2.8,1.2,2.8-0.2C56.2,118.5,55.9,117,54.5,116.6z"/>
	<path class="st1" d="M41.2,131.3c-0.3-1.5-3-0.7-2.7,0.8c0.1,0.6,0.1,1.3,0,1.9c-0.7-0.8-2.8,0-2.5,1.3c0.4,1.9,2.8,1.9,4,0.9
		C41.3,135,41.5,133,41.2,131.3z"/>
	<path class="st1" d="M45.5,138.8c-0.8-1.2-3.4,0.1-2.5,1.4c0.5,0.8,0.5,2.9-0.9,2.5c-0.7-0.2-1.5,0-1.9,0.6
		c-0.4,0.5-0.2,1.3,0.4,1.5c1.7,0.5,3.5,0.1,4.7-1.3C46.4,142.2,46.4,140.2,45.5,138.8z"/>
	<path class="st1" d="M58.6,136.3c-1.4-0.4-2.8-0.6-4.1,0.4c-0.5,0.4-0.8,0.9-0.9,1.6c-0.1,0.5,0.2,1.1,0,1.5
		c-0.3,0.6,0.3,1.3,0.9,1.3c0.7,0.1,1.4-0.3,1.8-0.9c0.2-0.3,0.2-0.7,0.2-1c0,0,0-0.6,0-0.8c0.2,0,0.6,0.1,0.7,0.1
		c0.7,0.2,1.5,0,1.9-0.6C59.4,137.3,59.3,136.5,58.6,136.3z"/>
	<path class="st1" d="M51.5,111.1c-0.2-1.4-1.7-2.2-2.9-2.1c-0.7,0-1.4,0.4-1.9,0.9c-0.5,0.5-0.8,1.1-1.3,1.5
		c-0.5,0.4-0.6,1.2-0.1,1.6c0.6,0.5,1.5,0.3,2-0.2c0.4-0.3,1-0.9,1.3-1.4l0.1,0.1c0.1,0.1,0.1,0.3,0.1,0.4c0.1,0.7,1.1,0.8,1.7,0.7
		C51.1,112.4,51.6,111.8,51.5,111.1z"/>
	<path class="st1" d="M60.8,113.5c-0.3-0.7-1.1-1.3-1.3-2c-0.3-1,0.5-2,1-2.7c1-1.5-1.5-2.1-2.3-1c-0.8,1.1-1.6,2.4-1.5,3.8
		c0.1,1.4,1.2,2.1,1.7,3.3C58.9,116.1,61.4,114.9,60.8,113.5z"/>
	<path class="st1" d="M65,123.4c-0.1-0.3-0.3-0.6-0.5-0.9c-0.1-0.1-0.2-0.3-0.4-0.4c-0.2-0.1-0.3-0.3-0.2,0
		c-0.4-1.4-3.2-0.6-2.7,0.8c0.1,0.3,0.3,0.6,0.5,0.8c0.2,0.1,0.4,0.2,0.5,0.4c0.4,0.5,0.2,1.3,0.1,1.9c-0.1,0.7,0.8,1.1,1.3,1
		c0.7-0.1,1.3-0.5,1.5-1.3C65.2,125.1,65.3,124.2,65,123.4z"/>
	<path class="st1" d="M59.7,143.8c0,0.4-0.1,0.8-0.1,1.3c0,0.1-0.1,0.4-0.1,0.7c-0.3,0-0.6,0-1,0.1c-0.6,0.1-1.3,0.8-1.1,1.5
		c0.2,0.7,1.1,0.8,1.7,0.7c-0.2,0.1,0.3,0.1,0.3,0.1c0.3,0,0.6,0,0.8,0c0.7-0.1,1.3-0.4,1.7-1c0.3-0.5,0.4-1,0.5-1.5
		c0.1-0.7,0.2-1.3,0.2-2C62.7,142,59.9,142.4,59.7,143.8z"/>
	<path class="st1" d="M52.4,149.6c-0.1-0.7-0.5-1.3-0.9-1.9c-0.1-0.2-0.3-0.4-0.4-0.7l0-0.3l0-0.1c0,0-0.1,0.1-0.2,0.1l0.2-0.1
		l0.1-0.1c0.4-0.4,0.7-0.9,0.3-1.4c-0.4-0.6-1.4-0.6-1.9-0.3c-1,0.6-1.4,1.6-1.2,2.8c0.2,1.1,1.1,1.7,1.3,2.8
		C50,151.9,52.7,151.1,52.4,149.6z"/>
	<polygon class="st1" points="51.1,146.6 51.1,146.6 51.1,146.6 	"/>
	<path class="st1" d="M19.6,19.9c-0.3-1.1-1.4-1.4-2.3-1.1c-0.9,0.3-1.4,1.1-2,1.9l-0.2,0.1c-1.2,0.6-1.5,2.1-1.2,3.4
		c0.3,1.5,3,0.7,2.7-0.8c0-0.1,0-0.3,0-0.4c0.2,0,0.3,0,0.5,0c0.5,0,1-0.2,1.5-0.5C19.3,21.9,19.9,20.9,19.6,19.9z"/>
	<path class="st1" d="M59,155.7c-0.3-0.5-0.9-0.8-1.4-1.1l-0.1-0.1l-0.1-0.1l0-0.1c0.3-0.5,0-1.1-0.5-1.4c-0.7-0.3-1.5,0-1.9,0.6
		c-0.6,0.8-0.4,1.8,0.2,2.4c0.3,0.3,0.6,0.5,1,0.7l0.2,0.1l0.1,0.1c0.1,0.1,0.1,0.1,0.1,0l0.1,0.2C57.2,158.3,59.8,157.1,59,155.7z"
		/>
	<path class="st1" d="M31.6,137.1c-0.4-0.3-0.7-1.1-0.3-1.3c0.5-0.3,1-1,0.6-1.6c-0.4-0.6-1.3-0.6-1.9-0.3c-0.9,0.5-1.5,1.4-1.7,2.4
		c-0.1,1,0.4,2,1.2,2.6c0.6,0.4,1.4,0.3,2-0.2C32,138.3,32.2,137.5,31.6,137.1z"/>
	<path class="st1" d="M57.2,99.2c-0.6-0.5-1.4-0.2-2,0.2c-0.9,0.7-1.8,1.5-2.2,2.6c-0.4,1.3,0.1,2.4,0.7,3.4c0.8,1.2,3.3,0,2.5-1.4
		c-0.4-0.6-0.8-1.2-0.5-1.9c0.2-0.6,0.9-1,1.3-1.3C57.6,100.4,57.7,99.6,57.2,99.2z"/>
	<path class="st1" d="M40,100.5l-0.1,0.2l-0.3,0c-0.2,0-0.4,0-0.6-0.1c-0.7-0.1-1.5,0.2-1.8,0.9c-0.2,0.7,0.3,1.3,0.9,1.3
		c1.6,0.2,3.9-0.1,4.5-2C43.1,99.3,40.4,99.2,40,100.5z"/>
	<path class="st1" d="M48.4,94.5c-1.2-0.1-2.4,0.1-3.4,0.8c-0.5,0.4-0.6,1.2-0.1,1.6c0.6,0.5,1.4,0.3,2-0.2c0,0,0.3,0,0.4,0l0.2,0
		c0,1.3,2.3,1.2,2.7,0C50.7,95.5,49.6,94.6,48.4,94.5z"/>
	<path class="st1" d="M37.4,125.6L37.4,125.6z"/>
	<path class="st1" d="M5.4,54.6c-0.7-1.2-3.2,0-2.5,1.4c0.1,0.2-0.5,1.3-0.6,1.4c-0.3,0.6-0.5,1.3-0.8,1.9c-0.3,0.7,0.3,1.2,0.9,1.3
		c0.7,0.1,1.5-0.3,1.8-0.9c0.4-0.9,0.8-1.8,1.2-2.8C5.7,56.1,5.9,55.4,5.4,54.6z"/>
	<path class="st1" d="M14.2,73.1c-0.3-1.5-3-0.7-2.7,0.8c0.1,0.6,0.1,1.3,0,1.9c-0.7-0.8-2.8,0-2.5,1.3c0.4,1.9,2.8,1.9,4,0.9
		C14.3,76.9,14.5,74.8,14.2,73.1z"/>
	<path class="st1" d="M18.4,80.7c-0.8-1.2-3.4,0.1-2.5,1.4c0.5,0.8,0.5,2.9-0.9,2.5c-0.7-0.2-1.5,0-1.9,0.6
		c-0.4,0.5-0.2,1.3,0.4,1.5c1.7,0.5,3.5,0.1,4.7-1.3C19.3,84,19.4,82.1,18.4,80.7z"/>
	<path class="st1" d="M63.2,54.4c-0.5-0.4-1.5-0.3-2,0.2c0.1-0.1-0.1,0.1-0.3,0.1c-0.1,0-0.5,0.1-0.7,0.1c-0.5,0.1-1,0.3-1.4,0.7
		c-1.1,1-0.7,2.6-0.6,3.9c0,0.7,0.6,1.1,1.3,1c0.6,0,1.5-0.5,1.5-1.3c0-0.6-0.1-1.1-0.1-1.7c0-0.1,0-0.3,0-0.4
		c-0.1,0.1-0.6-0.3-0.1-0.1l0.1,0l-0.1-0.2L61,57c0.2,0,0.7-0.2,0.9-0.2c0.4-0.1,0.9-0.4,1.2-0.7C63.6,55.6,63.7,54.9,63.2,54.4z"/>
	<path class="st1" d="M32.7,85.6c0,0.4-0.1,0.8-0.1,1.3c0,0.1-0.1,0.4-0.1,0.7c-0.3,0-0.6,0-1,0.1c-0.6,0.1-1.3,0.8-1.1,1.5
		c0.2,0.7,1.1,0.8,1.7,0.7c-0.2,0.1,0.3,0.1,0.3,0.1c0.3,0,0.6,0,0.8,0c0.7-0.1,1.3-0.4,1.7-1c0.3-0.5,0.4-1,0.5-1.5
		c0.1-0.7,0.2-1.3,0.2-2C35.6,83.9,32.8,84.2,32.7,85.6z"/>
	<path class="st1" d="M25.3,91.5c-0.1-0.7-0.5-1.3-0.9-1.9c-0.1-0.2-0.3-0.4-0.4-0.7l0-0.3l0-0.1c0,0-0.1,0.1-0.2,0.1l0.2-0.1
		l0.1-0.1c0.4-0.4,0.7-0.9,0.3-1.4c-0.4-0.6-1.4-0.6-1.9-0.3c-1,0.6-1.4,1.6-1.2,2.8c0.2,1.1,1.1,1.7,1.3,2.8
		C22.9,93.8,25.7,93,25.3,91.5z"/>
	<polygon class="st1" points="24,88.5 24.1,88.4 24,88.5 	"/>
	<path class="st1" d="M17,90.1c-0.3-0.7-1-0.9-1.7-0.7c-0.5,0.1-1.4,0.8-1.1,1.5c0.1,0.3,0.6,1.1,0.4,1.5c-0.1,0.1-0.3,0.2-0.4,0.3
		c-0.3,0.2-0.5,0.5-0.7,0.8c-0.9,1.6,1.7,2.2,2.3,1c0.2-0.3,0.4-0.4,0.7-0.6c0.3-0.3,0.6-0.7,0.8-1.2C17.6,91.8,17.3,90.9,17,90.1z"
		/>
	<path class="st1" d="M5,64.9c-0.5-1.4-3.2-0.6-2.7,0.8C2.8,67,2.7,68.4,2,69.6c-1,1.6,1.6,2.2,2.3,1C5.4,68.9,5.7,66.8,5,64.9z"/>
	<path class="st1" d="M31.9,97.6c-0.3-0.5-0.9-0.8-1.4-1.1l-0.1-0.1l-0.1-0.1l0-0.1c0.3-0.5,0-1.1-0.5-1.4c-0.7-0.3-1.5,0-1.9,0.6
		c-0.6,0.8-0.4,1.8,0.2,2.4c0.3,0.3,0.6,0.5,1,0.7l0.2,0.1l0.1,0.1c0.1,0.1,0.1,0.1,0.1,0l0.1,0.2C30.2,100.2,32.7,99,31.9,97.6z"/>
	<path class="st1" d="M48.2,67.1c-1-0.9-3.3,0.7-2,1.8c0.7,0.6,0.9,1.5,0.9,2.4c-0.1,1.6,2.7,1.2,2.8-0.2
		C50,69.5,49.3,68.1,48.2,67.1z"/>
	<path class="st1" d="M7.3,89.9c-0.4-0.4-0.9-0.7-1.1-1.3c-0.1-0.2-0.1-0.4,0-0.6l0.2,0c0.6-0.1,1.4-0.5,1.5-1.3
		c0-0.7-0.7-1.1-1.3-1c-1.4,0.2-2.9,0.9-3.1,2.6c-0.2,1.5,0.9,2.6,1.9,3.4C6.3,92.6,8.5,91,7.3,89.9z"/>
	<path class="st1" d="M4.5,78.9c-0.4-0.3-0.7-1.1-0.3-1.3c0.5-0.3,1-1,0.6-1.6c-0.4-0.6-1.3-0.6-1.9-0.3c-0.9,0.5-1.5,1.4-1.7,2.4
		c-0.1,1,0.4,2,1.2,2.6c0.6,0.4,1.4,0.3,2-0.2C4.9,80.2,5.1,79.4,4.5,78.9z"/>
	<path class="st1" d="M48.5,77.9c-0.3-1.5-3-0.7-2.7,0.8c0.1,0.4,0,0.8-0.1,1.1c-0.2,0.3-0.3,0.4-0.6,0.5c-0.6,0.3-1,1-0.6,1.6
		c0.4,0.6,1.3,0.5,1.9,0.3C47.9,81.5,48.9,79.7,48.5,77.9z"/>
	<path class="st1" d="M49,18.8c-0.2,0.6-0.3,1.2-0.7,1.7l-0.2,0.2l-0.1,0l-0.1-0.1c-1.1-0.9-3.4,0.8-2,1.8c1.1,0.8,2.6,0.7,3.7,0
		c1.2-0.7,1.7-2,2.1-3.3C52.1,17.6,49.4,17.5,49,18.8z"/>
	<path class="st1" d="M49.6,85.7c-1.6-0.2-2.9,0.5-4.2,1.4c-1,0.7-1.8,2.2-0.5,3.1c0.6,0.4,1.4,0.3,2-0.2c0.4-0.3,0.6-1,0.3-1.4
		c0.1-0.1,0.3-0.2,0.4-0.3c0.3-0.2,0.7-0.5,1.1-0.4c0.7,0.1,1.5-0.3,1.8-0.9C50.8,86.3,50.2,85.8,49.6,85.7z"/>
	<path class="st1" d="M59.1,64.9c-0.5-1.4-3.2-0.6-2.7,0.8c0.5,1.3,0.4,2.7-0.3,3.9c-1,1.6,1.6,2.2,2.3,1
		C59.5,68.9,59.8,66.8,59.1,64.9z"/>
	<path class="st1" d="M61.3,89.9c-0.4-0.4-0.9-0.7-1.1-1.3c-0.1-0.2-0.1-0.4,0-0.6l0.2,0c0.6-0.1,1.4-0.5,1.5-1.3
		c0-0.7-0.7-1.1-1.3-1c-1.4,0.2-2.9,0.9-3.1,2.6c-0.2,1.5,0.9,2.6,1.9,3.4C60.3,92.6,62.6,91,61.3,89.9z"/>
	<path class="st1" d="M58.6,78.9c-0.4-0.3-0.7-1.1-0.3-1.3c0.5-0.3,1-1,0.6-1.6c-0.4-0.6-1.3-0.6-1.9-0.3c-0.9,0.5-1.5,1.4-1.7,2.4
		c-0.1,1,0.4,2,1.2,2.6c0.6,0.4,1.4,0.3,2-0.2C59,80.2,59.2,79.4,58.6,78.9z"/>
	<path class="st1" d="M12.8,289.1c0.4-0.5,0.2-1.3-0.4-1.5c-0.7-0.3-1.5,0-1.9,0.6c-0.7,0.9-1.7,1.9-2,3c-0.3,1.1,0.5,1.7,1,2.5
		c0.7,1.2,3.2,0,2.5-1.4c-0.1-0.3-0.3-0.5-0.5-0.7c-0.3-0.3-0.3-0.2-0.1-0.5C11.6,290.4,12.3,289.7,12.8,289.1z"/>
	<path class="st1" d="M24.5,285.5c-0.2-1.4-1.7-2.2-2.9-2.1c-0.7,0-1.4,0.4-1.9,0.9c-0.5,0.5-0.8,1.1-1.3,1.5
		c-0.5,0.4-0.6,1.2-0.1,1.6c0.6,0.5,1.5,0.3,2-0.2c0.4-0.3,1-0.9,1.3-1.4l0.1,0.1c0.1,0.1,0.1,0.3,0.1,0.4c0.1,0.7,1.1,0.8,1.7,0.7
		C24,286.8,24.6,286.2,24.5,285.5z"/>
	<path class="st1" d="M33.7,287.9c-0.3-0.7-1.1-1.3-1.3-2c-0.3-1,0.5-2,1-2.7c1-1.5-1.5-2.1-2.3-1c-0.8,1.1-1.6,2.4-1.5,3.8
		c0.1,1.4,1.2,2.1,1.7,3.3C31.8,290.5,34.4,289.3,33.7,287.9z"/>
	<path class="st1" d="M5,297.5c-0.5-1.4-3.2-0.6-2.7,0.8c0.5,1.3,0.4,2.7-0.3,3.9c-1,1.6,1.6,2.2,2.3,1C5.4,301.4,5.7,299.4,5,297.5
		z"/>
	<path class="st1" d="M20.5,278c-0.3-1.1-1.4-1.4-2.3-1.1c-0.9,0.3-1.4,1.1-2,1.9l-0.2,0.1c-1.2,0.6-1.4,2.1-1.2,3.4
		c0.3,1.5,3,0.7,2.7-0.8c0-0.1,0-0.3,0-0.4c0.2,0,0.3,0,0.5,0c0.5,0,1-0.2,1.5-0.5C20.2,280,20.8,279,20.5,278z"/>
	<path class="st1" d="M48.2,299.6c-1-0.9-3.3,0.7-2,1.8c0.7,0.6,0.9,1.5,0.9,2.4c-0.1,1.6,2.7,1.2,2.8-0.2
		C50,302,49.3,300.6,48.2,299.6z"/>
	<path class="st1" d="M42.2,282.8c-0.2-0.3-0.5-0.4-0.8-0.5c-0.7-0.1-1.4,0.2-1.7,0.9l0,0l-0.1,0.1l0,0l-0.1,0.1l-0.1,0l-0.1,0
		c-0.3,0.1-0.6,0.3-0.8,0.6c-0.2,0.2-0.3,0.6-0.2,0.9c0.2,0.7,1,0.9,1.7,0.7c1-0.3,1.8-1,2.3-2C42.4,283.4,42.4,283.1,42.2,282.8z"
		/>
	<path class="st1" d="M52.9,294.1c-0.2-0.9-0.4-1.7-0.5-2.6c-0.1-0.3-0.6-1.8-0.4-2.1c0.4-0.5,0.2-1.3-0.4-1.5
		c-0.7-0.3-1.5,0-1.9,0.6c-0.6,0.8-0.5,1.6-0.3,2.5c0.3,1.3,0.5,2.6,0.8,3.9C50.4,296.3,53.2,295.5,52.9,294.1z"/>
	<path class="st1" d="M42.1,276.6c-0.8-1.8-2.8-2.7-4.6-2c-0.6,0.2-1.3,0.8-1.1,1.5c0.2,0.7,1.1,0.9,1.7,0.7c0.3-0.1,0.3-0.1,0.7,0
		c0.3,0.1,0.5,0.3,0.6,0.6c0.3,0.7,1,0.9,1.7,0.7C41.5,277.9,42.3,277.3,42.1,276.6z"/>
	<path class="st1" d="M49.3,272.5c-0.8-1.8-2.8-2.7-4.6-2c-0.6,0.2-1.3,0.8-1.1,1.5c0.2,0.7,1.1,0.9,1.7,0.7c0.3-0.1,0.3-0.1,0.7,0
		c0.3,0.1,0.5,0.3,0.6,0.6c0.3,0.7,1,0.9,1.7,0.7C48.7,273.8,49.5,273.2,49.3,272.5z"/>
	<polygon class="st1" points="50.5,281.5 50.5,281.5 50.5,281.5 	"/>
	<polygon class="st1" points="50.2,280.7 50.2,280.7 50.2,280.7 	"/>
	<path class="st1" d="M50.5,281.5L50.5,281.5L50.5,281.5L50.5,281.5l-0.1-0.1c-0.1-0.1-0.2-0.2-0.2-0.4c0-0.1,0-0.2,0-0.3l0-0.1
		l-0.1,0l0.1,0l0,0c0.6-0.2,1.2-0.8,1-1.5c-0.2-0.7-1.1-0.9-1.7-0.7c-1.3,0.4-2.4,1.7-2.1,3.2c0.2,1.4,1.6,2.1,2.9,2.1
		c0.6,0,1.4-0.5,1.5-1.3C51.8,281.8,51.1,281.5,50.5,281.5z"/>
	<path class="st1" d="M46.7,254.6L46.7,254.6L46.7,254.6L46.7,254.6l-0.1-0.1c-0.1-0.1-0.2-0.2-0.2-0.4c0-0.1,0-0.2,0-0.3l0-0.1
		l-0.1,0l0.1,0l0,0c0.6-0.2,1.2-0.8,1-1.5s-1.1-0.9-1.7-0.7c-1.3,0.4-2.4,1.7-2.1,3.2c0.2,1.4,1.6,2.1,2.9,2.1
		c0.6,0,1.4-0.5,1.5-1.3C48,254.9,47.3,254.6,46.7,254.6z"/>
	<path class="st1" d="M30.1,273.6c-0.6-0.5-1.4-0.2-2,0.2c-0.9,0.7-1.8,1.5-2.2,2.6c-0.4,1.3,0.1,2.4,0.7,3.4c0.8,1.2,3.3,0,2.5-1.4
		c-0.4-0.6-0.8-1.2-0.5-1.9c0.2-0.6,0.9-1,1.3-1.3C30.6,274.8,30.7,274,30.1,273.6z"/>
	<path class="st1" d="M13,275l-0.1,0.2l-0.3,0c-0.2,0-0.4,0-0.6-0.1c-0.7-0.1-1.5,0.2-1.8,0.9c-0.2,0.7,0.3,1.3,0.9,1.3
		c1.6,0.2,3.9-0.1,4.5-2C16.1,273.7,13.3,273.6,13,275z"/>
	<path class="st1" d="M21.4,268.9c-1.2-0.1-2.4,0.1-3.4,0.8c-0.5,0.4-0.6,1.2-0.1,1.6c0.6,0.5,1.4,0.3,2-0.2c0,0,0.3,0,0.4,0l0.2,0
		c0,1.3,2.3,1.2,2.7,0C23.6,269.9,22.6,269,21.4,268.9z"/>
	<path class="st1" d="M5.4,279.4c-0.4-0.6-1.3-0.6-1.9-0.3c-2,1.1-3.9,4.6-2.2,6.7c0.9,1.1,3.4-0.2,2.5-1.4
		c-0.5-0.6-0.4-1.2-0.1-1.8c0.2-0.5,0.6-1.4,1.1-1.6C5.4,280.7,5.8,280,5.4,279.4z"/>
	<path class="st1" d="M43.4,293.5L43.4,293.5L43.4,293.5l-0.2-0.3c0,0.1-0.1-0.3-0.1-0.3l0-0.3c0,0.1,0.1-0.1,0-0.1l0.1-0.2
		c0.4-0.5,0.2-1.3-0.4-1.5c-0.7-0.3-1.5,0-1.9,0.6c-0.9,1.2-0.8,2.9,0.3,3.9C42.4,296.2,44.7,294.6,43.4,293.5z"/>
	<path class="st1" d="M10.3,300L10.3,300z"/>
	<path class="st1" d="M59.1,297.5c-0.5-1.4-3.2-0.6-2.7,0.8c0.5,1.3,0.4,2.7-0.3,3.9c-1,1.6,1.6,2.2,2.3,1
		C59.5,301.4,59.8,299.4,59.1,297.5z"/>
	<path class="st1" d="M59.5,279.4c-0.4-0.6-1.3-0.6-1.9-0.3c-2,1.1-3.9,4.6-2.2,6.7c0.9,1.1,3.4-0.2,2.5-1.4
		c-0.5-0.6-0.4-1.2-0.1-1.8c0.2-0.5,0.6-1.4,1.1-1.6C59.5,280.7,59.9,280,59.5,279.4z"/>
	<path class="st1" d="M64.4,300L64.4,300z"/>
	<polygon class="st1" points="11.4,247.8 11.4,247.8 11.4,247.8 	"/>
	<path class="st1" d="M5.6,260.1c0,0.4-0.1,0.8-0.1,1.3c0,0.1-0.1,0.4-0.1,0.7c-0.3,0-0.6,0-1,0.1c-0.6,0.1-1.3,0.8-1.1,1.5
		c0.2,0.7,1.1,0.8,1.7,0.7c-0.2,0.1,0.3,0.1,0.3,0.1c0.3,0,0.6,0,0.8,0c0.7-0.1,1.3-0.4,1.7-1c0.3-0.5,0.4-1,0.5-1.5
		c0.1-0.7,0.2-1.3,0.2-2C8.6,258.3,5.8,258.6,5.6,260.1z"/>
	<path class="st1" d="M12.1,254.9c-1.3-0.6-3.1,1.3-1.5,2.1c-0.1-0.1,0.1,0.1,0.1,0.1l0.1,0.2l0,0l0,0.1c0.1,0.3,0.1,0.4,0,0.7
		c-0.3,0.7,0.3,1.2,0.9,1.3c0.7,0.1,1.5-0.3,1.8-0.9C14.2,257.1,13.4,255.6,12.1,254.9z"/>
	<path class="st1" d="M4.9,272c-0.3-0.5-0.9-0.8-1.4-1.1l-0.1-0.1l-0.1-0.1l0-0.1c0.3-0.5,0-1.1-0.5-1.4c-0.7-0.3-1.5,0-1.9,0.6
		c-0.6,0.8-0.4,1.8,0.2,2.4c0.3,0.3,0.6,0.5,1,0.7l0.2,0.1l0.1,0.1c0.1,0.1,0.1,0.1,0.1,0l0.1,0.2C3.1,274.6,5.7,273.4,4.9,272z"/>
	<path class="st1" d="M21.4,252.4c-0.3-1.5-3-0.7-2.7,0.8c0.1,0.4,0,0.8-0.1,1.1c-0.2,0.3-0.3,0.4-0.6,0.5c-0.6,0.3-1,1-0.6,1.6
		c0.4,0.6,1.3,0.5,1.9,0.3C20.9,256,21.8,254.1,21.4,252.4z"/>
	<path class="st1" d="M11.4,266.6c-0.2,0.6-0.3,1.2-0.7,1.7l-0.2,0.2l-0.1,0l-0.1-0.1c-1.1-0.9-3.4,0.8-2,1.8c1.1,0.8,2.6,0.7,3.7,0
		c1.2-0.7,1.7-2,2.1-3.3C14.6,265.4,11.8,265.3,11.4,266.6z"/>
	<path class="st1" d="M5.4,252.6c-0.2,0.6-0.3,1.2-0.7,1.7l-0.2,0.2l-0.1,0l-0.1-0.1c-1.1-0.9-3.4,0.8-2,1.8c1.1,0.8,2.6,0.7,3.7,0
		c1.2-0.7,1.7-2,2.1-3.3C8.6,251.3,5.8,251.2,5.4,252.6z"/>
	<path class="st1" d="M15,218.4c-0.8-1.8-2.8-2.7-4.6-2c-0.6,0.2-1.3,0.8-1.1,1.5c0.2,0.7,1.1,0.9,1.7,0.7c0.3-0.1,0.3-0.1,0.7,0
		c0.3,0.1,0.5,0.3,0.6,0.6c0.3,0.7,1,0.9,1.7,0.7C14.5,219.8,15.3,219.1,15,218.4z"/>
	<polygon class="st1" points="23.5,223.3 23.5,223.3 23.5,223.3 	"/>
	<polygon class="st1" points="23.2,222.5 23.2,222.5 23.2,222.5 	"/>
	<path class="st1" d="M58.6,252.6c-1.4-0.4-2.8-0.6-4.1,0.4c-0.5,0.4-0.8,0.9-0.9,1.6c-0.1,0.5,0.2,1.1,0,1.5
		c-0.3,0.6,0.3,1.3,0.9,1.3c0.7,0.1,1.4-0.3,1.8-0.9c0.2-0.3,0.2-0.7,0.2-1c0,0,0-0.6,0-0.8c0.2,0,0.6,0.1,0.7,0.1
		c0.7,0.2,1.5,0,1.9-0.6C59.4,253.6,59.3,252.8,58.6,252.6z"/>
	<path class="st1" d="M59.7,260.1c0,0.4-0.1,0.8-0.1,1.3c0,0.1-0.1,0.4-0.1,0.7c-0.3,0-0.6,0-1,0.1c-0.6,0.1-1.3,0.8-1.1,1.5
		c0.2,0.7,1.1,0.8,1.7,0.7c-0.2,0.1,0.3,0.1,0.3,0.1c0.3,0,0.6,0,0.8,0c0.7-0.1,1.3-0.4,1.7-1c0.3-0.5,0.4-1,0.5-1.5
		c0.1-0.7,0.2-1.3,0.2-2C62.7,258.3,59.9,258.6,59.7,260.1z"/>
	<path class="st1" d="M52.4,265.9c-0.1-0.7-0.5-1.3-0.9-1.9c-0.1-0.2-0.3-0.4-0.4-0.7l0-0.3l0-0.1c0,0-0.1,0.1-0.2,0.1l0.2-0.1
		l0.1-0.1c0.4-0.4,0.7-0.9,0.3-1.4c-0.4-0.6-1.4-0.6-1.9-0.3c-1,0.6-1.4,1.6-1.2,2.8c0.2,1.1,1.1,1.7,1.3,2.8
		C50,268.2,52.7,267.4,52.4,265.9z"/>
	<polygon class="st1" points="51.1,262.9 51.1,262.9 51.1,262.9 	"/>
	<path class="st1" d="M47.5,219.9c-0.3-1.1-1.4-1.4-2.3-1.1c-0.9,0.3-1.4,1.1-2,1.9l-0.2,0.1c-1.2,0.6-1.5,2.1-1.2,3.4
		c0.3,1.5,3,0.7,2.7-0.8c0-0.1,0-0.3,0-0.4c0.2,0,0.3,0,0.5,0c0.5,0,1-0.2,1.5-0.5C47.2,221.9,47.8,220.9,47.5,219.9z"/>
	<path class="st1" d="M59,272c-0.3-0.5-0.9-0.8-1.4-1.1l-0.1-0.1l-0.1-0.1l0-0.1c0.3-0.5,0-1.1-0.5-1.4c-0.7-0.3-1.5,0-1.9,0.6
		c-0.6,0.8-0.4,1.8,0.2,2.4c0.3,0.3,0.6,0.5,1,0.7l0.2,0.1l0.1,0.1c0.1,0.1,0.1,0.1,0.1,0l0.1,0.2C57.2,274.6,59.8,273.4,59,272z"/>
	<path class="st1" d="M57.2,215.4c-0.6-0.5-1.4-0.2-2,0.2c-0.9,0.7-1.8,1.5-2.2,2.6c-0.4,1.3,0.1,2.4,0.7,3.4c0.8,1.2,3.3,0,2.5-1.4
		c-0.4-0.6-0.8-1.2-0.5-1.9c0.2-0.6,0.9-1,1.3-1.3C57.6,216.7,57.7,215.9,57.2,215.4z"/>
	<path class="st1" d="M48.4,210.8c-1.2-0.1-2.4,0.1-3.4,0.8c-0.5,0.4-0.6,1.2-0.1,1.6c0.6,0.5,1.4,0.3,2-0.2c0,0,0.3,0,0.4,0l0.2,0
		c0,1.3,2.3,1.2,2.7,0C50.7,211.8,49.6,210.9,48.4,210.8z"/>
	<path class="st1" d="M22.8,184.3c-0.6-1.6-1.7-3.5-3.5-3.4c-0.9,0-1.6,0.4-2.2,1.1c-0.4,0.5-0.7,1.6-1.2,1.9
		c-1.6,1-0.1,2.7,1.3,1.9c0.9-0.6,1.3-1.3,1.8-2.3l0.1-0.1l0.1,0c0.4,0.6,0.7,1,1,1.7C20.6,186.5,23.3,185.7,22.8,184.3z"/>
	<path class="st1" d="M31.3,184.2c-0.7-1.2-3.2,0-2.5,1.4c0.1,0.2-0.5,1.3-0.6,1.4c-0.3,0.6-0.5,1.3-0.8,1.9
		c-0.3,0.7,0.3,1.2,0.9,1.3c0.7,0.1,1.5-0.3,1.8-0.9c0.4-0.9,0.8-1.8,1.2-2.8C31.6,185.7,31.7,185,31.3,184.2z"/>
	<path class="st1" d="M14.2,189.4c-0.3-1.5-3-0.7-2.7,0.8c0.1,0.6,0.1,1.3,0,1.9c-0.7-0.8-2.8,0-2.5,1.3c0.4,1.9,2.8,1.9,4,0.9
		C14.3,193.2,14.5,191.1,14.2,189.4z"/>
	<path class="st1" d="M5.8,217.7c-0.3-1.5-3-0.7-2.7,0.8c0.1,0.6,0.1,1.3,0,1.9c-0.7-0.8-2.8,0-2.5,1.3c0.4,1.9,2.8,1.9,4,0.9
		C5.9,221.4,6.1,219.3,5.8,217.7z"/>
	<path class="st1" d="M18.4,197c-0.8-1.2-3.4,0.1-2.5,1.4c0.5,0.8,0.5,2.9-0.9,2.5c-0.7-0.2-1.5,0-1.9,0.6c-0.4,0.5-0.2,1.3,0.4,1.5
		c1.7,0.5,3.5,0.1,4.7-1.3C19.3,200.3,19.4,198.4,18.4,197z"/>
	<path class="st1" d="M40.6,187.1c-0.5-0.4-1.5-0.3-2,0.2c0.1-0.1-0.1,0.1-0.3,0.1c-0.1,0-0.5,0.1-0.7,0.1c-0.5,0.1-1,0.3-1.4,0.7
		c-1.1,1-0.7,2.6-0.6,3.9c0,0.7,0.6,1.1,1.3,1c0.6,0,1.5-0.5,1.5-1.3c0-0.6-0.1-1.1-0.1-1.7c0-0.1,0-0.3,0-0.4
		c-0.1,0.1-0.6-0.3-0.1-0.1l0.1,0l-0.1-0.2l0.1,0.2c0.2,0,0.7-0.2,0.9-0.2c0.4-0.1,0.9-0.4,1.2-0.7C41,188.3,41.2,187.5,40.6,187.1z
		"/>
	<path class="st1" d="M25.6,217.1c-0.5-0.4-1.5-0.3-2,0.2c0.1-0.1-0.1,0.1-0.3,0.1c-0.1,0-0.5,0.1-0.7,0.1c-0.5,0.1-1,0.3-1.4,0.7
		c-1.1,1-0.7,2.6-0.6,3.9c0,0.7,0.6,1.1,1.3,1c0.6,0,1.5-0.5,1.5-1.3c0-0.6-0.1-1.1-0.1-1.7c0-0.1,0-0.3,0-0.4
		c-0.1,0.1-0.6-0.3-0.1-0.1l0.1,0l-0.1-0.2l0.1,0.2c0.2,0,0.7-0.2,0.9-0.2c0.4-0.1,0.9-0.4,1.2-0.7C26,218.3,26.2,217.6,25.6,217.1z
		"/>
	<polygon class="st1" points="38.4,189.7 38.4,189.6 38.4,189.6 	"/>
	<path class="st1" d="M32.6,22.3c-0.1-0.3-0.3-0.6-0.5-0.9c-0.1-0.1-0.2-0.3-0.4-0.4c-0.2-0.1-0.3-0.3-0.2,0
		c-0.4-1.4-3.2-0.6-2.7,0.8c0.1,0.3,0.3,0.6,0.5,0.8c0.2,0.1,0.4,0.2,0.5,0.4c0.4,0.5,0.2,1.3,0.1,1.9c-0.1,0.7,0.8,1.1,1.3,1
		c0.7-0.1,1.3-0.5,1.5-1.3C32.8,24,32.9,23.1,32.6,22.3z"/>
	<path class="st1" d="M17,206.4c-0.3-0.7-1-0.9-1.7-0.7c-0.5,0.1-1.4,0.8-1.1,1.5c0.1,0.3,0.6,1.1,0.4,1.5c-0.1,0.1-0.3,0.2-0.4,0.3
		c-0.3,0.2-0.5,0.5-0.7,0.8c-0.9,1.6,1.7,2.2,2.3,1c0.2-0.3,0.4-0.4,0.7-0.6c0.3-0.3,0.6-0.7,0.8-1.2
		C17.6,208.1,17.3,207.2,17,206.4z"/>
	<path class="st1" d="M5,181.2c-0.5-1.4-3.2-0.6-2.7,0.8c0.5,1.3,0.4,2.7-0.3,3.9c-1,1.6,1.6,2.2,2.3,1C5.4,185.2,5.7,183.1,5,181.2
		z"/>
	<path class="st1" d="M48.2,183.3c-1-0.9-3.3,0.7-2,1.8c0.7,0.6,0.9,1.5,0.9,2.4c-0.1,1.6,2.7,1.2,2.8-0.2
		C50,185.8,49.3,184.3,48.2,183.3z"/>
	<path class="st1" d="M7.3,206.2c-0.4-0.4-0.9-0.7-1.1-1.3c-0.1-0.2-0.1-0.4,0-0.6l0.2,0c0.6-0.1,1.4-0.5,1.5-1.3
		c0-0.7-0.7-1.1-1.3-1c-1.4,0.2-2.9,0.9-3.1,2.6c-0.2,1.5,0.9,2.6,1.9,3.4C6.3,208.9,8.5,207.3,7.3,206.2z"/>
	<path class="st1" d="M4.5,195.2c-0.4-0.3-0.7-1.1-0.3-1.3c0.5-0.3,1-1,0.6-1.6c-0.4-0.6-1.3-0.6-1.9-0.3c-0.9,0.5-1.5,1.4-1.7,2.4
		c-0.1,1,0.4,2,1.2,2.6c0.6,0.4,1.4,0.3,2-0.2C4.9,196.4,5.1,195.7,4.5,195.2z"/>
	<path class="st1" d="M48.5,194.2c-0.3-1.5-3-0.7-2.7,0.8c0.1,0.4,0,0.8-0.1,1.1c-0.2,0.3-0.3,0.4-0.6,0.5c-0.6,0.3-1,1-0.6,1.6
		c0.4,0.6,1.3,0.5,1.9,0.3C47.9,197.8,48.9,196,48.5,194.2z"/>
	<path class="st1" d="M49.6,202c-1.6-0.2-2.9,0.5-4.2,1.4c-1,0.7-1.8,2.2-0.5,3.1c0.6,0.4,1.4,0.3,2-0.2c0.4-0.3,0.6-1,0.3-1.4
		c0.1-0.1,0.3-0.2,0.4-0.3c0.3-0.2,0.7-0.5,1.1-0.4c0.7,0.1,1.5-0.3,1.8-0.9C50.8,202.6,50.2,202,49.6,202z"/>
	<path class="st1" d="M59.1,181.2c-0.5-1.4-3.2-0.6-2.7,0.8c0.5,1.3,0.4,2.7-0.3,3.9c-1,1.6,1.6,2.2,2.3,1
		C59.5,185.2,59.8,183.1,59.1,181.2z"/>
	<path class="st1" d="M61.3,206.2c-0.4-0.4-0.9-0.7-1.1-1.3c-0.1-0.2-0.1-0.4,0-0.6l0.2,0c0.6-0.1,1.4-0.5,1.5-1.3
		c0-0.7-0.7-1.1-1.3-1c-1.4,0.2-2.9,0.9-3.1,2.6c-0.2,1.5,0.9,2.6,1.9,3.4C60.3,208.9,62.6,207.3,61.3,206.2z"/>
	<path class="st1" d="M58.6,195.2c-0.4-0.3-0.7-1.1-0.3-1.3c0.5-0.3,1-1,0.6-1.6c-0.4-0.6-1.3-0.6-1.9-0.3c-0.9,0.5-1.5,1.4-1.7,2.4
		c-0.1,1,0.4,2,1.2,2.6c0.6,0.4,1.4,0.3,2-0.2C59,196.4,59.2,195.7,58.6,195.2z"/>
	<path class="st1" d="M22.8,416.9c-0.6-1.6-1.7-3.5-3.5-3.4c-0.9,0-1.6,0.4-2.2,1.1c-0.4,0.5-0.7,1.6-1.2,1.9
		c-1.6,1-0.1,2.7,1.3,1.9c0.9-0.6,1.3-1.3,1.8-2.3L19,416l0.1,0c0.4,0.6,0.7,1,1,1.7C20.6,419.1,23.3,418.3,22.8,416.9z"/>
	<path class="st1" d="M31.3,416.7c-0.7-1.2-3.2,0-2.5,1.4c0.1,0.2-0.5,1.3-0.6,1.4c-0.3,0.6-0.5,1.3-0.8,1.9
		c-0.3,0.7,0.3,1.2,0.9,1.3c0.7,0.1,1.5-0.3,1.8-0.9c0.4-0.9,0.8-1.8,1.2-2.8C31.6,418.2,31.7,417.5,31.3,416.7z"/>
	<path class="st1" d="M27.5,407.3c-1.4-0.5-3,0.5-4.2,1.3c-0.5,0.3-1,1-0.6,1.6c0.4,0.6,1.4,0.6,1.9,0.3c0.3-0.2,1.1-0.9,1.6-0.9
		c0,0,0.1,0.1,0.1,0.2c0.1,0.4,0.1,0.7,0.1,1.1c0,1.6,2.8,1.2,2.8-0.2C29.2,409.2,28.9,407.7,27.5,407.3z"/>
	<path class="st1" d="M12.8,405.4c0.4-0.5,0.2-1.3-0.4-1.5c-0.7-0.3-1.5,0-1.9,0.6c-0.7,0.9-1.7,1.9-2,3c-0.3,1.1,0.5,1.7,1,2.5
		c0.7,1.2,3.2,0,2.5-1.4c-0.1-0.3-0.3-0.5-0.5-0.7c-0.3-0.3-0.3-0.2-0.1-0.5C11.6,406.7,12.3,406,12.8,405.4z"/>
	<path class="st1" d="M37.9,414.2c-0.1-0.3-0.3-0.6-0.5-0.9c-0.1-0.1-0.2-0.3-0.4-0.4c-0.2-0.1-0.3-0.3-0.2,0
		c-0.4-1.4-3.2-0.6-2.7,0.8c0.1,0.3,0.3,0.6,0.5,0.8c0.2,0.1,0.4,0.2,0.5,0.4c0.4,0.5,0.2,1.4,0.1,1.9c-0.1,0.7,0.8,1.1,1.3,1
		c0.7-0.1,1.3-0.5,1.5-1.3C38.1,415.8,38.2,414.9,37.9,414.2z"/>
	<path class="st1" d="M5,413.8c-0.5-1.4-3.2-0.6-2.7,0.8c0.5,1.3,0.4,2.7-0.3,3.9c-1,1.6,1.6,2.2,2.3,1C5.4,417.7,5.7,415.7,5,413.8
		z"/>
	<path class="st1" d="M48.2,415.9c-1-0.9-3.3,0.7-2,1.8c0.7,0.6,0.9,1.5,0.9,2.4c-0.1,1.6,2.7,1.2,2.8-0.2
		C50,418.3,49.3,416.9,48.2,415.9z"/>
	<path class="st1" d="M52.9,410.3c-0.2-0.9-0.4-1.7-0.5-2.6c-0.1-0.3-0.6-1.8-0.4-2.1c0.4-0.5,0.2-1.3-0.4-1.5
		c-0.7-0.3-1.5,0-1.9,0.6c-0.6,0.8-0.5,1.6-0.3,2.5c0.3,1.3,0.5,2.6,0.8,3.9C50.4,412.6,53.2,411.8,52.9,410.3z"/>
	<polygon class="st1" points="50.5,397.8 50.5,397.8 50.5,397.8 	"/>
	<polygon class="st1" points="50.2,396.9 50.2,396.9 50.2,396.9 	"/>
	<path class="st1" d="M50.5,397.8L50.5,397.8L50.5,397.8L50.5,397.8l-0.1-0.1c-0.1-0.1-0.2-0.2-0.2-0.4c0-0.1,0-0.2,0-0.3l0-0.1
		l-0.1,0l0.1,0l0,0c0.6-0.2,1.2-0.8,1-1.5c-0.2-0.7-1.1-0.9-1.7-0.7c-1.3,0.4-2.4,1.7-2.1,3.2c0.2,1.4,1.6,2.1,2.9,2.1
		c0.6,0,1.4-0.5,1.5-1.3C51.8,398.1,51.1,397.8,50.5,397.8z"/>
	<path class="st1" d="M13,391.2l-0.1,0.2l-0.3,0c-0.2,0-0.4,0-0.6-0.1c-0.7-0.1-1.5,0.2-1.8,0.9c-0.2,0.7,0.3,1.3,0.9,1.3
		c1.6,0.2,3.9-0.1,4.5-2C16.1,390,13.3,389.9,13,391.2z"/>
	<path class="st1" d="M5.4,395.7c-0.4-0.6-1.3-0.6-1.9-0.3c-2,1.1-3.9,4.6-2.2,6.7c0.9,1.1,3.4-0.2,2.5-1.4
		c-0.5-0.6-0.4-1.2-0.1-1.8c0.2-0.5,0.6-1.4,1.1-1.6C5.4,397,5.8,396.3,5.4,395.7z"/>
	<path class="st1" d="M43.4,409.8L43.4,409.8L43.4,409.8l-0.2-0.3c0,0.1-0.1-0.3-0.1-0.3l0-0.3c0,0.1,0.1-0.1,0-0.1l0.1-0.2
		c0.4-0.5,0.2-1.3-0.4-1.5c-0.7-0.3-1.5,0-1.9,0.6c-0.9,1.2-0.8,2.9,0.3,3.9C42.4,412.5,44.7,410.9,43.4,409.8z"/>
	<path class="st1" d="M10.3,416.3L10.3,416.3z"/>
	<path class="st1" d="M59.1,413.8c-0.5-1.4-3.2-0.6-2.7,0.8c0.5,1.3,0.4,2.7-0.3,3.9c-1,1.6,1.6,2.2,2.3,1
		C59.5,417.7,59.8,415.7,59.1,413.8z"/>
	<path class="st1" d="M59.5,395.7c-0.4-0.6-1.3-0.6-1.9-0.3c-2,1.1-3.9,4.6-2.2,6.7c0.9,1.1,3.4-0.2,2.5-1.4
		c-0.5-0.6-0.4-1.2-0.1-1.8c0.2-0.5,0.6-1.4,1.1-1.6C59.5,397,59.9,396.3,59.5,395.7z"/>
	<path class="st1" d="M64.4,416.3L64.4,416.3z"/>
	<path class="st1" d="M6.7,346c-0.3-0.7-1.1-1.3-1.3-2c-0.3-1,0.5-2,1-2.7c1-1.5-1.5-2.1-2.3-1c-0.8,1.1-1.6,2.4-1.5,3.8
		c0.1,1.4,1.2,2.1,1.7,3.3C4.8,348.7,7.3,347.5,6.7,346z"/>
	<path class="st1" d="M10.7,361.7c-0.5-0.4-1.5-0.3-2,0.2c0.1-0.1-0.1,0.1-0.3,0.1c-0.1,0-0.5,0.1-0.7,0.1c-0.5,0.1-1,0.3-1.4,0.7
		c-1.1,1-0.7,2.6-0.6,3.9c0,0.7,0.6,1.1,1.3,1c0.6,0,1.5-0.5,1.5-1.3c0-0.6-0.1-1.1-0.1-1.7c0-0.1,0-0.3,0-0.4
		c-0.1,0.1-0.6-0.3-0.1-0.1l0.1,0l-0.1-0.2l0.1,0.2c0.2,0,0.7-0.2,0.9-0.2c0.4-0.1,0.9-0.4,1.2-0.7
		C11.1,362.8,11.3,362.1,10.7,361.7z"/>
	<path class="st1" d="M7.8,329.6c-0.5-0.4-1.5-0.3-2,0.2c0.1-0.1-0.1,0.1-0.3,0.1c-0.1,0-0.5,0.1-0.7,0.1c-0.5,0.1-1,0.3-1.4,0.7
		c-1.1,1-0.7,2.6-0.6,3.9c0,0.7,0.6,1.1,1.3,1c0.6,0,1.5-0.5,1.5-1.3c0-0.6-0.1-1.1-0.1-1.7c0-0.1,0-0.3,0-0.4
		c-0.1,0.1-0.6-0.3-0.1-0.1l0.1,0L5.6,332l0.1,0.2c0.2,0,0.7-0.2,0.9-0.2c0.4-0.1,0.9-0.4,1.2-0.7C8.2,330.8,8.4,330.1,7.8,329.6z"
		/>
	<polygon class="st1" points="11.4,364.1 11.4,364 11.4,364 	"/>
	<polygon class="st1" points="11.4,364.5 11.4,364.5 11.4,364.5 	"/>
	<path class="st1" d="M8.6,354.5c-0.1-0.3-0.3-0.6-0.5-0.9c-0.1-0.1-0.2-0.3-0.4-0.4c-0.2-0.1-0.3-0.3-0.2,0
		c-0.4-1.4-3.2-0.6-2.7,0.8c0.1,0.3,0.3,0.6,0.5,0.8c0.2,0.1,0.4,0.2,0.5,0.4c0.4,0.5,0.2,1.4,0.1,1.9c-0.1,0.7,0.8,1.1,1.3,1
		c0.7-0.1,1.3-0.5,1.5-1.3C8.8,356.1,8.9,355.2,8.6,354.5z"/>
	<path class="st1" d="M6.6,373.6c0,0.4-0.1,0.8-0.1,1.3c0,0.1-0.1,0.4-0.1,0.7c-0.3,0-0.6,0-1,0.1c-0.6,0.1-1.3,0.8-1.1,1.5
		c0.2,0.7,1.1,0.8,1.7,0.7c-0.2,0.1,0.3,0.1,0.3,0.1c0.3,0,0.6,0,0.8,0c0.7-0.1,1.3-0.4,1.7-1c0.3-0.5,0.4-1,0.5-1.5
		c0.1-0.7,0.2-1.3,0.2-2C9.5,371.8,6.7,372.1,6.6,373.6z"/>
	<path class="st1" d="M13.6,366.7c-1.3-0.6-3.1,1.3-1.5,2.1c-0.1-0.1,0.1,0.1,0.1,0.1l0.1,0.2l0,0l0,0.1c0.1,0.3,0.1,0.4,0,0.7
		c-0.3,0.7,0.3,1.2,0.9,1.3c0.7,0.1,1.5-0.3,1.8-0.9C15.6,368.9,14.9,367.4,13.6,366.7z"/>
	<path class="st1" d="M21.2,357.8c-1-0.9-3.3,0.7-2,1.8c0.7,0.6,0.9,1.5,0.9,2.4c-0.1,1.6,2.7,1.2,2.8-0.2
		C22.9,360.2,22.3,358.8,21.2,357.8z"/>
	<path class="st1" d="M15.2,341c-0.2-0.3-0.5-0.4-0.8-0.5c-0.7-0.1-1.4,0.2-1.7,0.9l0,0l-0.1,0.1l0,0l-0.1,0.1l-0.1,0l-0.1,0
		c-0.3,0.1-0.6,0.3-0.8,0.6c-0.2,0.2-0.3,0.6-0.2,0.9c0.2,0.7,1.1,0.9,1.7,0.7c1-0.3,1.8-1,2.3-2C15.4,341.6,15.3,341.2,15.2,341z"
		/>
	<path class="st1" d="M17.5,398.2c-0.2-0.3-0.5-0.4-0.8-0.5c-0.7-0.1-1.4,0.2-1.7,0.9l0,0l-0.1,0.1l0,0l-0.1,0.1l-0.1,0l-0.1,0
		c-0.3,0.1-0.6,0.3-0.8,0.6c-0.2,0.2-0.3,0.6-0.2,0.9c0.2,0.7,1.1,0.9,1.7,0.7c1-0.3,1.8-1,2.3-2C17.7,398.9,17.7,398.5,17.5,398.2z
		"/>
	<path class="st1" d="M21.4,368.6c-0.3-1.5-3-0.7-2.7,0.8c0.1,0.4,0,0.8-0.1,1.1c-0.2,0.3-0.3,0.4-0.6,0.5c-0.6,0.3-1,1-0.6,1.6
		c0.4,0.6,1.3,0.5,1.9,0.3C20.9,372.2,21.8,370.4,21.4,368.6z"/>
	<path class="st1" d="M9.5,383.6c-0.2,0.6-0.3,1.2-0.7,1.7l-0.2,0.2l-0.1,0l-0.1-0.1c-1.1-0.9-3.4,0.8-2,1.8c1.1,0.8,2.6,0.7,3.7,0
		c1.2-0.7,1.7-2,2.1-3.3C12.6,382.3,9.9,382.2,9.5,383.6z"/>
	<path class="st1" d="M22.6,376.4c-1.6-0.2-2.9,0.5-4.2,1.4c-1,0.7-1.8,2.2-0.5,3.1c0.6,0.4,1.4,0.3,2-0.2c0.4-0.3,0.6-1,0.3-1.4
		c0.1-0.1,0.3-0.2,0.4-0.3c0.3-0.2,0.7-0.5,1.1-0.4c0.7,0.1,1.5-0.3,1.8-0.9C23.7,377,23.2,376.5,22.6,376.4z"/>
	<path class="st1" d="M15,334.7c-0.8-1.8-2.8-2.7-4.6-2c-0.6,0.2-1.3,0.8-1.1,1.5c0.2,0.7,1.1,0.9,1.7,0.7c0.3-0.1,0.3-0.1,0.7,0
		c0.3,0.1,0.5,0.3,0.6,0.6c0.3,0.7,1,0.9,1.7,0.7C14.5,336.1,15.3,335.4,15,334.7z"/>
	<polygon class="st1" points="23.5,339.6 23.5,339.6 23.5,339.6 	"/>
	<polygon class="st1" points="23.2,338.8 23.2,338.8 23.2,338.8 	"/>
	<path class="st1" d="M16.4,351.7L16.4,351.7L16.4,351.7l-0.2-0.3c0,0.1-0.1-0.3-0.1-0.3l0-0.3c0,0.1,0.1-0.1,0-0.1l0.1-0.2
		c0.4-0.5,0.2-1.3-0.4-1.5c-0.7-0.3-1.5,0-1.9,0.6c-0.9,1.2-0.8,2.9,0.3,3.9C15.4,354.4,17.7,352.8,16.4,351.7z"/>
	<path class="st1" d="M49.8,358.7c-0.6-1.6-1.7-3.5-3.5-3.4c-0.9,0-1.6,0.4-2.2,1.1c-0.4,0.5-0.7,1.6-1.2,1.9
		c-1.6,1-0.1,2.7,1.3,1.9c0.9-0.6,1.3-1.3,1.8-2.3l0.1-0.1l0.1,0c0.4,0.6,0.7,1,1,1.7C47.6,361,50.3,360.1,49.8,358.7z"/>
	<path class="st1" d="M58.3,358.6c-0.7-1.2-3.2,0-2.5,1.4c0.1,0.2-0.5,1.3-0.6,1.4c-0.3,0.6-0.5,1.3-0.8,1.9
		c-0.3,0.7,0.3,1.2,0.9,1.3c0.7,0.1,1.5-0.3,1.8-0.9c0.4-0.9,0.8-1.8,1.2-2.8C58.6,360.1,58.8,359.4,58.3,358.6z"/>
	<path class="st1" d="M54.5,349.1c-1.4-0.5-3,0.5-4.2,1.3c-0.5,0.4-1,1-0.6,1.6c0.4,0.6,1.4,0.6,1.9,0.3c0.3-0.2,1.1-0.9,1.6-0.9
		c0,0,0.1,0.1,0.1,0.2c0.1,0.4,0.1,0.7,0.1,1.1c0,1.6,2.8,1.2,2.8-0.2C56.2,351,55.9,349.6,54.5,349.1z"/>
	<path class="st1" d="M41.2,363.8c-0.3-1.5-3-0.7-2.7,0.8c0.1,0.6,0.1,1.3,0,1.9c-0.7-0.8-2.8,0-2.5,1.3c0.4,1.9,2.8,1.9,4,0.9
		C41.3,367.6,41.5,365.5,41.2,363.8z"/>
	<path class="st1" d="M45.5,371.4c-0.8-1.2-3.4,0.1-2.5,1.4c0.5,0.8,0.5,2.9-0.9,2.5c-0.7-0.2-1.5,0-1.9,0.6
		c-0.4,0.5-0.2,1.3,0.4,1.5c1.7,0.5,3.5,0.1,4.7-1.3C46.4,374.7,46.4,372.8,45.5,371.4z"/>
	<path class="st1" d="M58.6,368.9c-1.4-0.4-2.8-0.6-4.1,0.4c-0.5,0.4-0.8,0.9-0.9,1.6c-0.1,0.5,0.2,1.1,0,1.5
		c-0.3,0.6,0.3,1.3,0.9,1.3c0.7,0.1,1.4-0.3,1.8-0.9c0.2-0.3,0.2-0.7,0.2-1c0,0,0-0.6,0-0.8c0.2,0,0.6,0.1,0.7,0.1
		c0.7,0.2,1.5,0,1.9-0.6C59.4,369.9,59.3,369.1,58.6,368.9z"/>
	<path class="st1" d="M51.5,343.6c-0.2-1.4-1.7-2.2-2.9-2.1c-0.7,0-1.4,0.4-1.9,0.9c-0.5,0.5-0.8,1.1-1.3,1.5
		c-0.5,0.4-0.6,1.2-0.1,1.6c0.6,0.5,1.5,0.3,2-0.2c0.4-0.3,1-0.9,1.3-1.4l0.1,0.1c0.1,0.1,0.1,0.3,0.1,0.4c0.1,0.7,1.1,0.8,1.7,0.7
		C51.1,344.9,51.6,344.4,51.5,343.6z"/>
	<path class="st1" d="M60.8,346c-0.3-0.7-1.1-1.3-1.3-2c-0.3-1,0.5-2,1-2.7c1-1.5-1.5-2.1-2.3-1c-0.8,1.1-1.6,2.4-1.5,3.8
		c0.1,1.4,1.2,2.1,1.7,3.3C58.9,348.7,61.4,347.5,60.8,346z"/>
	<path class="st1" d="M65,356c-0.1-0.3-0.3-0.6-0.5-0.9c-0.1-0.1-0.2-0.3-0.4-0.4c-0.2-0.1-0.3-0.3-0.2,0c-0.4-1.4-3.2-0.6-2.7,0.8
		c0.1,0.3,0.3,0.6,0.5,0.8c0.2,0.1,0.4,0.2,0.5,0.4c0.4,0.5,0.2,1.4,0.1,1.9c-0.1,0.7,0.8,1.1,1.3,1c0.7-0.1,1.3-0.5,1.5-1.3
		C65.2,357.7,65.3,356.8,65,356z"/>
	<path class="st1" d="M50.1,365.3c-0.1-0.3-0.3-0.6-0.5-0.9c-0.1-0.1-0.2-0.3-0.4-0.4c-0.2-0.1-0.3-0.3-0.2,0
		c-0.4-1.4-3.2-0.6-2.7,0.8c0.1,0.3,0.3,0.6,0.5,0.8c0.2,0.1,0.4,0.2,0.5,0.4c0.4,0.5,0.2,1.4,0.1,1.9c-0.1,0.7,0.8,1.1,1.3,1
		c0.7-0.1,1.3-0.5,1.5-1.3C50.3,367,50.4,366.1,50.1,365.3z"/>
	<path class="st1" d="M59.7,376.3c0,0.4-0.1,0.8-0.1,1.3c0,0.1-0.1,0.4-0.1,0.7c-0.3,0-0.6,0-1,0.1c-0.6,0.1-1.3,0.8-1.1,1.5
		c0.2,0.7,1.1,0.8,1.7,0.7c-0.2,0.1,0.3,0.1,0.3,0.1c0.3,0,0.6,0,0.8,0c0.7-0.1,1.3-0.4,1.7-1c0.3-0.5,0.4-1,0.5-1.5
		c0.1-0.7,0.2-1.3,0.2-2C62.7,374.6,59.9,374.9,59.7,376.3z"/>
	<path class="st1" d="M52.4,382.2c-0.1-0.7-0.5-1.3-0.9-1.9c-0.1-0.2-0.3-0.4-0.4-0.7l0-0.3l0-0.1c0,0-0.1,0.1-0.2,0.1l0.2-0.1
		l0.1-0.1c0.4-0.4,0.7-0.9,0.3-1.4c-0.4-0.6-1.4-0.6-1.9-0.3c-1,0.6-1.4,1.6-1.2,2.8c0.2,1.1,1.1,1.7,1.3,2.8
		C50,384.5,52.7,383.7,52.4,382.2z"/>
	<polygon class="st1" points="51.1,379.2 51.1,379.1 51.1,379.2 	"/>
	<path class="st1" d="M44.1,333.7c-0.3-1.1-1.4-1.4-2.3-1.1c-0.9,0.3-1.4,1.1-2,1.9l-0.2,0.1c-1.2,0.6-1.5,2.1-1.2,3.4
		c0.3,1.5,3,0.7,2.7-0.8c0-0.1,0-0.3,0-0.4c0.2,0,0.3,0,0.5,0c0.5,0,1-0.2,1.5-0.5C43.7,335.8,44.3,334.7,44.1,333.7z"/>
	<path class="st1" d="M59,388.3c-0.3-0.5-0.9-0.8-1.4-1.1l-0.1-0.1l-0.1-0.1l0-0.1c0.3-0.5,0-1.1-0.5-1.4c-0.7-0.3-1.5,0-1.9,0.6
		c-0.6,0.8-0.4,1.8,0.2,2.4c0.3,0.3,0.6,0.5,1,0.7l0.2,0.1l0.1,0.1c0.1,0.1,0.1,0.1,0.1,0l0.1,0.2C57.2,390.9,59.8,389.7,59,388.3z"
		/>
	<path class="st1" d="M34.3,380.6c-0.4-0.4-0.9-0.7-1.1-1.3c-0.1-0.2-0.1-0.4,0-0.6l0.2,0c0.6-0.1,1.4-0.5,1.5-1.3
		c0-0.7-0.7-1.1-1.3-1c-1.4,0.2-2.9,0.9-3.1,2.6c-0.2,1.5,0.9,2.6,1.9,3.4C33.3,383.3,35.6,381.7,34.3,380.6z"/>
	<path class="st1" d="M31.6,369.6c-0.4-0.3-0.7-1.1-0.3-1.3c0.5-0.3,1-1,0.6-1.6c-0.4-0.6-1.3-0.6-1.9-0.3c-0.9,0.5-1.5,1.4-1.7,2.4
		c-0.1,1,0.4,2,1.2,2.6c0.6,0.4,1.4,0.3,2-0.2C32,370.9,32.2,370.1,31.6,369.6z"/>
	<path class="st1" d="M57.2,331.7c-0.6-0.5-1.4-0.2-2,0.2c-0.9,0.7-1.8,1.5-2.2,2.6c-0.4,1.3,0.1,2.4,0.7,3.4c0.8,1.2,3.3,0,2.5-1.4
		c-0.4-0.6-0.8-1.2-0.5-1.9c0.2-0.6,0.9-1,1.3-1.3C57.6,332.9,57.7,332.2,57.2,331.7z"/>
	<path class="st1" d="M21.3,338.9l-0.1,0.2l-0.3,0c-0.2,0-0.4,0-0.6-0.1c-0.7-0.1-1.5,0.2-1.8,0.9c-0.2,0.7,0.3,1.3,0.9,1.3
		c1.6,0.2,3.9-0.1,4.5-2C24.4,337.7,21.7,337.6,21.3,338.9z"/>
	<path class="st1" d="M48.4,327.1c-1.2-0.1-2.4,0.1-3.4,0.8c-0.5,0.4-0.6,1.2-0.1,1.6c0.6,0.5,1.4,0.3,2-0.2c0,0,0.3,0,0.4,0l0.2,0
		c0,1.3,2.3,1.2,2.7,0C50.7,328,49.6,327.2,48.4,327.1z"/>
	<path class="st1" d="M14.2,305.7c-0.3-1.5-3-0.7-2.7,0.8c0.1,0.6,0.1,1.3,0,1.9c-0.7-0.8-2.8,0-2.5,1.3c0.4,1.9,2.8,1.9,4,0.9
		C14.3,309.5,14.5,307.4,14.2,305.7z"/>
	<path class="st1" d="M18.4,313.2c-0.8-1.2-3.4,0.1-2.5,1.4c0.5,0.8,0.5,2.9-0.9,2.5c-0.7-0.2-1.5,0-1.9,0.6
		c-0.4,0.5-0.2,1.3,0.4,1.5c1.7,0.5,3.5,0.1,4.7-1.3C19.3,316.6,19.4,314.6,18.4,313.2z"/>
	<path class="st1" d="M25.3,324.1c-0.1-0.7-0.5-1.3-0.9-1.9c-0.1-0.2-0.3-0.4-0.4-0.7l0-0.3l0-0.1c0,0-0.1,0.1-0.2,0.1l0.2-0.1
		l0.1-0.1c0.4-0.4,0.7-0.9,0.3-1.4c-0.4-0.6-1.4-0.6-1.9-0.3c-1,0.6-1.4,1.6-1.2,2.8c0.2,1.1,1.1,1.7,1.3,2.8
		C22.9,326.3,25.7,325.5,25.3,324.1z"/>
	<polygon class="st1" points="24,321.1 24.1,321 24,321.1 	"/>
	<path class="st1" d="M17,322.7c-0.3-0.7-1-0.9-1.7-0.7c-0.5,0.1-1.4,0.8-1.1,1.5c0.1,0.3,0.6,1.1,0.4,1.5c-0.1,0.1-0.3,0.2-0.4,0.3
		c-0.3,0.2-0.5,0.5-0.7,0.8c-0.9,1.6,1.7,2.2,2.3,1c0.2-0.3,0.4-0.4,0.7-0.6c0.3-0.3,0.6-0.7,0.8-1.2
		C17.6,324.4,17.3,323.5,17,322.7z"/>
	<path class="st1" d="M5,297.5c-0.5-1.4-3.2-0.6-2.7,0.8c0.5,1.3,0.4,2.7-0.3,3.9c-1,1.6,1.6,2.2,2.3,1C5.4,301.4,5.7,299.4,5,297.5
		z"/>
	<path class="st1" d="M31.9,330.2c-0.3-0.5-0.9-0.8-1.4-1.1l-0.1-0.1l-0.1-0.1l0-0.1c0.3-0.5,0-1.1-0.5-1.4c-0.7-0.3-1.5,0-1.9,0.6
		c-0.6,0.8-0.4,1.8,0.2,2.4c0.3,0.3,0.6,0.5,1,0.7l0.2,0.1l0.1,0.1c0.1,0.1,0.1,0.1,0.1,0l0.1,0.2C30.2,332.7,32.7,331.5,31.9,330.2
		z"/>
	<path class="st1" d="M22.8,333c-0.3-0.5-0.9-0.8-1.4-1.1l-0.1-0.1l-0.1-0.1l0-0.1c0.3-0.5,0-1.1-0.5-1.4c-0.7-0.3-1.5,0-1.9,0.6
		c-0.6,0.8-0.4,1.8,0.2,2.4c0.3,0.3,0.6,0.5,1,0.7l0.2,0.1l0.1,0.1c0.1,0.1,0.1,0.1,0.1,0l0.1,0.2C21.1,335.5,23.6,334.3,22.8,333z"
		/>
	<path class="st1" d="M17.5,298.5c-0.3-0.5-0.9-0.8-1.4-1.1l-0.1-0.1l-0.1-0.1l0-0.1c0.3-0.5,0-1.1-0.5-1.4c-0.7-0.3-1.5,0-1.9,0.6
		c-0.6,0.8-0.4,1.8,0.2,2.4c0.3,0.3,0.6,0.5,1,0.7l0.2,0.1l0.1,0.1c0.1,0.1,0.1,0.1,0.1,0l0.1,0.2C15.8,301,18.4,299.8,17.5,298.5z"
		/>
	<path class="st1" d="M48.2,299.6c-1-0.9-3.3,0.7-2,1.8c0.7,0.6,0.9,1.5,0.9,2.4c-0.1,1.6,2.7,1.2,2.8-0.2
		C50,302,49.3,300.6,48.2,299.6z"/>
	<path class="st1" d="M7.3,322.5c-0.4-0.4-0.9-0.7-1.1-1.3c-0.1-0.2-0.1-0.4,0-0.6l0.2,0c0.6-0.1,1.4-0.5,1.5-1.3
		c0-0.7-0.7-1.1-1.3-1c-1.4,0.2-2.9,0.9-3.1,2.6c-0.2,1.5,0.9,2.6,1.9,3.4C6.3,325.2,8.5,323.5,7.3,322.5z"/>
	<path class="st1" d="M4.5,311.5c-0.4-0.3-0.7-1.1-0.3-1.3c0.5-0.3,1-1,0.6-1.6c-0.4-0.6-1.3-0.6-1.9-0.3c-0.9,0.5-1.5,1.4-1.7,2.4
		c-0.1,1,0.4,2,1.2,2.6c0.6,0.4,1.4,0.3,2-0.2C4.9,312.7,5.1,311.9,4.5,311.5z"/>
	<path class="st1" d="M48.5,310.5c-0.3-1.5-3-0.7-2.7,0.8c0.1,0.4,0,0.8-0.1,1.1c-0.2,0.3-0.3,0.4-0.6,0.5c-0.6,0.3-1,1-0.6,1.6
		c0.4,0.6,1.3,0.5,1.9,0.3C47.9,314.1,48.9,312.3,48.5,310.5z"/>
	<path class="st1" d="M38.5,324.8c-0.2,0.6-0.3,1.2-0.7,1.7l-0.2,0.2l-0.1,0l-0.1-0.1c-1.1-0.9-3.4,0.8-2,1.8c1.1,0.8,2.6,0.7,3.7,0
		c1.2-0.7,1.7-2,2.1-3.3C41.6,323.5,38.9,323.4,38.5,324.8z"/>
	<path class="st1" d="M49.6,318.2c-1.6-0.2-2.9,0.5-4.2,1.4c-1,0.7-1.8,2.2-0.5,3.1c0.6,0.4,1.4,0.3,2-0.2c0.4-0.3,0.6-1,0.3-1.4
		c0.1-0.1,0.3-0.2,0.4-0.3c0.3-0.2,0.7-0.5,1.1-0.4c0.7,0.1,1.5-0.3,1.8-0.9C50.8,318.9,50.2,318.3,49.6,318.2z"/>
	<path class="st1" d="M59.1,297.5c-0.5-1.4-3.2-0.6-2.7,0.8c0.5,1.3,0.4,2.7-0.3,3.9c-1,1.6,1.6,2.2,2.3,1
		C59.5,301.4,59.8,299.4,59.1,297.5z"/>
	<path class="st1" d="M61.3,322.5c-0.4-0.4-0.9-0.7-1.1-1.3c-0.1-0.2-0.1-0.4,0-0.6l0.2,0c0.6-0.1,1.4-0.5,1.5-1.3
		c0-0.7-0.7-1.1-1.3-1c-1.4,0.2-2.9,0.9-3.1,2.6c-0.2,1.5,0.9,2.6,1.9,3.4C60.3,325.2,62.6,323.5,61.3,322.5z"/>
	<path class="st1" d="M58.6,311.5c-0.4-0.3-0.7-1.1-0.3-1.3c0.5-0.3,1-1,0.6-1.6c-0.4-0.6-1.3-0.6-1.9-0.3c-0.9,0.5-1.5,1.4-1.7,2.4
		c-0.1,1,0.4,2,1.2,2.6c0.6,0.4,1.4,0.3,2-0.2C59,312.7,59.2,311.9,58.6,311.5z"/>
	<path class="st1" d="M15,451c-0.8-1.8-2.8-2.7-4.6-2c-0.6,0.2-1.3,0.8-1.1,1.5c0.2,0.7,1.1,0.9,1.7,0.7c0.3-0.1,0.3-0.1,0.7,0
		c0.3,0.1,0.5,0.3,0.6,0.6c0.3,0.7,1,0.9,1.7,0.7C14.5,452.3,15.3,451.7,15,451z"/>
	<polygon class="st1" points="23.5,455.9 23.5,455.9 23.5,455.9 	"/>
	<polygon class="st1" points="23.2,455.1 23.2,455.1 23.2,455.1 	"/>
	<path class="st1" d="M22.8,416.9c-0.6-1.6-1.7-3.5-3.5-3.4c-0.9,0-1.6,0.4-2.2,1.1c-0.4,0.5-0.7,1.6-1.2,1.9
		c-1.6,1-0.1,2.7,1.3,1.9c0.9-0.6,1.3-1.3,1.8-2.3L19,416l0.1,0c0.4,0.6,0.7,1,1,1.7C20.6,419.1,23.3,418.3,22.8,416.9z"/>
	<path class="st1" d="M31.3,416.7c-0.7-1.2-3.2,0-2.5,1.4c0.1,0.2-0.5,1.3-0.6,1.4c-0.3,0.6-0.5,1.3-0.8,1.9
		c-0.3,0.7,0.3,1.2,0.9,1.3c0.7,0.1,1.5-0.3,1.8-0.9c0.4-0.9,0.8-1.8,1.2-2.8C31.6,418.2,31.7,417.5,31.3,416.7z"/>
	<path class="st1" d="M14.2,422c-0.3-1.5-3-0.7-2.7,0.8c0.1,0.6,0.1,1.3,0,1.9c-0.7-0.8-2.8,0-2.5,1.3c0.4,1.9,2.8,1.9,4,0.9
		C14.3,425.7,14.5,423.7,14.2,422z"/>
	<path class="st1" d="M18.4,429.5c-0.8-1.2-3.4,0.1-2.5,1.4c0.5,0.8,0.5,2.9-0.9,2.5c-0.7-0.2-1.5,0-1.9,0.6
		c-0.4,0.5-0.2,1.3,0.4,1.5c1.7,0.5,3.5,0.1,4.7-1.3C19.3,432.9,19.4,430.9,18.4,429.5z"/>
	<path class="st1" d="M60.9,445.9c-0.5-0.4-1.5-0.3-2,0.2c0.1-0.1-0.1,0.1-0.3,0.1c-0.1,0-0.5,0.1-0.7,0.1c-0.5,0.1-1,0.3-1.4,0.7
		c-1.1,1-0.7,2.6-0.6,3.9c0,0.7,0.6,1.1,1.3,1c0.6,0,1.5-0.5,1.5-1.3c0-0.6-0.1-1.1-0.1-1.7c0-0.1,0-0.3,0-0.4
		c-0.1,0.1-0.6-0.3-0.1-0.1l0.1,0l-0.1-0.2l0.1,0.2c0.2,0,0.7-0.2,0.9-0.2c0.4-0.1,0.9-0.4,1.2-0.7
		C61.3,447.1,61.5,446.3,60.9,445.9z"/>
	<polygon class="st1" points="38.4,422.3 38.4,422.2 38.4,422.2 	"/>
	<path class="st1" d="M43,449.8c-0.1-0.3-0.3-0.6-0.5-0.9c-0.1-0.1-0.2-0.3-0.4-0.4c-0.2-0.1-0.3-0.3-0.2,0
		c-0.4-1.4-3.2-0.6-2.7,0.8c0.1,0.3,0.3,0.6,0.5,0.8c0.2,0.1,0.4,0.2,0.5,0.4c0.4,0.5,0.2,1.4,0.1,1.9c-0.1,0.7,0.8,1.1,1.3,1
		c0.7-0.1,1.3-0.5,1.5-1.3C43.2,451.4,43.3,450.6,43,449.8z"/>
	<polygon class="st1" points="24,437.3 24.1,437.3 24,437.3 	"/>
	<path class="st1" d="M5,413.8c-0.5-1.4-3.2-0.6-2.7,0.8c0.5,1.3,0.4,2.7-0.3,3.9c-1,1.6,1.6,2.2,2.3,1C5.4,417.7,5.7,415.7,5,413.8
		z"/>
	<path class="st1" d="M46.5,441.1c-1-0.9-3.3,0.7-2,1.8c0.7,0.6,0.9,1.5,0.9,2.4c-0.1,1.6,2.7,1.2,2.8-0.2
		C48.3,443.5,47.7,442.1,46.5,441.1z"/>
	<path class="st1" d="M7.3,438.7c-0.4-0.4-0.9-0.7-1.1-1.3c-0.1-0.2-0.1-0.4,0-0.6l0.2,0c0.6-0.1,1.4-0.5,1.5-1.3
		c0-0.7-0.7-1.1-1.3-1c-1.4,0.2-2.9,0.9-3.1,2.6c-0.2,1.5,0.9,2.6,1.9,3.4C6.3,441.4,8.5,439.8,7.3,438.7z"/>
	<path class="st1" d="M4.5,427.8c-0.4-0.3-0.7-1.1-0.3-1.3c0.5-0.3,1-1,0.6-1.6c-0.4-0.6-1.3-0.6-1.9-0.3c-0.9,0.5-1.5,1.4-1.7,2.4
		c-0.1,1,0.4,2,1.2,2.6c0.6,0.4,1.4,0.3,2-0.2C4.9,429,5.1,428.2,4.5,427.8z"/>
</g>
<pattern  id="SVGID_1_" xlink:href="#New_Pattern" patternTransform="matrix(1 0 0 1 -0.141 67.5565)">
</pattern>
<rect x="0.7" y="0.6" class="st5" width="64.7" height="455.3"/>
<g>
	<path class="st1" d="M13.5,235.9c0.1,0.7-0.2,1.1-1,1.2c-0.2,0-0.6,0-1.4,0c-1.1,0-2-0.1-2.7,0c0.2,2.6,0.2,4,0.2,4.4
		c-0.1,0.9-0.4,1.5-0.9,1.5c-0.7,0.1-1.1-0.3-1.2-1.2c0,0,0-0.5-0.1-1.5c0-1.1-0.1-2.2-0.2-3.2c-1.3,0.1-2.7,0.3-4,0.4
		c-0.9,0-1.4-0.2-1.5-0.8c-0.1-0.7,0.3-1.2,1.4-1.3c1.1-0.2,2.4-0.3,4-0.4c-0.1-1.4-0.2-2.8-0.4-4.2c0-0.9,0.3-1.4,0.9-1.5
		c0.7-0.1,1.1,0.3,1.3,1.4c0,0.1,0.1,0.6,0.1,1.4c0.1,1,0.2,2,0.3,2.9c2.1,0,3.4,0,3.8,0.1C12.9,235,13.4,235.4,13.5,235.9z"/>
	<path class="st1" d="M24.4,229.4c0.6-0.1,1,0.3,1.1,1.1c0,0.2,0,0.7-0.1,1.5c-0.1,1.2-0.2,2.1-0.2,2.8c2.4,0,3.9,0,4.2,0.1
		c0.9,0.1,1.4,0.5,1.4,1c0.1,0.7-0.4,1.1-1.2,1.2c0,0-0.5,0-1.4,0c-1,0-2.1,0-3.1,0c0,1.4,0.1,2.8,0.2,4.2c0,0.9-0.3,1.4-0.9,1.5
		c-0.7,0.1-1.1-0.4-1.2-1.5c-0.1-1.2-0.1-2.5-0.1-4.2c-1.3,0-2.7,0.1-4,0.1c-0.9-0.1-1.3-0.4-1.4-1c-0.1-0.7,0.4-1.2,1.4-1.3
		c0.1,0,0.6,0,1.3-0.1c1,0,1.9-0.1,2.7-0.2c0.1-2.2,0.2-3.5,0.3-4C23.6,229.9,23.9,229.5,24.4,229.4z"/>
	<path class="st1" d="M47.9,235.9c0.1,0.7-0.2,1.1-1,1.2c-0.2,0-0.6,0-1.4,0c-1.1,0-2-0.1-2.7,0c0.2,2.6,0.2,4,0.2,4.4
		c0,0.9-0.4,1.5-0.9,1.5c-0.7,0.1-1.1-0.3-1.2-1.2c0,0,0-0.5-0.1-1.5c0-1.1-0.1-2.2-0.2-3.2c-1.3,0.1-2.7,0.3-4,0.4
		c-0.9,0-1.4-0.2-1.5-0.8c-0.1-0.7,0.3-1.2,1.4-1.3c1.1-0.2,2.4-0.3,4-0.4c-0.1-1.4-0.3-2.8-0.4-4.2c0-0.9,0.3-1.4,0.9-1.5
		c0.7-0.1,1.1,0.3,1.3,1.4c0,0.1,0.1,0.6,0.1,1.4c0.1,1,0.2,2,0.3,2.9c2.1,0,3.4,0,3.8,0.1C47.4,235,47.8,235.4,47.9,235.9z"/>
	<path class="st1" d="M65,237.3c0,0.7-0.4,1-1.2,0.9c-0.2,0-0.6-0.1-1.4-0.3c-1.1-0.3-1.9-0.5-2.6-0.6c-0.4,2.5-0.6,4-0.7,4.3
		c-0.2,0.9-0.6,1.3-1.2,1.3c-0.7,0-1-0.5-0.9-1.5c0,0,0.1-0.5,0.2-1.5c0.2-1.1,0.3-2.1,0.5-3.2c-1.3-0.2-2.7-0.3-4-0.5
		c-0.9-0.2-1.3-0.5-1.3-1.1c0-0.7,0.6-1.1,1.6-1c1.1,0.1,2.4,0.2,4,0.5c0.2-1.4,0.3-2.8,0.5-4.2c0.2-0.9,0.6-1.3,1.1-1.3
		c0.7,0,1,0.6,1,1.6c0,0.1-0.1,0.6-0.1,1.4c-0.1,1-0.2,2-0.3,2.9c2.1,0.4,3.3,0.7,3.7,0.9C64.7,236.3,65,236.8,65,237.3z"/>
</g>
<g>
	<path class="st1" d="M28,428.7l-0.9,0.1l0.7,5.6c0,0.1,0,0.1,0,0.2c0,0.3-0.1,0.6-0.3,0.8c-0.2,0.2-0.4,0.3-0.7,0.4
		c-0.3,0-0.6,0-0.8-0.2c-0.2-0.2-0.4-0.5-0.4-0.8l-0.6-5.5l-0.9,0.1c-0.3,0-0.6,0-0.8-0.3c-0.2-0.2-0.3-0.4-0.3-0.7
		c0-0.3,0-0.6,0.2-0.8c0.2-0.2,0.4-0.4,0.7-0.4l4.1-0.5c0.3,0,0.6,0,0.8,0.2c0.2,0.2,0.3,0.4,0.4,0.7c0,0.3,0,0.5-0.2,0.8
		C28.6,428.5,28.3,428.7,28,428.7z"/>
	<path class="st1" d="M32.1,428.9c0.3-0.1,0.7-0.1,1.2,0c0.6,0.1,1.1,0.4,1.4,0.9c0.4,0.4,0.5,0.9,0.5,1.5c0,0.2,0,0.4-0.1,0.7
		l-0.7,3.2c-0.1,0.3-0.2,0.5-0.4,0.7c-0.2,0.2-0.4,0.3-0.7,0.3c-0.1,0-0.2,0-0.3,0c-0.3-0.1-0.5-0.2-0.6-0.4
		c-0.1-0.2-0.2-0.4-0.2-0.7c0-0.1,0-0.2,0-0.3l0.6-2.9c0-0.1,0-0.2,0-0.3c0-0.2-0.1-0.4-0.2-0.6c-0.2-0.1-0.3-0.2-0.6-0.2
		c-0.4,0-0.6,0.2-0.7,0.7l-0.6,2.9c-0.1,0.3-0.2,0.5-0.4,0.7c-0.2,0.2-0.4,0.3-0.7,0.3c-0.1,0-0.2,0-0.3,0c-0.3-0.1-0.5-0.2-0.6-0.4
		c-0.1-0.2-0.2-0.4-0.2-0.7c0-0.1,0-0.2,0-0.3l1.6-7c0.1-0.3,0.2-0.5,0.4-0.7c0.2-0.2,0.4-0.3,0.7-0.3c0.1,0,0.2,0,0.3,0
		c0.3,0.1,0.5,0.2,0.6,0.4c0.1,0.2,0.2,0.4,0.2,0.7c0,0.1,0,0.2,0,0.3L32.1,428.9z"/>
	<path class="st1" d="M42.1,435.2c-0.1,0-0.2,0-0.3,0c-0.3,0-0.5-0.1-0.7-0.3c-0.3,0.5-0.7,0.8-1.3,0.9c-0.2,0.1-0.4,0.1-0.6,0.1
		c-0.7,0-1.3-0.3-1.9-0.8c-0.5-0.5-0.9-1.2-1.1-2.1c-0.1-0.3-0.1-0.6-0.1-0.9c0-0.8,0.2-1.5,0.6-2.1c0.4-0.6,0.9-1,1.6-1.1
		c0.2,0,0.4-0.1,0.5-0.1c0.3,0,0.7,0.1,1,0.2c0.1-0.3,0.4-0.6,0.7-0.7c0.1,0,0.2,0,0.3,0c0.5,0,0.8,0.4,1,1.1l0.9,4.1
		c0.1,0.2,0.1,0.5,0.1,0.6C42.9,434.7,42.6,435,42.1,435.2z M38.3,432c0,0.2,0,0.3,0,0.5c0.1,0.3,0.2,0.6,0.4,0.8
		c0.2,0.2,0.4,0.3,0.7,0.3c0.3,0,0.5-0.1,0.7-0.4c0.1-0.2,0.2-0.5,0.2-0.8c0-0.1,0-0.3-0.1-0.5c-0.1-0.3-0.2-0.6-0.4-0.9
		c-0.2-0.2-0.4-0.3-0.7-0.3c-0.3,0-0.5,0.1-0.7,0.3C38.4,431.4,38.3,431.7,38.3,432z"/>
	<path class="st1" d="M48,436.1c-0.3-0.1-0.5-0.2-0.6-0.4c-0.1-0.2-0.2-0.4-0.2-0.7c0-0.1,0-0.2,0-0.3l0.6-2.9c0-0.1,0-0.2,0-0.3
		c0-0.2-0.1-0.4-0.2-0.6c-0.2-0.1-0.3-0.2-0.6-0.2c-0.4,0-0.6,0.2-0.7,0.7l-0.6,2.9c-0.1,0.3-0.2,0.5-0.4,0.7
		c-0.2,0.2-0.4,0.3-0.7,0.3c-0.1,0-0.2,0-0.3,0c-0.3-0.1-0.5-0.2-0.6-0.4c-0.1-0.2-0.2-0.4-0.2-0.7c0-0.1,0-0.2,0-0.3l1-4.4
		c0.1-0.3,0.2-0.5,0.4-0.7c0.2-0.2,0.4-0.3,0.7-0.3c0.5,0,0.8,0.2,1,0.6c0.2-0.1,0.5-0.2,0.8-0.2c0.2,0,0.4,0,0.7,0.1
		c0.6,0.1,1.1,0.4,1.4,0.9c0.4,0.4,0.5,0.9,0.5,1.5c0,0.2,0,0.4-0.1,0.7l-0.7,3.2c-0.1,0.3-0.2,0.5-0.4,0.7
		c-0.2,0.2-0.4,0.3-0.7,0.3C48.2,436.1,48.1,436.1,48,436.1z"/>
	<path class="st1" d="M54.1,433.3c0.1,0.3,0.3,0.7,0.5,1.2c0.1,0.2,0.1,0.3,0.1,0.5c0,0.5-0.2,0.9-0.7,1.1c-0.1,0-0.2,0.1-0.4,0.1
		c-0.5,0-0.9-0.3-1.1-0.9l-2.2-6.8c-0.1-0.2-0.1-0.3-0.1-0.5c0-0.5,0.2-0.9,0.7-1.1c0.1,0,0.2-0.1,0.4-0.1c0.5,0,0.9,0.3,1,0.9
		l1,3.1l0.8-1.7c0.3-0.5,0.6-0.8,1-0.8c0.3,0,0.5,0.1,0.7,0.3c0.2,0.2,0.3,0.5,0.3,0.8c0,0.2-0.1,0.4-0.2,0.6l-0.8,1.5l2.3,1.4
		c0.4,0.2,0.5,0.5,0.5,1c0,0.5-0.2,0.9-0.7,1c-0.1,0-0.2,0-0.3,0c-0.2,0-0.5-0.1-0.8-0.3L54.1,433.3z"/>
	<path class="st1" d="M61.4,435.7c-0.2,0.1-0.5,0.1-0.8,0.1c-0.5,0-0.9-0.1-1.3-0.2c-0.5-0.2-0.8-0.5-0.8-1c0-0.2,0.1-0.4,0.2-0.6
		c0.1-0.2,0.3-0.4,0.6-0.4c0.1,0,0.2,0,0.3,0c0.1,0,0.4,0,0.6,0.1c0.3,0.1,0.5,0.1,0.6,0.1c0.1,0,0.2,0,0.2,0
		c0.2-0.1,0.3-0.1,0.3-0.3c0-0.1-0.3-0.1-0.8-0.2c-0.6-0.1-1.1-0.2-1.5-0.4c-0.6-0.3-0.9-0.7-1-1.3c0-0.2-0.1-0.4-0.1-0.5
		c0-0.7,0.3-1.3,0.9-1.7c0.5-0.4,1.1-0.6,1.8-0.6c0.5,0,0.9,0.1,1.2,0.3c0.4,0.2,0.7,0.5,0.7,1c0,0.3-0.1,0.5-0.3,0.7
		c-0.2,0.2-0.4,0.3-0.6,0.3c-0.1,0-0.3,0-0.6-0.1c-0.3-0.1-0.5-0.1-0.6-0.1c-0.2,0-0.3,0-0.4,0.1c-0.1,0-0.1,0.1-0.1,0.2
		c0,0.1,0.3,0.1,0.8,0.2c0.6,0.1,1.1,0.2,1.5,0.4c0.6,0.3,0.9,0.7,1,1.3c0,0.2,0.1,0.3,0.1,0.5c0,0.6-0.2,1-0.6,1.5
		C62.5,435.3,62,435.6,61.4,435.7z"/>
</g>
<path class="st1" d="M37,28.7c0,0.4-0.1,0.8-0.1,1.3c0,0.1-0.1,0.4-0.1,0.7c-0.3,0-0.6,0-1,0.1c-0.6,0.1-1.3,0.8-1.1,1.5
	c0.2,0.7,1.1,0.8,1.7,0.7C36.1,33,36.6,33,36.6,33c0.3,0,0.6,0,0.8,0c0.7-0.1,1.3-0.4,1.7-1c0.3-0.5,0.4-1,0.5-1.5
	c0.1-0.7,0.2-1.3,0.2-2C40,27,37.2,27.3,37,28.7z"/>
<path class="st1" d="M26.6,32c-0.1-0.7-0.5-1.3-0.9-1.9c-0.1-0.2-0.3-0.4-0.4-0.7l0-0.3l0-0.1c0,0-0.1,0.1-0.2,0.1l0.2-0.1l0.1-0.1
	c0.4-0.4,0.7-0.9,0.3-1.4c-0.4-0.6-1.4-0.6-1.9-0.3c-1,0.6-1.4,1.6-1.2,2.8c0.2,1.1,1.1,1.7,1.3,2.8C24.2,34.2,26.9,33.4,26.6,32z"
	/>
<path class="st1" d="M18.2,30.6c-0.3-0.7-1-0.9-1.7-0.7c-0.5,0.1-1.4,0.8-1.1,1.5c0.1,0.3,0.6,1.1,0.4,1.5c-0.1,0.1-0.3,0.2-0.4,0.3
	c-0.3,0.2-0.5,0.5-0.7,0.8c-0.9,1.6,1.7,2.2,2.3,1c0.2-0.3,0.4-0.4,0.7-0.6c0.3-0.3,0.6-0.7,0.8-1.2C18.9,32.3,18.6,31.4,18.2,30.6z
	"/>
<path class="st1" d="M8.5,30.4c-0.4-0.4-0.9-0.7-1.1-1.3c-0.1-0.2-0.1-0.4,0-0.6l0.2,0C8.2,28.4,8.9,28,9,27.2c0-0.7-0.7-1.1-1.3-1
	c-1.4,0.2-2.9,0.9-3.1,2.6c-0.2,1.5,0.9,2.6,1.9,3.4C7.5,33.1,9.8,31.5,8.5,30.4z"/>
<path class="st1" d="M50.9,26.1c-1.6-0.2-2.9,0.5-4.2,1.4c-1,0.7-1.8,2.2-0.5,3.1c0.6,0.4,1.4,0.3,2-0.2c0.4-0.3,0.6-1,0.3-1.4
	c0.1-0.1,0.3-0.2,0.4-0.3c0.3-0.2,0.7-0.5,1.1-0.4c0.7,0.1,1.5-0.3,1.8-0.9C52,26.8,51.5,26.2,50.9,26.1z"/>
<path class="st1" d="M62.6,30.4c-0.4-0.4-0.9-0.7-1.1-1.3c-0.1-0.2-0.1-0.4,0-0.6l0.2,0c0.6-0.1,1.4-0.5,1.5-1.3
	c0-0.7-0.7-1.1-1.3-1c-1.4,0.2-2.9,0.9-3.1,2.6c-0.2,1.5,0.9,2.6,1.9,3.4C61.6,33.1,63.9,31.5,62.6,30.4z"/>
</svg>
